<svg width="11" height="22" viewBox="0 0 11 22" fill="none" xmlns="http://www.w3.org/2000/svg">
<path d="M10.2607 0.181818H11.2607V-0.818182H10.2607V0.181818ZM10.2607 22V23H11.2607V22H10.2607ZM5.64773 22H4.64773V23H5.64773V22ZM5.64773 4.56037H6.64773V3.56037H5.64773V4.56037ZM5.51989 4.56037V3.56037H5.23236L4.98875 3.71308L5.51989 4.56037ZM0.523438 7.69247H-0.476562V9.49957L1.05457 8.53976L0.523438 7.69247ZM0.523438 3.60156L-0.0114957 2.75667L-0.476562 3.05112V3.60156H0.523438ZM5.92472 0.181818V-0.818182H5.63476L5.38978 -0.663077L5.92472 0.181818ZM9.26065 0.181818V22H11.2607V0.181818H9.26065ZM10.2607 21H5.64773V23H10.2607V21ZM6.64773 22V4.56037H4.64773V22H6.64773ZM5.64773 3.56037H5.51989V5.56037H5.64773V3.56037ZM4.98875 3.71308L-0.00769776 6.84518L1.05457 8.53976L6.05102 5.40765L4.98875 3.71308ZM1.52344 7.69247V3.60156H-0.476562V7.69247H1.52344ZM1.05837 4.44646L6.45965 1.02671L5.38978 -0.663077L-0.0114957 2.75667L1.05837 4.44646ZM5.92472 1.18182H10.2607V-0.818182H5.92472V1.18182Z" fill="#B5B5B5"/>
</svg>
