<svg width="18" height="24" viewBox="0 0 18 24" fill="none" xmlns="http://www.w3.org/2000/svg">
<path d="M4.58239 22.478L4.17332 23.3905L4.17965 23.3933L4.58239 22.478ZM1.6527 20.1982L0.844956 20.7877L0.849874 20.7944L1.6527 20.1982ZM0.555398 16.8317V15.8317H-0.461502L-0.444462 16.8484L0.555398 16.8317ZM5.20028 16.8317L6.19886 16.7784L6.14837 15.8317H5.20028V16.8317ZM5.7223 18.2379L4.93742 18.8576L4.94342 18.8652L4.94958 18.8727L5.7223 18.2379ZM7.02202 19.1648L6.64433 20.0907H6.64433L7.02202 19.1648ZM10.7081 19.1222L10.2898 18.2139L10.7081 19.1222ZM11.9759 18.0888L12.7976 18.6587L12.7976 18.6587L11.9759 18.0888ZM11.9439 15.0206L11.1259 15.5958L11.131 15.6031L11.1363 15.6103L11.9439 15.0206ZM10.5589 13.9553L10.165 14.8744L10.169 14.8761L10.5589 13.9553ZM6.39347 13.5717H5.39347V14.5717H6.39347V13.5717ZM6.39347 10.1839V9.18395H5.39347V10.1839H6.39347ZM10.2713 9.82173L9.86294 8.9089L9.85842 8.91095L10.2713 9.82173ZM11.5284 8.82031L12.3477 9.39379L12.3521 9.38741L11.5284 8.82031ZM11.5817 5.86932L10.728 6.39018L10.7332 6.39871L10.7386 6.40713L11.5817 5.86932ZM10.495 4.8892L10.0423 5.78089L10.0478 5.78363L10.495 4.8892ZM7.16051 4.87855L7.55141 5.79906L7.56199 5.79442L7.16051 4.87855ZM5.91406 5.8267L6.71075 6.43109L6.71075 6.43109L5.91406 5.8267ZM5.41335 7.27557V8.27557H6.37563L6.41261 7.314L5.41335 7.27557ZM0.992188 7.27557L-0.00766891 7.25862L-0.0249053 8.27557H0.992188V7.27557ZM2.06818 3.9517L2.87744 4.53916L2.87744 4.53916L2.06818 3.9517ZM4.88068 1.70383L5.29696 2.61308L5.2994 2.61195L4.88068 1.70383ZM12.8494 1.70383L13.2853 0.803818L13.2853 0.803818L12.8494 1.70383ZM15.4808 3.91974L14.6507 4.47739L14.6557 4.48465L15.4808 3.91974ZM16.4183 7.03054L15.4183 7.02437L15.4183 7.03635L16.4183 7.03054ZM15.2784 10.0881L14.5495 9.40349L14.5463 9.40689L15.2784 10.0881ZM12.3061 11.6435L12.1287 10.6593L11.3061 10.8076V11.6435H12.3061ZM12.3061 11.8139H11.3061V12.6938L12.1788 12.8058L12.3061 11.8139ZM15.9709 13.4865L15.2356 14.1643L15.2412 14.1703L15.9709 13.4865ZM17.228 16.8743L16.2279 16.8691L16.228 16.88L17.228 16.8743ZM16.152 20.1875L15.352 19.5875L15.3492 19.5913L16.152 20.1875ZM13.1797 22.4673L12.7783 21.5514L13.1797 22.4673ZM8.8331 22.2983C7.35732 22.2983 6.0812 22.0449 4.98513 21.5627L4.17965 23.3933C5.56937 24.0048 7.12705 24.2983 8.8331 24.2983V22.2983ZM4.99144 21.5655C3.89184 21.0725 3.05853 20.4139 2.45552 19.6019L0.849874 20.7944C1.68153 21.9142 2.80134 22.7755 4.17333 23.3905L4.99144 21.5655ZM2.46041 19.6086C1.87872 18.8117 1.57331 17.8922 1.55526 16.8149L-0.444462 16.8484C-0.419903 18.3138 0.00622129 19.6386 0.844984 20.7877L2.46041 19.6086ZM0.555398 17.8317H5.20028V15.8317H0.555398V17.8317ZM4.2017 16.8849C4.24072 17.6164 4.48519 18.2847 4.93742 18.8576L6.50718 17.6183C6.32021 17.3814 6.21667 17.1123 6.19886 16.7784L4.2017 16.8849ZM4.94958 18.8727C5.39504 19.415 5.9714 19.8162 6.64433 20.0907L7.3997 18.2388C6.99309 18.073 6.70297 17.8563 6.49503 17.6032L4.94958 18.8727ZM6.64433 20.0907C7.32136 20.3669 8.05968 20.495 8.84375 20.495V18.495C8.27839 18.495 7.80222 18.403 7.3997 18.2388L6.64433 20.0907ZM8.84375 20.495C9.66514 20.495 10.4336 20.3495 11.1264 20.0305L10.2898 18.2139C9.90304 18.392 9.42861 18.495 8.84375 18.495V20.495ZM11.1264 20.0305C11.8103 19.7155 12.3795 19.2614 12.7976 18.6587L11.1541 17.5189C10.9614 17.7968 10.6854 18.0316 10.2898 18.2139L11.1264 20.0305ZM12.7976 18.6587C13.2277 18.0385 13.4339 17.3285 13.4339 16.5653H11.4339C11.4339 16.9527 11.3348 17.2584 11.1541 17.5189L12.7976 18.6587ZM13.4339 16.5653C13.4339 15.7825 13.2099 15.0587 12.7515 14.4309L11.1363 15.6103C11.3313 15.8774 11.4339 16.1834 11.4339 16.5653H13.4339ZM12.7619 14.4454C12.3167 13.8122 11.6934 13.3498 10.9489 13.0344L10.169 14.8761C10.6318 15.0721 10.9319 15.3199 11.1259 15.5958L12.7619 14.4454ZM10.9529 13.0361C10.2031 12.7148 9.35245 12.5717 8.42827 12.5717V14.5717C9.15181 14.5717 9.72157 14.6843 10.165 14.8744L10.9529 13.0361ZM8.42827 12.5717H6.39347V14.5717H8.42827V12.5717ZM7.39347 13.5717V10.1839H5.39347V13.5717H7.39347ZM6.39347 11.1839H8.42827V9.18395H6.39347V11.1839ZM8.42827 11.1839C9.24001 11.1839 9.99953 11.0429 10.6842 10.7325L9.85842 8.91095C9.47774 9.08352 9.00857 9.18395 8.42827 9.18395V11.1839ZM10.6797 10.7346C11.3615 10.4295 11.932 9.98752 12.3476 9.39377L10.7092 8.24685C10.5282 8.50537 10.2606 8.73099 9.86294 8.90891L10.6797 10.7346ZM12.3521 9.38741C12.776 8.77172 12.9759 8.06548 12.9759 7.30753H10.9759C10.9759 7.70015 10.8774 8.00243 10.7048 8.25321L12.3521 9.38741ZM12.9759 7.30753C12.9759 6.59353 12.8019 5.92277 12.4247 5.3315L10.7386 6.40713C10.887 6.63973 10.9759 6.92777 10.9759 7.30753H12.9759ZM12.4353 5.34845C12.0752 4.75829 11.567 4.30715 10.9422 3.99478L10.0478 5.78363C10.3606 5.94001 10.5768 6.14228 10.728 6.39018L12.4353 5.34845ZM10.9477 3.99754C10.3211 3.67943 9.62072 3.53764 8.87571 3.53764V5.53764C9.3665 5.53764 9.74562 5.63023 10.0423 5.78087L10.9477 3.99754ZM8.87571 3.53764C8.12698 3.53764 7.41669 3.6744 6.75904 3.96268L7.56199 5.79442C7.94127 5.62816 8.37444 5.53764 8.87571 5.53764V3.53764ZM6.76964 3.95811C6.10542 4.24017 5.54456 4.6592 5.11737 5.22232L6.71075 6.43109C6.90856 6.17034 7.17867 5.95727 7.55138 5.799L6.76964 3.95811ZM5.11737 5.22232C4.67179 5.80968 4.44268 6.4938 4.41409 7.23713L6.41261 7.314C6.42664 6.94938 6.53134 6.66759 6.71075 6.43109L5.11737 5.22232ZM5.41335 6.27557H0.992188V8.27557H5.41335V6.27557ZM1.99204 7.29251C2.0101 6.22736 2.30956 5.32143 2.87744 4.53916L1.25893 3.36425C0.434754 4.49959 0.0168914 5.80957 -0.00766891 7.25862L1.99204 7.29251ZM2.87744 4.53916C3.46297 3.73255 4.25932 3.08814 5.29696 2.61307L4.4644 0.794597C3.14409 1.39908 2.06544 2.25324 1.25893 3.36425L2.87744 4.53916ZM5.2994 2.61195C6.33676 2.13365 7.52961 1.88352 8.89702 1.88352V-0.116478C7.28148 -0.116478 5.79676 0.180271 4.46197 0.795716L5.2994 2.61195ZM8.89702 1.88352C10.2815 1.88352 11.4447 2.13464 12.4136 2.60385L13.2853 0.803818C11.9956 0.179275 10.5238 -0.116478 8.89702 -0.116478V1.88352ZM12.4136 2.60385C13.4029 3.08296 14.1359 3.71098 14.6507 4.47736L16.3109 3.36212C15.5757 2.26771 14.5545 1.41846 13.2853 0.803818L12.4136 2.60385ZM14.6557 4.48465C15.1693 5.23485 15.4242 6.07139 15.4183 7.02437L17.4183 7.03671C17.4266 5.68856 17.0566 4.45123 16.306 3.35483L14.6557 4.48465ZM15.4183 7.03635C15.4241 8.02687 15.1244 8.79127 14.5495 9.40349L16.0074 10.7726C16.9665 9.75135 17.4268 8.47739 17.4183 7.02472L15.4183 7.03635ZM14.5463 9.40689C13.9502 10.0476 13.1627 10.473 12.1287 10.6593L12.4835 12.6276C13.8927 12.3736 15.0867 11.7621 16.0105 10.7692L14.5463 9.40689ZM11.3061 11.6435V11.8139H13.3061V11.6435H11.3061ZM12.1788 12.8058C13.6237 12.9912 14.6006 13.4755 15.2356 14.1643L16.7061 12.8087C15.665 11.6793 14.1987 11.0486 12.4334 10.8221L12.1788 12.8058ZM15.2412 14.1703C15.8937 14.8667 16.2339 15.7411 16.228 16.8691L18.228 16.8795C18.2363 15.2944 17.7384 13.9103 16.7006 12.8028L15.2412 14.1703ZM16.228 16.88C16.2339 17.9115 15.9413 18.8017 15.352 19.5875L16.952 20.7875C17.8115 19.6415 18.2363 18.3229 18.228 16.8686L16.228 16.88ZM15.3492 19.5913C14.75 20.3981 13.907 21.0568 12.7783 21.5514L13.581 23.3833C14.9808 22.7699 16.1193 21.9088 16.9548 20.7837L15.3492 19.5913ZM12.7783 21.5514C11.6617 22.0407 10.3534 22.2983 8.8331 22.2983V24.2983C10.5798 24.2983 12.1693 24.0019 13.581 23.3833L12.7783 21.5514Z" fill="#B5B5B5"/>
</svg>
