<svg width="19" height="22" viewBox="0 0 19 22" fill="none" xmlns="http://www.w3.org/2000/svg">
<path d="M0.43821 18.1648H-0.56179V19.1648H0.43821V18.1648ZM0.43821 14.532L-0.40607 13.9961L-0.56179 14.2414V14.532H0.43821ZM9.54688 0.181818V-0.818182H8.99718L8.70259 -0.354084L9.54688 0.181818ZM12.679 0.181818H13.679V-0.818182H12.679V0.181818ZM12.679 5.21023V6.21023H13.679V5.21023H12.679ZM10.8253 5.21023V4.21023H10.2743L9.97991 4.67605L10.8253 5.21023ZM5.0831 14.2976L4.23773 13.7634L4.0831 14.0081V14.2976H5.0831ZM5.0831 14.468H4.0831V15.468H5.0831V14.468ZM18.027 14.468H19.027V13.468H18.027V14.468ZM18.027 18.1648V19.1648H19.027V18.1648H18.027ZM10.9105 22H9.91051V23H10.9105V22ZM10.9105 17.0568L9.91191 17.0039L9.91051 17.0303V17.0568H10.9105ZM10.9957 15.4482L11.9943 15.5011L11.9957 15.4746V15.4482H10.9957ZM10.9957 0.181818V-0.818182H9.99574V0.181818H10.9957ZM15.321 0.181818H16.321V-0.818182H15.321V0.181818ZM15.321 22V23H16.321V22H15.321ZM1.43821 18.1648V14.532H-0.56179V18.1648H1.43821ZM1.28249 15.0679L10.3912 0.717719L8.70259 -0.354084L-0.40607 13.9961L1.28249 15.0679ZM9.54688 1.18182H12.679V-0.818182H9.54688V1.18182ZM11.679 0.181818V5.21023H13.679V0.181818H11.679ZM12.679 4.21023H10.8253V6.21023H12.679V4.21023ZM9.97991 4.67605L4.23773 13.7634L5.92847 14.8318L11.6707 5.74441L9.97991 4.67605ZM4.0831 14.2976V14.468H6.0831V14.2976H4.0831ZM5.0831 15.468H18.027V13.468H5.0831V15.468ZM17.027 14.468V18.1648H19.027V14.468H17.027ZM18.027 17.1648H0.43821V19.1648H18.027V17.1648ZM11.9105 22V17.0568H9.91051V22H11.9105ZM11.9091 17.1097L11.9943 15.5011L9.99714 15.3952L9.91191 17.0039L11.9091 17.1097ZM11.9957 15.4482V0.181818H9.99574V15.4482H11.9957ZM10.9957 1.18182H15.321V-0.818182H10.9957V1.18182ZM14.321 0.181818V22H16.321V0.181818H14.321ZM15.321 21H10.9105V23H15.321V21Z" fill="#B5B5B5"/>
</svg>
