<svg width="30" height="30" viewBox="0 0 30 30" fill="none" xmlns="http://www.w3.org/2000/svg">
<g clip-path="url(#clip0_1019_15475)">
<path d="M26.6158 3.38695C22.6872 -0.542143 16.328 -0.542576 12.3986 3.38674C8.90827 6.87729 8.53466 12.3128 11.2607 16.2301L9.52313 17.9676C8.95574 17.6812 8.21858 17.7619 7.75659 18.2239C5.62526 20.3552 3.02048 22.96 0.88475 25.0957C0.296229 25.684 0.296229 26.6416 0.88475 27.2299L2.77268 29.118C3.36168 29.707 4.31706 29.7078 4.90682 29.118C4.98998 29.0349 10.8989 23.1259 11.7787 22.2462C12.228 21.7968 12.37 21.0978 12.0392 20.4752L13.7702 18.7443C17.6636 21.4642 23.0917 21.1284 26.6158 17.6039C30.5356 13.6844 30.5356 7.30649 26.6158 3.38695ZM8.38044 18.8477C8.59032 18.6382 8.93119 18.6254 9.17246 18.7865C9.26248 18.9411 9.05086 18.6771 11.1225 20.768C11.4329 21.0783 11.3421 21.4347 11.1548 21.6221L10.4639 22.3131L7.6896 19.5386L8.38044 18.8477ZM5.59775 27.1793L2.8233 24.4049L7.06574 20.1624L9.84003 22.9369L5.59775 27.1793ZM1.5086 26.606C1.26432 26.3615 1.26432 25.9641 1.5086 25.7196L2.19945 25.0287L4.97382 27.8031L4.28297 28.4942C4.04484 28.7319 3.63236 28.7296 3.39652 28.4942L1.5086 26.606ZM11.4667 19.7999L10.2027 18.5358L11.7986 16.9399C11.9887 17.167 12.1853 17.3906 12.3986 17.6039C12.6111 17.8164 12.834 18.0144 13.0615 18.2053L11.4667 19.7999ZM25.992 16.9801C24.2598 18.7122 21.957 19.6661 19.5074 19.6661C17.3667 19.6661 15.3382 18.9373 13.7045 17.5976L12.4173 16.3102C9.46144 12.7115 9.66216 7.37111 13.0225 4.01059C16.607 0.426525 22.4075 0.426305 25.992 4.01081C29.5675 7.58653 29.5675 13.4043 25.992 16.9801Z" fill="#248FEC"/>
<path d="M25.1231 4.88024C22.0194 1.77654 16.9964 1.77628 13.8925 4.88024C10.7963 7.97645 10.7963 13.0142 13.8925 16.1106C16.9962 19.2143 22.0191 19.2146 25.1231 16.1106C28.2193 13.0142 28.2193 7.97644 25.1231 4.88024ZM24.4992 15.4868C21.7404 18.2456 17.2752 18.2457 14.5163 15.4868C11.7641 12.7344 11.7641 8.25627 14.5163 5.50409C17.2752 2.74525 21.7403 2.74517 24.4992 5.50409C27.2514 8.25627 27.2514 12.7344 24.4992 15.4868Z" fill="#248FEC"/>
<path d="M20.9822 5.06253C20.7642 4.95547 20.4992 5.04508 20.3913 5.26308C20.2836 5.48152 20.3732 5.74605 20.5918 5.85398C21.1496 6.12907 21.6739 6.47804 22.1502 6.89122C22.3344 7.05077 22.6128 7.0312 22.7725 6.84705C22.9322 6.66287 22.9123 6.38433 22.7284 6.22471C22.195 5.76221 21.6075 5.37123 20.9822 5.06253ZM25.07 9.5568C24.8074 8.88663 24.4599 8.24878 24.0377 7.66091C23.8955 7.46294 23.6202 7.4177 23.422 7.56009C23.2243 7.70205 23.179 7.97778 23.3212 8.17575C23.7005 8.70396 24.0125 9.27697 24.2484 9.87863C24.3372 10.1051 24.5926 10.2177 24.8201 10.1285C25.0469 10.0396 25.1589 9.78364 25.07 9.5568Z" fill="#248FEC"/>
</g>
<defs>
<clipPath id="clip0_1019_15475">
<rect width="30" height="30" fill="white"/>
</clipPath>
</defs>
</svg>
