<svg width="30" height="30" viewBox="0 0 30 30" fill="none" xmlns="http://www.w3.org/2000/svg">
<path d="M24.8438 0C22.389 0 7.07303 0 5.15625 0C4.89738 0 4.6875 0.209883 4.6875 0.46875V29.5312C4.6875 29.7901 4.89738 30 5.15625 30H24.8438C25.1026 30 25.3125 29.7901 25.3125 29.5312V0.46875C25.3125 0.209883 25.1026 0 24.8438 0ZM18.75 0.9375V1.875H11.25V0.9375H18.75ZM22.5 22.5H18.2812C18.0224 22.5 17.8125 22.7099 17.8125 22.9688V27.1875H7.5V2.8125H10.3125V4.21875C10.3125 4.47762 10.5224 4.6875 10.7812 4.6875H19.2188C19.4776 4.6875 19.6875 4.47762 19.6875 4.21875V2.8125H22.5V22.5ZM21.8371 23.4375L18.75 26.5246V23.4375H21.8371ZM18.75 3.75H11.25V2.8125H18.75V3.75ZM24.375 29.0625H5.625V0.9375H10.3125V1.875H7.03125C6.77238 1.875 6.5625 2.08488 6.5625 2.34375V27.6562C6.5625 27.9151 6.77238 28.125 7.03125 28.125C18.9708 28.125 18.4014 28.1847 18.6005 27.9988C18.6151 27.9852 23.3051 23.2997 23.3409 23.253C23.4867 23.0619 23.4375 24.2919 23.4375 2.34375C23.4375 2.08488 23.2276 1.875 22.9688 1.875H19.6875V0.9375H24.375V29.0625Z" fill="#248FEC"/>
<path d="M9.20742 8.67867C9.29215 8.81982 9.44473 8.90625 9.60938 8.90625H11.0156C11.1803 8.90625 11.3329 8.81982 11.4176 8.67867L12.1207 7.5068C12.2098 7.35832 12.2098 7.17293 12.1207 7.02445L11.4176 5.85258C11.3329 5.71143 11.1803 5.625 11.0156 5.625H9.60938C9.44473 5.625 9.29215 5.71143 9.20742 5.85258L8.5043 7.02445C8.41523 7.17293 8.41523 7.35832 8.5043 7.5068L9.20742 8.67867ZM9.87475 6.5625H10.7502L11.1721 7.26562L10.7502 7.96875H9.87475L9.45287 7.26562L9.87475 6.5625ZM9.20742 12.8974C9.29215 13.0386 9.44473 13.125 9.60938 13.125H11.0156C11.1803 13.125 11.3329 13.0386 11.4176 12.8974L12.1207 11.7255C12.2098 11.5771 12.2098 11.3917 12.1207 11.2432L11.4176 10.0713C11.3329 9.93018 11.1803 9.84375 11.0156 9.84375H9.60938C9.44473 9.84375 9.29215 9.93018 9.20742 10.0713L8.5043 11.2432C8.41523 11.3917 8.41523 11.5771 8.5043 11.7255L9.20742 12.8974ZM9.87475 10.7812H10.7502L11.1721 11.4844L10.7502 12.1875H9.87475L9.45287 11.4844L9.87475 10.7812ZM9.20742 17.1162C9.29215 17.2573 9.44473 17.3438 9.60938 17.3438H11.0156C11.1803 17.3438 11.3329 17.2573 11.4176 17.1162L12.1207 15.9443C12.2098 15.7958 12.2098 15.6104 12.1207 15.462L11.4176 14.2901C11.3329 14.1489 11.1803 14.0625 11.0156 14.0625H9.60938C9.44473 14.0625 9.29215 14.1489 9.20742 14.2901L8.5043 15.462C8.41523 15.6104 8.41523 15.7958 8.5043 15.9443L9.20742 17.1162ZM9.87475 15H10.7502L11.1721 15.7031L10.7502 16.4062H9.87475L9.45287 15.7031L9.87475 15ZM9.20742 21.3349C9.29215 21.4761 9.44473 21.5625 9.60938 21.5625H11.0156C11.1803 21.5625 11.3329 21.4761 11.4176 21.3349L12.1207 20.163C12.2098 20.0146 12.2098 19.8292 12.1207 19.6807L11.4176 18.5088C11.3329 18.3677 11.1803 18.2812 11.0156 18.2812H9.60938C9.44473 18.2812 9.29215 18.3677 9.20742 18.5088L8.5043 19.6807C8.41523 19.8292 8.41523 20.0146 8.5043 20.163L9.20742 21.3349ZM9.87475 19.2188H10.7502L11.1721 19.9219L10.7502 20.625H9.87475L9.45287 19.9219L9.87475 19.2188ZM13.5938 5.625C13.3349 5.625 13.125 5.83488 13.125 6.09375C13.125 6.35262 13.3349 6.5625 13.5938 6.5625H21.0938C21.3526 6.5625 21.5625 6.35262 21.5625 6.09375C21.5625 5.83488 21.3526 5.625 21.0938 5.625H13.5938ZM21.0938 7.96875H15.4688C15.2099 7.96875 15 8.17863 15 8.4375C15 8.69637 15.2099 8.90625 15.4688 8.90625H21.0938C21.3526 8.90625 21.5625 8.69637 21.5625 8.4375C21.5625 8.17863 21.3526 7.96875 21.0938 7.96875ZM21.0938 9.84375H13.5938C13.3349 9.84375 13.125 10.0536 13.125 10.3125C13.125 10.5714 13.3349 10.7812 13.5938 10.7812H21.0938C21.3526 10.7812 21.5625 10.5714 21.5625 10.3125C21.5625 10.0536 21.3526 9.84375 21.0938 9.84375ZM21.0938 12.1875H15.4688C15.2099 12.1875 15 12.3974 15 12.6562C15 12.9151 15.2099 13.125 15.4688 13.125H21.0938C21.3526 13.125 21.5625 12.9151 21.5625 12.6562C21.5625 12.3974 21.3526 12.1875 21.0938 12.1875ZM21.0938 14.0625H13.5938C13.3349 14.0625 13.125 14.2724 13.125 14.5312C13.125 14.7901 13.3349 15 13.5938 15H21.0938C21.3526 15 21.5625 14.7901 21.5625 14.5312C21.5625 14.2724 21.3526 14.0625 21.0938 14.0625ZM21.0938 16.4062H15.4688C15.2099 16.4062 15 16.6161 15 16.875C15 17.1339 15.2099 17.3438 15.4688 17.3438H21.0938C21.3526 17.3438 21.5625 17.1339 21.5625 16.875C21.5625 16.6161 21.3526 16.4062 21.0938 16.4062ZM21.0938 18.2812H13.5938C13.3349 18.2812 13.125 18.4911 13.125 18.75C13.125 19.0089 13.3349 19.2188 13.5938 19.2188H21.0938C21.3526 19.2188 21.5625 19.0089 21.5625 18.75C21.5625 18.4911 21.3526 18.2812 21.0938 18.2812ZM21.0938 20.625H15.4688C15.2099 20.625 15 20.8349 15 21.0938C15 21.3526 15.2099 21.5625 15.4688 21.5625H21.0938C21.3526 21.5625 21.5625 21.3526 21.5625 21.0938C21.5625 20.8349 21.3526 20.625 21.0938 20.625ZM16.4062 22.5H8.90625C8.64738 22.5 8.4375 22.7099 8.4375 22.9688V25.7812C8.4375 26.0401 8.64738 26.25 8.90625 26.25H16.4062C16.6651 26.25 16.875 26.0401 16.875 25.7812V22.9688C16.875 22.7099 16.6651 22.5 16.4062 22.5ZM15.9375 25.3125H9.375V23.4375H15.9375V25.3125Z" fill="#248FEC"/>
</svg>
