<svg width="30" height="30" viewBox="0 0 30 30" fill="none" xmlns="http://www.w3.org/2000/svg">
<g clip-path="url(#clip0_1019_15509)">
<path d="M16.5949 0L16.5668 0.435938C16.5537 0.644063 16.4506 0.796875 16.2509 0.9375C16.0246 1.08541 15.7641 1.17258 15.4943 1.19062H13.0249C11.3815 1.19062 10.0474 2.53406 10.0474 4.18406V6.43031C10.0474 6.49313 10.0493 6.51 10.0493 6.45656C10.0493 6.42469 10.0474 6.42 10.0474 6.48563V7.46719C10.0457 7.49028 10.0457 7.51347 10.0474 7.53656V9.51562C10.0474 10.7531 10.5096 11.8725 11.2484 12.7481V13.5169L8.42276 10.6913C8.86526 9.31594 8.60651 7.80094 7.56964 6.76313C7.20881 6.40251 6.78035 6.11667 6.30882 5.922C5.83728 5.72734 5.33196 5.62768 4.82182 5.62875V5.62687C4.31182 5.62573 3.80661 5.72535 3.33521 5.92002C2.86382 6.11469 2.43553 6.40058 2.07495 6.76125C1.34777 7.49086 0.939453 8.47896 0.939453 9.50906C0.939453 10.5392 1.34777 11.5273 2.07495 12.2569C3.11182 13.2919 4.62682 13.5506 6.00026 13.1081L9.28526 16.3931L5.94213 18.3009C5.27682 18.6782 4.72334 19.225 4.338 19.8857C3.95266 20.5464 3.74922 21.2973 3.74838 22.0622V30.0019H26.2484V22.0622C26.2484 20.5088 25.4112 19.0716 24.0565 18.3009H24.0546L20.704 16.3884L24.0293 13.0603C25.3953 13.5 26.9018 13.2403 27.9312 12.2109C28.4341 11.7078 28.7883 11.0756 28.9547 10.3839C29.1211 9.69226 29.0933 8.96809 28.8743 8.29125C28.8497 8.21474 28.8058 8.14584 28.7469 8.09117C28.688 8.0365 28.616 7.9979 28.5379 7.97907C28.4598 7.96024 28.3781 7.96182 28.3007 7.98365C28.2234 8.00549 28.153 8.04684 28.0962 8.10375L25.9006 10.2994L24.5346 10.1475L24.3846 8.78156L26.5765 6.58969C26.6334 6.53293 26.6748 6.46249 26.6966 6.38514C26.7184 6.30779 26.72 6.22613 26.7012 6.14799C26.6824 6.06985 26.6438 5.99787 26.5891 5.93896C26.5344 5.88004 26.4655 5.83617 26.389 5.81156C25.7128 5.59272 24.9894 5.56482 24.2984 5.73094V5.73281C23.6066 5.89782 22.974 6.25081 22.4703 6.75281C21.4437 7.78219 21.1868 9.28688 21.6246 10.6509L18.7484 13.5281V12.8306C19.563 11.9182 20.0146 10.7387 20.0178 9.51562V6.48563C20.0178 6.43406 20.0159 6.43875 20.0159 6.46219C20.0159 6.48094 20.0178 6.49219 20.0178 6.43594V3.11438L20.0121 3.08531C19.9015 2.24344 19.6437 1.48406 19.1515 0.914063C18.6593 0.343125 17.9215 -0.0009375 17.0328 0.00375V0H16.5949ZM17.2034 1.00688C17.7378 1.04813 18.154 1.18969 18.4409 1.52156C18.7643 1.89656 18.9846 2.47594 19.0803 3.19312V6.43219C19.0803 6.38344 19.0784 6.39469 19.0784 6.45281C19.0785 6.46252 19.0792 6.47222 19.0803 6.48188V6.75094C18.8193 6.6035 18.5358 6.50023 18.2412 6.44531C17.5868 6.32531 16.9071 6.37781 16.2528 6.405C15.5984 6.43219 14.9721 6.43594 14.4584 6.29531C13.9446 6.15469 13.5378 5.90156 13.1984 5.31563C13.1549 5.24087 13.0917 5.17958 13.0156 5.13855C12.9394 5.09752 12.8535 5.07833 12.7671 5.08312C12.6685 5.0884 12.5741 5.12469 12.4973 5.18682C12.4206 5.24894 12.3654 5.33372 12.3396 5.42906C12.3518 5.385 12.2599 5.57719 12.1034 5.76187C11.9181 5.97599 11.7186 6.17738 11.5062 6.36469C11.3281 6.52219 11.1528 6.65062 10.9849 6.76781V6.48188C10.9849 6.53344 10.9859 6.51656 10.9868 6.45656C10.9868 6.38438 10.9849 6.38906 10.9849 6.43031V4.18406C10.9849 3.03375 11.8887 2.12812 13.0249 2.12812H15.5571C15.9828 2.1 16.4206 1.965 16.7909 1.70437C17.0046 1.55437 17.0721 1.25437 17.2034 1.00688ZM12.8524 6.31125C13.2556 6.73875 13.7121 7.06125 14.2118 7.19812C14.9074 7.38937 15.6237 7.37062 16.2931 7.3425C16.9624 7.31437 17.5887 7.27969 18.0724 7.36781C18.5262 7.45031 18.8328 7.60781 19.0803 7.98656V9.51187C19.0803 11.7825 17.2803 13.5919 15.0331 13.5919C12.7859 13.5919 10.9849 11.7825 10.9849 9.51187V7.87125C11.1068 7.815 11.2221 7.74469 11.3459 7.66688C11.6056 7.50281 11.8737 7.29281 12.1287 7.06688C12.3846 6.83906 12.6237 6.59719 12.8178 6.36844C12.8337 6.34969 12.8365 6.32812 12.8524 6.31125ZM4.8237 6.55875C5.57651 6.55875 6.32932 6.84937 6.90682 7.42687C7.32658 7.84629 7.60988 8.3827 7.71962 8.96585C7.82936 9.549 7.76041 10.1517 7.52182 10.695C7.48417 10.7812 7.47333 10.8768 7.49072 10.9692C7.50811 11.0617 7.55292 11.1468 7.61932 11.2134L11.2484 14.8425V15.2728L10.4609 15.7219C10.3975 15.7416 10.339 15.7745 10.2893 15.8184L10.1299 15.9103L6.52245 12.3047C6.45575 12.2377 6.37037 12.1925 6.27752 12.175C6.18467 12.1574 6.08868 12.1683 6.00213 12.2063C5.45957 12.4444 4.8578 12.5133 4.27544 12.4041C3.69307 12.2949 3.15718 12.0126 2.73776 11.5941H2.73588C2.4617 11.3207 2.2442 10.9959 2.09585 10.6383C1.9475 10.2806 1.87122 9.89725 1.8714 9.51008C1.87157 9.12291 1.94819 8.73958 2.09686 8.38209C2.24554 8.02461 2.46333 7.69999 2.73776 7.42687C3.01112 7.15189 3.33612 6.93363 3.6941 6.78465C4.05207 6.63567 4.43596 6.5589 4.8237 6.55875ZM25.174 6.66656L23.5615 8.27906C23.5115 8.32885 23.4734 8.38926 23.4501 8.45582C23.4267 8.52237 23.4186 8.59334 23.4265 8.66344L23.6449 10.6237C23.6568 10.7293 23.7042 10.8277 23.7793 10.9028C23.8544 10.9779 23.9528 11.0253 24.0584 11.0372L26.0215 11.2556C26.0912 11.2633 26.1618 11.2553 26.228 11.2321C26.2942 11.2089 26.3543 11.1711 26.404 11.1216L28.0165 9.50906C28.009 10.2609 27.8178 10.9987 27.2684 11.5481C26.8525 11.9644 26.3205 12.2453 25.7422 12.3541C25.1638 12.4628 24.5662 12.3943 24.0274 12.1575C23.9408 12.1197 23.8448 12.1089 23.7519 12.1266C23.6591 12.1444 23.5737 12.1898 23.5071 12.2569L19.8603 15.9066L18.7484 15.2728V14.8537L22.429 11.1731C22.496 11.1064 22.5412 11.0211 22.5587 10.9282C22.5763 10.8353 22.5654 10.7394 22.5274 10.6528C22.2911 10.1148 22.2226 9.51809 22.3308 8.94055C22.4391 8.36302 22.719 7.83156 23.134 7.41562C23.6843 6.86719 24.4212 6.675 25.174 6.66656ZM5.3412 7.17C5.30232 7.17084 5.26359 7.17651 5.22588 7.18687L3.35651 7.70906C3.277 7.73136 3.20424 7.77401 3.1455 7.83274C3.08677 7.89148 3.04412 7.96424 3.02182 8.04375L2.50151 9.91313C2.47944 9.99261 2.47847 10.076 2.4987 10.155C2.51894 10.2339 2.55967 10.3057 2.61682 10.3631L3.96495 11.7131C4.02254 11.7706 4.09463 11.8115 4.17396 11.8318C4.25329 11.852 4.33705 11.8509 4.41682 11.8284L6.2862 11.3072C6.34745 11.2906 6.40502 11.2618 6.45544 11.2227C6.50586 11.1835 6.54811 11.1348 6.57963 11.0794C6.59835 11.0452 6.61283 11.009 6.62276 10.9716L7.1412 9.10219C7.16327 9.0227 7.16424 8.93931 7.144 8.86035C7.12377 8.78138 7.08304 8.70961 7.02588 8.65219L5.6787 7.30219C5.63463 7.25863 5.58205 7.22457 5.52408 7.20202C5.4661 7.17948 5.40392 7.16891 5.3412 7.17094V7.17ZM5.1987 8.16281L6.16713 9.13312L5.79401 10.4775L4.44588 10.8525L3.47557 9.88219L3.85057 8.53781L5.1987 8.16281ZM12.1859 13.6266C13.0062 14.2076 13.9845 14.5243 14.9897 14.5341C15.995 14.544 16.9793 14.2467 17.8109 13.6819V14.5331C17.8109 14.8294 17.5906 15.1641 17.0862 15.4519C16.5809 15.7406 15.8318 15.9394 14.9984 15.9394C14.164 15.9394 13.4159 15.7406 12.9106 15.4519C12.4062 15.1641 12.1859 14.8294 12.1859 14.5331V13.6266ZM11.9749 15.9375C12.1184 16.0594 12.2768 16.1691 12.4456 16.2656C13.129 16.6556 14.0206 16.8769 14.9984 16.8769C15.9771 16.8769 16.8678 16.6556 17.5512 16.2656C17.7199 16.1691 17.8793 16.0594 18.0218 15.9375L18.7887 16.3753L17.2559 22.5019H12.6715L11.1481 16.41L11.9749 15.9375ZM19.6343 16.8581L21.2496 17.7797L19.6287 24.2634C19.6283 24.2678 19.628 24.2722 19.6278 24.2766C19.4946 24.8794 19.1056 25.3144 18.5853 25.3144C18.0462 25.3144 17.6759 24.9834 17.7396 24.4388L19.6343 16.8581ZM10.3015 16.8938L12.1878 24.4388C12.2515 24.9825 11.8812 25.3144 11.3421 25.3144C10.8218 25.3144 10.4328 24.8794 10.2996 24.2766C10.2991 24.2716 10.2985 24.2666 10.2978 24.2616L8.68713 17.8144L10.3015 16.8938ZM22.0971 18.2625L23.5915 19.1156C24.1131 19.4108 24.5471 19.8391 24.8491 20.3567C25.1512 20.8744 25.3105 21.4629 25.3109 22.0622V29.0644H22.4984V22.9706C22.4984 22.8463 22.449 22.7271 22.3611 22.6392C22.2732 22.5513 22.154 22.5019 22.0296 22.5019H21.0368L22.0971 18.2625ZM7.8387 18.2981L8.88964 22.5019H7.96713C7.84281 22.5019 7.72359 22.5513 7.63568 22.6392C7.54777 22.7271 7.49838 22.8463 7.49838 22.9706V29.0644H4.68588V22.0622C4.68588 20.8444 5.34026 19.7213 6.40526 19.1166H6.40713L7.8387 18.2981ZM11.1546 23.4375C11.0303 23.4375 10.9111 23.4869 10.8232 23.5748C10.7353 23.6627 10.6859 23.7819 10.6859 23.9062C10.6859 24.0306 10.7353 24.1498 10.8232 24.2377C10.9111 24.3256 11.0303 24.375 11.1546 24.375C11.279 24.375 11.3982 24.3256 11.4861 24.2377C11.574 24.1498 11.6234 24.0306 11.6234 23.9062C11.6234 23.7819 11.574 23.6627 11.4861 23.5748C11.3982 23.4869 11.279 23.4375 11.1546 23.4375ZM18.7718 23.4375C18.6475 23.4375 18.5283 23.4869 18.4404 23.5748C18.3525 23.6627 18.3031 23.7819 18.3031 23.9062C18.3031 24.0306 18.3525 24.1498 18.4404 24.2377C18.5283 24.3256 18.6475 24.375 18.7718 24.375C18.8961 24.375 19.0154 24.3256 19.1033 24.2377C19.1912 24.1498 19.2406 24.0306 19.2406 23.9062C19.2406 23.7819 19.1912 23.6627 19.1033 23.5748C19.0154 23.4869 18.8961 23.4375 18.7718 23.4375ZM8.43588 23.4394H9.12401L9.38463 24.4772C9.58713 25.3959 10.3043 26.25 11.3421 26.25C12.3584 26.25 13.2528 25.395 13.1196 24.3159C13.1177 24.297 13.1145 24.2782 13.1103 24.2597L12.9059 23.4394H17.0215L16.8171 24.2634C16.8129 24.2814 16.8098 24.2995 16.8078 24.3178C16.6746 25.3969 17.569 26.2519 18.5853 26.2519C19.6231 26.2519 20.3403 25.3969 20.5428 24.48L20.8024 23.4394H21.5609V29.0644H8.43588V23.4394Z" fill="#248FEC"/>
</g>
<defs>
<clipPath id="clip0_1019_15509">
<rect width="30" height="30" fill="white"/>
</clipPath>
</defs>
</svg>
