<svg width="30" height="30" viewBox="0 0 30 30" fill="none" xmlns="http://www.w3.org/2000/svg">
<path d="M14.5311 2.8125C14.4068 2.8125 14.2876 2.86189 14.1997 2.94979C14.1118 3.0377 14.0624 3.15693 14.0624 3.28125V4.70625C11.8271 4.79458 9.66374 5.52104 7.82816 6.79976C5.99257 8.07847 4.56144 9.85598 3.70395 11.9222C2.8174 14.0637 2.58558 16.42 3.03778 18.6932C3.48999 20.9664 4.60593 23.0546 6.24457 24.6938C7.88378 26.332 9.97182 27.4477 12.2448 27.8997C14.5179 28.3518 16.8739 28.1199 19.0152 27.2334C21.0814 26.3759 22.8589 24.9448 24.1376 23.1092C25.4163 21.2736 26.1428 19.1103 26.2311 16.875H27.6561C27.7805 16.875 27.8997 16.8256 27.9876 16.7377C28.0755 16.6498 28.1249 16.5306 28.1249 16.4062C28.1249 8.90438 22.033 2.8125 14.5311 2.8125ZM14.9999 3.79688C18.1834 3.91097 21.2056 5.2267 23.4581 7.47925C25.7107 9.73179 27.0264 12.754 27.1405 15.9375H25.8674C25.8134 15.928 25.7582 15.928 25.7043 15.9375H22.4043C22.2915 14.0105 21.4753 12.192 20.1103 10.827C18.7454 9.46212 16.9269 8.64584 14.9999 8.53313V5.22938C15.0079 5.1797 15.0079 5.12905 14.9999 5.07938V3.79688ZM14.0624 5.64188V8.90625C14.0624 9.03057 14.1118 9.1498 14.1997 9.23771C14.2876 9.32561 14.4068 9.375 14.5311 9.375C18.4199 9.375 21.5624 12.5175 21.5624 16.4062C21.5624 16.5306 21.6118 16.6498 21.6997 16.7377C21.7876 16.8256 21.9068 16.875 22.0311 16.875H25.2936C25.2044 18.9654 24.5085 20.9846 23.2908 22.6861C22.0731 24.3876 20.3864 25.6978 18.4365 26.4566C16.4867 27.2154 14.3581 27.3902 12.3106 26.9594C10.2631 26.5287 8.38527 25.5111 6.90645 24.0309C5.39851 22.5232 4.37166 20.602 3.9558 18.5105C3.53993 16.419 3.75375 14.2512 4.5702 12.2813C5.3559 10.3855 6.66661 8.75363 8.34817 7.57746C10.0297 6.40128 12.0122 5.72976 14.0624 5.64188ZM14.5311 11.25C13.1642 11.252 11.8539 11.7959 10.8873 12.7624C9.92075 13.729 9.37687 15.0393 9.37488 16.4062C9.37488 19.2488 11.6886 21.5625 14.5311 21.5625C17.3736 21.5625 19.6874 19.2488 19.6874 16.4062C19.6874 13.5637 17.3736 11.25 14.5311 11.25ZM14.5311 12.1875C16.8664 12.1875 18.7499 14.0709 18.7499 16.4062C18.7499 18.7416 16.8664 20.625 14.5311 20.625C13.9768 20.626 13.4278 20.5175 12.9155 20.3059C12.4032 20.0942 11.9378 19.7835 11.5458 19.3916C11.1539 18.9996 10.8432 18.5342 10.6315 18.0219C10.4198 17.5096 10.3114 16.9605 10.3124 16.4062C10.3124 14.0709 12.1958 12.1875 14.5311 12.1875ZM14.5311 13.125C13.6615 13.127 12.8281 13.4733 12.2131 14.0882C11.5982 14.7032 11.2519 15.5366 11.2499 16.4062C11.2499 18.2128 12.7246 19.6875 14.5311 19.6875C16.3377 19.6875 17.8124 18.2128 17.8124 16.4062C17.8124 14.5997 16.3377 13.125 14.5311 13.125ZM14.5311 14.0625C15.8314 14.0625 16.8749 15.1059 16.8749 16.4062C16.8749 17.7066 15.8314 18.75 14.5311 18.75C14.2231 18.751 13.9179 18.691 13.633 18.5736C13.3482 18.4562 13.0895 18.2836 12.8716 18.0657C12.6538 17.8479 12.4812 17.5891 12.3638 17.3043C12.2463 17.0195 12.1864 16.7143 12.1874 16.4062C12.1874 15.1059 13.2308 14.0625 14.5311 14.0625Z" fill="#248FEC"/>
</svg>
