<svg width="17" height="23" viewBox="0 0 17 23" fill="none" xmlns="http://www.w3.org/2000/svg">
<path d="M0.768466 23H-0.231534V24H0.768466V23ZM0.768466 19.6761L0.089058 18.9424L-0.231534 19.2392V19.6761H0.768466ZM8.5348 12.4851L9.21421 13.2188L9.2223 13.2114L9.23022 13.2037L8.5348 12.4851ZM10.1967 10.7592L9.4493 10.0948L9.44416 10.1007L10.1967 10.7592ZM11.2301 9.2571L12.1323 9.68856L12.1346 9.68352L11.2301 9.2571ZM11.1449 5.99716L10.2954 6.52485L10.2991 6.53066L11.1449 5.99716ZM9.9517 4.92116L9.49945 5.81312L9.50955 5.8181L9.9517 4.92116ZM5.33878 6.10369L6.22044 6.57557V6.57557L5.33878 6.10369ZM4.93395 7.90412V8.90412H5.93395V7.90412H4.93395ZM0.555398 7.90412H-0.444602V8.90412H0.555398V7.90412ZM1.52486 4.18608L2.37671 4.70986L1.52486 4.18608ZM4.24148 1.74645L3.79864 0.849844L3.79864 0.849844L4.24148 1.74645ZM12.3487 1.71449L11.9171 2.61655L11.9237 2.61968L12.3487 1.71449ZM15.0653 3.99432L14.2324 4.54761L14.2324 4.54761L15.0653 3.99432ZM15.5447 9.77912L14.6185 9.40207L14.6157 9.40915L15.5447 9.77912ZM13.8295 12.4531L14.5927 13.0993L14.595 13.0966L13.8295 12.4531ZM10.3459 15.9581L9.67286 15.2185L9.65918 15.2309L9.64598 15.2439L10.3459 15.9581ZM7.16051 19.0795L6.46061 18.3653L6.16051 18.6594V19.0795H7.16051ZM7.16051 19.2287H6.16051V20.2287H7.16051V19.2287ZM16.3224 19.2287H17.3224V18.2287H16.3224V19.2287ZM16.3224 23V24H17.3224V23H16.3224ZM1.76847 23V19.6761H-0.231534V23H1.76847ZM1.44787 20.4099L9.21421 13.2188L7.85539 11.7513L0.089058 18.9424L1.44787 20.4099ZM9.23022 13.2037C9.90419 12.5515 10.4786 11.9557 10.9493 11.4177L9.44416 10.1007C9.01998 10.5855 8.48643 11.1403 7.83938 11.7665L9.23022 13.2037ZM10.9441 11.4236C11.4456 10.8595 11.8486 10.2817 12.1322 9.68856L10.328 8.82565C10.1429 9.21264 9.85698 9.63626 9.44932 10.0949L10.9441 11.4236ZM12.1346 9.68352C12.4348 9.04676 12.5817 8.36411 12.5817 7.64844H10.5817C10.5817 8.08334 10.4942 8.47312 10.3256 8.83068L12.1346 9.68352ZM12.5817 7.64844C12.5817 6.85326 12.3988 6.11069 11.9907 5.46366L10.2991 6.53066C10.4733 6.80692 10.5817 7.16521 10.5817 7.64844H12.5817ZM11.9943 5.46948C11.6026 4.83889 11.0624 4.35378 10.3939 4.02422L9.50955 5.8181C9.84954 5.98571 10.1048 6.21793 10.2954 6.52484L11.9943 5.46948ZM10.4039 4.02926C9.74216 3.69371 9.01216 3.53764 8.23651 3.53764V5.53764C8.73926 5.53764 9.15273 5.63725 9.49948 5.81306L10.4039 4.02926ZM8.23651 3.53764C7.43231 3.53764 6.68018 3.70103 6.01226 4.06362L6.96644 5.82132C7.29283 5.64414 7.70548 5.53764 8.23651 5.53764V3.53764ZM6.01226 4.06362C5.34137 4.42781 4.81812 4.95731 4.45711 5.63182L6.22044 6.57557C6.39921 6.24155 6.64301 5.9969 6.96644 5.82132L6.01226 4.06362ZM4.45711 5.63181C4.09441 6.30951 3.93395 7.07883 3.93395 7.90412H5.93395C5.93395 7.33736 6.04338 6.9064 6.22044 6.57557L4.45711 5.63181ZM4.93395 6.90412H0.555398V8.90412H4.93395V6.90412ZM1.5554 7.90412C1.5554 6.63195 1.84166 5.58006 2.37671 4.70986L0.673002 3.6623C-0.0845547 4.89437 -0.444602 6.32117 -0.444602 7.90412H1.5554ZM2.37671 4.70986C2.91916 3.82764 3.67891 3.13962 4.68431 2.64305L3.79864 0.849844C2.4745 1.50384 1.42317 2.44224 0.673002 3.6623L2.37671 4.70986ZM4.68431 2.64305C5.68981 2.14644 6.87616 1.88352 8.26847 1.88352V-0.116478C6.621 -0.116478 5.1227 0.195892 3.79864 0.849844L4.68431 2.64305ZM8.26847 1.88352C9.71349 1.88352 10.9203 2.13953 11.9171 2.61653L12.7804 0.812448C11.4618 0.181495 9.94845 -0.116478 8.26847 -0.116478V1.88352ZM11.9237 2.61968C12.9402 3.09694 13.6974 3.74223 14.2324 4.54761L15.8983 3.44102C15.1407 2.30038 14.0868 1.42579 12.7737 0.809294L11.9237 2.61968ZM14.2324 4.54761C14.7614 5.34404 15.0348 6.26353 15.0348 7.33949H17.0348C17.0348 5.90125 16.6619 4.59062 15.8983 3.44102L14.2324 4.54761ZM15.0348 7.33949C15.0348 8.02746 14.8991 8.71296 14.6185 9.40208L16.4709 10.1562C16.8438 9.24016 17.0348 8.29924 17.0348 7.33949H15.0348ZM14.6157 9.40915C14.3498 10.0769 13.849 10.8758 13.0641 11.8097L14.595 13.0966C15.4578 12.0702 16.1005 11.0865 16.4738 10.1491L14.6157 9.40915ZM13.0664 11.8069C12.2818 12.7335 11.1557 13.8692 9.67286 15.2185L11.0189 16.6977C12.5332 15.3197 13.7295 14.1188 14.5927 13.0993L13.0664 11.8069ZM9.64598 15.2439L6.46061 18.3653L7.86042 19.7938L11.0458 16.6723L9.64598 15.2439ZM6.16051 19.0795V19.2287H8.16051V19.0795H6.16051ZM7.16051 20.2287H16.3224V18.2287H7.16051V20.2287ZM15.3224 19.2287V23H17.3224V19.2287H15.3224ZM16.3224 22H0.768466V24H16.3224V22Z" fill="#B5B5B5"/>
</svg>
