<svg width="17" height="23" viewBox="0 0 17 23" fill="none" xmlns="http://www.w3.org/2000/svg">
<path d="M4.71023 21.4673L4.28285 22.3714L4.28496 22.3724L4.71023 21.4673ZM1.91903 19.1768L2.73518 18.599L1.91903 19.1768ZM0.84304 15.8317V14.8317H-0.179814L-0.156705 15.8543L0.84304 15.8317ZM5.31747 15.8317L6.31575 15.773L6.26038 14.8317H5.31747V15.8317ZM6.38281 17.8878L7.00545 17.1053L6.38281 17.8878ZM10.6548 18.1967L11.1546 19.0629L11.158 19.0609L10.6548 18.1967ZM11.9652 16.8438L11.0885 16.3626L11.0865 16.3664L11.9652 16.8438ZM11.9545 12.8168L11.0778 13.2979L11.0824 13.306L11.9545 12.8168ZM10.6229 11.4531L10.1244 12.32L10.1244 12.32L10.6229 11.4531ZM8.6733 10.9524L8.683 9.95241H8.6733V10.9524ZM6.80895 11.3466L6.40983 10.4297L6.40585 10.4314L6.80895 11.3466ZM5.41335 12.4226L5.23694 13.4069L5.85044 13.5169L6.21936 13.0145L5.41335 12.4226ZM1.31179 11.6875L0.315799 11.598L0.23387 12.5102L1.13538 12.6718L1.31179 11.6875ZM2.34517 0.181818V-0.818182H1.43096L1.34918 0.0923629L2.34517 0.181818ZM15.6832 0.181818H16.6832V-0.818182H15.6832V0.181818ZM15.6832 3.95312V4.95312H16.6832V3.95312H15.6832ZM6.14844 3.95312V2.95312H5.24643L5.15373 3.85036L6.14844 3.95312ZM5.58381 9.41832L4.5891 9.31556L4.47517 10.4183H5.58381V9.41832ZM5.71165 9.41832V10.4183H6.22784L6.52683 9.99753L5.71165 9.41832ZM7.44815 8.07599L7.8651 8.98493L7.44815 8.07599ZM13.5632 8.47017L14.0777 7.61268L13.5632 8.47017ZM16.0028 11.0163L15.1276 11.5L15.129 11.5025L16.0028 11.0163ZM16.8871 14.7237L15.887 14.7186L15.8871 14.7286L16.8871 14.7237ZM15.8643 18.6442L15.0078 18.1281L15.0069 18.1297L15.8643 18.6442ZM12.9986 21.3288L13.4662 22.2127L13.4681 22.2118L12.9986 21.3288ZM8.73722 21.2983C7.3557 21.2983 6.16219 21.0447 5.1355 20.5623L4.28496 22.3724C5.61622 22.9979 7.10737 23.2983 8.73722 23.2983V21.2983ZM5.13761 20.5633C4.10727 20.0762 3.31617 19.4196 2.73518 18.599L1.10289 19.7547C1.89974 20.8801 2.96944 21.7505 4.28285 22.3714L5.13761 20.5633ZM2.73518 18.599C2.16789 17.7978 1.86695 16.8784 1.84278 15.8091L-0.156705 15.8543C-0.124053 17.2991 0.292336 18.6099 1.10289 19.7547L2.73518 18.599ZM0.84304 16.8317H5.31747V14.8317H0.84304V16.8317ZM4.3192 15.8904C4.38554 17.0183 4.87653 17.9672 5.76017 18.6703L7.00545 17.1053C6.56807 16.7572 6.34883 16.3354 6.31575 15.773L4.3192 15.8904ZM5.76017 18.6703C6.61171 19.3479 7.62058 19.6761 8.73722 19.6761V17.6761C8.03567 17.6761 7.47494 17.4788 7.00545 17.1053L5.76017 18.6703ZM8.73722 19.6761C9.61337 19.6761 10.4293 19.4813 11.1546 19.0629L10.1551 17.3305C9.77238 17.5513 9.30993 17.6761 8.73722 17.6761V19.6761ZM11.158 19.0609C11.8787 18.6413 12.4448 18.0558 12.8439 17.3211L11.0865 16.3664C10.8606 16.7822 10.5531 17.0988 10.1516 17.3326L11.158 19.0609ZM12.8419 17.3248C13.2527 16.5763 13.4446 15.7392 13.4446 14.8409H11.4446C11.4446 15.4483 11.3169 15.9464 11.0885 16.3627L12.8419 17.3248ZM13.4446 14.8409C13.4446 13.9283 13.249 13.0803 12.8267 12.3275L11.0824 13.306C11.3135 13.718 11.4446 14.2194 11.4446 14.8409H13.4446ZM12.8312 12.3357C12.4246 11.5947 11.8509 11.0057 11.1213 10.5862L10.1244 12.32C10.5312 12.554 10.8453 12.874 11.0779 13.2979L12.8312 12.3357ZM11.1213 10.5862C10.3877 10.1643 9.56582 9.96103 8.683 9.95246L8.66359 11.9524C9.24384 11.958 9.72172 12.0885 10.1244 12.32L11.1213 10.5862ZM8.6733 9.95241C7.89259 9.95241 7.13557 10.1138 6.40983 10.4297L7.20807 12.2635C7.68972 12.0538 8.17559 11.9524 8.6733 11.9524V9.95241ZM6.40585 10.4314C5.67427 10.7537 5.06005 11.2142 4.60735 11.8307L6.21936 13.0145C6.43427 12.7219 6.75045 12.4651 7.21205 12.2617L6.40585 10.4314ZM5.58976 11.4383L1.4882 10.7032L1.13538 12.6718L5.23694 13.4069L5.58976 11.4383ZM2.30778 11.777L3.34116 0.271272L1.34918 0.0923629L0.315799 11.598L2.30778 11.777ZM2.34517 1.18182H15.6832V-0.818182H2.34517V1.18182ZM14.6832 0.181818V3.95312H16.6832V0.181818H14.6832ZM15.6832 2.95312H6.14844V4.95312H15.6832V2.95312ZM5.15373 3.85036L4.5891 9.31556L6.57851 9.52109L7.14314 4.05589L5.15373 3.85036ZM5.58381 10.4183H5.71165V8.41832H5.58381V10.4183ZM6.52683 9.99753C6.78371 9.636 7.20566 9.28742 7.8651 8.98493L7.03121 7.16706C6.14235 7.57479 5.40664 8.1211 4.89647 8.83912L6.52683 9.99753ZM7.8651 8.98493C8.49288 8.69695 9.21454 8.54332 10.0476 8.54332V6.54332C8.96302 6.54332 7.95172 6.74481 7.03121 7.16706L7.8651 8.98493ZM10.0476 8.54332C11.1979 8.54332 12.1887 8.81167 13.0487 9.32766L14.0777 7.61268C12.878 6.89287 11.5252 6.54332 10.0476 6.54332V8.54332ZM13.0487 9.32766C13.9232 9.85238 14.6138 10.5703 15.1276 11.5L16.8781 10.5326C16.1987 9.30326 15.2628 8.32375 14.0777 7.61268L13.0487 9.32766ZM15.129 11.5025C15.6309 12.4047 15.8934 13.4669 15.8871 14.7186L17.8871 14.7288C17.8949 13.1822 17.568 11.7728 16.8767 10.5302L15.129 11.5025ZM15.8871 14.7286C15.8934 16.0344 15.5926 17.1575 15.0078 18.1281L16.7209 19.1602C17.514 17.8439 17.895 16.3534 17.8871 14.7189L15.8871 14.7286ZM15.0069 18.1297C14.4233 19.1023 13.6058 19.8733 12.5291 20.4459L13.4681 22.2118C14.8488 21.4775 15.9418 20.4588 16.7218 19.1587L15.0069 18.1297ZM12.5309 20.4449C11.4763 21.0029 10.2215 21.2983 8.73722 21.2983V23.2983C10.4915 23.2983 12.0777 22.9474 13.4662 22.2127L12.5309 20.4449Z" fill="#B5B5B5"/>
</svg>
