<svg xmlns="http://www.w3.org/2000/svg" width="45" height="46" viewBox="0 0 45 46" fill="none">
  <g clip-path="url(#clip0_1195_63136)">
    <path d="M2.96474 31.086H18.1294C18.233 31.086 18.3353 31.0632 18.429 31.019C18.5227 30.9749 18.6055 30.9106 18.6715 30.8308C19.7579 29.5273 20.5142 27.9813 20.8764 26.3236C21.2386 24.6658 21.196 22.9452 20.7521 21.3074C20.3083 19.6697 19.4763 18.163 18.3266 16.915C17.1769 15.667 15.7435 14.7144 14.1475 14.1379C12.5516 13.5614 10.8403 13.378 9.15847 13.6032C7.47664 13.8284 5.87384 14.4555 4.48581 15.4316C3.09777 16.4076 1.96539 17.7037 1.18454 19.2102C0.403688 20.7167 -0.00262261 22.3892 1.27383e-05 24.0861C0.000842967 26.5472 0.857265 28.9316 2.42263 30.8308C2.48861 30.9106 2.57142 30.9749 2.66514 31.019C2.75885 31.0632 2.86116 31.086 2.96474 31.086ZM10.5469 14.9145C12.2568 14.9213 13.9308 15.4056 15.3801 16.3129C16.8295 17.2202 17.9965 18.5144 18.7497 20.0496C19.5028 21.5847 19.812 23.2997 19.6426 25.0012C19.4731 26.7027 18.8316 28.323 17.7905 29.6794H3.30365C2.26263 28.323 1.62125 26.7028 1.45181 25.0014C1.28238 23.3 1.59163 21.585 2.3447 20.05C3.09777 18.5149 4.26471 17.2208 5.71395 16.3135C7.16318 15.4061 8.83707 14.9214 10.5469 14.9145Z" fill="#248FEC"/>
    <path d="M15.9645 28.9698C16.1491 28.9715 16.3271 28.9008 16.4602 28.773C16.5585 28.6746 16.6254 28.5493 16.6524 28.4129C16.6795 28.2766 16.6655 28.1352 16.6123 28.0068C16.5591 27.8784 16.4689 27.7686 16.3533 27.6914C16.2377 27.6142 16.1018 27.5729 15.9628 27.5729C15.8237 27.5729 15.6878 27.6142 15.5722 27.6914C15.4566 27.7686 15.3665 27.8784 15.3132 28.0068C15.26 28.1352 15.246 28.2766 15.2731 28.4129C15.3002 28.5493 15.3671 28.6746 15.4653 28.773C15.5311 28.8375 15.6092 28.8882 15.695 28.922C15.7807 28.9558 15.8724 28.9721 15.9645 28.9698ZM16.8891 21.6292C16.9961 21.6286 17.1017 21.6048 17.1985 21.5593C17.3242 21.4986 17.429 21.4019 17.4996 21.2815C17.5703 21.1612 17.6036 21.0226 17.5953 20.8833C17.5871 20.7439 17.5377 20.6102 17.4533 20.499C17.369 20.3879 17.2535 20.3042 17.1216 20.2588C16.9896 20.2133 16.8471 20.2081 16.7122 20.2437C16.5773 20.2793 16.456 20.3542 16.3637 20.4589C16.2713 20.5635 16.2122 20.6932 16.1937 20.8316C16.1752 20.9699 16.1982 21.1106 16.2598 21.2358C16.3172 21.3539 16.4066 21.4535 16.5179 21.5232C16.6292 21.5928 16.7579 21.6293 16.8891 21.6292ZM13.9114 18.6694C14.0707 18.7644 14.2606 18.7936 14.4411 18.751C14.6215 18.7083 14.7783 18.5971 14.8782 18.4409C14.9516 18.3225 14.9883 18.185 14.9835 18.0457C14.9787 17.9065 14.9327 17.7718 14.8514 17.6587C14.77 17.5457 14.6569 17.4593 14.5263 17.4105C14.3958 17.3618 14.2538 17.3529 14.1182 17.3849C13.9826 17.417 13.8596 17.4885 13.7647 17.5906C13.6698 17.6926 13.6074 17.8205 13.5852 17.958C13.5631 18.0956 13.5823 18.2366 13.6403 18.3632C13.6984 18.4899 13.7927 18.5964 13.9114 18.6694ZM16.8294 24.6495C16.8058 24.8345 16.8565 25.0214 16.9706 25.1691C17.0846 25.3167 17.2526 25.4131 17.4376 25.437C17.6224 25.4562 17.8075 25.4033 17.9542 25.2893C18.1009 25.1753 18.198 25.0091 18.2251 24.8253C18.2366 24.7336 18.23 24.6406 18.2056 24.5515C18.1812 24.4624 18.1395 24.379 18.0828 24.3061C17.9684 24.1587 17.8002 24.0628 17.6151 24.0395C17.43 24.0162 17.2433 24.0674 17.0959 24.1818C16.9486 24.2962 16.8527 24.4644 16.8294 24.6495ZM3.65281 25.4205C3.74455 25.4092 3.83315 25.3799 3.91358 25.3343C3.994 25.2888 4.06467 25.2278 4.12154 25.155C4.1784 25.0821 4.22036 24.9987 4.24502 24.9097C4.26967 24.8206 4.27654 24.7275 4.26523 24.6358C4.25392 24.544 4.22465 24.4554 4.1791 24.375C4.13354 24.2946 4.07259 24.2239 3.99972 24.1671C3.92686 24.1102 3.84351 24.0682 3.75443 24.0436C3.66535 24.0189 3.57228 24.012 3.48054 24.0234C3.38879 24.0344 3.30012 24.0635 3.21964 24.1089C3.13917 24.1544 3.06847 24.2153 3.01162 24.2881C2.95476 24.361 2.91288 24.4444 2.88837 24.5335C2.86387 24.6226 2.85723 24.7157 2.86883 24.8073C2.89767 24.9898 2.99461 25.1545 3.1401 25.2683C3.28559 25.382 3.4688 25.4364 3.65281 25.4205ZM6.82742 18.7679C6.95664 18.7668 7.0831 18.7303 7.19304 18.6624C7.33603 18.5733 7.44198 18.4356 7.49135 18.2745C7.54072 18.1135 7.53017 17.94 7.46165 17.7861C7.39314 17.6323 7.27128 17.5084 7.11856 17.4373C6.96584 17.3662 6.79257 17.3528 6.63073 17.3995C6.46888 17.4462 6.32939 17.5498 6.23798 17.6913C6.14657 17.8328 6.10942 18.0026 6.13339 18.1693C6.15736 18.336 6.24082 18.4885 6.36838 18.5985C6.49593 18.7085 6.65898 18.7686 6.82742 18.7679ZM3.8989 21.5417C4.06651 21.6227 4.25925 21.6346 4.43553 21.5747C4.61181 21.5149 4.75748 21.3881 4.84109 21.2218C4.90259 21.097 4.92571 20.9567 4.90753 20.8188C4.88934 20.6809 4.83066 20.5514 4.73891 20.4469C4.64716 20.3423 4.52646 20.2672 4.39207 20.2312C4.25768 20.1953 4.11564 20.1999 3.9839 20.2447C3.85216 20.2894 3.73665 20.3722 3.65196 20.4826C3.56727 20.5929 3.51721 20.7259 3.50812 20.8648C3.49902 21.0036 3.53129 21.142 3.60085 21.2625C3.67041 21.383 3.77413 21.4801 3.8989 21.5417ZM10.554 17.7272C10.6463 17.7275 10.7378 17.7095 10.8232 17.6744C10.9086 17.6393 10.9862 17.5877 11.0517 17.5225C11.1171 17.4574 11.1691 17.38 11.2047 17.2948C11.2402 17.2096 11.2586 17.1182 11.2589 17.0259C11.2591 16.9335 11.2411 16.842 11.206 16.7567C11.1709 16.6713 11.1193 16.5936 11.0542 16.5282C10.989 16.4627 10.9117 16.4107 10.8264 16.3752C10.7412 16.3396 10.6498 16.3212 10.5575 16.321H10.554C10.3675 16.321 10.1887 16.3951 10.0568 16.5269C9.92494 16.6588 9.85086 16.8376 9.85086 17.0241C9.85086 17.2106 9.92494 17.3894 10.0568 17.5213C10.1887 17.6531 10.3675 17.7272 10.554 17.7272ZM4.42976 28.2741C4.42976 28.4606 4.50384 28.6394 4.6357 28.7713C4.76757 28.9031 4.94641 28.9772 5.13289 28.9772C5.31937 28.9772 5.49821 28.9031 5.63007 28.7713C5.76193 28.6394 5.83601 28.4606 5.83601 28.2741C5.83274 28.1363 5.78945 28.0024 5.71141 27.8888C5.63338 27.7751 5.52397 27.6866 5.39652 27.6341C5.26907 27.5815 5.12909 27.5672 4.99364 27.5928C4.85819 27.6185 4.73312 27.6829 4.63367 27.7784C4.50285 27.9102 4.42954 28.0884 4.42976 28.2741ZM7.10551 20.8544L8.6784 23.9995C8.39542 24.2926 8.20348 24.6615 8.12581 25.0615C8.04814 25.4614 8.08807 25.8754 8.24077 26.2531C8.39347 26.6309 8.65239 26.9562 8.98619 27.1899C9.31999 27.4235 9.71436 27.5554 10.1216 27.5696C10.6805 27.588 11.2241 27.3848 11.634 27.0043C12.0431 26.6227 12.2839 26.0943 12.3034 25.5352C12.323 24.9761 12.1196 24.4321 11.738 24.023C11.507 23.7846 11.2246 23.6019 10.9125 23.4889C10.6003 23.3759 10.2664 23.3356 9.93629 23.3709L8.3634 20.2254C8.27999 20.0586 8.13374 19.9318 7.95682 19.8728C7.77989 19.8138 7.58678 19.8276 7.41998 19.911C7.25317 19.9944 7.12633 20.1406 7.06735 20.3175C7.00838 20.4945 7.0221 20.6876 7.10551 20.8544ZM9.49297 25.4366C9.49977 25.2548 9.5766 25.0827 9.70738 24.9563C9.83816 24.8298 10.0128 24.7588 10.1947 24.7581L10.22 24.7588C10.4063 24.7656 10.5824 24.8461 10.7094 24.9825C10.8365 25.1189 10.9043 25.3002 10.8978 25.4866C10.889 25.672 10.808 25.8466 10.6723 25.9732C10.5366 26.0998 10.3567 26.1684 10.1711 26.1644C9.98474 26.1577 9.80862 26.0773 9.68146 25.9408C9.55431 25.8044 9.48651 25.623 9.49297 25.4366ZM26.3289 30.831C26.3949 30.9109 26.4777 30.9751 26.5714 31.0193C26.6652 31.0634 26.7675 31.0863 26.8711 31.0863H42.0354C42.1389 31.0863 42.2412 31.0634 42.335 31.0193C42.4287 30.9751 42.5115 30.9109 42.5775 30.831C43.8539 29.2891 44.6652 27.4158 44.9166 25.43C45.168 23.4441 44.849 21.4277 43.9971 19.6164C43.1451 17.8051 41.7952 16.2736 40.1052 15.2009C38.4153 14.1282 36.4549 13.5586 34.4532 13.5586C32.4515 13.5586 30.4912 14.1282 28.8012 15.2009C27.1112 16.2736 25.7613 17.8051 24.9094 19.6164C24.0574 21.4277 23.7384 23.4441 23.9898 25.43C24.2412 27.4158 25.0525 29.2891 26.3289 30.831ZM34.4532 14.9147C36.1631 14.9216 37.837 15.406 39.2863 16.3133C40.7356 17.2206 41.9026 18.5148 42.6557 20.0499C43.4088 21.5851 43.718 23.3 43.5485 25.0015C43.379 26.703 42.7376 28.3233 41.6964 29.6796H27.2096C26.1686 28.3232 25.5272 26.703 25.3578 25.0015C25.1883 23.3001 25.4976 21.5851 26.2507 20.0501C27.0039 18.515 28.1708 17.2209 29.6201 16.3136C31.0694 15.4063 32.7434 14.9215 34.4532 14.9147Z" fill="#248FEC"/>
    <path d="M39.221 28.5435C39.2677 28.6478 39.3378 28.7399 39.4259 28.8126C39.514 28.8853 39.6178 28.9366 39.729 28.9626C39.7752 28.9726 39.8224 28.9773 39.8696 28.9767C40.0084 28.9764 40.144 28.9351 40.2593 28.8579C40.3746 28.7807 40.4644 28.671 40.5174 28.5428C40.5704 28.4145 40.5842 28.2734 40.5571 28.1374C40.53 28.0013 40.4631 27.8763 40.365 27.7781C40.2669 27.68 40.1419 27.6132 40.0058 27.5861C39.8697 27.5589 39.7286 27.5727 39.6004 27.6258C39.4721 27.6788 39.3625 27.7686 39.2853 27.8839C39.208 27.9992 39.1667 28.1348 39.1665 28.2735C39.1662 28.3663 39.1847 28.4581 39.221 28.5435ZM27.8044 21.5415C27.8871 21.5829 27.9773 21.6075 28.0696 21.6138C28.162 21.6202 28.2547 21.6081 28.3423 21.5783C28.4299 21.5486 28.5108 21.5017 28.5802 21.4405C28.6496 21.3792 28.7061 21.3048 28.7465 21.2215V21.2251C28.8088 21.1004 28.8327 20.96 28.8152 20.8217C28.7977 20.6834 28.7395 20.5534 28.648 20.4483C28.5566 20.3431 28.4359 20.2674 28.3014 20.2308C28.1669 20.1942 28.0246 20.1984 27.8925 20.2428C27.7603 20.2871 27.6443 20.3697 27.5592 20.4801C27.474 20.5904 27.4235 20.7236 27.4141 20.8626C27.4046 21.0017 27.4367 21.1405 27.5062 21.2613C27.5756 21.3821 27.6794 21.4796 27.8044 21.5415ZM34.4594 17.727C34.6459 17.7275 34.8249 17.6538 34.9571 17.5223C35.0893 17.3908 35.1639 17.2121 35.1643 17.0256C35.1648 16.8392 35.0912 16.6601 34.9596 16.5279C34.8281 16.3957 34.6494 16.3212 34.463 16.3208H34.4594C34.273 16.3208 34.0941 16.3948 33.9623 16.5267C33.8304 16.6586 33.7563 16.8374 33.7563 17.0239C33.7563 17.2104 33.8304 17.3892 33.9623 17.5211C34.0941 17.6529 34.273 17.727 34.4594 17.727ZM30.7322 18.7571C30.8858 18.7547 31.0343 18.7016 31.1546 18.6059C31.2748 18.5102 31.3599 18.3774 31.3967 18.2282C31.4335 18.079 31.4198 17.9218 31.3578 17.7812C31.2958 17.6406 31.189 17.5245 31.0541 17.4511C30.9191 17.3776 30.7636 17.3509 30.6119 17.3751C30.4602 17.3993 30.3207 17.4731 30.2154 17.5849C30.11 17.6968 30.0446 17.8404 30.0295 17.9933C30.0144 18.1462 30.0503 18.2998 30.1317 18.4301C30.1909 18.5356 30.2786 18.6223 30.3848 18.6801C30.491 18.738 30.6115 18.7647 30.7322 18.7571ZM37.8162 18.6692C37.9274 18.7377 38.0554 18.7742 38.186 18.7747C38.339 18.7738 38.4876 18.7231 38.6093 18.6303C38.7309 18.5375 38.8191 18.4076 38.8604 18.2603C38.9017 18.113 38.8939 17.9562 38.8382 17.8137C38.7825 17.6712 38.6819 17.5506 38.5516 17.4704C38.3927 17.3729 38.2015 17.3425 38.0201 17.386C37.8388 17.4295 37.6821 17.5432 37.5847 17.7022C37.4872 17.8612 37.4568 18.0524 37.5003 18.2337C37.5438 18.4151 37.6572 18.5717 37.8162 18.6692ZM40.7348 24.6493H40.731C40.7088 24.8346 40.7606 25.0212 40.8751 25.1686C40.9896 25.316 41.1576 25.4124 41.3427 25.4368C41.3719 25.4397 41.4012 25.4408 41.4306 25.4403C41.602 25.4403 41.7677 25.3779 41.8964 25.2646C42.0252 25.1514 42.1083 24.9951 42.1302 24.8251H42.1267C42.1467 24.6421 42.094 24.4586 41.9799 24.3141C41.8659 24.1696 41.6996 24.0757 41.517 24.0526C41.3344 24.0296 41.15 24.0792 41.0036 24.1908C40.8573 24.3024 40.7609 24.4671 40.7348 24.6493ZM40.7946 21.6293C40.9021 21.6292 41.008 21.6039 41.104 21.5555C41.229 21.4944 41.333 21.3976 41.4029 21.2773C41.4728 21.157 41.5054 21.0187 41.4967 20.8798C41.4879 20.741 41.4381 20.6079 41.3536 20.4973C41.2691 20.3868 41.1537 20.3038 41.022 20.259C40.8903 20.2141 40.7483 20.2093 40.6139 20.2452C40.4795 20.2811 40.3587 20.3561 40.267 20.4607C40.1752 20.5653 40.1166 20.6948 40.0985 20.8327C40.0804 20.9707 40.1036 21.1109 40.1653 21.2356C40.2222 21.354 40.3116 21.4538 40.423 21.5235C40.5344 21.5932 40.6632 21.6299 40.7946 21.6293ZM26.7743 24.8075C26.7952 24.9776 26.8774 25.1344 27.0055 25.2483C27.1336 25.3622 27.2989 25.4254 27.4704 25.4262C27.4998 25.4256 27.5291 25.4232 27.5583 25.4192C27.6963 25.4022 27.8261 25.3446 27.9314 25.2537C28.0367 25.1629 28.1127 25.0429 28.1498 24.9088C28.1869 24.7748 28.1834 24.6328 28.1397 24.5007C28.0961 24.3687 28.0143 24.2526 27.9047 24.167C27.795 24.0815 27.6625 24.0304 27.5238 24.0201C27.3851 24.0099 27.2465 24.0411 27.1255 24.1096C27.0045 24.1782 26.9066 24.2811 26.844 24.4053C26.7815 24.5295 26.7573 24.6695 26.7743 24.8075ZM28.3405 28.2739C28.339 28.4587 28.4103 28.6367 28.5391 28.7692C28.6374 28.8669 28.7624 28.9333 28.8983 28.96C29.0342 28.9867 29.175 28.9725 29.3029 28.9193C29.4308 28.8661 29.5401 28.7762 29.617 28.661C29.6939 28.5457 29.7349 28.4103 29.7349 28.2718C29.7349 28.1332 29.6939 27.9978 29.617 27.8826C29.5401 27.7673 29.4308 27.6774 29.3029 27.6242C29.175 27.571 29.0342 27.5569 28.8983 27.5836C28.7624 27.6103 28.6374 27.6767 28.5391 27.7743C28.4093 27.9078 28.3379 28.0877 28.3405 28.2739ZM34.0274 27.5602C34.3039 27.572 34.5801 27.5288 34.8398 27.4331C35.0996 27.3375 35.3378 27.1912 35.5406 27.0029C35.7435 26.8146 35.907 26.5879 36.0217 26.336C36.1364 26.084 36.2 25.8119 36.2088 25.5352C36.2183 25.2249 36.1598 24.9162 36.0374 24.6309C35.915 24.3456 35.7316 24.0905 35.5001 23.8836L37.1907 20.5026C37.2742 20.3358 37.2879 20.1427 37.229 19.9657C37.1701 19.7887 37.0432 19.6424 36.8764 19.559C36.7938 19.5177 36.7039 19.493 36.6118 19.4865C36.5197 19.4799 36.4272 19.4915 36.3395 19.5207C36.1626 19.5797 36.0163 19.7065 35.9328 19.8733L34.1922 23.3548L34.1747 23.3531C33.8967 23.3404 33.619 23.3831 33.3577 23.4784C33.0963 23.5738 32.8565 23.7201 32.652 23.9087C32.4475 24.0974 32.2824 24.3247 32.1664 24.5776C32.0503 24.8305 31.9855 25.1038 31.9757 25.3819C31.966 25.6599 32.0114 25.9372 32.1095 26.1975C32.2076 26.4579 32.3563 26.6962 32.547 26.8988C32.7378 27.1013 32.9668 27.264 33.2208 27.3775C33.4749 27.491 33.7489 27.553 34.027 27.5599L34.0274 27.5602ZM33.3977 25.4361C33.4069 25.255 33.4845 25.0842 33.6148 24.9582C33.7452 24.8323 33.9185 24.7605 34.0998 24.7576L34.1247 24.7583C34.3111 24.7649 34.4871 24.8453 34.6143 24.9817C34.7414 25.118 34.8093 25.2993 34.8029 25.4856C34.791 25.67 34.7091 25.8429 34.574 25.969C34.4388 26.095 34.2607 26.1647 34.0759 26.1638C33.8895 26.157 33.7135 26.0766 33.5864 25.9401C33.4594 25.8037 33.3913 25.6224 33.3977 25.4361ZM0.823695 13.8493L19.3735 10.6149C21.4418 10.2536 23.5571 10.2536 25.6254 10.6149L44.1756 13.8493C44.2672 13.8668 44.3615 13.866 44.4528 13.8467C44.5441 13.8275 44.6307 13.7903 44.7074 13.7372C44.7842 13.6842 44.8497 13.6164 44.9 13.5378C44.9503 13.4592 44.9845 13.3714 45.0005 13.2795C45.0166 13.1876 45.0141 13.0933 44.9934 13.0024C44.9726 12.9114 44.934 12.8254 44.8797 12.7495C44.8254 12.6736 44.7565 12.6093 44.6771 12.5603C44.5977 12.5113 44.5093 12.4786 44.4171 12.4641L25.8673 9.22974C23.6391 8.84009 21.3602 8.84009 19.132 9.22974L0.582172 12.4641C0.489984 12.4786 0.401605 12.5113 0.322186 12.5603C0.242768 12.6093 0.173898 12.6736 0.119593 12.7495C0.0652882 12.8254 0.0266338 12.9114 0.00588351 13.0024C-0.0148668 13.0933 -0.0172978 13.1876 -0.00126779 13.2795C0.0147622 13.3714 0.0489325 13.4592 0.099251 13.5378C0.14957 13.6164 0.21503 13.6842 0.291815 13.7372C0.368601 13.7903 0.455175 13.8275 0.546492 13.8467C0.637809 13.866 0.732041 13.8668 0.823695 13.8493ZM44.4174 35.6662L25.8673 32.4318C23.6391 32.0422 21.3602 32.0422 19.132 32.4318L0.582172 35.6662C0.489984 35.6807 0.401605 35.7134 0.322186 35.7624C0.242768 35.8114 0.173898 35.8757 0.119593 35.9516C0.0652882 36.0275 0.0266338 36.1134 0.00588351 36.2044C-0.0148668 36.2954 -0.0172978 36.3896 -0.00126779 36.4816C0.0147622 36.5735 0.0489325 36.6613 0.099251 36.7399C0.14957 36.8185 0.21503 36.8863 0.291815 36.9393C0.368601 36.9924 0.455175 37.0296 0.546492 37.0488C0.637809 37.068 0.732041 37.0689 0.823695 37.0513L19.3735 33.817C21.4418 33.4556 23.5571 33.4556 25.6254 33.817L44.1756 37.0513C44.2672 37.0689 44.3615 37.068 44.4528 37.0488C44.5441 37.0296 44.6307 36.9924 44.7074 36.9393C44.7842 36.8863 44.8497 36.8185 44.9 36.7399C44.9503 36.6613 44.9845 36.5735 45.0005 36.4816C45.0166 36.3896 45.0141 36.2954 44.9934 36.2044C44.9726 36.1134 44.934 36.0275 44.8797 35.9516C44.8254 35.8757 44.7565 35.8114 44.6771 35.7624C44.5977 35.7134 44.5096 35.6807 44.4174 35.6662Z" fill="#248FEC"/>
    <path d="M22.5 14.2109C22.8883 14.2109 23.2031 13.8961 23.2031 13.5078C23.2031 13.1195 22.8883 12.8047 22.5 12.8047C22.1117 12.8047 21.7969 13.1195 21.7969 13.5078C21.7969 13.8961 22.1117 14.2109 22.5 14.2109Z" fill="#248FEC"/>
    <path d="M25.5165 14.2106C25.5152 14.3349 25.5473 14.4573 25.6093 14.565C25.7046 14.7245 25.8587 14.8403 26.0384 14.8876C26.2181 14.9349 26.4092 14.91 26.5708 14.8181L27.7763 14.115C27.8824 14.0531 27.9705 13.9644 28.0317 13.8579C28.0929 13.7513 28.1251 13.6306 28.1251 13.5077C28.1251 13.3848 28.0929 13.2641 28.0317 13.1575C27.9705 13.0509 27.8824 12.9623 27.7763 12.9003L26.5708 12.1972C26.4643 12.1341 26.3429 12.1004 26.2191 12.0996C26.0952 12.0988 25.9734 12.131 25.8661 12.1928C25.7588 12.2545 25.6698 12.3437 25.6083 12.4512C25.5468 12.5587 25.515 12.6806 25.5161 12.8044H24.6094C24.423 12.8044 24.2441 12.8785 24.1122 13.0103C23.9804 13.1422 23.9063 13.321 23.9063 13.5075C23.9063 13.694 23.9804 13.8728 24.1122 14.0047C24.2441 14.1365 24.423 14.2106 24.6094 14.2106H25.5165ZM19.4836 12.8044C19.4847 12.6806 19.4529 12.5588 19.3914 12.4514C19.3299 12.3439 19.241 12.2548 19.1337 12.193C19.0265 12.1313 18.9047 12.0991 18.7809 12.0998C18.6572 12.1006 18.5358 12.1342 18.4293 12.1972L17.2238 12.9003C17.1177 12.9623 17.0296 13.0509 16.9684 13.1575C16.9072 13.2641 16.875 13.3848 16.875 13.5077C16.875 13.6306 16.9072 13.7513 16.9684 13.8579C17.0296 13.9644 17.1177 14.0531 17.2238 14.115L18.4297 14.8181C18.591 14.9106 18.7823 14.9359 18.9621 14.8886C19.142 14.8412 19.296 14.725 19.3908 14.565C19.453 14.4572 19.4852 14.3347 19.484 14.2103H20.3907C20.5772 14.2103 20.756 14.1362 20.8879 14.0043C21.0197 13.8725 21.0938 13.6936 21.0938 13.5071C21.0938 13.3207 21.0197 13.1418 20.8879 13.01C20.756 12.8781 20.5772 12.804 20.3907 12.804L19.4836 12.8044Z" fill="#248FEC"/>
  </g>
  <defs>
    <clipPath id="clip0_1195_63136">
      <rect width="45" height="45" fill="white" transform="translate(0 0.5)"/>
    </clipPath>
  </defs>
</svg>