<svg xmlns="http://www.w3.org/2000/svg" width="45" height="46" viewBox="0 0 45 46" fill="none">
  <path d="M30.2331 19.4844H28.1237V11.75C28.1237 11.5635 28.0496 11.3847 27.9178 11.2528C27.7859 11.121 27.6071 11.0469 27.4206 11.0469H26.7175V5.42188C26.7175 5.23539 26.6434 5.05655 26.5115 4.92469C26.3797 4.79283 26.2008 4.71875 26.0144 4.71875H25.3112V1.90625C25.3112 1.71977 25.2371 1.54093 25.1053 1.40907C24.9734 1.2772 24.7946 1.20313 24.6081 1.20312H20.3893C20.2029 1.20313 20.024 1.2772 19.8922 1.40907C19.7603 1.54093 19.6862 1.71977 19.6862 1.90625V4.71875H18.9831C18.7966 4.71875 18.6178 4.79283 18.4859 4.92469C18.3541 5.05655 18.28 5.23539 18.28 5.42188V11.0469H17.5768C17.3904 11.0469 17.2115 11.121 17.0797 11.2528C16.9478 11.3847 16.8737 11.5635 16.8737 11.75V19.4844H14.7643C14.5779 19.4844 14.399 19.5585 14.2672 19.6903C14.1353 19.8222 14.0612 20.001 14.0612 20.1875V24.4062C14.0612 24.5927 14.1353 24.7716 14.2672 24.9034C14.399 25.0353 14.5779 25.1094 14.7643 25.1094H16.8737V27.9219H14.7643C14.5779 27.9219 14.399 27.996 14.2672 28.1278C14.1353 28.2597 14.0612 28.4385 14.0612 28.625V32.8438C14.0612 33.0302 14.1353 33.2091 14.2672 33.3409C14.399 33.4728 14.5779 33.5469 14.7643 33.5469H16.8737V42.6875C16.8737 43.2469 17.096 43.7835 17.4915 44.1791C17.8871 44.5746 18.4237 44.7969 18.9831 44.7969H26.0144C26.5738 44.7969 27.1103 44.5746 27.5059 44.1791C27.9015 43.7835 28.1237 43.2469 28.1237 42.6875V33.5469H30.2331C30.4196 33.5469 30.5984 33.4728 30.7303 33.3409C30.8621 33.2091 30.9362 33.0302 30.9362 32.8438V28.625C30.9362 28.4385 30.8621 28.2597 30.7303 28.1278C30.5984 27.996 30.4196 27.9219 30.2331 27.9219H28.1237V25.1094H30.2331C30.4196 25.1094 30.5984 25.0353 30.7303 24.9034C30.8621 24.7716 30.9362 24.5927 30.9362 24.4062V20.1875C30.9362 20.001 30.8621 19.8222 30.7303 19.6903C30.5984 19.5585 30.4196 19.4844 30.2331 19.4844ZM21.0925 2.60938H23.905V4.71875H21.0925V2.60938ZM19.6862 6.125H25.3112V11.0469H19.6862V6.125ZM18.28 12.4531H26.7175V19.4844H18.28V12.4531ZM18.28 39.1719H26.7175V40.5781H18.28V39.1719ZM18.28 37.7656V36.3594H26.7175V37.7656H18.28ZM26.0144 43.3906H18.9831C18.7966 43.3906 18.6178 43.3165 18.4859 43.1847C18.3541 43.0528 18.28 42.874 18.28 42.6875V41.9844H26.7175V42.6875C26.7175 42.874 26.6434 43.0528 26.5115 43.1847C26.3797 43.3165 26.2008 43.3906 26.0144 43.3906ZM26.7175 34.9531H18.28V33.5469H26.7175V34.9531ZM29.53 32.1406H15.4675V29.3281H29.53V32.1406ZM26.7175 27.9219H18.28V25.1094H26.7175V27.9219ZM29.53 23.7031H15.4675V20.8906H29.53V23.7031ZM6.76279 13.9156C6.63438 13.9684 6.52447 14.058 6.44689 14.1731C6.36931 14.2882 6.32754 14.4237 6.32685 14.5625V20.1875H1.40497C1.26616 20.1882 1.13066 20.23 1.01554 20.3075C0.900425 20.3851 0.810848 20.495 0.7581 20.6234C0.704255 20.7515 0.689544 20.8926 0.715822 21.029C0.742101 21.1654 0.808192 21.291 0.905756 21.3898L6.03857 26.5156L1.60888 30.9383C1.51132 31.0372 1.44523 31.1627 1.41895 31.2991C1.39267 31.4355 1.40738 31.5766 1.46122 31.7047C1.51397 31.8331 1.60355 31.943 1.71867 32.0206C1.83378 32.0982 1.96929 32.1399 2.1081 32.1406H9.13935V30.7344H3.80263L7.52919 27.0148C7.5951 26.9495 7.6474 26.8717 7.6831 26.786C7.7188 26.7003 7.73718 26.6084 7.73718 26.5156C7.73718 26.4228 7.7188 26.3309 7.6831 26.2452C7.6474 26.1595 7.5951 26.0818 7.52919 26.0164L3.09951 21.5938H7.02997C7.21645 21.5938 7.3953 21.5197 7.52716 21.3878C7.65902 21.2559 7.7331 21.0771 7.7331 20.8906V16.257L10.7495 19.2805L11.7479 18.282L7.52919 14.0633C7.43032 13.9657 7.30476 13.8996 7.16836 13.8733C7.03196 13.8471 6.89083 13.8618 6.76279 13.9156ZM44.2393 20.6234C44.1866 20.495 44.097 20.3851 43.9819 20.3075C43.8668 20.23 43.7313 20.1882 43.5925 20.1875H38.6706V14.5625C38.6699 14.4237 38.6281 14.2882 38.5506 14.1731C38.473 14.058 38.3631 13.9684 38.2347 13.9156C38.1066 13.8618 37.9655 13.8471 37.8291 13.8733C37.6927 13.8996 37.5671 13.9657 37.4683 14.0633L33.2495 18.282L34.2479 19.2805L37.2644 16.257V20.8906C37.2644 21.0771 37.3384 21.2559 37.4703 21.3878C37.6022 21.5197 37.781 21.5938 37.9675 21.5938H41.8979L37.4683 26.0164C37.4024 26.0818 37.35 26.1595 37.3144 26.2452C37.2787 26.3309 37.2603 26.4228 37.2603 26.5156C37.2603 26.6084 37.2787 26.7003 37.3144 26.786C37.35 26.8717 37.4024 26.9495 37.4683 27.0148L41.1948 30.7344H35.8581V32.1406H42.8894C43.0282 32.1399 43.1637 32.0982 43.2788 32.0206C43.3939 31.943 43.4835 31.8331 43.5362 31.7047C43.5901 31.5766 43.6048 31.4355 43.5785 31.2991C43.5522 31.1627 43.4861 31.0372 43.3886 30.9383L38.9589 26.5156L44.0917 21.3898C44.1893 21.291 44.2554 21.1654 44.2816 21.029C44.3079 20.8926 44.2932 20.7515 44.2393 20.6234Z" fill="#248FEC"/>
</svg>