<svg xmlns="http://www.w3.org/2000/svg" width="45" height="46" viewBox="0 0 45 46" fill="none">
  <path d="M34.9255 31.3387L26.488 22.9012L34.9255 14.4637C35.8449 14.7041 36.8098 14.7104 37.7322 14.4819C38.6546 14.2535 39.5051 13.7976 40.206 13.1558C41.0092 12.4084 41.5762 11.4424 41.8373 10.3767C42.0984 9.31104 42.0422 8.19228 41.6755 7.15819C41.6368 7.04531 41.5701 6.94414 41.4815 6.86418C41.3929 6.78423 41.2855 6.72812 41.1692 6.70116C41.0531 6.67483 40.9322 6.67844 40.8178 6.71164C40.7034 6.74485 40.5993 6.80657 40.5153 6.891L38.863 8.51522C38.5995 8.77713 38.2431 8.92415 37.8716 8.92415C37.5001 8.92415 37.1437 8.77713 36.8802 8.51522C36.6183 8.25174 36.4713 7.89532 36.4713 7.52381C36.4713 7.1523 36.6183 6.79589 36.8802 6.53241L38.5255 4.88709C38.6099 4.8031 38.6716 4.69903 38.7049 4.58466C38.7381 4.47028 38.7417 4.34934 38.7153 4.23319C38.689 4.11774 38.634 4.01081 38.5553 3.92231C38.4767 3.83381 38.3769 3.76661 38.2653 3.72694C37.2642 3.36834 36.182 3.30087 35.1441 3.53234C34.1062 3.76382 33.1552 4.28476 32.4013 5.03475C31.6986 5.7289 31.1928 6.59726 30.9359 7.55101C30.6789 8.50476 30.6799 9.50965 30.9388 10.4629L22.5013 18.9004L14.0638 10.4629C14.3257 9.50985 14.3297 8.50431 14.0751 7.54927C13.8206 6.59422 13.3168 5.724 12.6153 5.02772C11.8602 4.27507 10.9067 3.75252 9.86602 3.52098C8.82531 3.28943 7.74022 3.35842 6.73722 3.71991C6.62565 3.75957 6.5259 3.82677 6.44724 3.91527C6.36857 4.00377 6.31353 4.11071 6.28722 4.22616C6.26089 4.34231 6.2645 4.46325 6.2977 4.57762C6.33091 4.692 6.39262 4.79607 6.47706 4.88006L8.12237 6.52538C8.25482 6.65703 8.35971 6.81375 8.43094 6.98638C8.50217 7.15901 8.53829 7.3441 8.53722 7.53085C8.53605 7.80812 8.45295 8.07885 8.29835 8.30902C8.14375 8.5392 7.92456 8.71853 7.66832 8.82448C7.41209 8.93043 7.13026 8.95826 6.85825 8.90449C6.58624 8.85072 6.3362 8.71773 6.13956 8.52225L4.48722 6.86288C4.40322 6.77844 4.29915 6.71673 4.18478 6.68352C4.0704 6.65031 3.94946 6.64671 3.83331 6.67303C3.71708 6.7 3.60962 6.7561 3.52106 6.83606C3.43249 6.91601 3.36573 7.01719 3.32706 7.13006C2.95438 8.16793 2.89498 9.29245 3.15626 10.3638C3.41753 11.4352 3.98795 12.4061 4.79659 13.1558C5.49492 13.7946 6.34208 14.2482 7.26077 14.4754C8.17946 14.7027 9.14042 14.6962 10.056 14.4566L18.5286 22.8941L10.0911 31.3316C9.13545 31.0679 8.12673 31.0637 7.16891 31.3195C6.21108 31.5754 5.33879 32.0819 4.6419 32.7871C3.89203 33.5396 3.37057 34.489 3.13788 35.5256C2.90519 36.5621 2.97078 37.6433 3.32706 38.6441C3.36673 38.7557 3.43393 38.8554 3.52243 38.9341C3.61093 39.0128 3.71786 39.0678 3.83331 39.0941C3.94887 39.1213 4.06945 39.1188 4.18379 39.0869C4.29813 39.0549 4.40252 38.9945 4.48722 38.9113L6.13956 37.266C6.40304 37.0041 6.75945 36.8571 7.13097 36.8571C7.50248 36.8571 7.85889 37.0041 8.12237 37.266C8.38429 37.5295 8.5313 37.8859 8.5313 38.2574C8.5313 38.6289 8.38429 38.9853 8.12237 39.2488L6.47706 40.9012C6.39262 40.9852 6.33091 41.0892 6.2977 41.2036C6.2645 41.318 6.26089 41.4389 6.28722 41.5551C6.31418 41.6713 6.37028 41.7787 6.45024 41.8673C6.53019 41.9559 6.63137 42.0226 6.74425 42.0613C7.77966 42.4263 8.89926 42.4803 9.965 42.2167C11.0307 41.9531 11.996 41.3833 12.7419 40.5777C13.3798 39.8815 13.8346 39.0376 14.0653 38.122C14.2961 37.2064 14.2955 36.2478 14.0638 35.3324L22.5013 26.8949L30.9388 35.3324C30.707 36.2478 30.7065 37.2064 30.9372 38.122C31.168 39.0376 31.6228 39.8815 32.2607 40.5777C33.0081 41.3809 33.9741 41.948 35.0398 42.2091C36.1055 42.4702 37.2242 42.4139 38.2583 42.0472C38.3712 42.0086 38.4724 41.9418 38.5523 41.8532C38.6323 41.7647 38.6884 41.6572 38.7153 41.541C38.7417 41.4248 38.7381 41.3039 38.7049 41.1895C38.6716 41.0752 38.6099 40.9711 38.5255 40.8871L36.8802 39.2347C36.6183 38.9713 36.4713 38.6149 36.4713 38.2433C36.4713 37.8718 36.6183 37.5154 36.8802 37.2519C37.1437 36.99 37.5001 36.843 37.8716 36.843C38.2431 36.843 38.5995 36.99 38.863 37.2519L40.5153 38.8973C40.6 38.9805 40.7044 39.0409 40.8188 39.0728C40.9331 39.1048 41.0537 39.1073 41.1692 39.0801C41.2847 39.0537 41.3916 38.9987 41.4801 38.92C41.5686 38.8414 41.6358 38.7416 41.6755 38.6301C42.0318 37.6293 42.0974 36.548 41.8647 35.5115C41.632 34.475 41.1105 33.5255 40.3607 32.773C39.6629 32.074 38.792 31.5728 37.8371 31.3208C36.8821 31.0688 35.8773 31.0749 34.9255 31.3387ZM23.4927 19.9058L32.2466 11.159C32.341 11.0641 32.4064 10.9442 32.4351 10.8134C32.4637 10.6826 32.4544 10.5464 32.4083 10.4207C32.1751 9.76474 32.1078 9.06127 32.2125 8.373C32.3172 7.68474 32.5906 7.03308 33.0083 6.47614C33.426 5.9192 33.975 5.47428 34.6065 5.18107C35.2379 4.88786 35.932 4.75546 36.6271 4.79569L35.9239 5.49881C35.6501 5.76164 35.4324 6.07717 35.2837 6.42639C35.1351 6.77562 35.0587 7.15131 35.0591 7.53085C35.0587 8.08743 35.2234 8.63162 35.5324 9.09454C35.8414 9.55747 36.2808 9.91829 36.795 10.1313C37.3092 10.3444 37.875 10.4001 38.4209 10.2914C38.9668 10.1827 39.4681 9.91447 39.8614 9.52069L40.5646 8.81756C40.5988 9.43654 40.4962 10.0555 40.2641 10.6303C40.032 11.2051 39.676 11.7217 39.2216 12.1433C38.6523 12.6605 37.9537 13.014 37.1998 13.1663C36.446 13.3185 35.6649 13.2639 34.9396 13.0082C34.8181 12.97 34.6885 12.9655 34.5646 12.9953C34.4408 13.025 34.3274 13.0878 34.2364 13.1769L25.4896 21.9027L24.4911 20.8902L23.4927 19.9058ZM12.7489 34.6293C12.6598 34.7202 12.597 34.8337 12.5672 34.9575C12.5375 35.0813 12.542 35.2109 12.5802 35.3324C12.8321 36.0583 12.8848 36.8384 12.7327 37.5916C12.5805 38.3447 12.2292 39.0432 11.7153 39.6144C11.2931 40.0676 10.7762 40.4223 10.2014 40.6531C9.62658 40.884 9.00799 40.9855 8.38956 40.9504L9.09268 40.2472C9.62042 39.7195 9.9169 39.0037 9.9169 38.2574C9.9169 37.5111 9.62042 36.7953 9.09268 36.2676C8.56495 35.7398 7.84918 35.4433 7.10284 35.4433C6.3565 35.4433 5.64074 35.7398 5.113 36.2676L4.40987 36.9707C4.36964 36.2757 4.50204 35.5815 4.79525 34.9501C5.08846 34.3187 5.53338 33.7696 6.09032 33.3519C6.64727 32.9342 7.29892 32.6608 7.98719 32.5561C8.67545 32.4514 9.37892 32.5187 10.0349 32.7519C10.1606 32.7981 10.2968 32.8074 10.4276 32.7787C10.5584 32.7501 10.6783 32.6847 10.7732 32.5902L19.52 23.8855L21.5099 25.8754L12.7489 34.6293ZM40.5857 36.9918L39.8825 36.2887C39.3463 35.7772 38.6337 35.4918 37.8927 35.4918C37.1516 35.4918 36.439 35.7772 35.9028 36.2887C35.6413 36.5499 35.4339 36.8601 35.2924 37.2015C35.1508 37.5429 35.078 37.9089 35.078 38.2785C35.078 38.6481 35.1508 39.0141 35.2924 39.3555C35.4339 39.697 35.6413 40.0071 35.9028 40.2683L36.606 40.9715C35.9875 41.0066 35.3689 40.9051 34.7942 40.6742C34.2194 40.4433 33.7025 40.0887 33.2802 39.6355C32.7663 39.0643 32.415 38.3658 32.2629 37.6126C32.1108 36.8595 32.1634 36.0794 32.4153 35.3535C32.4535 35.232 32.458 35.1024 32.4283 34.9786C32.3986 34.8547 32.3358 34.7413 32.2466 34.6504L23.0005 25.3762L20.0192 22.3949L10.7591 13.1558C10.6934 13.0907 10.6155 13.0391 10.5298 13.0041C10.4441 12.9691 10.3524 12.9514 10.2599 12.9519C10.1836 12.9528 10.1078 12.9646 10.0349 12.9871C9.30737 13.2378 8.52577 13.2878 7.77224 13.1319C7.01872 12.976 6.32114 12.6199 5.75284 12.1012C5.29839 11.6795 4.94244 11.1629 4.71032 10.5881C4.4782 10.0133 4.37562 9.39435 4.40987 8.77538L5.113 9.4785C5.37216 9.75322 5.68502 9.97175 6.03215 10.1205C6.37929 10.2693 6.7533 10.3451 7.13097 10.3433C7.69226 10.3509 8.24296 10.1903 8.71221 9.88222C9.18147 9.57415 9.5478 9.13272 9.76408 8.61471C9.98035 8.09671 10.0367 7.52584 9.92579 6.97556C9.81492 6.42528 9.54191 5.92076 9.1419 5.52694L8.43878 4.82381C9.02061 4.79491 9.60212 4.88682 10.1467 5.09375C10.6912 5.30068 11.187 5.61815 11.6028 6.02616C12.1709 6.58727 12.5661 7.29944 12.7418 8.0783C12.9176 8.85715 12.8663 9.67005 12.5942 10.4207C12.5481 10.5464 12.5388 10.6826 12.5675 10.8134C12.5961 10.9442 12.6615 11.0641 12.756 11.159L34.2294 32.6324C34.3211 32.7204 34.4348 32.7819 34.5586 32.8103C34.6824 32.8388 34.8117 32.8332 34.9325 32.7941C35.5885 32.5609 36.292 32.4936 36.9802 32.5983C37.6685 32.703 38.3201 32.9764 38.8771 33.3941C39.434 33.8118 39.8789 34.3609 40.1721 34.9923C40.4654 35.6237 40.5978 36.3179 40.5575 37.0129L40.5857 36.9918Z" fill="#248FEC"/>
</svg>