<svg width="30" height="30" viewBox="0 0 30 30" fill="none" xmlns="http://www.w3.org/2000/svg">
<path d="M17.7485 3.75C17.2676 3.75 16.7867 3.93282 16.4229 4.2975L15.0973 5.62313L14.4335 6.28594L12.446 8.27438C11.7436 8.97829 11.3491 9.93212 11.3491 10.9266C11.3491 11.921 11.7436 12.8748 12.446 13.5788L3.16385 22.8591C2.81371 23.2114 2.61719 23.688 2.61719 24.1847C2.61719 24.6814 2.81371 25.158 3.16385 25.5103L4.48947 26.8359C5.21791 27.5644 6.41135 27.5644 7.14072 26.8359L16.422 17.5566C17.1255 18.2594 18.0792 18.6542 19.0737 18.6542C20.0681 18.6542 21.0219 18.2594 21.7254 17.5566L23.7129 15.5672L24.3767 14.9044L25.7023 13.5788C26.0523 13.226 26.2487 12.7492 26.2487 12.2522C26.2487 11.7552 26.0523 11.2784 25.7023 10.9256L19.0742 4.2975C18.9001 4.12347 18.6934 3.98552 18.4659 3.89157C18.2385 3.79761 17.9947 3.7495 17.7485 3.75ZM17.7485 4.68C17.9867 4.68 18.2248 4.77375 18.4113 4.96032L25.0395 11.5884C25.128 11.6747 25.1983 11.7777 25.2463 11.8916C25.2944 12.0054 25.3191 12.1277 25.3191 12.2513C25.3191 12.3748 25.2944 12.4971 25.2463 12.6109C25.1983 12.7248 25.128 12.8279 25.0395 12.9141L23.7138 14.2416L23.051 14.9044L21.0626 16.8938C20.8026 17.1569 20.4929 17.3657 20.1516 17.5083C19.8103 17.6509 19.4441 17.7243 19.0742 17.7243C18.7043 17.7243 18.338 17.6509 17.9967 17.5083C17.6554 17.3657 17.3457 17.1569 17.0857 16.8938L16.8157 16.6219C16.7821 16.5731 16.7394 16.5311 16.6901 16.4981L13.5026 13.3078C13.4698 13.2603 13.4284 13.2193 13.3807 13.1869L13.1088 12.915C12.8456 12.655 12.6366 12.3453 12.494 12.0039C12.3513 11.6624 12.2779 11.2961 12.2779 10.9261C12.2779 10.5561 12.3513 10.1897 12.494 9.84833C12.6366 9.50692 12.8456 9.19722 13.1088 8.93719L15.0963 6.94969L15.7601 6.28594L17.0857 4.96032C17.1722 4.87211 17.2753 4.80193 17.3891 4.75381C17.5028 4.7057 17.625 4.68061 17.7485 4.68ZM18.4113 8.1975C18.0504 8.1975 17.6895 8.33344 17.4176 8.60625C17.1561 8.87089 17.0094 9.22795 17.0094 9.6C17.0094 9.97206 17.1561 10.3291 17.4176 10.5938L19.4051 12.5831C19.9507 13.1278 20.8488 13.1278 21.3935 12.5831C21.6553 12.3185 21.8022 11.9612 21.8022 11.5889C21.8022 11.2166 21.6553 10.8594 21.3935 10.5947L19.406 8.60625C19.2753 8.47599 19.1201 8.37283 18.9495 8.30268C18.7788 8.23254 18.5959 8.1968 18.4113 8.1975ZM15.0898 8.46938C14.9656 8.47135 14.8473 8.52251 14.7608 8.61163C14.6744 8.70074 14.6268 8.82053 14.6285 8.94469V9.88219C14.6285 10.0065 14.6779 10.1257 14.7658 10.2136C14.8537 10.3016 14.973 10.3509 15.0973 10.3509C15.2216 10.3509 15.3408 10.3016 15.4287 10.2136C15.5166 10.1257 15.566 10.0065 15.566 9.88219V8.94469C15.567 8.88187 15.5554 8.81949 15.5318 8.76125C15.5083 8.70301 15.4732 8.6501 15.4288 8.60567C15.3844 8.56125 15.3315 8.5262 15.2732 8.50263C15.215 8.47905 15.1526 8.46743 15.0898 8.46844V8.46938ZM18.4113 9.1275C18.5295 9.1275 18.6476 9.17438 18.7423 9.26813L20.7307 11.2575C20.7756 11.3002 20.8114 11.3516 20.8358 11.4086C20.8602 11.4656 20.8728 11.5269 20.8728 11.5889C20.8728 11.6509 20.8602 11.7122 20.8358 11.7692C20.8114 11.8262 20.7756 11.8776 20.7307 11.9203C20.688 11.9652 20.6366 12.001 20.5796 12.0254C20.5226 12.0498 20.4613 12.0624 20.3993 12.0624C20.3373 12.0624 20.276 12.0498 20.219 12.0254C20.1621 12.001 20.1106 11.9652 20.0679 11.9203L18.0804 9.93188C18.0355 9.88915 17.9998 9.83774 17.9753 9.78077C17.9509 9.7238 17.9383 9.66246 17.9383 9.60047C17.9383 9.53849 17.9509 9.47715 17.9753 9.42018C17.9998 9.36321 18.0355 9.3118 18.0804 9.26907C18.1235 9.22487 18.175 9.18968 18.2318 9.16554C18.2886 9.1414 18.3496 9.12879 18.4113 9.12844V9.1275ZM13.7642 9.79407C13.7025 9.79492 13.6417 9.80793 13.585 9.83234C13.5284 9.85675 13.4772 9.89208 13.4343 9.93632C13.3913 9.98056 13.3576 10.0328 13.3349 10.0901C13.3122 10.1475 13.301 10.2087 13.302 10.2703V11.2078C13.302 11.3321 13.3514 11.4514 13.4393 11.5393C13.5272 11.6272 13.6464 11.6766 13.7707 11.6766C13.895 11.6766 14.0143 11.6272 14.1022 11.5393C14.1901 11.4514 14.2395 11.3321 14.2395 11.2078V10.2703C14.2405 10.2076 14.2289 10.1453 14.2054 10.0871C14.1818 10.0289 14.1469 9.97605 14.1026 9.93164C14.0582 9.88723 14.0054 9.85216 13.9473 9.82853C13.8892 9.8049 13.8269 9.79318 13.7642 9.79407ZM13.1079 14.2416L13.7707 14.9044L11.4513 17.2247L12.1142 17.8875L11.4513 18.5503L10.7885 17.8875L8.8001 19.8759L9.46291 20.5388L8.8001 21.2016L8.13447 20.5388L6.14697 22.5272L6.80978 23.19L6.14697 23.8528L5.48416 23.19L3.82666 24.8475C3.73815 24.7613 3.66781 24.6582 3.61978 24.5444C3.57175 24.4305 3.54701 24.3082 3.54701 24.1847C3.54701 24.0611 3.57175 23.9388 3.61978 23.825C3.66781 23.7112 3.73815 23.6081 3.82666 23.5219L13.1079 14.2416ZM14.4335 15.5672L15.7601 16.8938L6.47885 26.1731C6.39262 26.2618 6.28949 26.3322 6.17557 26.3804C6.06164 26.4285 5.93923 26.4533 5.81556 26.4533C5.6919 26.4533 5.56948 26.4285 5.45556 26.3804C5.34163 26.3322 5.23851 26.2618 5.15228 26.1731L4.48947 25.5103L5.48322 24.5166L6.14697 25.1784L8.13447 23.1909L7.4726 22.5272L8.13541 21.8644L8.8001 22.5272L10.7876 20.5397L10.1257 19.8759L10.7885 19.2131L11.4513 19.8759L13.4388 17.8884L12.777 17.2247L14.4335 15.5672Z" fill="#248FEC"/>
</svg>
