<svg width="30" height="30" viewBox="0 0 30 30" fill="none" xmlns="http://www.w3.org/2000/svg">
<path d="M26.0736 4.8457H3.92578C3.14905 4.84659 2.40439 5.15553 1.85516 5.70477C1.30592 6.254 0.996978 6.99866 0.996094 7.77539V22.2246C0.996978 23.0013 1.30592 23.746 1.85516 24.2952C2.40439 24.8445 3.14905 25.1534 3.92578 25.1543H26.0735C26.8502 25.1534 27.5949 24.8445 28.1441 24.2952C28.6934 23.746 29.0023 23.0013 29.0032 22.2246V7.77539C29.0023 6.99866 28.6934 6.25399 28.1442 5.70475C27.595 5.15552 26.8503 4.84657 26.0736 4.8457ZM20.8646 14.996L27.8314 9.52816V21.7589L20.8646 14.996ZM3.92578 6.01758H26.0735C26.5396 6.01811 26.9864 6.20347 27.3159 6.53301C27.6454 6.86255 27.8308 7.30935 27.8313 7.77539V8.03848L16.5573 16.8872C16.1451 17.209 15.6371 17.3836 15.1141 17.3831C14.5912 17.3827 14.0835 17.2073 13.6718 16.8848L2.16797 8.03625V7.77539C2.1685 7.30935 2.35386 6.86255 2.6834 6.53301C3.01294 6.20347 3.45974 6.01811 3.92578 6.01758ZM9.34207 15.0328L2.16797 21.7825V9.51469L9.34207 15.0328ZM26.0736 23.9824H3.92578C3.62569 23.9822 3.33063 23.9053 3.0687 23.7588C2.80678 23.6123 2.5867 23.4013 2.42941 23.1457L10.283 15.757L12.9538 17.8113C13.5715 18.2938 14.3328 18.5558 15.1166 18.5556C15.9003 18.5554 16.6615 18.293 17.2789 17.8102L19.9344 15.7266L27.5729 23.141C27.4159 23.3979 27.1956 23.6101 26.9331 23.7575C26.6706 23.9048 26.3746 23.9822 26.0736 23.9824Z" fill="#248FEC"/>
</svg>
