<svg width="30" height="30" viewBox="0 0 30 30" fill="none" xmlns="http://www.w3.org/2000/svg">
<g clip-path="url(#clip0_1195_95449)">
<path d="M17.7187 15C17.7187 13.5 16.5 12.2812 15 12.2812C13.5 12.2812 12.2812 13.5 12.2812 15C12.2812 16.5 13.5 17.7187 15 17.7187C16.5 17.7187 17.7187 16.5 17.7187 15ZM13.2187 15C13.2187 14.0156 14.0156 13.2187 15 13.2187C15.9844 13.2187 16.7812 14.0156 16.7812 15C16.7812 15.9844 15.9844 16.7812 15 16.7812C14.0156 16.7812 13.2187 15.9844 13.2187 15Z" fill="#248FEC"/>
<path d="M15 0C6.75 0 0 6.75 0 15C0 23.25 6.75 30 15 30C23.25 30 30 23.25 30 15C30 6.75 23.25 0 15 0ZM15 29.0625C7.26562 29.0625 0.9375 22.7344 0.9375 15C0.9375 7.26562 7.26562 0.9375 15 0.9375C22.7344 0.9375 29.0625 7.26562 29.0625 15C29.0625 22.7344 22.7344 29.0625 15 29.0625Z" fill="#248FEC"/>
<path d="M15 3.28125C8.53125 3.28125 3.28125 8.53125 3.28125 15C3.28125 21.4688 8.53125 26.7188 15 26.7188C21.4688 26.7188 26.7188 21.4688 26.7188 15C26.7188 8.53125 21.4688 3.28125 15 3.28125ZM15 4.21875C19.7812 4.21875 23.8125 7.3125 25.2188 11.625C18.4219 9.28125 11.5312 9.28125 4.73438 11.625C6.1875 7.3125 10.2188 4.21875 15 4.21875ZM4.5 17.3438H5.95312C9.65625 17.3438 12.6562 20.3438 12.6562 24.0469V25.5C8.57812 24.6094 5.39063 21.4219 4.5 17.3438ZM13.5938 25.6875V24.0469C13.5938 19.8281 10.1719 16.4062 5.95312 16.4062H4.3125C4.26562 15.9375 4.21875 15.4688 4.21875 15C4.21875 14.2031 4.3125 13.4531 4.45312 12.7031C11.4375 10.125 18.5156 10.125 25.5469 12.7031C25.6875 13.4531 25.7812 14.2031 25.7812 15C25.7812 15.4688 25.7344 15.9375 25.6875 16.4062H24.0469C19.8281 16.4062 16.4062 19.8281 16.4062 24.0469V25.6875C15.9375 25.7344 15.4688 25.7812 15 25.7812C14.5312 25.7812 14.0625 25.7344 13.5938 25.6875ZM17.3438 25.5V24.0469C17.3438 20.3438 20.3438 17.3438 24.0469 17.3438H25.5C24.6094 21.4219 21.4219 24.6094 17.3438 25.5Z" fill="#248FEC"/>
<path d="M23.2969 14.7656H23.625C23.9063 14.7656 24.0938 14.5781 24.0938 14.2969C24.0938 14.0156 23.9063 13.8281 23.625 13.8281H23.2969C23.0156 13.8281 22.8281 14.0156 22.8281 14.2969C22.8281 14.5781 23.0156 14.7656 23.2969 14.7656ZM21.4219 13.5938H21.75C22.0313 13.5938 22.2188 13.4062 22.2188 13.125C22.2188 12.8437 22.0313 12.6562 21.75 12.6562H21.4219C21.1406 12.6562 20.9531 12.8437 20.9531 13.125C20.9531 13.4062 21.1406 13.5938 21.4219 13.5938ZM21.4219 15.8906H21.75C22.0313 15.8906 22.2188 15.7031 22.2188 15.4219C22.2188 15.1406 22.0313 14.9531 21.75 14.9531H21.4219C21.1406 14.9531 20.9531 15.1406 20.9531 15.4219C20.9531 15.7031 21.1406 15.8906 21.4219 15.8906ZM6.70312 13.8281H6.375C6.09375 13.8281 5.90625 14.0156 5.90625 14.2969C5.90625 14.5781 6.09375 14.7656 6.375 14.7656H6.70312C6.98437 14.7656 7.17187 14.5781 7.17187 14.2969C7.17187 14.0156 6.98437 13.8281 6.70312 13.8281ZM8.57812 12.6562H8.25C7.96875 12.6562 7.78125 12.8437 7.78125 13.125C7.78125 13.4062 7.96875 13.5938 8.25 13.5938H8.57812C8.85937 13.5938 9.04687 13.4062 9.04687 13.125C9.04687 12.8437 8.85937 12.6562 8.57812 12.6562ZM8.57812 14.9531H8.25C7.96875 14.9531 7.78125 15.1406 7.78125 15.4219C7.78125 15.7031 7.96875 15.8906 8.25 15.8906H8.57812C8.85937 15.8906 9.04687 15.7031 9.04687 15.4219C9.04687 15.1406 8.85937 14.9531 8.57812 14.9531ZM15 21.8906C14.7188 21.8906 14.5312 22.0781 14.5312 22.3594V23.625C14.5312 23.9063 14.7188 24.0938 15 24.0938C15.2812 24.0938 15.4688 23.9063 15.4688 23.625V22.3594C15.4688 22.0781 15.2812 21.8906 15 21.8906Z" fill="#248FEC"/>
</g>
<defs>
<clipPath id="clip0_1195_95449">
<rect width="30" height="30" fill="white"/>
</clipPath>
</defs>
</svg>
