<svg width="30" height="30" viewBox="0 0 30 30" fill="none" xmlns="http://www.w3.org/2000/svg">
<g clip-path="url(#clip0_1195_95444)">
<path d="M10.8108 19.5828C10.76 19.5481 10.7028 19.5237 10.6426 19.5111C10.5823 19.4985 10.5202 19.4979 10.4597 19.5093C10.3993 19.5208 10.3416 19.544 10.2902 19.5777C10.2387 19.6114 10.1943 19.655 10.1597 19.7058L6.40969 25.2066C6.37499 25.2574 6.35064 25.3146 6.33803 25.3749C6.32543 25.4351 6.32482 25.4973 6.33623 25.5578C6.34765 25.6183 6.37087 25.6759 6.40456 25.7274C6.43826 25.779 6.48177 25.8233 6.53262 25.858C6.58346 25.8927 6.64065 25.9171 6.7009 25.9297C6.76116 25.9423 6.82331 25.9429 6.8838 25.9315C6.94429 25.9201 7.00194 25.8969 7.05346 25.8632C7.10498 25.8295 7.14936 25.786 7.18406 25.7351L10.9341 20.2343C10.9688 20.1835 10.9931 20.1263 11.0057 20.066C11.0183 20.0057 11.0189 19.9435 11.0074 19.883C10.996 19.8225 10.9727 19.7648 10.939 19.7133C10.9052 19.6618 10.8617 19.6174 10.8108 19.5828ZM7.03125 18.751C6.75313 18.751 6.48126 18.8334 6.25 18.988C6.01875 19.1425 5.83851 19.3621 5.73207 19.619C5.62562 19.876 5.59776 20.1587 5.652 20.4315C5.70625 20.7043 5.84015 20.9548 6.0368 21.1515C6.23344 21.3482 6.48399 21.4821 6.75676 21.5364C7.02953 21.5907 7.31227 21.5629 7.56924 21.4565C7.8262 21.3501 8.04584 21.1699 8.20039 20.9387C8.35494 20.7074 8.43745 20.4356 8.4375 20.1575C8.43707 19.7846 8.28877 19.4272 8.02514 19.1636C7.76151 18.8999 7.40408 18.7514 7.03125 18.751ZM7.03125 20.6264C6.93854 20.6264 6.84791 20.599 6.77083 20.5474C6.69374 20.4959 6.63366 20.4227 6.59818 20.3371C6.5627 20.2514 6.55342 20.1572 6.57151 20.0662C6.58959 19.9753 6.63424 19.8918 6.69979 19.8262C6.76535 19.7607 6.84887 19.716 6.9398 19.698C7.03073 19.6799 7.12498 19.6891 7.21063 19.7246C7.29629 19.7601 7.3695 19.8202 7.421 19.8973C7.47251 19.9744 7.5 20.065 7.5 20.1577C7.49988 20.282 7.45045 20.4011 7.36257 20.489C7.27469 20.5769 7.15553 20.6263 7.03125 20.6264ZM9.84375 24.3769C9.56563 24.3769 9.29376 24.4594 9.0625 24.6139C8.83125 24.7684 8.65101 24.988 8.54457 25.245C8.43812 25.5019 8.41026 25.7846 8.4645 26.0574C8.51875 26.3302 8.65266 26.5808 8.8493 26.7775C9.04594 26.9741 9.29649 27.1081 9.56926 27.1624C9.84203 27.2167 10.1248 27.1888 10.3817 27.0824C10.6387 26.976 10.8583 26.7958 11.0129 26.5646C11.1674 26.3334 11.25 26.0615 11.25 25.7834C11.2496 25.4106 11.1013 25.0531 10.8376 24.7895C10.574 24.5259 10.2166 24.3773 9.84375 24.3769ZM9.84375 26.2521C9.75104 26.2521 9.66041 26.2247 9.58333 26.1731C9.50624 26.1216 9.44616 26.0484 9.41068 25.9628C9.3752 25.8771 9.36592 25.7829 9.38401 25.692C9.40209 25.601 9.44674 25.5175 9.51229 25.4519C9.57785 25.3864 9.66137 25.3417 9.7523 25.3237C9.84323 25.3056 9.93748 25.3149 10.0231 25.3503C10.1088 25.3858 10.182 25.4459 10.2335 25.523C10.285 25.6001 10.3125 25.6907 10.3125 25.7834C10.3124 25.9077 10.263 26.0268 10.1751 26.1147C10.0872 26.2026 9.96803 26.252 9.84375 26.2521Z" fill="#248FEC"/>
<path d="M13.1925 28.6642C13.1612 28.7941 13.0811 28.9069 12.9688 28.9791C12.8564 29.0514 12.7205 29.0775 12.5894 29.0521L2.70699 26.6976C2.58266 26.6632 2.47675 26.5814 2.41192 26.4699C2.34708 26.3584 2.32849 26.2259 2.36012 26.1008L6.42512 9.59921C6.62394 8.96571 7.02186 8.41327 7.55973 8.02397L10.6804 6.09929L11.2157 4.66772L7.06777 7.22569C6.32044 7.74596 5.77243 8.50508 5.51387 9.37819L1.4498 25.8766C1.40371 26.0587 1.39409 26.2481 1.42149 26.434C1.44889 26.6199 1.51277 26.7985 1.60947 26.9596C1.70616 27.1207 1.83375 27.261 1.98491 27.3726C2.13606 27.4842 2.30778 27.5648 2.49019 27.6098L12.3721 29.9643C12.743 30.0396 13.1286 29.9704 13.4502 29.7709C13.7717 29.5714 14.0049 29.2566 14.1021 28.8908L14.7733 26.2312L14.1614 24.8244L13.1925 28.6642Z" fill="#248FEC"/>
<path d="M28.4753 23.2096L21.879 7.81471C21.4872 7.01399 20.8224 6.37943 20.0043 6.02525L16.8215 4.85924C16.7859 5.17515 16.7313 5.48861 16.6579 5.79791L19.6813 6.90557C20.256 7.17189 20.7259 7.62162 21.0172 8.18408L27.6135 23.5788C27.6669 23.7036 27.6713 23.844 27.6258 23.972C27.5803 24.0999 27.4882 24.206 27.3679 24.269C27.3679 24.269 18.3233 28.544 18.3006 28.5548C18.2479 28.5787 18.1908 28.5916 18.133 28.5928C18.0751 28.594 18.0176 28.5834 17.9639 28.5618C17.9102 28.5401 17.8615 28.5078 17.8207 28.4667C17.7798 28.4257 17.7478 28.3768 17.7264 28.323L10.9607 12.7713C10.7395 12.1479 10.7218 11.4704 10.9101 10.8363L13.0865 5.01416C13.1301 4.89477 13.2182 4.79686 13.3323 4.74087C13.4464 4.68488 13.5778 4.67514 13.6989 4.71369L13.989 4.8201C14.0458 4.49884 14.0687 4.17253 14.0575 3.8465L14.0214 3.83338C13.869 3.77735 13.7079 3.74862 13.5456 3.74854C13.2539 3.75032 12.9697 3.84095 12.7308 4.00836C12.4919 4.17577 12.3097 4.41199 12.2085 4.68557L10.0314 10.5079C9.75937 11.3703 9.78371 12.2989 10.1005 13.1458C10.1005 13.1458 16.8639 28.6907 16.8667 28.6971C16.9395 28.8649 17.045 29.0166 17.1771 29.1432C17.3092 29.2698 17.4652 29.3689 17.636 29.4346C17.8067 29.5002 17.9889 29.5312 18.1718 29.5257C18.3547 29.5202 18.5346 29.4783 18.7011 29.4025L27.7682 25.1167C28.108 24.95 28.3708 24.6592 28.5023 24.3043C28.6339 23.9494 28.6241 23.5575 28.4751 23.2096H28.4753Z" fill="#248FEC"/>
<path d="M11.378 3.3455C11.4714 3.42762 11.5935 3.46928 11.7176 3.46132C11.8417 3.45337 11.9575 3.39645 12.0397 3.30308C12.1218 3.20972 12.1634 3.08756 12.1555 2.96347C12.1475 2.83939 12.0906 2.72355 11.9972 2.64144C11.9003 2.56254 11.8244 2.46076 11.7765 2.34526C11.7287 2.22976 11.7103 2.10417 11.723 1.9798C11.7484 1.79522 11.8154 1.61882 11.919 1.46399C12.0227 1.30915 12.1602 1.17994 12.3211 1.08613C13.1703 0.576831 14.115 1.51222 14.4957 2.07777C15.1906 3.11136 15.0593 4.69105 14.7357 5.72933C14.6965 5.85289 14.654 5.97536 14.6082 6.0966C14.5829 6.09542 14.558 6.09285 14.5322 6.09285C14.2024 6.09144 13.8825 6.20556 13.6281 6.4154C13.3736 6.62523 13.2007 6.91754 13.1393 7.24158C13.0778 7.56562 13.1318 7.90094 13.2918 8.18934C13.4518 8.47774 13.7078 8.701 14.0152 8.82039C14.3227 8.93977 14.6622 8.94774 14.9749 8.8429C15.2876 8.73806 15.5538 8.52704 15.7271 8.24647C15.9005 7.96589 15.9701 7.63347 15.924 7.3069C15.8778 6.98034 15.7188 6.68024 15.4744 6.45871C15.5314 6.30871 15.5839 6.15871 15.6305 6.00871C16.0346 4.71261 16.1527 2.86175 15.2733 1.55441C14.5041 0.410659 13.1016 -0.475982 11.839 0.282221C11.5514 0.451692 11.3069 0.685466 11.1248 0.965224C10.9426 1.24498 10.8277 1.56312 10.789 1.89472C10.7629 2.16612 10.8028 2.43981 10.9054 2.69243C11.0079 2.94506 11.1701 3.16912 11.378 3.3455ZM14.5322 7.96808C14.4395 7.96817 14.3488 7.94076 14.2717 7.88931C14.1945 7.83786 14.1344 7.76468 14.0988 7.67904C14.0633 7.59339 14.0539 7.49913 14.072 7.40817C14.09 7.31721 14.1346 7.23364 14.2001 7.16804C14.2657 7.10244 14.3492 7.05775 14.4401 7.03962C14.5311 7.0215 14.6254 7.03075 14.711 7.06622C14.7967 7.10168 14.87 7.16176 14.9215 7.23886C14.973 7.31595 15.0005 7.4066 15.0005 7.49933C15.0003 7.62351 14.9509 7.74256 14.8632 7.83042C14.7754 7.91827 14.6564 7.96777 14.5322 7.96808ZM16.2966 12.6828C16.3388 12.7816 16.3421 12.8928 16.306 12.994C16.2888 13.0465 16.2606 13.0947 16.2233 13.1354C16.186 13.1761 16.1404 13.2084 16.0897 13.23C16.0396 13.2536 15.9851 13.2664 15.9298 13.2677C15.8745 13.269 15.8195 13.2587 15.7683 13.2375C15.6651 13.2008 15.5806 13.1247 15.5332 13.0259L14.9925 11.8885C14.9662 11.8298 14.9279 11.7772 14.8802 11.7342C14.8324 11.6911 14.7761 11.6585 14.715 11.6384C14.5949 11.5967 14.4634 11.6027 14.3476 11.6552C14.2317 11.7077 14.1405 11.8026 14.0925 11.9203C14.0699 11.9803 14.0601 12.0444 14.064 12.1085C14.0678 12.1725 14.0851 12.235 14.1148 12.2918L14.6555 13.4293C14.7375 13.5935 14.8514 13.7397 14.9907 13.8593C15.1246 13.9752 15.2789 14.0653 15.4456 14.1251C15.6127 14.1845 15.7896 14.2117 15.9668 14.2053C16.149 14.1993 16.3281 14.1566 16.4935 14.0799C16.6624 14.0033 16.8131 13.8916 16.9355 13.7522C17.0545 13.6174 17.147 13.4613 17.2081 13.2921C17.2677 13.1265 17.2958 12.9511 17.2908 12.7751C17.2867 12.6014 17.2459 12.4304 17.1711 12.2736L16.9643 11.839C16.9404 11.7915 16.9267 11.7396 16.924 11.6865C16.9213 11.6333 16.9297 11.5803 16.9486 11.5306C16.9841 11.4304 17.0573 11.3481 17.1525 11.3011C17.2584 11.254 17.3779 11.2475 17.4882 11.2828C17.54 11.2986 17.5879 11.3252 17.6287 11.3608C17.6695 11.3964 17.7023 11.4403 17.7249 11.4896L18.2658 12.627C18.2913 12.6848 18.3284 12.7368 18.3747 12.7798C18.421 12.8228 18.4756 12.8559 18.5351 12.8771C18.5951 12.8984 18.6587 12.9074 18.7223 12.9036C18.7858 12.8998 18.8479 12.8833 18.905 12.855C19.0201 12.7958 19.1096 12.6964 19.1565 12.5757C19.1793 12.5194 19.19 12.4589 19.1877 12.3982C19.1855 12.3375 19.1703 12.278 19.1433 12.2236L18.6026 11.0862C18.5247 10.9195 18.4101 10.7726 18.2675 10.6564C18.1278 10.5415 17.9689 10.4523 17.798 10.3932C17.628 10.3341 17.4486 10.307 17.2688 10.313C17.0913 10.3178 16.9166 10.3585 16.7553 10.4325C16.5848 10.5087 16.4328 10.621 16.31 10.7616C16.1937 10.894 16.104 11.0476 16.0458 11.2139C15.9886 11.379 15.9626 11.5532 15.9692 11.7277C15.9747 11.9051 16.0147 12.0798 16.0871 12.2419L16.2966 12.6828ZM20.4891 15.0546C20.3907 14.8423 20.2493 14.6527 20.0738 14.4978C19.9071 14.3507 19.7134 14.2373 19.5036 14.164C19.293 14.091 19.0706 14.0586 18.848 14.0684C18.6167 14.0777 18.3893 14.1306 18.1777 14.2245L16.02 15.2159C15.9657 15.2399 15.9174 15.2756 15.8784 15.3204C15.8394 15.3652 15.8108 15.418 15.7946 15.4751C15.7566 15.5897 15.7648 15.7146 15.8175 15.8232C15.8439 15.8783 15.8811 15.9275 15.9269 15.968C15.9726 16.0085 16.0261 16.0393 16.084 16.0587C16.1408 16.0817 16.2017 16.0929 16.263 16.0915C16.3242 16.0901 16.3846 16.0763 16.4403 16.0507L17.1814 15.71L17.8587 17.1352L17.0984 17.4849C17.0435 17.5082 16.9944 17.5433 16.9546 17.5878C16.9149 17.6323 16.8855 17.685 16.8685 17.7422C16.832 17.8578 16.8418 17.983 16.8959 18.0914C16.9231 18.1458 16.9609 18.1942 17.0069 18.2339C17.0529 18.2736 17.1063 18.3038 17.164 18.3228C17.2204 18.3432 17.2802 18.3523 17.34 18.3495C17.3999 18.3467 17.4586 18.332 17.5128 18.3064L19.7032 17.2997C19.912 17.206 20.0976 17.0676 20.247 16.8943C20.3896 16.7294 20.4993 16.5389 20.5704 16.3329C20.6403 16.1277 20.669 15.9108 20.6548 15.6945C20.6414 15.4725 20.5852 15.2552 20.4891 15.0546ZM19.6711 16.0496C19.637 16.1459 19.5832 16.2341 19.5132 16.3085C19.4406 16.3864 19.3533 16.4492 19.2563 16.4932L18.7039 16.7471L18.0265 15.3221L18.6113 15.053C18.7056 15.0096 18.808 14.9864 18.9118 14.985C19.0122 14.9828 19.1121 15.0004 19.2057 15.0368C19.2984 15.0739 19.3838 15.127 19.4581 15.1936C19.5351 15.2611 19.5973 15.3438 19.6409 15.4364C19.6883 15.5335 19.7144 15.6395 19.7175 15.7475C19.7205 15.8501 19.7048 15.9525 19.6711 16.0496ZM21.541 17.5922C21.4817 17.5692 21.4183 17.5586 21.3548 17.5611C21.2913 17.5635 21.2289 17.579 21.1716 17.6065L17.9021 19.1089C17.787 19.168 17.6975 19.2672 17.6506 19.3878C17.6279 19.4465 17.6178 19.5094 17.6211 19.5723C17.6244 19.6352 17.641 19.6967 17.6698 19.7527L18.6054 21.721C18.6314 21.777 18.6686 21.8272 18.7147 21.8683C18.7608 21.9094 18.8149 21.9406 18.8736 21.96C18.9341 21.982 18.9985 21.9916 19.0628 21.9881C19.1271 21.9846 19.1901 21.9681 19.2479 21.9396C19.3055 21.9147 19.3574 21.8782 19.4004 21.8324C19.4433 21.7865 19.4764 21.7323 19.4975 21.6732C19.5198 21.6162 19.5301 21.5551 19.5276 21.494C19.5251 21.4328 19.5099 21.3728 19.4829 21.3178L18.7507 19.778L21.5848 18.4756C21.6429 18.4501 21.6948 18.4126 21.7373 18.3655C21.7798 18.3184 21.8117 18.2629 21.8311 18.2025C21.8526 18.1454 21.8624 18.0844 21.8599 18.0234C21.8574 17.9624 21.8427 17.9025 21.8166 17.8472C21.7901 17.7884 21.7521 17.7355 21.7047 17.6917C21.6574 17.6479 21.6017 17.6141 21.541 17.5922ZM23.4516 23.5353C23.4781 23.5926 23.5158 23.644 23.5625 23.6866C23.6091 23.7292 23.6638 23.762 23.7233 23.7832C23.7828 23.8044 23.8459 23.8136 23.9089 23.8101C23.972 23.8066 24.0337 23.7907 24.0905 23.7631C24.1485 23.7377 24.2008 23.7009 24.2443 23.6548C24.2878 23.6088 24.3215 23.5545 24.3436 23.4952C24.367 23.437 24.3777 23.3746 24.3752 23.312C24.3726 23.2494 24.3569 23.188 24.3289 23.1319L23.46 21.3043C23.4337 21.2455 23.3947 21.1932 23.346 21.1511C23.2972 21.109 23.2398 21.0781 23.1779 21.0605C23.0587 21.0206 22.9289 21.0273 22.8146 21.0793L19.545 22.5816C19.43 22.634 19.3403 22.7297 19.2956 22.848C19.251 22.9663 19.255 23.0974 19.3067 23.2128L20.1755 25.0404C20.2016 25.0976 20.2391 25.1489 20.2858 25.1911C20.3324 25.2333 20.3872 25.2655 20.4467 25.2858C20.5072 25.3077 20.5716 25.3172 20.6359 25.3138C20.7002 25.3103 20.7631 25.294 20.821 25.2657C20.8778 25.2403 20.9289 25.2038 20.9713 25.1582C21.0136 25.1127 21.0464 25.0591 21.0675 25.0006C21.0909 24.9424 21.1017 24.88 21.0992 24.8174C21.0967 24.7548 21.0809 24.6934 21.053 24.6373L20.3846 23.2311L21.1646 22.8727L21.6293 23.8503C21.6708 23.9357 21.7365 24.007 21.8181 24.0555C21.8998 24.1039 21.9939 24.1273 22.0887 24.1228C22.1836 24.1182 22.275 24.0859 22.3516 24.0299C22.4283 23.9739 22.4868 23.8966 22.52 23.8076C22.5429 23.75 22.5536 23.6882 22.5514 23.6261C22.5492 23.5641 22.5341 23.5033 22.5071 23.4474L22.0421 22.4696L22.7832 22.1293L23.4516 23.5353Z" fill="#248FEC"/>
</g>
<defs>
<clipPath id="clip0_1195_95444">
<rect width="30" height="30" fill="white"/>
</clipPath>
</defs>
</svg>
