<svg width="30" height="30" viewBox="0 0 30 30" fill="none" xmlns="http://www.w3.org/2000/svg">
<g clip-path="url(#clip0_1195_93798)">
<path d="M15 0.625014C12.393 0.625275 9.83519 1.33448 7.6003 2.67671C5.36541 4.01894 3.5376 5.94367 2.31252 8.24486C1.08745 10.5461 0.511222 13.1371 0.645531 15.7406C0.779841 18.3441 1.61963 20.8621 3.075 23.025L0.625 29.375L7.1625 27.0375C9.03742 28.2614 11.1723 29.0303 13.397 29.2831C15.6216 29.5359 17.8746 29.2655 19.9763 28.4935C22.078 27.7215 23.9703 26.4693 25.5024 24.8365C27.0345 23.2038 28.164 21.2358 28.801 19.0893C29.4379 16.9428 29.5647 14.6772 29.1711 12.4731C28.7775 10.269 27.8745 8.18726 26.534 6.39387C25.1936 4.60047 23.4527 3.14499 21.4502 2.14343C19.4478 1.14186 17.239 0.621913 15 0.625014Z" stroke="#248FEC" stroke-linecap="round" stroke-linejoin="round"/>
<path d="M11.8752 18.125C13.5002 19.75 17.0877 21.875 18.7502 21.875C19.4794 21.8825 20.1889 21.6378 20.7584 21.1822C21.3279 20.7266 21.7224 20.0881 21.8752 19.375V18.125C21.8752 18.125 20.3377 17.375 19.3752 16.875C18.4127 16.375 16.8752 18.125 16.8752 18.125C15.7053 17.7439 14.637 17.1029 13.7502 16.25C12.8973 15.3632 12.2563 14.2948 11.8752 13.125C11.8752 13.125 13.6252 11.5875 13.1252 10.625C12.6252 9.6625 11.8752 8.125 11.8752 8.125H10.6252C9.91203 8.27774 9.2736 8.67227 8.818 9.24177C8.3624 9.81126 8.11764 10.5207 8.12517 11.25C8.12517 12.9125 10.2502 16.5 11.8752 18.125Z" stroke="#248FEC" stroke-linecap="round" stroke-linejoin="round"/>
</g>
<defs>
<clipPath id="clip0_1195_93798">
<rect width="30" height="30" fill="white"/>
</clipPath>
</defs>
</svg>
