<svg width="45" height="45" viewBox="0 0 45 45" fill="none" xmlns="http://www.w3.org/2000/svg">
<g clip-path="url(#clip0_930_2011)">
<path d="M39.9247 5.08043C34.0317 -0.813215 24.4929 -0.813864 18.5989 5.0801C13.3634 10.3159 12.803 18.4692 16.892 24.3452L14.2857 26.9515C13.4346 26.5218 12.3288 26.6428 11.6359 27.3358C8.43886 30.5328 4.5317 34.44 1.3281 37.6436C0.44532 38.5261 0.44532 39.9624 1.3281 40.8448L4.15999 43.677C5.0435 44.5605 6.47656 44.5617 7.36121 43.677C7.48595 43.5523 16.3494 34.6888 17.669 33.3693C18.343 32.6952 18.556 31.6467 18.0598 30.7128L20.6562 28.1165C26.4964 32.1964 34.6386 31.6926 39.9247 26.4059C45.8043 20.5266 45.8043 10.9597 39.9247 5.08043ZM12.5716 28.2716C12.8864 27.9574 13.3978 27.9382 13.7597 28.1798C13.8947 28.4117 13.5773 28.0156 16.6847 31.152C17.1503 31.6175 17.0141 32.152 16.7332 32.4332L15.6968 33.4696L11.5354 29.3079L12.5716 28.2716ZM8.3976 40.769L4.23592 36.6073L10.5996 30.2436L14.761 34.4054L8.3976 40.769ZM2.26388 39.909C1.89745 39.5423 1.89745 38.9461 2.26388 38.5794L3.30015 37.5431L7.4617 41.7046L6.42543 42.7412C6.06823 43.0978 5.44951 43.0943 5.09576 42.7412L2.26388 39.909ZM17.2011 29.6998L15.305 27.8037L17.6989 25.4098C17.9841 25.7504 18.2789 26.0859 18.5989 26.4059C18.9177 26.7246 19.252 27.0217 19.5933 27.308L17.2011 29.6998ZM38.9889 25.4701C36.3906 28.0684 32.9364 29.4992 29.2621 29.4992C26.051 29.4992 23.0082 28.406 20.5577 26.3965L18.6269 24.4654C14.1931 19.0672 14.4942 11.0567 19.5347 6.01589C24.9115 0.639788 33.6122 0.639457 38.9889 6.01621C44.3522 11.3798 44.3522 20.1065 38.9889 25.4701Z" fill="#248FEC"/>
<path d="M37.6846 7.32042C33.0291 2.66487 25.4946 2.66449 20.8387 7.32042C16.1944 11.9647 16.1944 19.5214 20.8387 24.166C25.4943 28.8216 33.0287 28.8219 37.6846 24.166C42.3289 19.5214 42.3289 11.9647 37.6846 7.32042ZM36.7488 23.2302C32.6106 27.3685 25.9129 27.3686 21.7745 23.2302C17.6462 19.1016 17.6462 12.3845 21.7745 8.25619C25.9127 4.11793 32.6105 4.11781 36.7488 8.25619C40.8771 12.3845 40.8771 19.1016 36.7488 23.2302Z" fill="#248FEC"/>
<path d="M31.4743 7.59367C31.1473 7.43308 30.7498 7.5675 30.5879 7.8945C30.4264 8.22216 30.5608 8.61896 30.8888 8.78085C31.7253 9.19348 32.5118 9.71694 33.2263 10.3367C33.5026 10.576 33.9202 10.5467 34.1598 10.2705C34.3992 9.99418 34.3695 9.57638 34.0935 9.33695C33.2935 8.64319 32.4123 8.05672 31.4743 7.59367ZM37.6059 14.3351C37.212 13.3298 36.6908 12.3731 36.0575 11.4912C35.8442 11.1943 35.4313 11.1264 35.134 11.34C34.8374 11.553 34.7695 11.9666 34.9828 12.2635C35.5518 13.0558 36.0197 13.9153 36.3735 14.8178C36.5068 15.1576 36.8898 15.3264 37.2311 15.1927C37.5713 15.0592 37.7394 14.6753 37.6059 14.3351Z" fill="#248FEC"/>
</g>
<defs>
<clipPath id="clip0_930_2011">
<rect width="45" height="45" fill="white"/>
</clipPath>
</defs>
</svg>
