<svg width="34" height="34" viewBox="0 0 34 34" fill="none" xmlns="http://www.w3.org/2000/svg">
<path d="M17.0168 2.83887C9.1958 2.8342 2.85184 9.17055 2.84717 16.9915C2.8425 24.8125 9.17885 31.1565 16.9998 31.1611C20.7572 31.1673 24.3623 29.6762 27.0175 27.0177C29.6737 24.3637 31.1672 20.7634 31.1694 17.0085C31.1741 9.1875 24.8378 2.84354 17.0168 2.83887ZM17.0172 29.7445C9.97858 29.7492 4.26885 24.0473 4.26401 17.0087C4.25925 9.97011 9.96129 4.26029 16.9998 4.25554C20.3815 4.24948 23.6262 5.59127 26.0159 7.98397C28.4064 10.3723 29.7507 13.6122 29.7529 16.9914C29.7578 24.0299 24.0558 29.7396 17.0172 29.7445ZM18.0014 17L22.5087 12.4927C22.7786 12.2173 22.7786 11.7766 22.5087 11.5012C22.2349 11.2218 21.7865 11.2173 21.5072 11.4911L16.9998 15.9984L12.4925 11.4911C12.2171 11.2213 11.7764 11.2213 11.501 11.4911C11.2216 11.7649 11.2171 12.2133 11.4909 12.4927L15.9982 17L11.4909 21.5073C11.3581 21.6401 11.2835 21.8203 11.2834 22.0081C11.2834 22.3992 11.6005 22.7164 11.9917 22.7165C12.1796 22.7167 12.3599 22.642 12.4925 22.509L16.9998 18.0016L21.5072 22.509C21.6398 22.642 21.8201 22.7167 22.008 22.7165C22.1958 22.7164 22.3758 22.6419 22.5086 22.5091C22.7853 22.2325 22.7853 21.784 22.5087 21.5073L18.0014 17Z" fill="#232323"/>
</svg>
