<svg width="30" height="30" viewBox="0 0 30 30" fill="none" xmlns="http://www.w3.org/2000/svg">
<path fill-rule="evenodd" clip-rule="evenodd" d="M30 6C30 6.55228 29.5523 7 29 7L5.61539 7C5.0631 7 4.61539 6.55228 4.61539 6C4.61539 5.44771 5.0631 5 5.61539 5L29 5C29.5523 5 30 5.44772 30 6Z" fill="#232323"/>
<path fill-rule="evenodd" clip-rule="evenodd" d="M30 16C30 16.5523 29.5523 17 29 17L1 17C0.447716 17 4.51621e-08 16.5523 1.00872e-07 16C1.56583e-07 15.4477 0.447716 15 1 15L29 15C29.5523 15 30 15.4477 30 16Z" fill="#248FEC"/>
<path fill-rule="evenodd" clip-rule="evenodd" d="M30 26C30 26.5523 29.5523 27 29 27L10.2308 27C9.67849 27 9.23077 26.5523 9.23077 26C9.23077 25.4477 9.67849 25 10.2308 25L29 25C29.5523 25 30 25.4477 30 26Z" fill="#232323"/>
</svg>
