<svg width="24" height="24" viewBox="0 0 24 24" fill="none" xmlns="http://www.w3.org/2000/svg">
<path d="M12.0118 2.00391C6.49115 2.00061 2.01306 6.47333 2.00977 11.994C2.00647 17.5147 6.47919 21.9928 11.9999 21.9961C14.6522 22.0004 17.1969 20.9479 19.0712 19.0713C20.9462 17.1979 22.0004 14.6565 22.002 12.006C22.0053 6.48529 17.5325 2.0072 12.0118 2.00391ZM12.0121 20.9961C7.0437 20.9995 3.01331 16.9746 3.00989 12.0061C3.00653 7.03772 7.0315 3.00727 11.9999 3.00391C14.387 2.99964 16.6773 3.94678 18.3641 5.63574C20.0516 7.3216 21.0005 9.60858 21.0021 11.9939C21.0055 16.9623 16.9805 20.9927 12.0121 20.9961ZM12.7069 12L15.8885 8.81836C16.079 8.62396 16.079 8.31287 15.8885 8.11847C15.6953 7.92127 15.3787 7.91809 15.1815 8.11133L11.9999 11.293L8.81824 8.11139C8.62384 7.9209 8.31275 7.9209 8.11835 8.11139C7.92114 8.30463 7.91797 8.62116 8.11121 8.81836L11.2928 12L8.11121 15.1816C8.01746 15.2754 7.96485 15.4025 7.96478 15.5351C7.96478 15.8112 8.1886 16.0351 8.46472 16.0352C8.59735 16.0353 8.72461 15.9826 8.81824 15.8887L11.9999 12.707L15.1815 15.8887C15.2751 15.9826 15.4024 16.0353 15.535 16.0352C15.6676 16.0351 15.7947 15.9825 15.8884 15.8888C16.0837 15.6935 16.0837 15.377 15.8885 15.1816L12.7069 12Z" fill="#D60000"/>
</svg>
