<svg width="45" height="45" viewBox="0 0 45 45" fill="none" xmlns="http://www.w3.org/2000/svg">
<path d="M37.2656 0C33.5834 0 10.6095 0 7.73438 0C7.34607 0 7.03125 0.314824 7.03125 0.703125V44.2969C7.03125 44.6852 7.34607 45 7.73438 45H37.2656C37.6539 45 37.9688 44.6852 37.9688 44.2969V0.703125C37.9688 0.314824 37.6539 0 37.2656 0ZM28.125 1.40625V2.8125H16.875V1.40625H28.125ZM33.75 33.75H27.4219C27.0336 33.75 26.7188 34.0648 26.7188 34.4531V40.7812H11.25V4.21875H15.4688V6.32812C15.4688 6.71643 15.7836 7.03125 16.1719 7.03125H28.8281C29.2164 7.03125 29.5312 6.71643 29.5312 6.32812V4.21875H33.75V33.75ZM32.7557 35.1562L28.125 39.7869V35.1562H32.7557ZM28.125 5.625H16.875V4.21875H28.125V5.625ZM36.5625 43.5938H8.4375V1.40625H15.4688V2.8125H10.5469C10.1586 2.8125 9.84375 3.12732 9.84375 3.51562V41.4844C9.84375 41.8727 10.1586 42.1875 10.5469 42.1875C28.4562 42.1875 27.6021 42.2771 27.9008 41.9982C27.9227 41.9778 34.9577 34.9496 35.0113 34.8795C35.23 34.5929 35.1562 36.4378 35.1562 3.51562C35.1562 3.12732 34.8414 2.8125 34.4531 2.8125H29.5312V1.40625H36.5625V43.5938Z" fill="#248FEC"/>
<path d="M13.8111 13.018C13.9382 13.2297 14.1671 13.3594 14.4141 13.3594H16.5234C16.7704 13.3594 16.9993 13.2297 17.1264 13.018L18.1811 11.2602C18.3146 11.0375 18.3146 10.7594 18.1811 10.5367L17.1264 8.77887C16.9993 8.56714 16.7704 8.4375 16.5234 8.4375H14.4141C14.1671 8.4375 13.9382 8.56714 13.8111 8.77887L12.7564 10.5367C12.6229 10.7594 12.6229 11.0375 12.7564 11.2602L13.8111 13.018ZM14.8121 9.84375H16.1253L16.7581 10.8984L16.1253 11.9531H14.8121L14.1793 10.8984L14.8121 9.84375ZM13.8111 19.3461C13.9382 19.5579 14.1671 19.6875 14.4141 19.6875H16.5234C16.7704 19.6875 16.9993 19.5579 17.1264 19.3461L18.1811 17.5883C18.3146 17.3656 18.3146 17.0875 18.1811 16.8648L17.1264 15.107C16.9993 14.8953 16.7704 14.7656 16.5234 14.7656H14.4141C14.1671 14.7656 13.9382 14.8953 13.8111 15.107L12.7564 16.8648C12.6229 17.0875 12.6229 17.3656 12.7564 17.5883L13.8111 19.3461ZM14.8121 16.1719H16.1253L16.7581 17.2266L16.1253 18.2812H14.8121L14.1793 17.2266L14.8121 16.1719ZM13.8111 25.6743C13.9382 25.886 14.1671 26.0156 14.4141 26.0156H16.5234C16.7704 26.0156 16.9993 25.886 17.1264 25.6743L18.1811 23.9164C18.3146 23.6937 18.3146 23.4156 18.1811 23.1929L17.1264 21.4351C16.9993 21.2234 16.7704 21.0938 16.5234 21.0938H14.4141C14.1671 21.0938 13.9382 21.2234 13.8111 21.4351L12.7564 23.1929C12.6229 23.4156 12.6229 23.6937 12.7564 23.9164L13.8111 25.6743ZM14.8121 22.5H16.1253L16.7581 23.5547L16.1253 24.6094H14.8121L14.1793 23.5547L14.8121 22.5ZM13.8111 32.0024C13.9382 32.2141 14.1671 32.3438 14.4141 32.3438H16.5234C16.7704 32.3438 16.9993 32.2141 17.1264 32.0024L18.1811 30.2446C18.3146 30.0219 18.3146 29.7438 18.1811 29.5211L17.1264 27.7632C16.9993 27.5515 16.7704 27.4219 16.5234 27.4219H14.4141C14.1671 27.4219 13.9382 27.5515 13.8111 27.7632L12.7564 29.5211C12.6229 29.7438 12.6229 30.0219 12.7564 30.2446L13.8111 32.0024ZM14.8121 28.8281H16.1253L16.7581 29.8828L16.1253 30.9375H14.8121L14.1793 29.8828L14.8121 28.8281ZM20.3906 8.4375C20.0023 8.4375 19.6875 8.75232 19.6875 9.14062C19.6875 9.52893 20.0023 9.84375 20.3906 9.84375H31.6406C32.0289 9.84375 32.3438 9.52893 32.3438 9.14062C32.3438 8.75232 32.0289 8.4375 31.6406 8.4375H20.3906ZM31.6406 11.9531H23.2031C22.8148 11.9531 22.5 12.2679 22.5 12.6562C22.5 13.0446 22.8148 13.3594 23.2031 13.3594H31.6406C32.0289 13.3594 32.3438 13.0446 32.3438 12.6562C32.3438 12.2679 32.0289 11.9531 31.6406 11.9531ZM31.6406 14.7656H20.3906C20.0023 14.7656 19.6875 15.0804 19.6875 15.4688C19.6875 15.8571 20.0023 16.1719 20.3906 16.1719H31.6406C32.0289 16.1719 32.3438 15.8571 32.3438 15.4688C32.3438 15.0804 32.0289 14.7656 31.6406 14.7656ZM31.6406 18.2812H23.2031C22.8148 18.2812 22.5 18.5961 22.5 18.9844C22.5 19.3727 22.8148 19.6875 23.2031 19.6875H31.6406C32.0289 19.6875 32.3438 19.3727 32.3438 18.9844C32.3438 18.5961 32.0289 18.2812 31.6406 18.2812ZM31.6406 21.0938H20.3906C20.0023 21.0938 19.6875 21.4086 19.6875 21.7969C19.6875 22.1852 20.0023 22.5 20.3906 22.5H31.6406C32.0289 22.5 32.3438 22.1852 32.3438 21.7969C32.3438 21.4086 32.0289 21.0938 31.6406 21.0938ZM31.6406 24.6094H23.2031C22.8148 24.6094 22.5 24.9242 22.5 25.3125C22.5 25.7008 22.8148 26.0156 23.2031 26.0156H31.6406C32.0289 26.0156 32.3438 25.7008 32.3438 25.3125C32.3438 24.9242 32.0289 24.6094 31.6406 24.6094ZM31.6406 27.4219H20.3906C20.0023 27.4219 19.6875 27.7367 19.6875 28.125C19.6875 28.5133 20.0023 28.8281 20.3906 28.8281H31.6406C32.0289 28.8281 32.3438 28.5133 32.3438 28.125C32.3438 27.7367 32.0289 27.4219 31.6406 27.4219ZM31.6406 30.9375H23.2031C22.8148 30.9375 22.5 31.2523 22.5 31.6406C22.5 32.0289 22.8148 32.3438 23.2031 32.3438H31.6406C32.0289 32.3438 32.3438 32.0289 32.3438 31.6406C32.3438 31.2523 32.0289 30.9375 31.6406 30.9375ZM24.6094 33.75H13.3594C12.9711 33.75 12.6563 34.0648 12.6563 34.4531V38.6719C12.6563 39.0602 12.9711 39.375 13.3594 39.375H24.6094C24.9977 39.375 25.3125 39.0602 25.3125 38.6719V34.4531C25.3125 34.0648 24.9977 33.75 24.6094 33.75ZM23.9062 37.9688H14.0625V35.1562H23.9062V37.9688Z" fill="#248FEC"/>
</svg>
