<svg width="18" height="18" viewBox="0 0 18 18" fill="none" xmlns="http://www.w3.org/2000/svg">
<path d="M9.02952 3.9835C8.72772 3.98269 8.42875 4.04173 8.14991 4.15721C7.87107 4.27268 7.61789 4.4423 7.40502 4.65625C6.50952 5.55175 6.50952 7.00875 7.40502 7.90425C7.618 8.11819 7.87127 8.2878 8.15019 8.40327C8.42911 8.51874 8.72815 8.57779 9.03002 8.577C9.33175 8.57781 9.63065 8.51877 9.90941 8.40329C10.1882 8.28781 10.4413 8.11819 10.654 7.90425C11.5495 7.00875 11.5495 5.55175 10.654 4.65625C10.4412 4.44226 10.188 4.27261 9.90917 4.15713C9.63032 4.04165 9.33134 3.98264 9.02952 3.9835ZM9.94702 7.19725C9.8269 7.31808 9.684 7.41389 9.52659 7.47911C9.36919 7.54434 9.20041 7.5777 9.03002 7.57725C8.85954 7.57762 8.69067 7.54423 8.53315 7.47901C8.37564 7.41379 8.2326 7.31803 8.11227 7.19725C7.86948 6.95383 7.73313 6.62406 7.73313 6.28025C7.73313 5.93644 7.86948 5.60667 8.11227 5.36325C8.23244 5.2424 8.37538 5.14658 8.53283 5.08135C8.69028 5.01613 8.8591 4.98278 9.02952 4.98325C9.37627 4.98325 9.70202 5.118 9.94702 5.36325C10.1897 5.60673 10.326 5.93648 10.326 6.28025C10.326 6.62401 10.1897 6.95376 9.94702 7.19725ZM12.58 5.45575C12.5625 5.3805 12.5508 5.32575 12.5415 5.28375C12.5225 5.195 12.5108 5.14125 12.4795 5.0685C12.453 5.00782 12.4037 4.96005 12.3422 4.93556C12.2807 4.91108 12.212 4.91186 12.151 4.93775C12.025 4.99225 11.966 5.13925 12.0205 5.26625C12.0323 5.293 12.0368 5.312 12.0533 5.38875C12.0625 5.4335 12.0753 5.4915 12.0938 5.571C12.1092 5.6354 12.1495 5.69108 12.2059 5.72588C12.2622 5.76068 12.33 5.77178 12.3945 5.75675C12.5288 5.72475 12.6118 5.59 12.58 5.45575ZM12.0955 4.30425C11.8022 3.8406 11.4109 3.44673 10.9493 3.15026C10.4876 2.85379 9.96669 2.66188 9.42302 2.588C9.39049 2.58355 9.3574 2.58555 9.32564 2.59389C9.29387 2.60223 9.26407 2.61675 9.23792 2.63661C9.21176 2.65647 9.18978 2.68129 9.17322 2.70964C9.15666 2.738 9.14585 2.76934 9.1414 2.80187C9.13695 2.83441 9.13895 2.8675 9.14729 2.89926C9.15563 2.93102 9.17015 2.96083 9.19001 2.98698C9.20987 3.01313 9.23469 3.03512 9.26304 3.05168C9.2914 3.06824 9.32274 3.07905 9.35527 3.0835C9.82684 3.14747 10.2787 3.31389 10.6791 3.57108C11.0795 3.82827 11.4187 4.16999 11.673 4.57225C11.7086 4.62828 11.7649 4.66789 11.8296 4.68238C11.8944 4.69686 11.9622 4.68504 12.0183 4.6495C12.0743 4.61396 12.1139 4.55762 12.1284 4.49287C12.1429 4.42813 12.1311 4.36028 12.0955 4.30425Z" fill="#248FEC"/>
<path d="M9.00034 0.815491C6.04009 0.815491 3.63184 3.22374 3.63184 6.18374C3.63184 8.11524 6.41634 14.248 7.16434 15.7222C7.80984 16.9947 8.60684 17.1847 9.02484 17.1847C9.74884 17.1847 10.4081 16.6647 10.8818 15.7202C11.5913 14.3055 14.3686 8.09399 14.3686 6.18399C14.3688 3.22374 11.9603 0.815491 9.00034 0.815491ZM9.98784 15.272C9.70159 15.8432 9.34134 16.1845 9.02484 16.1845C8.70384 16.1845 8.35109 15.851 8.05609 15.2695C7.06234 13.311 4.63184 7.70149 4.63184 6.18399C4.63184 3.77524 6.59159 1.81574 9.00034 1.81574C11.4093 1.81574 13.3688 3.77524 13.3688 6.18399C13.3688 7.72449 10.8571 13.5395 9.98784 15.272Z" fill="#248FEC"/>
</svg>
