<svg width="20" height="20" viewBox="0 0 20 20" fill="none" xmlns="http://www.w3.org/2000/svg">
<path fill-rule="evenodd" clip-rule="evenodd" d="M12.083 10.8332H2.08301V9.1665H12.083V10.8332Z" fill="white"/>
<path fill-rule="evenodd" clip-rule="evenodd" d="M9.75565 6.49414L12.6723 9.4108C12.9977 9.73622 12.9977 10.2639 12.6723 10.5893L9.75565 13.506L8.57715 12.3275L10.9046 10L8.57715 7.67265L9.75565 6.49414Z" fill="white"/>
<path fill-rule="evenodd" clip-rule="evenodd" d="M11.2503 4.16667C8.98566 4.16667 7.021 5.45697 6.05393 7.34639L4.57031 6.58702C5.81125 4.1625 8.33591 2.5 11.2503 2.5C15.3925 2.5 18.7503 5.85787 18.7503 10C18.7503 14.1422 15.3925 17.5 11.2503 17.5C8.33591 17.5 5.81125 15.8375 4.57031 13.413L6.05393 12.6536C7.021 14.543 8.98566 15.8333 11.2503 15.8333C14.472 15.8333 17.0837 13.2217 17.0837 10C17.0837 6.77834 14.472 4.16667 11.2503 4.16667Z" fill="white"/>
</svg>
