<svg width="30" height="30" viewBox="0 0 30 30" fill="none" xmlns="http://www.w3.org/2000/svg">
<circle cx="15" cy="15" r="14.5" stroke="white"/>
<path d="M14.9899 15.2439C12.972 15.2439 11.2949 13.5681 11.2949 11.5853C11.2949 9.53385 12.972 7.85742 14.9906 7.85742C17.0777 7.85742 18.6856 9.53314 18.6856 11.5853C18.682 12.5589 18.292 13.4912 17.6012 14.1774C16.9105 14.8636 15.9756 15.2474 15.002 15.2446L14.9899 15.2439ZM14.9899 10.0124C14.1356 10.0124 13.4856 10.7303 13.4856 11.586C13.4856 12.4403 14.1356 13.0903 14.9906 13.0903C15.8799 13.0903 16.4956 12.4403 16.4956 11.586C16.4963 10.7296 15.8799 10.0124 14.9899 10.0124ZM16.4613 18.2881L18.5491 20.306C18.9599 20.7496 18.9599 21.3996 18.5491 21.8103C18.1049 22.2539 17.4199 22.2539 17.0777 21.8103L14.9906 19.7581L12.972 21.8103C12.767 22.0153 12.4927 22.1174 12.1841 22.1174C11.9449 22.1174 11.6713 22.0146 11.4313 21.8103C11.0206 21.3996 11.0206 20.7496 11.4313 20.3053L13.5527 18.2874C12.7866 18.0606 12.0517 17.7393 11.3649 17.331C10.8513 17.0574 10.7491 16.3739 11.0227 15.8603C11.3649 15.3474 11.9806 15.211 12.5284 15.5531C13.2703 16.0059 14.1226 16.2454 14.9916 16.2454C15.8607 16.2454 16.713 16.0059 17.4549 15.5531C18.0027 15.211 18.652 15.3474 18.9599 15.8603C19.2684 16.3739 19.1306 17.0567 18.6513 17.331C18.002 17.7417 17.2491 18.0496 16.462 18.2889L16.4613 18.2881Z" fill="white"/>
</svg>
