<svg width="30" height="30" viewBox="0 0 30 30" fill="none" xmlns="http://www.w3.org/2000/svg">
<circle cx="15" cy="15" r="14.5" stroke="#248FEC"/>
<path d="M14.9899 15.2435C12.972 15.2435 11.2949 13.5678 11.2949 11.585C11.2949 9.53355 12.972 7.85712 14.9906 7.85712C17.0777 7.85712 18.6856 9.53283 18.6856 11.585C18.682 12.5586 18.292 13.4909 17.6012 14.1771C16.9105 14.8633 15.9756 15.2471 15.002 15.2443L14.9899 15.2435ZM14.9899 10.0121C14.1356 10.0121 13.4856 10.73 13.4856 11.5857C13.4856 12.44 14.1356 13.09 14.9906 13.09C15.8799 13.09 16.4956 12.44 16.4956 11.5857C16.4963 10.7293 15.8799 10.0121 14.9899 10.0121ZM16.4613 18.2878L18.5491 20.3057C18.9599 20.7493 18.9599 21.3993 18.5491 21.81C18.1049 22.2535 17.4199 22.2535 17.0777 21.81L14.9906 19.7578L12.972 21.81C12.767 22.015 12.4927 22.1171 12.1841 22.1171C11.9449 22.1171 11.6713 22.0143 11.4313 21.81C11.0206 21.3993 11.0206 20.7493 11.4313 20.305L13.5527 18.2871C12.7866 18.0603 12.0517 17.739 11.3649 17.3307C10.8513 17.0571 10.7491 16.3735 11.0227 15.86C11.3649 15.3471 11.9806 15.2107 12.5284 15.5528C13.2703 16.0056 14.1226 16.2451 14.9916 16.2451C15.8607 16.2451 16.713 16.0056 17.4549 15.5528C18.0027 15.2107 18.652 15.3471 18.9599 15.86C19.2684 16.3735 19.1306 17.0564 18.6513 17.3307C18.002 17.7414 17.2491 18.0493 16.462 18.2885L16.4613 18.2878Z" fill="#248FEC"/>
</svg>
