<svg width="24" height="24" viewBox="0 0 24 24" fill="none" xmlns="http://www.w3.org/2000/svg">
<path d="M20.4697 8.99987C20.6675 8.99987 20.8608 8.94122 21.0253 8.83134C21.1897 8.72146 21.3179 8.56528 21.3936 8.38255C21.4693 8.19983 21.4891 7.99876 21.4505 7.80478C21.4119 7.6108 21.3167 7.43261 21.1768 7.29276C21.037 7.15291 20.8588 7.05767 20.6648 7.01908C20.4708 6.9805 20.2698 7.0003 20.087 7.07599C19.9043 7.15168 19.7481 7.27985 19.6383 7.4443C19.5284 7.60875 19.4697 7.80209 19.4697 7.99987C19.4697 8.26508 19.5751 8.51944 19.7626 8.70697C19.9501 8.89451 20.2045 8.99987 20.4697 8.99987ZM17.4697 8.99987C17.6675 8.99987 17.8608 8.94122 18.0253 8.83134C18.1897 8.72146 18.3179 8.56528 18.3936 8.38255C18.4693 8.19983 18.4891 7.99876 18.4505 7.80478C18.4119 7.6108 18.3167 7.43261 18.1768 7.29276C18.037 7.15291 17.8588 7.05767 17.6648 7.01908C17.4708 6.9805 17.2698 7.0003 17.087 7.07599C16.9043 7.15168 16.7481 7.27985 16.6383 7.4443C16.5284 7.60875 16.4697 7.80209 16.4697 7.99987C16.4697 8.26508 16.5751 8.51944 16.7626 8.70697C16.9501 8.89451 17.2045 8.99987 17.4697 8.99987ZM14.4697 8.99987C14.6675 8.99987 14.8608 8.94122 15.0253 8.83134C15.1897 8.72146 15.3179 8.56528 15.3936 8.38255C15.4693 8.19983 15.4891 7.99876 15.4505 7.80478C15.4119 7.6108 15.3167 7.43261 15.1768 7.29276C15.037 7.15291 14.8588 7.05767 14.6648 7.01908C14.4708 6.9805 14.2698 7.0003 14.087 7.07599C13.9043 7.15168 13.7481 7.27985 13.6383 7.4443C13.5284 7.60875 13.4697 7.80209 13.4697 7.99987C13.4697 8.13119 13.4956 8.26123 13.5458 8.38255C13.5961 8.50388 13.6698 8.61412 13.7626 8.70697C13.8555 8.79983 13.9657 8.87349 14.087 8.92375C14.2084 8.974 14.3384 8.99987 14.4697 8.99987ZM18.9097 12.9999C18.6897 12.9999 18.4597 12.9299 18.2397 12.8799C17.7942 12.7817 17.3564 12.6514 16.9297 12.4899C16.4658 12.3211 15.9559 12.3299 15.498 12.5145C15.0402 12.6991 14.6668 13.0465 14.4497 13.4899L14.2297 13.9399C13.2542 13.3957 12.3562 12.723 11.5597 11.9399C10.7804 11.1438 10.1081 10.2496 9.55972 9.27987L9.99972 8.99987C10.4431 8.78278 10.7905 8.4094 10.9751 7.95156C11.1597 7.49372 11.1685 6.98378 10.9997 6.51987C10.8409 6.09229 10.7107 5.65467 10.6097 5.20987C10.5597 4.97987 10.5197 4.75987 10.4897 4.52987C10.3683 3.82549 9.99934 3.18761 9.44934 2.73111C8.89934 2.2746 8.20442 2.02948 7.48972 2.03987H4.48972C4.06697 2.03931 3.64887 2.12812 3.26284 2.30045C2.87681 2.47279 2.53155 2.72477 2.24972 3.03987C1.96341 3.36236 1.74999 3.7428 1.62402 4.15524C1.49804 4.56768 1.46247 5.00243 1.51972 5.42987C2.04643 9.61691 3.9521 13.5094 6.93612 16.4935C9.92014 19.4775 13.8127 21.3832 17.9997 21.9099C18.1295 21.9198 18.2599 21.9198 18.3897 21.9099C19.1854 21.9099 19.9484 21.5938 20.511 21.0312C21.0736 20.4686 21.3897 19.7055 21.3897 18.9099V15.9099C21.3793 15.2121 21.126 14.5398 20.6734 14.0086C20.2207 13.4775 19.597 13.1208 18.9097 12.9999ZM19.3997 18.9999C19.4014 19.1448 19.3715 19.2884 19.3121 19.4207C19.2528 19.5529 19.1654 19.6707 19.056 19.7658C18.9466 19.8609 18.8178 19.9311 18.6786 19.9715C18.5394 20.012 18.393 20.0216 18.2497 19.9999C14.5159 19.5126 11.0468 17.808 8.37972 15.1499C5.71472 12.4647 4.01296 8.97331 3.53972 5.21987C3.518 5.0732 3.52916 4.92354 3.57239 4.78172C3.61563 4.6399 3.68987 4.50947 3.78972 4.39987C3.88231 4.29445 3.99605 4.2097 4.12354 4.15113C4.25103 4.09255 4.38942 4.06146 4.52972 4.05987H7.52972C7.76227 4.05469 7.98934 4.13075 8.17186 4.27494C8.35438 4.41913 8.48093 4.62244 8.52972 4.84987C8.56972 5.1232 8.61972 5.3932 8.67972 5.65987C8.79524 6.18701 8.94898 6.70505 9.13972 7.20987L7.73972 7.85987C7.62002 7.91479 7.51234 7.99281 7.42288 8.08946C7.33341 8.18611 7.26392 8.29948 7.21839 8.42306C7.17286 8.54664 7.15219 8.678 7.15757 8.80959C7.16294 8.94118 7.19426 9.07041 7.24972 9.18987C8.68892 12.2726 11.167 14.7507 14.2497 16.1899C14.4932 16.2899 14.7663 16.2899 15.0097 16.1899C15.2579 16.0975 15.4593 15.9105 15.5697 15.6699L16.1997 14.2699C16.7167 14.4547 17.2443 14.6084 17.7797 14.7299C18.0397 14.7899 18.3197 14.8399 18.5897 14.8799C18.8153 14.9307 19.0163 15.0581 19.1585 15.2404C19.3007 15.4227 19.3754 15.6487 19.3697 15.8799L19.3997 18.9999Z" fill="#248FEC"/>
</svg>
