<svg width="45" height="45" viewBox="0 0 45 45" fill="none" xmlns="http://www.w3.org/2000/svg">
<path d="M22.5 32.3438C23.8906 32.3438 25.2501 31.9314 26.4064 31.1588C27.5626 30.3862 28.4639 29.288 28.996 28.0032C29.5282 26.7185 29.6674 25.3047 29.3961 23.9408C29.1248 22.5768 28.4552 21.324 27.4718 20.3407C26.4885 19.3573 25.2357 18.6877 23.8717 18.4164C22.5078 18.1451 21.0941 18.2843 19.8093 18.8165C18.5245 19.3487 17.4263 20.2499 16.6537 21.4062C15.8811 22.5624 15.4688 23.9219 15.4688 25.3125C15.4708 27.1767 16.2122 28.9639 17.5304 30.2821C18.8486 31.6003 20.6358 32.3417 22.5 32.3438ZM22.5 19.6875C23.6125 19.6875 24.7001 20.0174 25.6251 20.6355C26.5501 21.2536 27.2711 22.1321 27.6968 23.1599C28.1226 24.1877 28.234 25.3187 28.0169 26.4099C27.7999 27.501 27.2641 28.5033 26.4775 29.29C25.6908 30.0766 24.6885 30.6124 23.5974 30.8294C22.5062 31.0465 21.3752 30.9351 20.3474 30.5093C19.3196 30.0836 18.4411 29.3626 17.823 28.4376C17.2049 27.5126 16.875 26.425 16.875 25.3125C16.8767 23.8212 17.4698 22.3914 18.5244 21.3369C19.5789 20.2823 21.0087 19.6892 22.5 19.6875Z" fill="#248FEC"/>
<path d="M41.6377 25.3125H37.0814C36.012 21.8236 33.991 18.7021 31.2455 16.2984L27.3389 12.8798C27.6418 12.6383 27.8717 12.3173 28.0029 11.9527C28.134 11.5882 28.1613 11.1943 28.0817 10.8151C28.0021 10.4359 27.8187 10.0863 27.5519 9.80529C27.2852 9.52427 26.9456 9.32288 26.5711 9.22359L30.117 3.90516C30.2016 3.77841 30.2428 3.62759 30.2343 3.47541C30.2258 3.32323 30.1681 3.17794 30.0698 3.06141C30.0523 3.04172 30.0298 3.02977 30.0108 3.01148L30.0164 3.00586C28.9333 1.98549 27.5036 1.41385 26.0156 1.40625C24.8416 1.40843 23.696 1.76796 22.7313 2.43703C20.5481 1.48219 18.2812 0.525234 15.0469 2.95312C14.903 3.06097 14.806 3.21982 14.7756 3.39702C14.7453 3.57421 14.784 3.7563 14.8837 3.90586L18.4296 9.2243C18.0916 9.31335 17.7813 9.48591 17.5274 9.72614C17.2734 9.96637 17.0839 10.2666 16.9763 10.5991C16.8686 10.9317 16.8463 11.286 16.9112 11.6295C16.9762 11.973 17.1265 12.2946 17.3482 12.5648L14.0203 15.6713L14.9808 16.6985L18.5583 13.3594H25.7513L30.3216 17.3566C32.7592 19.4917 34.5836 22.2379 35.607 25.3125H32.8936C32.375 25.3131 31.8778 25.5193 31.511 25.886C31.1443 26.2528 30.9381 26.75 30.9375 27.2686V28.9814C30.9395 29.4412 31.105 29.8853 31.4044 30.2344C31.105 30.5834 30.9395 31.0275 30.9375 31.4873V33.2002C30.9403 33.4063 30.9759 33.6106 31.043 33.8055C30.6141 33.9057 30.2316 34.1476 29.9573 34.4921C29.6829 34.8366 29.5328 35.2636 29.5312 35.704V37.4168C29.5328 37.8572 29.6829 38.2842 29.9573 38.6287C30.2316 38.9732 30.6141 39.2151 31.043 39.3152C30.9759 39.5102 30.9403 39.7145 30.9375 39.9206V41.6334C30.9407 41.7159 30.9489 41.7981 30.9621 41.8795C30.2687 42.0815 29.5504 42.1851 28.8281 42.1875H28.7395C28.7955 42.0095 28.8254 41.8243 28.8281 41.6377V39.9248C28.8261 39.465 28.6606 39.0209 28.3612 38.6719C28.6606 38.3228 28.8261 37.8787 28.8281 37.4189V35.7061C28.8276 35.1875 28.6213 34.6903 28.2546 34.3235C27.8879 33.9568 27.3906 33.7506 26.872 33.75H18.128C17.6094 33.7506 17.1121 33.9568 16.7454 34.3235C16.3787 34.6903 16.1724 35.1875 16.1719 35.7061V37.4189C16.1739 37.8787 16.3394 38.3228 16.6388 38.6719C16.3394 39.0209 16.1739 39.465 16.1719 39.9248V41.6377C16.1746 41.8243 16.2045 42.0095 16.2605 42.1875H16.1719C15.4498 42.1865 14.7315 42.0843 14.0379 41.8838C14.0511 41.8023 14.0593 41.7201 14.0625 41.6377V39.9248C14.0597 39.7187 14.0241 39.5144 13.957 39.3195C14.3859 39.2193 14.7684 38.9774 15.0427 38.6329C15.3171 38.2884 15.4672 37.8614 15.4688 37.421V35.7061C15.4672 35.2657 15.3171 34.8387 15.0427 34.4942C14.7684 34.1497 14.3859 33.9078 13.957 33.8077C14.0241 33.6127 14.0597 33.4084 14.0625 33.2023V31.4873C14.0605 31.0275 13.895 30.5834 13.5956 30.2344C13.895 29.8853 14.0605 29.4412 14.0625 28.9814V27.2686C14.0619 26.75 13.8557 26.2528 13.489 25.886C13.1222 25.5193 12.625 25.3131 12.1064 25.3125H9.27281C10.159 22.459 11.7311 19.8661 13.8516 17.7609L12.8672 16.7618C10.4765 19.1324 8.73349 22.0764 7.80469 25.3125H3.36234C2.84373 25.3131 2.34651 25.5193 1.97979 25.886C1.61308 26.2528 1.40681 26.75 1.40625 27.2686V28.9814C1.40829 29.4412 1.57377 29.8853 1.87313 30.2344C1.57377 30.5834 1.40829 31.0275 1.40625 31.4873V33.2002C1.40784 33.6405 1.55794 34.0675 1.83227 34.412C2.1066 34.7565 2.48912 34.9984 2.91797 35.0986C2.85094 35.2935 2.81534 35.4979 2.8125 35.704V37.4168C2.81534 37.6229 2.85094 37.8273 2.91797 38.0222C2.48842 38.1225 2.10537 38.365 1.83096 38.7104C1.55656 39.0558 1.40689 39.4837 1.40625 39.9248V41.6377C1.40681 42.1563 1.61308 42.6535 1.97979 43.0202C2.34651 43.3869 2.84373 43.5932 3.36234 43.5938H12.1064C12.559 43.5919 12.9967 43.4314 13.3432 43.1402C14.2563 43.4396 15.211 43.5926 16.1719 43.5938H28.8281C29.789 43.5926 30.7437 43.4396 31.6568 43.1402C32.0033 43.4314 32.441 43.5919 32.8936 43.5938H41.6377C42.1563 43.5932 42.6535 43.3869 43.0202 43.0202C43.3869 42.6535 43.5932 42.1563 43.5938 41.6377V39.9248C43.5922 39.4845 43.4421 39.0575 43.1677 38.713C42.8934 38.3685 42.5109 38.1266 42.082 38.0264C42.1491 37.8315 42.1847 37.6271 42.1875 37.421V35.7061C42.1847 35.5 42.1491 35.2956 42.082 35.1007C42.5109 35.0005 42.8934 34.7586 43.1677 34.4141C43.4421 34.0696 43.5922 33.6427 43.5938 33.2023V31.4873C43.5917 31.0275 43.4262 30.5834 43.1269 30.2344C43.4262 29.8853 43.5917 29.4412 43.5938 28.9814V27.2686C43.5932 26.75 43.3869 26.2528 43.0202 25.886C42.6535 25.5193 42.1563 25.3131 41.6377 25.3125ZM28.0153 3.30469C26.8256 3.61033 25.5711 3.54607 24.4188 3.12047C24.9268 2.91757 25.4687 2.81306 26.0156 2.8125C26.711 2.8221 27.3949 2.99044 28.0153 3.30469ZM22.2265 3.75328C23.8078 4.44586 25.5537 5.21227 27.8395 4.78828L24.9363 9.14062H20.0637L16.4355 3.69844C18.7376 2.22328 20.2936 2.90391 22.2265 3.75117V3.75328ZM18.9844 11.9531C18.7979 11.9531 18.6191 11.879 18.4872 11.7472C18.3553 11.6153 18.2812 11.4365 18.2812 11.25C18.2812 11.0635 18.3553 10.8847 18.4872 10.7528C18.6191 10.621 18.7979 10.5469 18.9844 10.5469H26.0156C26.2021 10.5469 26.3809 10.621 26.5128 10.7528C26.6447 10.8847 26.7188 11.0635 26.7188 11.25C26.7188 11.4365 26.6447 11.6153 26.5128 11.7472C26.3809 11.879 26.2021 11.9531 26.0156 11.9531H18.9844ZM14.0625 37.4189C14.0623 37.5647 14.0043 37.7044 13.9012 37.8075C13.7982 37.9106 13.6584 37.9686 13.5127 37.9688H4.76859C4.62282 37.9686 4.48308 37.9106 4.38 37.8075C4.27693 37.7044 4.21894 37.5647 4.21875 37.4189V35.7061C4.21894 35.5603 4.27693 35.4206 4.38 35.3175C4.48308 35.2144 4.62282 35.1564 4.76859 35.1562H5.625V36.5625H7.03125V35.1562H8.4375V36.5625H9.84375V35.1562H11.25V36.5625H12.6562V35.1562H13.5127C13.6584 35.1564 13.7982 35.2144 13.9012 35.3175C14.0043 35.4206 14.0623 35.5603 14.0625 35.7061V37.4189ZM2.8125 27.2686C2.81269 27.1228 2.87068 26.9831 2.97375 26.88C3.07683 26.7769 3.21657 26.7189 3.36234 26.7188H4.21875V28.125H5.625V26.7188H7.03125V28.125H8.4375V26.7188H9.84375V28.125H11.25V26.7188H12.1064C12.2522 26.7189 12.3919 26.7769 12.495 26.88C12.5981 26.9831 12.6561 27.1228 12.6562 27.2686V28.9814C12.6561 29.1272 12.5981 29.2669 12.495 29.37C12.3919 29.4731 12.2522 29.5311 12.1064 29.5312H3.36234C3.21657 29.5311 3.07683 29.4731 2.97375 29.37C2.87068 29.2669 2.81269 29.1272 2.8125 28.9814V27.2686ZM2.8125 31.4873C2.81269 31.3416 2.87068 31.2018 2.97375 31.0988C3.07683 30.9957 3.21657 30.9377 3.36234 30.9375H4.21875V32.3438H5.625V30.9375H7.03125V32.3438H8.4375V30.9375H9.84375V32.3438H11.25V30.9375H12.1064C12.2522 30.9377 12.3919 30.9957 12.495 31.0988C12.5981 31.2018 12.6561 31.3416 12.6562 31.4873V33.2002C12.6561 33.3459 12.5981 33.4857 12.495 33.5887C12.3919 33.6918 12.2522 33.7498 12.1064 33.75H3.36234C3.21657 33.7498 3.07683 33.6918 2.97375 33.5887C2.87068 33.4857 2.81269 33.3459 2.8125 33.2002V31.4873ZM12.6562 41.6377C12.6561 41.7834 12.5981 41.9232 12.495 42.0262C12.3919 42.1293 12.2522 42.1873 12.1064 42.1875H3.36234C3.21657 42.1873 3.07683 42.1293 2.97375 42.0262C2.87068 41.9232 2.81269 41.7834 2.8125 41.6377V39.9248C2.81269 39.7791 2.87068 39.6393 2.97375 39.5363C3.07683 39.4332 3.21657 39.3752 3.36234 39.375H4.21875V40.7812H5.625V39.375H7.03125V40.7812H8.4375V39.375H9.84375V40.7812H11.25V39.375H12.1064C12.2522 39.3752 12.3919 39.4332 12.495 39.5363C12.5981 39.6393 12.6561 39.7791 12.6562 39.9248V41.6377ZM17.5781 35.7061C17.5783 35.5603 17.6363 35.4206 17.7394 35.3175C17.8425 35.2144 17.9822 35.1564 18.128 35.1562H18.9844V36.5625H20.3906V35.1562H21.7969V36.5625H23.2031V35.1562H24.6094V36.5625H26.0156V35.1562H26.872C27.0178 35.1564 27.1575 35.2144 27.2606 35.3175C27.3637 35.4206 27.4217 35.5603 27.4219 35.7061V37.4189C27.4217 37.5647 27.3637 37.7044 27.2606 37.8075C27.1575 37.9106 27.0178 37.9686 26.872 37.9688H18.128C17.9822 37.9686 17.8425 37.9106 17.7394 37.8075C17.6363 37.7044 17.5783 37.5647 17.5781 37.4189V35.7061ZM18.128 42.1875C17.9822 42.1873 17.8425 42.1293 17.7394 42.0262C17.6363 41.9232 17.5783 41.7834 17.5781 41.6377V39.9248C17.5783 39.7791 17.6363 39.6393 17.7394 39.5363C17.8425 39.4332 17.9822 39.3752 18.128 39.375H18.9844V40.7812H20.3906V39.375H21.7969V40.7812H23.2031V39.375H24.6094V40.7812H26.0156V39.375H26.872C27.0178 39.3752 27.1575 39.4332 27.2606 39.5363C27.3637 39.6393 27.4217 39.7791 27.4219 39.9248V41.6377C27.4217 41.7834 27.3637 41.9232 27.2606 42.0262C27.1575 42.1293 27.0178 42.1873 26.872 42.1875H18.128ZM32.3438 27.2686C32.3439 27.1228 32.4019 26.9831 32.505 26.88C32.6081 26.7769 32.7478 26.7189 32.8936 26.7188H33.75V28.125H35.1562V26.7188H36.5625V28.125H37.9688V26.7188H39.375V28.125H40.7812V26.7188H41.6377C41.7834 26.7189 41.9232 26.7769 42.0262 26.88C42.1293 26.9831 42.1873 27.1228 42.1875 27.2686V28.9814C42.1873 29.1272 42.1293 29.2669 42.0262 29.37C41.9232 29.4731 41.7834 29.5311 41.6377 29.5312H32.8936C32.7478 29.5311 32.6081 29.4731 32.505 29.37C32.4019 29.2669 32.3439 29.1272 32.3438 28.9814V27.2686ZM30.9375 35.7061C30.9377 35.5603 30.9957 35.4206 31.0988 35.3175C31.2018 35.2144 31.3416 35.1564 31.4873 35.1562H32.3438V36.5625H33.75V35.1562H35.1562V36.5625H36.5625V35.1562H37.9688V36.5625H39.375V35.1562H40.2314C40.3772 35.1564 40.5169 35.2144 40.62 35.3175C40.7231 35.4206 40.7811 35.5603 40.7812 35.7061V37.4189C40.7811 37.5647 40.7231 37.7044 40.62 37.8075C40.5169 37.9106 40.3772 37.9686 40.2314 37.9688H31.4873C31.3416 37.9686 31.2018 37.9106 31.0988 37.8075C30.9957 37.7044 30.9377 37.5647 30.9375 37.4189V35.7061ZM42.1875 41.6377C42.1873 41.7834 42.1293 41.9232 42.0262 42.0262C41.9232 42.1293 41.7834 42.1873 41.6377 42.1875H32.8936C32.7478 42.1873 32.6081 42.1293 32.505 42.0262C32.4019 41.9232 32.3439 41.7834 32.3438 41.6377V39.9248C32.3439 39.7791 32.4019 39.6393 32.505 39.5363C32.6081 39.4332 32.7478 39.3752 32.8936 39.375H33.75V40.7812H35.1562V39.375H36.5625V40.7812H37.9688V39.375H39.375V40.7812H40.7812V39.375H41.6377C41.7834 39.3752 41.9232 39.4332 42.0262 39.5363C42.1293 39.6393 42.1873 39.7791 42.1875 39.9248V41.6377ZM42.1875 33.2002C42.1873 33.3459 42.1293 33.4857 42.0262 33.5887C41.9232 33.6918 41.7834 33.7498 41.6377 33.75H32.8936C32.7478 33.7498 32.6081 33.6918 32.505 33.5887C32.4019 33.4857 32.3439 33.3459 32.3438 33.2002V31.4873C32.3439 31.3416 32.4019 31.2018 32.505 31.0988C32.6081 30.9957 32.7478 30.9377 32.8936 30.9375H33.75V32.3438H35.1562V30.9375H36.5625V32.3438H37.9688V30.9375H39.375V32.3438H40.7812V30.9375H41.6377C41.7834 30.9377 41.9232 30.9957 42.0262 31.0988C42.1293 31.2018 42.1873 31.3416 42.1875 31.4873V33.2002Z" fill="#248FEC"/>
</svg>
