<svg width="45" height="45" viewBox="0 0 45 45" fill="none" xmlns="http://www.w3.org/2000/svg">
<path d="M26.6228 5.62501C25.9014 5.62501 25.18 5.89922 24.6344 6.44626L22.6459 8.43469L21.6503 9.42891L18.669 12.4116C17.6154 13.4674 17.0236 14.8982 17.0236 16.3898C17.0236 17.8815 17.6154 19.3123 18.669 20.3681L4.74577 34.2886C4.22056 34.8171 3.92578 35.5319 3.92578 36.277C3.92578 37.0221 4.22056 37.737 4.74577 38.2655L6.73421 40.2539C7.82686 41.3466 9.61702 41.3466 10.7111 40.2539L24.633 26.3348C25.6882 27.3891 27.1189 27.9813 28.6105 27.9813C30.1022 27.9813 31.5328 27.3891 32.5881 26.3348L35.5694 23.3508L36.565 22.3566L38.5534 20.3681C39.0785 19.839 39.3731 19.1237 39.3731 18.3783C39.3731 17.6328 39.0785 16.9176 38.5534 16.3884L28.6112 6.44626C28.3502 6.18521 28.0401 5.97828 27.6989 5.83735C27.3577 5.69642 26.992 5.62426 26.6228 5.62501ZM26.6228 7.02001C26.98 7.02001 27.3372 7.16063 27.617 7.44047L37.5592 17.3827C37.692 17.512 37.7975 17.6666 37.8695 17.8373C37.9416 18.0081 37.9787 18.1915 37.9787 18.3769C37.9787 18.5622 37.9416 18.7457 37.8695 18.9164C37.7975 19.0872 37.692 19.2418 37.5592 19.3711L35.5708 21.3623L34.5765 22.3566L31.5939 25.3406C31.2039 25.7353 30.7394 26.0486 30.2274 26.2625C29.7154 26.4763 29.1661 26.5864 28.6112 26.5864C28.0564 26.5864 27.507 26.4763 26.9951 26.2625C26.4831 26.0486 26.0186 25.7353 25.6286 25.3406L25.2236 24.9328C25.1731 24.8596 25.1091 24.7966 25.0351 24.7472L20.2539 19.9617C20.2046 19.8905 20.1427 19.829 20.0711 19.7803L19.6633 19.3725C19.2684 18.9825 18.9549 18.5179 18.7409 18.0058C18.527 17.4937 18.4168 16.9442 18.4168 16.3891C18.4168 15.8341 18.527 15.2846 18.7409 14.7725C18.9549 14.2604 19.2684 13.7958 19.6633 13.4058L22.6445 10.4245L23.6401 9.42891L25.6286 7.44047C25.7583 7.30817 25.913 7.20289 26.0836 7.13072C26.2543 7.05855 26.4375 7.02092 26.6228 7.02001ZM27.617 12.2963C27.0756 12.2963 26.5342 12.5002 26.1264 12.9094C25.7341 13.3063 25.5141 13.8419 25.5141 14.4C25.5141 14.9581 25.7341 15.4937 26.1264 15.8906L29.1076 18.8747C29.9261 19.6917 31.2733 19.6917 32.0903 18.8747C32.483 18.4777 32.7033 17.9418 32.7033 17.3834C32.7033 16.8249 32.483 16.289 32.0903 15.892L29.109 12.9094C28.913 12.714 28.6802 12.5592 28.4242 12.454C28.1681 12.3488 27.8938 12.2952 27.617 12.2963ZM22.6347 12.7041C22.4484 12.707 22.271 12.7838 22.1413 12.9174C22.0115 13.0511 21.9402 13.2308 21.9428 13.417V14.8233C21.9428 15.0098 22.0169 15.1886 22.1487 15.3205C22.2806 15.4523 22.4594 15.5264 22.6459 15.5264C22.8324 15.5264 23.0112 15.4523 23.1431 15.3205C23.275 15.1886 23.349 15.0098 23.349 14.8233V13.417C23.3506 13.3228 23.3331 13.2292 23.2978 13.1419C23.2624 13.0545 23.2098 12.9752 23.1432 12.9085C23.0766 12.8419 22.9972 12.7893 22.9098 12.7539C22.8225 12.7186 22.7289 12.7011 22.6347 12.7027V12.7041ZM27.617 13.6913C27.7942 13.6913 27.9714 13.7616 28.1134 13.9022L31.0961 16.8863C31.1634 16.9504 31.2171 17.0275 31.2537 17.1129C31.2903 17.1984 31.3092 17.2904 31.3092 17.3834C31.3092 17.4763 31.2903 17.5683 31.2537 17.6538C31.2171 17.7393 31.1634 17.8164 31.0961 17.8805C31.032 17.9478 30.9549 18.0014 30.8694 18.0381C30.784 18.0747 30.6919 18.0936 30.599 18.0936C30.506 18.0936 30.414 18.0747 30.3285 18.0381C30.2431 18.0014 30.166 17.9478 30.1019 17.8805L27.1206 14.8978C27.0533 14.8337 26.9996 14.7566 26.963 14.6711C26.9264 14.5857 26.9075 14.4937 26.9075 14.4007C26.9075 14.3077 26.9264 14.2157 26.963 14.1303C26.9996 14.0448 27.0533 13.9677 27.1206 13.9036C27.1853 13.8373 27.2624 13.7845 27.3476 13.7483C27.4329 13.7121 27.5244 13.6932 27.617 13.6927V13.6913ZM20.6462 14.6911C20.5538 14.6924 20.4625 14.7119 20.3776 14.7485C20.2927 14.7851 20.2158 14.8381 20.1514 14.9045C20.087 14.9708 20.0363 15.0492 20.0023 15.1352C19.9682 15.2212 19.9515 15.313 19.953 15.4055V16.8117C19.953 16.9982 20.027 17.177 20.1589 17.3089C20.2908 17.4408 20.4696 17.5148 20.6561 17.5148C20.8426 17.5148 21.0214 17.4408 21.1533 17.3089C21.2851 17.177 21.3592 16.9982 21.3592 16.8117V15.4055C21.3607 15.3114 21.3433 15.2179 21.308 15.1306C21.2728 15.0434 21.2203 14.9641 21.1538 14.8975C21.0874 14.8308 21.0082 14.7782 20.921 14.7428C20.8338 14.7073 20.7404 14.6898 20.6462 14.6911ZM19.6619 21.3623L20.6561 22.3566L17.177 25.837L18.1712 26.8313L17.177 27.8255L16.1828 26.8313L13.2001 29.8139L14.1944 30.8081L13.2001 31.8023L12.2017 30.8081L9.22046 33.7908L10.2147 34.785L9.22046 35.7792L8.22624 34.785L5.73999 37.2713C5.60723 37.1419 5.50172 36.9873 5.42968 36.8166C5.35763 36.6458 5.32051 36.4624 5.32051 36.277C5.32051 36.0917 5.35763 35.9082 5.42968 35.7375C5.50172 35.5667 5.60723 35.4121 5.73999 35.2828L19.6619 21.3623ZM21.6503 23.3508L23.6401 25.3406L9.71827 39.2597C9.58892 39.3927 9.43424 39.4984 9.26335 39.5705C9.09247 39.6427 8.90885 39.6799 8.72335 39.6799C8.53784 39.6799 8.35422 39.6427 8.18334 39.5705C8.01245 39.4984 7.85777 39.3927 7.72842 39.2597L6.73421 38.2655L8.22483 36.7748L9.22046 37.7677L12.2017 34.7864L11.2089 33.7908L12.2031 32.7966L13.2001 33.7908L16.1814 30.8095L15.1886 29.8139L16.1828 28.8197L17.177 29.8139L20.1583 26.8327L19.1655 25.837L21.6503 23.3508Z" fill="#248FEC"/>
</svg>
