<svg width="18" height="18" viewBox="0 0 18 18" fill="none" xmlns="http://www.w3.org/2000/svg">
<g clip-path="url(#clip0_1195_24325)">
<path d="M17.0304 15.9697L12.774 11.7133C13.7317 10.5181 14.2524 9.03159 14.25 7.5C14.25 3.77213 11.2281 0.75 7.5 0.75C3.77213 0.75 0.75 3.77213 0.75 7.5C0.75 11.2279 3.77213 14.25 7.5 14.25C9.09375 14.25 10.5585 13.6976 11.7133 12.7738L15.9698 17.0303C16.0393 17.1 16.122 17.1553 16.213 17.193C16.3039 17.2307 16.4015 17.2501 16.5 17.25C16.6483 17.25 16.7933 17.206 16.9167 17.1236C17.04 17.0412 17.1361 16.9241 17.1929 16.7871C17.2497 16.65 17.2646 16.4993 17.2356 16.3538C17.2067 16.2083 17.1353 16.0746 17.0304 15.9697ZM7.5 12.75C4.6005 12.75 2.25 10.3995 2.25 7.5C2.25 4.6005 4.6005 2.25 7.5 2.25C10.3997 2.25 12.75 4.6005 12.75 7.5C12.75 10.3995 10.3997 12.75 7.5 12.75Z" fill="#575757"/>
</g>
<defs>
<clipPath id="clip0_1195_24325">
<rect width="18" height="18" fill="white"/>
</clipPath>
</defs>
</svg>
