<svg width="45" height="45" viewBox="0 0 45 45" fill="none" xmlns="http://www.w3.org/2000/svg">
<g clip-path="url(#clip0_930_2005)">
<path d="M24.8924 0L24.8502 0.653906C24.8305 0.966094 24.6759 1.19531 24.3763 1.40625C24.0369 1.62811 23.6461 1.75887 23.2415 1.78594H19.5374C17.0723 1.78594 15.0712 3.80109 15.0712 6.27609V9.64547C15.0712 9.73969 15.074 9.765 15.074 9.68484C15.074 9.63703 15.0712 9.63 15.0712 9.72844V11.2008C15.0686 11.2354 15.0686 11.2702 15.0712 11.3048V14.2734C15.0712 16.1297 15.7645 17.8088 16.8726 19.1222V20.2753L12.6341 16.0369C13.2979 13.9739 12.9098 11.7014 11.3545 10.1447C10.8132 9.60376 10.1705 9.175 9.46322 8.88301C8.75592 8.59101 7.99793 8.44153 7.23273 8.44313V8.44031C6.46772 8.43859 5.70991 8.58803 5.00282 8.88003C4.29573 9.17204 3.6533 9.60086 3.11242 10.1419C2.02166 11.2363 1.40918 12.7184 1.40918 14.2636C1.40918 15.8087 2.02166 17.2909 3.11242 18.3853C4.66773 19.9378 6.94023 20.3259 9.00039 19.6622L13.9279 24.5897L8.9132 27.4514C7.91524 28.0173 7.08501 28.8375 6.507 29.8286C5.92899 30.8196 5.62383 31.946 5.62258 33.0933V45.0028H39.3726V33.0933C39.3726 30.7631 38.1168 28.6073 36.0848 27.4514H36.082L31.056 24.5827L36.044 19.5905C38.0929 20.25 40.3527 19.8605 41.8968 18.3164C42.6512 17.5617 43.1825 16.6133 43.4321 15.5759C43.6817 14.5384 43.64 13.4521 43.3115 12.4369C43.2746 12.3221 43.2088 12.2188 43.1204 12.1368C43.032 12.0547 42.924 11.9968 42.8068 11.9686C42.6896 11.9404 42.5671 11.9427 42.4511 11.9755C42.3351 12.0082 42.2294 12.0703 42.1443 12.1556L38.8509 15.4491L36.802 15.2213L36.577 13.1723L39.8648 9.88453C39.9501 9.79939 40.0122 9.69374 40.0449 9.57771C40.0777 9.46169 40.08 9.33919 40.0518 9.22199C40.0235 9.10478 39.9656 8.99681 39.8836 8.90843C39.8016 8.82006 39.6983 8.75426 39.5835 8.71734C38.5693 8.38909 37.4841 8.34724 36.4476 8.59641V8.59922C35.41 8.84672 34.461 9.37622 33.7054 10.1292C32.1655 11.6733 31.7802 13.9303 32.437 15.9764L28.1226 20.2922V19.2459C29.3444 17.8773 30.0219 16.1081 30.0266 14.2734V9.72844C30.0266 9.65109 30.0238 9.65812 30.0238 9.69328C30.0238 9.72141 30.0266 9.73828 30.0266 9.65391V4.67156L30.0182 4.62797C29.8523 3.36516 29.4655 2.22609 28.7273 1.37109C27.989 0.514687 26.8823 -0.00140625 25.5491 0.005625V0H24.8924ZM25.8051 1.51031C26.6066 1.57219 27.231 1.78453 27.6613 2.28234C28.1465 2.84484 28.477 3.71391 28.6204 4.78969V9.64828C28.6204 9.57516 28.6176 9.59203 28.6176 9.67922C28.6178 9.69379 28.6187 9.70833 28.6204 9.72281V10.1264C28.229 9.90524 27.8037 9.75034 27.3618 9.66797C26.3802 9.48797 25.3607 9.56672 24.3791 9.6075C23.3976 9.64828 22.4582 9.65391 21.6876 9.44297C20.917 9.23203 20.3066 8.85234 19.7976 7.97344C19.7324 7.8613 19.6375 7.76937 19.5233 7.70782C19.4092 7.64628 19.2802 7.6175 19.1507 7.62469C19.0028 7.63261 18.8611 7.68704 18.746 7.78022C18.6308 7.87341 18.548 8.00058 18.5095 8.14359C18.5277 8.0775 18.3899 8.36578 18.1551 8.64281C17.8771 8.96398 17.5778 9.26607 17.2593 9.54703C16.9921 9.78328 16.7291 9.97594 16.4774 10.1517V9.72281C16.4774 9.80016 16.4788 9.77484 16.4802 9.68484C16.4802 9.57656 16.4774 9.58359 16.4774 9.64547V6.27609C16.4774 4.55062 17.833 3.19219 19.5374 3.19219H23.3357C23.9741 3.15 24.6309 2.9475 25.1863 2.55656C25.507 2.33156 25.6082 1.88156 25.8051 1.51031ZM19.2787 9.46688C19.8834 10.1081 20.5682 10.5919 21.3177 10.7972C22.3612 11.0841 23.4355 11.0559 24.4396 11.0138C25.4437 10.9716 26.383 10.9195 27.1087 11.0517C27.7893 11.1755 28.2491 11.4117 28.6204 11.9798V14.2678C28.6204 17.6737 25.9204 20.3878 22.5496 20.3878C19.1788 20.3878 16.4774 17.6737 16.4774 14.2678V11.8069C16.6602 11.7225 16.8332 11.617 17.0188 11.5003C17.4084 11.2542 17.8105 10.9392 18.193 10.6003C18.577 10.2586 18.9355 9.89578 19.2266 9.55266C19.2505 9.52453 19.2548 9.49219 19.2787 9.46688ZM7.23555 9.83812C8.36476 9.83812 9.49398 10.2741 10.3602 11.1403C10.9899 11.7694 11.4148 12.5741 11.5794 13.4488C11.744 14.3235 11.6406 15.2275 11.2827 16.0425C11.2263 16.1718 11.21 16.3152 11.2361 16.4539C11.2622 16.5925 11.3294 16.7202 11.429 16.8202L16.8726 22.2638V22.9092L15.6913 23.5828C15.5963 23.6123 15.5085 23.6617 15.434 23.7277L15.1949 23.8655L9.78367 18.457C9.68362 18.3566 9.55556 18.2888 9.41628 18.2624C9.27701 18.2361 9.13302 18.2524 9.0032 18.3094C8.18935 18.6665 7.28671 18.77 6.41316 18.6062C5.53961 18.4423 4.73578 18.0189 4.10664 17.3911H4.10383C3.69256 16.9811 3.3663 16.4938 3.14377 15.9574C2.92125 15.421 2.80683 14.8459 2.80709 14.2651C2.80736 13.6844 2.92229 13.1094 3.1453 12.5731C3.3683 12.0369 3.695 11.55 4.10664 11.1403C4.51667 10.7278 5.00418 10.4004 5.54114 10.177C6.07811 9.9535 6.65394 9.83835 7.23555 9.83812ZM37.761 9.99984L35.3423 12.4186C35.2673 12.4933 35.2102 12.5839 35.1751 12.6837C35.14 12.7836 35.128 12.89 35.1398 12.9952L35.4674 15.9356C35.4852 16.094 35.5563 16.2416 35.669 16.3542C35.7816 16.4669 35.9292 16.538 36.0876 16.5558L39.0323 16.8834C39.1369 16.895 39.2427 16.8829 39.342 16.8481C39.4413 16.8133 39.5315 16.7567 39.606 16.6823L42.0248 14.2636C42.0135 15.3914 41.7266 16.4981 40.9026 17.3222C40.2787 17.9466 39.4807 18.368 38.6132 18.5311C37.7458 18.6942 36.8492 18.5914 36.0412 18.2362C35.9112 18.1795 35.7671 18.1634 35.6279 18.19C35.4886 18.2166 35.3606 18.2847 35.2607 18.3853L29.7904 23.8598L28.1226 22.9092V22.2806L33.6435 16.7597C33.7439 16.6596 33.8118 16.5316 33.8381 16.3923C33.8645 16.253 33.8481 16.109 33.7912 15.9792C33.4367 15.1723 33.3339 14.2771 33.4963 13.4108C33.6586 12.5445 34.0785 11.7473 34.701 11.1234C35.5265 10.3008 36.6318 10.0125 37.761 9.99984ZM8.0118 10.755C7.95348 10.7563 7.89538 10.7648 7.83883 10.7803L5.03476 11.5636C4.9155 11.597 4.80636 11.661 4.71825 11.7491C4.63015 11.8372 4.56618 11.9464 4.53273 12.0656L3.75226 14.8697C3.71916 14.9889 3.7177 15.114 3.74806 15.2324C3.77841 15.3509 3.8395 15.4586 3.92523 15.5447L5.94742 17.5697C6.03381 17.6559 6.14195 17.7173 6.26094 17.7477C6.37994 17.778 6.50558 17.7763 6.62523 17.7427L9.4293 16.9608C9.52118 16.9358 9.60753 16.8927 9.68316 16.834C9.75879 16.7753 9.82216 16.7022 9.86945 16.6191C9.89752 16.5679 9.91925 16.5135 9.93414 16.4573L10.7118 13.6533C10.7449 13.534 10.7464 13.409 10.716 13.2905C10.6857 13.1721 10.6246 13.0644 10.5388 12.9783L8.51805 10.9533C8.45194 10.8879 8.37307 10.8368 8.28612 10.803C8.19916 10.7692 8.10588 10.7534 8.0118 10.7564V10.755ZM7.79805 12.2442L9.2507 13.6997L8.69101 15.7162L6.66883 16.2787L5.21336 14.8233L5.77586 12.8067L7.79805 12.2442ZM18.2788 20.4398C19.5094 21.3114 20.9767 21.7864 22.4846 21.8012C23.9925 21.816 25.4689 21.37 26.7163 20.5228V21.7997C26.7163 22.2441 26.3859 22.7461 25.6293 23.1778C24.8713 23.6109 23.7477 23.9091 22.4976 23.9091C21.246 23.9091 20.1238 23.6109 19.3659 23.1778C18.6093 22.7461 18.2788 22.2441 18.2788 21.7997V20.4398ZM17.9624 23.9062C18.1776 24.0891 18.4152 24.2536 18.6684 24.3984C19.6935 24.9834 21.0309 25.3153 22.4976 25.3153C23.9657 25.3153 25.3016 24.9834 26.3268 24.3984C26.5799 24.2536 26.819 24.0891 27.0327 23.9062L28.183 24.563L25.8838 33.7528H19.0073L16.7221 24.615L17.9624 23.9062ZM29.4515 25.2872L31.8745 26.6695L29.443 36.3952C29.4425 36.4017 29.442 36.4083 29.4416 36.4148C29.242 37.3191 28.6584 37.9716 27.8779 37.9716C27.0693 37.9716 26.5138 37.4752 26.6095 36.6581L29.4515 25.2872ZM15.4523 25.3406L18.2816 36.6581C18.3773 37.4738 17.8218 37.9716 17.0132 37.9716C16.2327 37.9716 15.6491 37.3191 15.4495 36.4148C15.4486 36.4073 15.4477 36.3998 15.4466 36.3923L13.0307 26.7216L15.4523 25.3406ZM33.1457 27.3937L35.3873 28.6734C36.1697 29.1162 36.8206 29.7586 37.2737 30.5351C37.7268 31.3115 37.9658 32.1943 37.9663 33.0933V43.5966H33.7476V34.4559C33.7476 34.2695 33.6735 34.0906 33.5416 33.9588C33.4098 33.8269 33.2309 33.7528 33.0445 33.7528H31.5552L33.1457 27.3937ZM11.758 27.4472L13.3345 33.7528H11.9507C11.7642 33.7528 11.5854 33.8269 11.4535 33.9588C11.3217 34.0906 11.2476 34.2695 11.2476 34.4559V43.5966H7.02883V33.0933C7.02883 31.2666 8.01039 29.5819 9.60789 28.6748H9.6107L11.758 27.4472ZM16.732 35.1562C16.5455 35.1562 16.3666 35.2303 16.2348 35.3622C16.1029 35.4941 16.0288 35.6729 16.0288 35.8594C16.0288 36.0459 16.1029 36.2247 16.2348 36.3566C16.3666 36.4884 16.5455 36.5625 16.732 36.5625C16.9184 36.5625 17.0973 36.4884 17.2291 36.3566C17.361 36.2247 17.4351 36.0459 17.4351 35.8594C17.4351 35.6729 17.361 35.4941 17.2291 35.3622C17.0973 35.2303 16.9184 35.1562 16.732 35.1562ZM28.1577 35.1562C27.9713 35.1562 27.7924 35.2303 27.6605 35.3622C27.5287 35.4941 27.4546 35.6729 27.4546 35.8594C27.4546 36.0459 27.5287 36.2247 27.6605 36.3566C27.7924 36.4884 27.9713 36.5625 28.1577 36.5625C28.3442 36.5625 28.5231 36.4884 28.6549 36.3566C28.7868 36.2247 28.8609 36.0459 28.8609 35.8594C28.8609 35.6729 28.7868 35.4941 28.6549 35.3622C28.5231 35.2303 28.3442 35.1562 28.1577 35.1562ZM12.6538 35.1591H13.686L14.077 36.7158C14.3807 38.0939 15.4565 39.375 17.0132 39.375C18.5376 39.375 19.8791 38.0925 19.6795 36.4739C19.6765 36.4455 19.6718 36.4173 19.6654 36.3895L19.3588 35.1591H25.5323L25.2257 36.3952C25.2194 36.422 25.2147 36.4493 25.2116 36.4767C25.012 38.0953 26.3535 39.3778 27.8779 39.3778C29.4346 39.3778 30.5104 38.0953 30.8141 36.72L31.2037 35.1591H32.3413V43.5966H12.6538V35.1591Z" fill="#248FEC"/>
</g>
<defs>
<clipPath id="clip0_930_2005">
<rect width="45" height="45" fill="white"/>
</clipPath>
</defs>
</svg>
