<svg width="45" height="45" viewBox="0 0 45 45" fill="none" xmlns="http://www.w3.org/2000/svg">
<path d="M21.7967 4.21875C21.6102 4.21875 21.4314 4.29283 21.2995 4.42469C21.1677 4.55655 21.0936 4.73539 21.0936 4.92188V7.05938C17.7406 7.19188 14.4956 8.28156 11.7422 10.1996C8.98885 12.1177 6.84217 14.784 5.55592 17.8833C4.22609 21.0956 3.87836 24.6299 4.55668 28.0398C5.23499 31.4496 6.9089 34.5819 9.36686 37.0406C11.8257 39.4981 14.9577 41.1715 18.3673 41.8496C21.7768 42.5276 25.3108 42.1799 28.5228 40.8502C31.6221 39.5639 34.2884 37.4172 36.2064 34.6638C38.1245 31.9105 39.2142 28.6655 39.3467 25.3125H41.4842C41.6707 25.3125 41.8495 25.2384 41.9814 25.1066C42.1132 24.9747 42.1873 24.7959 42.1873 24.6094C42.1873 13.3566 33.0495 4.21875 21.7967 4.21875ZM22.4998 5.69531C27.2751 5.86646 31.8084 7.84004 35.1872 11.2189C38.566 14.5977 40.5396 19.1309 40.7108 23.9062H38.8011C38.7201 23.8919 38.6373 23.8919 38.5564 23.9062H33.6064C33.4373 21.0158 32.2129 18.2879 30.1655 16.2406C28.1181 14.1932 25.3903 12.9688 22.4998 12.7997V7.84406C22.5119 7.76955 22.5119 7.69358 22.4998 7.61906V5.69531ZM21.0936 8.46281V13.3594C21.0936 13.5459 21.1677 13.7247 21.2995 13.8566C21.4314 13.9884 21.6102 14.0625 21.7967 14.0625C27.6298 14.0625 32.3436 18.7762 32.3436 24.6094C32.3436 24.7959 32.4177 24.9747 32.5495 25.1066C32.6814 25.2384 32.8602 25.3125 33.0467 25.3125H37.9404C37.8066 28.4481 36.7627 31.4769 34.9362 34.0292C33.1097 36.5814 30.5796 38.5466 27.6548 39.6849C24.73 40.8232 21.5371 41.0852 18.4658 40.4391C15.3946 39.793 12.5779 38.2666 10.3597 36.0464C8.09776 33.7847 6.55748 30.903 5.93369 27.7658C5.3099 24.6286 5.63063 21.3768 6.85529 18.4219C8.03385 15.5783 9.99992 13.1304 12.5223 11.3662C15.0446 9.60192 18.0183 8.59464 21.0936 8.46281ZM21.7967 16.875C19.7463 16.878 17.7808 17.6938 16.331 19.1436C14.8811 20.5935 14.0653 22.559 14.0623 24.6094C14.0623 28.8731 17.533 32.3438 21.7967 32.3438C26.0605 32.3438 29.5311 28.8731 29.5311 24.6094C29.5311 20.3456 26.0605 16.875 21.7967 16.875ZM21.7967 18.2812C25.2997 18.2812 28.1248 21.1064 28.1248 24.6094C28.1248 28.1123 25.2997 30.9375 21.7967 30.9375C20.9653 30.939 20.1417 30.7763 19.3733 30.4588C18.6048 30.1413 17.9067 29.6753 17.3187 29.0873C16.7308 28.4994 16.2648 27.8012 15.9473 27.0328C15.6298 26.2644 15.4671 25.4408 15.4686 24.6094C15.4686 21.1064 18.2937 18.2812 21.7967 18.2812ZM21.7967 19.6875C20.4923 19.6905 19.2421 20.21 18.3197 21.1324C17.3973 22.0548 16.8778 23.3049 16.8748 24.6094C16.8748 27.3192 19.0869 29.5312 21.7967 29.5312C24.5065 29.5312 26.7186 27.3192 26.7186 24.6094C26.7186 21.8995 24.5065 19.6875 21.7967 19.6875ZM21.7967 21.0938C23.7472 21.0938 25.3123 22.6589 25.3123 24.6094C25.3123 26.5598 23.7472 28.125 21.7967 28.125C21.3346 28.1265 20.8768 28.0366 20.4496 27.8604C20.0224 27.6843 19.6342 27.4254 19.3075 27.0986C18.9807 26.7719 18.7218 26.3837 18.5457 25.9565C18.3695 25.5293 18.2796 25.0715 18.2811 24.6094C18.2811 22.6589 19.8462 21.0938 21.7967 21.0938Z" fill="#248FEC"/>
</svg>
