<svg width="20" height="20" viewBox="0 0 20 20" fill="none" xmlns="http://www.w3.org/2000/svg">
<path d="M10.5943 2.86777L12.5248 6.74724C12.6195 6.94223 12.8058 7.07853 13.0226 7.11141L17.3437 7.73569C17.519 7.75959 17.6774 7.85155 17.7836 7.99112C17.8898 8.13069 17.9351 8.30629 17.9092 8.47888C17.8875 8.62075 17.8186 8.75148 17.7132 8.85048L14.5836 11.8827C14.4254 12.0321 14.3545 12.2502 14.395 12.4624L15.1492 16.7357C15.2037 17.0879 14.9624 17.4183 14.6062 17.4789C14.4593 17.5016 14.309 17.4782 14.1764 17.4121L10.3228 15.398C10.1303 15.2935 9.89693 15.2935 9.70443 15.398L5.82825 17.4269C5.50304 17.5914 5.1041 17.4691 4.93085 17.1519C4.8633 17.024 4.83949 16.8781 4.86298 16.7357L5.6171 12.4624C5.65357 12.2504 5.58326 12.0343 5.42857 11.8827L2.27635 8.85048C2.01856 8.59292 2.01856 8.17904 2.27635 7.92148C2.38156 7.82549 2.51236 7.76103 2.65341 7.73569L6.97451 7.11141C7.19026 7.07613 7.37555 6.94057 7.47223 6.74724L9.40278 2.86777C9.47906 2.71047 9.61657 2.5902 9.78411 2.53423C9.95165 2.47826 10.135 2.49134 10.2926 2.5705C10.4227 2.63549 10.5283 2.73962 10.5943 2.86777Z" stroke="#575757" stroke-width="1.5" stroke-linecap="round" stroke-linejoin="round"/>
</svg>
