<svg width="30" height="30" viewBox="0 0 30 30" fill="none" xmlns="http://www.w3.org/2000/svg">
<g clip-path="url(#clip0_1101_8758)">
<path d="M21.8784 17.6318C21.4318 17.0961 20.9062 16.639 20.409 16.1535C19.9603 15.7159 19.932 15.4621 20.2927 14.957C20.6863 14.4058 21.1096 13.8757 21.5067 13.327C21.8775 12.8142 22.2564 12.3027 22.4515 11.6887C22.5753 11.2981 22.4658 11.1255 22.0652 11.0571C21.9962 11.0452 21.9249 11.0446 21.8546 11.0446L19.478 11.0418C19.1853 11.0374 19.0235 11.165 18.9199 11.4245C18.7802 11.7752 18.6361 12.1255 18.4696 12.4639C18.0919 13.2312 17.67 13.9729 17.0785 14.6009C16.9481 14.7394 16.8038 14.9144 16.5859 14.8423C16.3132 14.7428 16.2329 14.2936 16.2374 14.1417L16.235 11.3985C16.1822 11.0066 16.0953 10.8319 15.7062 10.7557L13.2374 10.7562C12.9078 10.7562 12.7426 10.8835 12.5666 11.0896C12.4651 11.2087 12.4345 11.286 12.6431 11.3255C13.0529 11.4032 13.2837 11.6684 13.345 12.0792C13.4432 12.7357 13.4364 13.3948 13.3798 14.0539C13.3631 14.2463 13.33 14.4383 13.2537 14.618C13.1343 14.9004 12.9416 14.9579 12.6884 14.7842C12.4591 14.6268 12.298 14.4049 12.1404 14.182C11.5483 13.3453 11.0759 12.4431 10.6907 11.495C10.5794 11.2211 10.3874 11.0551 10.0972 11.0506C9.38416 11.0393 8.67097 11.0374 7.95793 11.0512C7.5289 11.0593 7.40097 11.2676 7.57569 11.6566C8.3523 13.384 9.21675 15.0635 10.3451 16.5934C10.9245 17.3786 11.5896 18.0717 12.449 18.5629C13.4228 19.1197 14.4712 19.2873 15.5753 19.2357C16.0923 19.2114 16.2476 19.077 16.2716 18.5617C16.2877 18.2091 16.3277 17.8586 16.5016 17.5418C16.6723 17.2309 16.9308 17.1717 17.2288 17.365C17.3779 17.4619 17.5035 17.5852 17.6221 17.7151C17.9131 18.0335 18.1937 18.3615 18.4957 18.6691C18.8745 19.0546 19.3233 19.2823 19.8876 19.2359L22.0719 19.2363C22.4239 19.2133 22.6064 18.7818 22.4043 18.389C22.2624 18.1138 22.0761 17.8689 21.8784 17.6318Z" fill="#248FEC"/>
</g>
<circle cx="15" cy="15" r="14.5" stroke="#248FEC"/>
<defs>
<clipPath id="clip0_1101_8758">
<rect width="15" height="15" fill="white" transform="translate(7.5 7.5)"/>
</clipPath>
</defs>
</svg>
