<svg width="30" height="30" viewBox="0 0 30 30" fill="none" xmlns="http://www.w3.org/2000/svg">
<g clip-path="url(#clip0_975_366)">
<path d="M21.8784 17.6319C21.4318 17.0962 20.9062 16.6391 20.409 16.1536C19.9603 15.716 19.932 15.4622 20.2927 14.9571C20.6863 14.4059 21.1096 13.8758 21.5067 13.3271C21.8775 12.8143 22.2564 12.3029 22.4515 11.6889C22.5753 11.2982 22.4658 11.1257 22.0652 11.0573C21.9962 11.0453 21.9249 11.0447 21.8546 11.0447L19.478 11.0419C19.1853 11.0375 19.0235 11.1652 18.9199 11.4246C18.7802 11.7753 18.6361 12.1257 18.4696 12.4641C18.0919 13.2314 17.67 13.973 17.0785 14.601C16.9481 14.7395 16.8038 14.9145 16.5859 14.8424C16.3132 14.7429 16.2329 14.2937 16.2374 14.1418L16.235 11.3986C16.1822 11.0068 16.0953 10.832 15.7062 10.7559L13.2374 10.7563C12.9078 10.7563 12.7426 10.8836 12.5666 11.0898C12.4651 11.2088 12.4345 11.2861 12.6431 11.3256C13.0529 11.4033 13.2837 11.6685 13.345 12.0793C13.4432 12.7358 13.4364 13.3949 13.3798 14.054C13.3631 14.2464 13.33 14.4384 13.2537 14.6181C13.1343 14.9006 12.9416 14.9581 12.6884 14.7843C12.4591 14.627 12.298 14.405 12.1404 14.1821C11.5483 13.3455 11.0759 12.4432 10.6907 11.4952C10.5794 11.2213 10.3874 11.0553 10.0972 11.0507C9.38416 11.0394 8.67097 11.0375 7.95793 11.0514C7.5289 11.0594 7.40097 11.2677 7.57569 11.6567C8.3523 13.3842 9.21675 15.0636 10.3451 16.5935C10.9245 17.3787 11.5896 18.0718 12.449 18.563C13.4228 19.1199 14.4712 19.2874 15.5753 19.2358C16.0923 19.2116 16.2476 19.0771 16.2716 18.5618C16.2877 18.2092 16.3277 17.8587 16.5016 17.5419C16.6723 17.231 16.9308 17.1718 17.2288 17.3652C17.3779 17.462 17.5035 17.5853 17.6221 17.7152C17.9131 18.0336 18.1937 18.3616 18.4957 18.6692C18.8745 19.0547 19.3233 19.2825 19.8876 19.236L22.0719 19.2364C22.4239 19.2134 22.6064 18.7819 22.4043 18.3891C22.2624 18.114 22.0761 17.869 21.8784 17.6319Z" fill="white"/>
</g>
<circle cx="15" cy="15" r="14.5" stroke="white"/>
<defs>
<clipPath id="clip0_975_366">
<rect width="15" height="15" fill="white" transform="translate(7.5 7.5)"/>
</clipPath>
</defs>
</svg>
