<svg width="30" height="30" viewBox="0 0 30 30" fill="none" xmlns="http://www.w3.org/2000/svg">
<g clip-path="url(#clip0_975_377)">
<path d="M21.6366 15.1018C21.4683 14.3707 20.8702 13.8313 20.1504 13.751C18.4461 13.5606 16.7203 13.5598 15.003 13.5606C13.2849 13.5598 11.5595 13.5606 9.85472 13.751C9.13524 13.8315 8.53752 14.3708 8.36941 15.1018C8.12983 16.143 8.12695 17.2795 8.12695 18.3515C8.12695 19.4236 8.12695 20.5599 8.36654 21.601C8.53465 22.332 9.13236 22.8714 9.8522 22.9518C11.5566 23.1424 13.2821 23.1431 14.9999 23.1424C16.718 23.1433 18.4431 23.1424 20.148 22.9518C20.8675 22.8714 21.4656 22.332 21.6337 21.601C21.8731 20.5599 21.8744 19.4236 21.8744 18.3515C21.8742 17.2793 21.876 16.143 21.6366 15.1018ZM12.0482 15.9088H11.0532V21.1959H10.129V15.9088H9.15212V15.0427H12.0482V15.9088ZM14.5585 21.196H13.7271V20.6959C13.3968 21.0745 13.0832 21.2591 12.7777 21.2591C12.5099 21.2591 12.3257 21.1506 12.2425 20.9184C12.1973 20.7797 12.1692 20.5603 12.1692 20.2366V16.6112H12.9999V19.9868C12.9999 20.1815 12.9999 20.2826 13.0074 20.3099C13.0274 20.4388 13.0904 20.5042 13.2018 20.5042C13.3684 20.5042 13.5427 20.3758 13.7269 20.1152V16.6112H14.5583L14.5585 21.196ZM17.7146 19.8199C17.7146 20.244 17.6861 20.5495 17.6306 20.7438C17.5196 21.0849 17.2974 21.2591 16.9669 21.2591C16.6713 21.2591 16.3861 21.0949 16.1083 20.7519V21.1962H15.2776V15.0427H16.1083V17.0523C16.3766 16.722 16.6614 16.555 16.9669 16.555C17.2974 16.555 17.5197 16.729 17.6306 17.0722C17.6864 17.2567 17.7146 17.5598 17.7146 17.9939V19.8199ZM20.8499 19.055H19.1884V19.8677C19.1884 20.2921 19.3273 20.504 19.6128 20.504C19.8174 20.504 19.9365 20.3929 19.9839 20.1709C19.9916 20.1258 20.0026 19.9412 20.0026 19.608H20.8501V19.7292C20.8501 19.997 20.8399 20.1815 20.8323 20.2644C20.8045 20.4484 20.7391 20.6152 20.6383 20.7621C20.4083 21.0951 20.0674 21.2593 19.6335 21.2593C19.1988 21.2593 18.868 21.1028 18.6279 20.7898C18.4517 20.5603 18.3612 20.1989 18.3612 19.7116V18.1058C18.3612 17.6157 18.4415 17.2572 18.618 17.0255C18.858 16.7118 19.1886 16.5555 19.613 16.5555C20.0299 16.5555 20.3603 16.7118 20.5931 17.0255C20.7671 17.2572 20.8503 17.6157 20.8503 18.1058V19.055H20.8499Z" fill="white"/>
<path d="M19.6053 17.3032C19.3277 17.3032 19.1885 17.5153 19.1885 17.9392V18.3634H20.0191V17.9392C20.019 17.5153 19.8801 17.3032 19.6053 17.3032Z" fill="white"/>
<path d="M16.5227 17.3032C16.3859 17.3032 16.2472 17.3679 16.1084 17.5053V20.2997C16.2471 20.4387 16.3859 20.5044 16.5227 20.5044C16.7623 20.5044 16.8841 20.2997 16.8841 19.8857V17.9288C16.8841 17.5153 16.7623 17.3032 16.5227 17.3032Z" fill="white"/>
<path d="M16.9864 13.138C17.2926 13.138 17.6112 12.952 17.9455 12.5691V13.0745H18.7851V8.44092H17.9455V11.9823C17.7594 12.2452 17.583 12.3753 17.4151 12.3753C17.3027 12.3753 17.2366 12.3088 17.2183 12.1786C17.208 12.1511 17.208 12.0489 17.208 11.8523V8.44092H16.3711V12.1048C16.3711 12.432 16.3991 12.6535 16.4454 12.7937C16.5299 13.0285 16.7161 13.138 16.9864 13.138Z" fill="white"/>
<path d="M11.1409 10.5564V13.0746H12.072V10.5564L13.192 6.85693H12.2505L11.6153 9.29861L10.9543 6.85693H9.97461C10.1709 7.43327 10.3751 8.01249 10.5714 8.58937C10.8701 9.45648 11.0565 10.1102 11.1409 10.5564Z" fill="white"/>
<path d="M14.4405 13.1384C14.8611 13.1384 15.188 12.9802 15.4199 12.6641C15.5961 12.4322 15.6805 12.0669 15.6805 11.5744V9.95192C15.6805 9.45658 15.5963 9.0945 15.4199 8.86048C15.188 8.54348 14.8613 8.38525 14.4405 8.38525C14.0221 8.38525 13.6954 8.54348 13.463 8.86048C13.2846 9.0945 13.2002 9.45658 13.2002 9.95192V11.5744C13.2002 12.0669 13.2846 12.4322 13.463 12.6641C13.6952 12.9802 14.0221 13.1384 14.4405 13.1384ZM14.0398 9.78363C14.0398 9.35492 14.1699 9.1412 14.4405 9.1412C14.7112 9.1412 14.8409 9.35474 14.8409 9.78363V11.7327C14.8409 12.1614 14.7112 12.3758 14.4405 12.3758C14.1699 12.3758 14.0398 12.1614 14.0398 11.7327V9.78363Z" fill="white"/>
</g>
<circle cx="15" cy="15" r="14.5" stroke="white"/>
<defs>
<clipPath id="clip0_975_377">
<rect width="16.2857" height="16.2857" fill="white" transform="translate(6.85742 6.85693)"/>
</clipPath>
</defs>
</svg>
