<svg width="30" height="30" viewBox="0 0 30 30" fill="none" xmlns="http://www.w3.org/2000/svg">
<g clip-path="url(#clip0_1101_8769)">
<path d="M21.6366 15.1022C21.4683 14.3711 20.8702 13.8317 20.1504 13.7515C18.4461 13.5611 16.7203 13.5602 15.003 13.5611C13.2849 13.5602 11.5595 13.5611 9.85472 13.7515C9.13524 13.8319 8.53752 14.3713 8.36941 15.1022C8.12983 16.1434 8.12695 17.2799 8.12695 18.3519C8.12695 19.424 8.12695 20.5603 8.36654 21.6015C8.53465 22.3324 9.13236 22.8718 9.8522 22.9523C11.5566 23.1428 13.2821 23.1435 14.9999 23.1428C16.718 23.1437 18.4431 23.1428 20.148 22.9523C20.8675 22.8718 21.4656 22.3324 21.6337 21.6015C21.8731 20.5603 21.8744 19.424 21.8744 18.3519C21.8742 17.2797 21.876 16.1434 21.6366 15.1022ZM12.0482 15.9092H11.0532V21.1963H10.129V15.9092H9.15212V15.0431H12.0482V15.9092ZM14.5585 21.1965H13.7271V20.6963C13.3968 21.0749 13.0832 21.2595 12.7777 21.2595C12.5099 21.2595 12.3257 21.151 12.2425 20.9188C12.1973 20.7802 12.1692 20.5607 12.1692 20.237V16.6116H12.9999V19.9872C12.9999 20.1819 12.9999 20.283 13.0074 20.3103C13.0274 20.4393 13.0904 20.5046 13.2018 20.5046C13.3684 20.5046 13.5427 20.3762 13.7269 20.1156V16.6116H14.5583L14.5585 21.1965ZM17.7146 19.8204C17.7146 20.2444 17.6861 20.5499 17.6306 20.7442C17.5196 21.0853 17.2974 21.2595 16.9669 21.2595C16.6713 21.2595 16.3861 21.0954 16.1083 20.7523V21.1966H15.2776V15.0431H16.1083V17.0527C16.3766 16.7224 16.6614 16.5554 16.9669 16.5554C17.2974 16.5554 17.5197 16.7294 17.6306 17.0726C17.6864 17.2571 17.7146 17.5603 17.7146 17.9944V19.8204ZM20.8499 19.0554H19.1884V19.8681C19.1884 20.2925 19.3273 20.5045 19.6128 20.5045C19.8174 20.5045 19.9365 20.3933 19.9839 20.1713C19.9916 20.1262 20.0026 19.9416 20.0026 19.6084H20.8501V19.7297C20.8501 19.9974 20.8399 20.1819 20.8323 20.2649C20.8045 20.4488 20.7391 20.6156 20.6383 20.7626C20.4083 21.0955 20.0674 21.2597 19.6335 21.2597C19.1988 21.2597 18.868 21.1033 18.6279 20.7902C18.4517 20.5607 18.3612 20.1993 18.3612 19.7121V18.1062C18.3612 17.6161 18.4415 17.2576 18.618 17.0259C18.858 16.7122 19.1886 16.5559 19.613 16.5559C20.0299 16.5559 20.3603 16.7122 20.5931 17.0259C20.7671 17.2576 20.8503 17.6161 20.8503 18.1062V19.0554H20.8499Z" fill="#248FEC"/>
<path d="M19.6053 17.3033C19.3277 17.3033 19.1885 17.5154 19.1885 17.9393V18.3635H20.0191V17.9393C20.019 17.5154 19.8801 17.3033 19.6053 17.3033Z" fill="#248FEC"/>
<path d="M16.5227 17.3033C16.3859 17.3033 16.2472 17.3679 16.1084 17.5053V20.2998C16.2471 20.4388 16.3859 20.5045 16.5227 20.5045C16.7623 20.5045 16.8841 20.2998 16.8841 19.8858V17.9288C16.8841 17.5154 16.7623 17.3033 16.5227 17.3033Z" fill="#248FEC"/>
<path d="M16.9864 13.1384C17.2926 13.1384 17.6112 12.9524 17.9455 12.5695V13.0749H18.7851V8.44131H17.9455V11.9827C17.7594 12.2456 17.583 12.3757 17.4151 12.3757C17.3027 12.3757 17.2366 12.3092 17.2183 12.179C17.208 12.1515 17.208 12.0493 17.208 11.8527V8.44131H16.3711V12.1052C16.3711 12.4324 16.3991 12.6539 16.4454 12.7941C16.5299 13.0289 16.7161 13.1384 16.9864 13.1384Z" fill="#248FEC"/>
<path d="M11.1409 10.5566V13.0748H12.072V10.5566L13.192 6.85715H12.2505L11.6153 9.29883L10.9543 6.85715H9.97461C10.1709 7.43349 10.3751 8.0127 10.5714 8.58958C10.8701 9.4567 11.0565 10.1104 11.1409 10.5566Z" fill="#248FEC"/>
<path d="M14.4405 13.1384C14.8611 13.1384 15.188 12.9802 15.4199 12.6641C15.5961 12.4322 15.6805 12.0669 15.6805 11.5744V9.95192C15.6805 9.45658 15.5963 9.0945 15.4199 8.86048C15.188 8.54348 14.8613 8.38525 14.4405 8.38525C14.0221 8.38525 13.6954 8.54348 13.463 8.86048C13.2846 9.0945 13.2002 9.45658 13.2002 9.95192V11.5744C13.2002 12.0669 13.2846 12.4322 13.463 12.6641C13.6952 12.9802 14.0221 13.1384 14.4405 13.1384ZM14.0398 9.78363C14.0398 9.35492 14.1699 9.1412 14.4405 9.1412C14.7112 9.1412 14.8409 9.35474 14.8409 9.78363V11.7327C14.8409 12.1614 14.7112 12.3758 14.4405 12.3758C14.1699 12.3758 14.0398 12.1614 14.0398 11.7327V9.78363Z" fill="#248FEC"/>
</g>
<circle cx="15" cy="15" r="14.5" stroke="#248FEC"/>
<defs>
<clipPath id="clip0_1101_8769">
<rect width="16.2857" height="16.2857" fill="white" transform="translate(6.85742 6.85715)"/>
</clipPath>
</defs>
</svg>
