<svg xmlns="http://www.w3.org/2000/svg" width="34" height="34" viewBox="0 0 34 34" fill="none">
  <path d="M17.0169 2.83789C9.19597 2.83322 2.85201 9.16957 2.84734 16.9906C2.84267 24.8115 9.17902 31.1555 17 31.1602C20.7574 31.1663 24.3624 29.6752 27.0177 27.0167C29.6739 24.3627 31.1674 20.7624 31.1696 17.0075C31.1743 9.18652 24.8379 2.84256 17.0169 2.83789ZM17.0174 29.7435C9.97875 29.7482 4.26902 24.0463 4.26418 17.0077C4.25942 9.96913 9.96145 4.25932 17 4.25456C20.3817 4.24851 23.6264 5.59029 26.016 7.98299C28.4066 10.3713 29.7509 13.6112 29.7531 16.9904C29.758 24.0289 24.0559 29.7387 17.0174 29.7435ZM18.0015 16.999L22.5089 12.4917C22.7788 12.2163 22.7788 11.7756 22.5089 11.5002C22.2351 11.2208 21.7867 11.2163 21.5073 11.4901L17 15.9974L12.4927 11.4902C12.2173 11.2203 11.7766 11.2203 11.5012 11.4902C11.2218 11.7639 11.2173 12.2123 11.491 12.4917L15.9984 16.999L11.491 21.5064C11.3582 21.6392 11.2837 21.8193 11.2836 22.0071C11.2836 22.3983 11.6007 22.7154 11.9919 22.7155C12.1798 22.7158 12.36 22.6411 12.4927 22.508L17 18.0007L21.5073 22.508C21.64 22.6411 21.8202 22.7158 22.0081 22.7155C22.1959 22.7154 22.376 22.6409 22.5088 22.5082C22.7855 22.2315 22.7855 21.783 22.5089 21.5064L18.0015 16.999Z" fill="#232323"/>
</svg>