<svg width="18" height="18" viewBox="0 0 18 18" fill="none" xmlns="http://www.w3.org/2000/svg">
<path d="M7.28166 8.46835C7.14043 8.32712 6.94889 8.24778 6.74916 8.24778C6.54944 8.24778 6.35789 8.32712 6.21666 8.46835C6.07543 8.60958 5.99609 8.80112 5.99609 9.00085C5.99609 9.20058 6.07543 9.39212 6.21666 9.53335L8.46666 11.7833C8.53674 11.8529 8.61985 11.9079 8.71123 11.9452C8.80261 11.9825 8.90046 12.0014 8.99916 12.0008C9.10184 11.9976 9.20275 11.9733 9.29564 11.9294C9.38853 11.8855 9.47142 11.8231 9.53916 11.7458L14.7892 5.74585C14.9104 5.59534 14.9688 5.40386 14.9523 5.21131C14.9358 5.01877 14.8456 4.84002 14.7005 4.71236C14.5555 4.58469 14.3667 4.51795 14.1736 4.52605C13.9805 4.53415 13.798 4.61647 13.6642 4.75585L8.99916 10.1558L7.28166 8.46835Z" fill="#248FEC"/>
<path d="M15.7501 8.25C15.5512 8.25 15.3604 8.32902 15.2198 8.46967C15.0791 8.61032 15.0001 8.80109 15.0001 9C15.0001 10.5913 14.368 12.1174 13.2427 13.2426C12.1175 14.3679 10.5914 15 9.0001 15C7.81517 14.9995 6.65693 14.6481 5.67143 13.9902C4.68593 13.3322 3.9173 12.3972 3.46246 11.3031C3.00763 10.2089 2.88696 9.00457 3.11567 7.84192C3.34438 6.67927 3.91223 5.61036 4.7476 4.77C5.30313 4.20704 5.96536 3.76053 6.69555 3.45661C7.42573 3.15269 8.2092 2.99746 9.0001 3C9.47969 3.003 9.95752 3.05833 10.4251 3.165C10.523 3.19527 10.626 3.20517 10.7278 3.1941C10.8296 3.18303 10.9281 3.15122 11.0172 3.10063C11.1062 3.05005 11.184 2.98175 11.2456 2.89997C11.3073 2.81818 11.3515 2.72463 11.3756 2.62509C11.3998 2.52554 11.4032 2.42211 11.3858 2.32117C11.3685 2.22024 11.3306 2.12393 11.2745 2.03819C11.2185 1.95246 11.1455 1.8791 11.06 1.82266C10.9746 1.76621 10.8785 1.72787 10.7776 1.71C10.195 1.57293 9.59864 1.50248 9.0001 1.5C7.51836 1.5077 6.07209 1.95414 4.84383 2.78299C3.61556 3.61184 2.66033 4.78595 2.09869 6.15715C1.53705 7.52835 1.39417 9.03519 1.68808 10.4875C1.98199 11.9398 2.69951 13.2726 3.7501 14.3175C5.14262 15.7107 7.03034 16.4954 9.0001 16.5C10.9892 16.5 12.8969 15.7098 14.3034 14.3033C15.7099 12.8968 16.5001 10.9891 16.5001 9C16.5001 8.80109 16.4211 8.61032 16.2804 8.46967C16.1398 8.32902 15.949 8.25 15.7501 8.25Z" fill="#248FEC"/>
</svg>
