<svg width="16" height="16" viewBox="0 0 16 16" fill="none" xmlns="http://www.w3.org/2000/svg">
<g id="star 2">
<path id="Vector" d="M8.47565 2.29422L10.0201 5.39779C10.0958 5.55378 10.2448 5.66282 10.4183 5.68912L13.8751 6.18855C14.0154 6.20768 14.1421 6.28124 14.2271 6.3929C14.3121 6.50455 14.3483 6.64503 14.3276 6.7831C14.3102 6.8966 14.2551 7.00118 14.1708 7.08038L11.6671 9.50616C11.5405 9.62571 11.4838 9.80015 11.5163 9.96991L12.1196 13.3886C12.1632 13.6703 11.9701 13.9346 11.6852 13.9832C11.5677 14.0013 11.4474 13.9826 11.3413 13.9296L8.25846 12.3184C8.10446 12.2348 7.91776 12.2348 7.76376 12.3184L4.66282 13.9415C4.40266 14.0731 4.0835 13.9753 3.9449 13.7216C3.89086 13.6192 3.87182 13.5024 3.8906 13.3886L4.4939 9.96991C4.52308 9.80036 4.46683 9.62741 4.34307 9.50616L1.8213 7.08038C1.61507 6.87434 1.61507 6.54323 1.8213 6.33719C1.90547 6.26039 2.0101 6.20883 2.12295 6.18855L5.57983 5.68912C5.75243 5.66091 5.90066 5.55245 5.97801 5.39779L7.52244 2.29422C7.58347 2.16838 7.69347 2.07216 7.8275 2.02738C7.96154 1.9826 8.10824 1.99307 8.23433 2.0564C8.33836 2.10839 8.42289 2.19169 8.47565 2.29422Z" stroke="#575757" stroke-width="1.5" stroke-linecap="round" stroke-linejoin="round"/>
</g>
</svg>
