<svg width="16" height="17" viewBox="0 0 16 17" fill="none" xmlns="http://www.w3.org/2000/svg">
<g id="plus 1" clip-path="url(#clip0_1195_34631)">
<path id="Vector" d="M8.5 1.5C4.358 1.5 1 4.858 1 9C1 13.142 4.358 16.5 8.5 16.5C12.642 16.5 16 13.142 16 9C16 4.858 12.642 1.5 8.5 1.5ZM8.5 15.5C4.916 15.5 2 12.584 2 9C2 5.416 4.916 2.5 8.5 2.5C12.084 2.5 15 5.416 15 9C15 12.584 12.084 15.5 8.5 15.5ZM12.5 8.5H9V5C9 4.86739 8.94732 4.74021 8.85355 4.64645C8.75979 4.55268 8.63261 4.5 8.5 4.5C8.36739 4.5 8.24021 4.55268 8.14645 4.64645C8.05268 4.74021 8 4.86739 8 5V8.5H4.5C4.36739 8.5 4.24021 8.55268 4.14645 8.64645C4.05268 8.74021 4 8.86739 4 9C4 9.13261 4.05268 9.25979 4.14645 9.35355C4.24021 9.44732 4.36739 9.5 4.5 9.5H8V13C8 13.1326 8.05268 13.2598 8.14645 13.3536C8.24021 13.4473 8.36739 13.5 8.5 13.5C8.63261 13.5 8.75979 13.4473 8.85355 13.3536C8.94732 13.2598 9 13.1326 9 13V9.5H12.5C12.6326 9.5 12.7598 9.44732 12.8536 9.35355C12.9473 9.25979 13 9.13261 13 9C13 8.86739 12.9473 8.74021 12.8536 8.64645C12.7598 8.55268 12.6326 8.5 12.5 8.5Z" fill="#248FEC"/>
</g>
<defs>
<clipPath id="clip0_1195_34631">
<rect width="16" height="16" fill="white" transform="translate(0 0.5)"/>
</clipPath>
</defs>
</svg>
