<svg width="24" height="24" viewBox="0 0 24 24" fill="none" xmlns="http://www.w3.org/2000/svg">
<path d="M12.012 2.00391C6.49127 2.00061 2.01319 6.47333 2.00989 11.994C2.00659 17.5147 6.47931 21.9928 12 21.9961C14.6523 22.0004 17.197 20.9479 19.0713 19.0713C20.9463 17.1979 22.0005 14.6565 22.0021 12.006C22.0054 6.48529 17.5327 2.0072 12.012 2.00391ZM12.0123 20.9961C7.04383 20.9995 3.01343 16.9746 3.01001 12.0061C3.00665 7.03772 7.03162 3.00727 12 3.00391C14.3871 2.99964 16.6774 3.94678 18.3643 5.63574C20.0517 7.3216 21.0006 9.60858 21.0022 11.9939C21.0056 16.9623 16.9807 20.9927 12.0123 20.9961ZM12.707 12L15.8886 8.81836C16.0792 8.62396 16.0792 8.31287 15.8886 8.11847C15.6954 7.92127 15.3788 7.91809 15.1816 8.11133L12 11.293L8.81836 8.11139C8.62396 7.9209 8.31287 7.9209 8.11847 8.11139C7.92127 8.30463 7.91809 8.62116 8.11133 8.81836L11.293 12L8.11133 15.1816C8.01758 15.2754 7.96497 15.4025 7.96491 15.5351C7.96491 15.8112 8.18872 16.0351 8.46485 16.0352C8.59748 16.0353 8.72473 15.9826 8.81836 15.8887L12 12.707L15.1816 15.8887C15.2753 15.9826 15.4025 16.0353 15.5352 16.0352C15.6677 16.0351 15.7948 15.9825 15.8886 15.8888C16.0839 15.6935 16.0839 15.377 15.8886 15.1816L12.707 12Z" fill="#D60000"/>
</svg>
