<svg width="45" height="46" viewBox="0 0 45 46" fill="none" xmlns="http://www.w3.org/2000/svg">
<path d="M39.9247 5.58067C34.0317 -0.312971 24.4929 -0.313619 18.5989 5.58035C13.3634 10.8162 12.803 18.9695 16.892 24.8454L14.2857 27.4517C13.4346 27.022 12.3288 27.1431 11.6359 27.8361C8.43886 31.0331 4.5317 34.9402 1.3281 38.1438C0.44532 39.0263 0.44532 40.4626 1.3281 41.3451L4.15999 44.1773C5.0435 45.0608 6.47656 45.0619 7.36121 44.1773C7.48595 44.0525 16.3494 35.1891 17.669 33.8695C18.343 33.1954 18.556 32.147 18.0598 31.213L20.6562 28.6167C26.4964 32.6966 34.6386 32.1928 39.9247 26.9061C45.8043 21.0268 45.8043 11.46 39.9247 5.58067ZM12.5716 28.7718C12.8864 28.4576 13.3978 28.4384 13.7597 28.68C13.8947 28.9119 13.5773 28.5158 16.6847 31.6522C17.1503 32.1178 17.0141 32.6522 16.7332 32.9334L15.6968 33.9698L11.5354 29.8081L12.5716 28.7718ZM8.3976 41.2692L4.23592 37.1076L10.5996 30.7439L14.761 34.9056L8.3976 41.2692ZM2.26388 40.4093C1.89745 40.0425 1.89745 39.4464 2.26388 39.0796L3.30015 38.0433L7.4617 42.2049L6.42543 43.2415C6.06823 43.598 5.44951 43.5946 5.09576 43.2415L2.26388 40.4093ZM17.2011 30.2001L15.305 28.304L17.6989 25.91C17.9841 26.2507 18.2789 26.5861 18.5989 26.9061C18.9177 27.2249 19.252 27.5219 19.5933 27.8082L17.2011 30.2001ZM38.9889 25.9703C36.3906 28.5686 32.9364 29.9994 29.2621 29.9994C26.051 29.9994 23.0082 28.9062 20.5577 26.8967L18.6269 24.9656C14.1931 19.5675 14.4942 11.5569 19.5347 6.51613C24.9115 1.14003 33.6122 1.1397 38.9889 6.51645C44.3522 11.88 44.3522 20.6067 38.9889 25.9703Z" fill="#248FEC"/>
<path d="M37.6846 7.81993C33.0291 3.16438 25.4946 3.164 20.8387 7.81993C16.1944 12.4642 16.1944 20.0209 20.8387 24.6655C25.4943 29.3211 33.0287 29.3215 37.6846 24.6655C42.3289 20.0209 42.3289 12.4642 37.6846 7.81993ZM36.7488 23.7297C32.6106 27.868 25.9129 27.8681 21.7745 23.7297C17.6462 19.6011 17.6462 12.884 21.7745 8.7557C25.9127 4.61745 32.6105 4.61733 36.7488 8.7557C40.8771 12.884 40.8771 19.6011 36.7488 23.7297Z" fill="#248FEC"/>
<path d="M31.4743 8.09416C31.1473 7.93356 30.7498 8.06799 30.5879 8.39499C30.4264 8.72265 30.5608 9.11945 30.8888 9.28133C31.7253 9.69397 32.5118 10.2174 33.2263 10.8372C33.5026 11.0765 33.9202 11.0472 34.1598 10.7709C34.3992 10.4947 34.3695 10.0769 34.0935 9.83743C33.2935 9.14368 32.4123 8.5572 31.4743 8.09416ZM37.6059 14.8356C37.212 13.8303 36.6908 12.8735 36.0575 11.9917C35.8442 11.6948 35.4313 11.6269 35.134 11.8405C34.8374 12.0534 34.7695 12.467 34.9828 12.764C35.5518 13.5563 36.0197 14.4158 36.3735 15.3183C36.5068 15.6581 36.8898 15.8269 37.2311 15.6931C37.5713 15.5597 37.7394 15.1758 37.6059 14.8356Z" fill="#248FEC"/>
</svg>
