<svg width="45" height="45" viewBox="0 0 45 45" fill="none" xmlns="http://www.w3.org/2000/svg">
<g clip-path="url(#clip0_1195_35243)">
<path d="M24.8919 0L24.8497 0.653906C24.8301 0.966094 24.6754 1.19531 24.3758 1.40625C24.0364 1.62811 23.6456 1.75887 23.241 1.78594H19.5369C17.0718 1.78594 15.0707 3.80109 15.0707 6.27609V9.64547C15.0707 9.73969 15.0735 9.765 15.0735 9.68484C15.0735 9.63703 15.0707 9.63 15.0707 9.72844V11.2008C15.0681 11.2354 15.0681 11.2702 15.0707 11.3048V14.2734C15.0707 16.1297 15.764 17.8088 16.8721 19.1222V20.2753L12.6337 16.0369C13.2974 13.9739 12.9093 11.7014 11.354 10.1447C10.8127 9.60376 10.17 9.175 9.46274 8.88301C8.75543 8.59101 7.99745 8.44153 7.23224 8.44313V8.44031C6.46723 8.43859 5.70942 8.58803 5.00233 8.88003C4.29524 9.17204 3.65281 9.60086 3.11193 10.1419C2.02117 11.2363 1.40869 12.7184 1.40869 14.2636C1.40869 15.8087 2.02117 17.2909 3.11193 18.3853C4.66724 19.9378 6.93974 20.3259 8.9999 19.6622L13.9274 24.5897L8.91271 27.4514C7.91475 28.0173 7.08452 28.8375 6.50651 29.8286C5.9285 30.8196 5.62334 31.946 5.62209 33.0933V45.0028H39.3721V33.0933C39.3721 30.7631 38.1163 28.6073 36.0843 27.4514H36.0815L31.0555 24.5827L36.0435 19.5905C38.0924 20.25 40.3522 19.8605 41.8963 18.3164C42.6507 17.5617 43.182 16.6133 43.4316 15.5759C43.6812 14.5384 43.6395 13.4521 43.311 12.4369C43.2741 12.3221 43.2083 12.2188 43.1199 12.1368C43.0315 12.0547 42.9236 11.9968 42.8064 11.9686C42.6891 11.9404 42.5667 11.9427 42.4506 11.9755C42.3346 12.0082 42.2289 12.0703 42.1438 12.1556L38.8504 15.4491L36.8015 15.2213L36.5765 13.1723L39.8643 9.88453C39.9496 9.79939 40.0117 9.69374 40.0444 9.57771C40.0772 9.46169 40.0795 9.33919 40.0513 9.22199C40.0231 9.10478 39.9652 8.99681 39.8832 8.90843C39.8011 8.82006 39.6978 8.75426 39.583 8.71734C38.5688 8.38909 37.4836 8.34724 36.4471 8.59641V8.59922C35.4095 8.84672 34.4605 9.37622 33.7049 10.1292C32.1651 11.6733 31.7797 13.9303 32.4365 15.9764L28.1221 20.2922V19.2459C29.344 17.8773 30.0214 16.1081 30.0261 14.2734V9.72844C30.0261 9.65109 30.0233 9.65812 30.0233 9.69328C30.0233 9.72141 30.0261 9.73828 30.0261 9.65391V4.67156L30.0177 4.62797C29.8518 3.36516 29.4651 2.22609 28.7268 1.37109C27.9885 0.514687 26.8818 -0.00140625 25.5487 0.005625V0H24.8919ZM25.8046 1.51031C26.6062 1.57219 27.2305 1.78453 27.6608 2.28234C28.146 2.84484 28.4765 3.71391 28.6199 4.78969V9.64828C28.6199 9.57516 28.6171 9.59203 28.6171 9.67922C28.6173 9.69379 28.6183 9.70833 28.6199 9.72281V10.1264C28.2285 9.90524 27.8032 9.75034 27.3613 9.66797C26.3797 9.48797 25.3602 9.56672 24.3787 9.6075C23.3971 9.64828 22.4577 9.65391 21.6871 9.44297C20.9165 9.23203 20.3062 8.85234 19.7971 7.97344C19.7319 7.8613 19.637 7.76937 19.5228 7.70782C19.4087 7.64628 19.2797 7.6175 19.1502 7.62469C19.0023 7.63261 18.8607 7.68704 18.7455 7.78022C18.6303 7.87341 18.5476 8.00058 18.509 8.14359C18.5272 8.0775 18.3894 8.36578 18.1546 8.64281C17.8766 8.96398 17.5774 9.26607 17.2588 9.54703C16.9916 9.78328 16.7287 9.97594 16.4769 10.1517V9.72281C16.4769 9.80016 16.4783 9.77484 16.4797 9.68484C16.4797 9.57656 16.4769 9.58359 16.4769 9.64547V6.27609C16.4769 4.55062 17.8326 3.19219 19.5369 3.19219H23.3352C23.9737 3.15 24.6304 2.9475 25.1858 2.55656C25.5065 2.33156 25.6077 1.88156 25.8046 1.51031ZM19.2782 9.46688C19.8829 10.1081 20.5677 10.5919 21.3172 10.7972C22.3607 11.0841 23.4351 11.0559 24.4391 11.0138C25.4432 10.9716 26.3826 10.9195 27.1082 11.0517C27.7888 11.1755 28.2486 11.4117 28.6199 11.9798V14.2678C28.6199 17.6737 25.9199 20.3878 22.5491 20.3878C19.1783 20.3878 16.4769 17.6737 16.4769 14.2678V11.8069C16.6597 11.7225 16.8327 11.617 17.0183 11.5003C17.4079 11.2542 17.8101 10.9392 18.1926 10.6003C18.5765 10.2586 18.9351 9.89578 19.2262 9.55266C19.2501 9.52453 19.2543 9.49219 19.2782 9.46688ZM7.23506 9.83812C8.36428 9.83812 9.49349 10.2741 10.3597 11.1403C10.9894 11.7694 11.4143 12.5741 11.5789 13.4488C11.7435 14.3235 11.6401 15.2275 11.2822 16.0425C11.2258 16.1718 11.2095 16.3152 11.2356 16.4539C11.2617 16.5925 11.3289 16.7202 11.4285 16.8202L16.8721 22.2638V22.9092L15.6908 23.5828C15.5958 23.6123 15.5081 23.6617 15.4335 23.7277L15.1944 23.8655L9.78318 18.457C9.68313 18.3566 9.55507 18.2888 9.4158 18.2624C9.27652 18.2361 9.13253 18.2524 9.00271 18.3094C8.18886 18.6665 7.28622 18.77 6.41267 18.6062C5.53912 18.4423 4.73529 18.0189 4.10615 17.3911H4.10334C3.69207 16.9811 3.36581 16.4938 3.14329 15.9574C2.92076 15.421 2.80635 14.8459 2.80661 14.2651C2.80687 13.6844 2.9218 13.1094 3.14481 12.5731C3.36782 12.0369 3.69451 11.55 4.10615 11.1403C4.51619 10.7278 5.00369 10.4004 5.54065 10.177C6.07762 9.9535 6.65345 9.83835 7.23506 9.83812ZM37.7605 9.99984L35.3418 12.4186C35.2668 12.4933 35.2097 12.5839 35.1746 12.6837C35.1396 12.7836 35.1275 12.89 35.1393 12.9952L35.4669 15.9356C35.4847 16.094 35.5558 16.2416 35.6685 16.3542C35.7811 16.4669 35.9287 16.538 36.0871 16.5558L39.0318 16.8834C39.1364 16.895 39.2422 16.8829 39.3415 16.8481C39.4408 16.8133 39.531 16.7567 39.6055 16.6823L42.0243 14.2636C42.013 15.3914 41.7262 16.4981 40.9021 17.3222C40.2782 17.9466 39.4802 18.368 38.6128 18.5311C37.7453 18.6942 36.8488 18.5914 36.0407 18.2362C35.9107 18.1795 35.7667 18.1634 35.6274 18.19C35.4881 18.2166 35.3601 18.2847 35.2602 18.3853L29.7899 23.8598L28.1221 22.9092V22.2806L33.643 16.7597C33.7434 16.6596 33.8113 16.5316 33.8376 16.3923C33.864 16.253 33.8476 16.109 33.7907 15.9792C33.4362 15.1723 33.3334 14.2771 33.4958 13.4108C33.6581 12.5445 34.078 11.7473 34.7005 11.1234C35.526 10.3008 36.6313 10.0125 37.7605 9.99984ZM8.01131 10.755C7.953 10.7563 7.89489 10.7648 7.83834 10.7803L5.03428 11.5636C4.91501 11.597 4.80587 11.661 4.71776 11.7491C4.62966 11.8372 4.56569 11.9464 4.53224 12.0656L3.75178 14.8697C3.71867 14.9889 3.71722 15.114 3.74757 15.2324C3.77792 15.3509 3.83901 15.4586 3.92474 15.5447L5.94693 17.5697C6.03333 17.6559 6.14146 17.7173 6.26046 17.7477C6.37945 17.778 6.50509 17.7763 6.62474 17.7427L9.42881 16.9608C9.52069 16.9358 9.60704 16.8927 9.68267 16.834C9.75831 16.7753 9.82167 16.7022 9.86896 16.6191C9.89703 16.5679 9.91876 16.5135 9.93365 16.4573L10.7113 13.6533C10.7444 13.534 10.7459 13.409 10.7155 13.2905C10.6852 13.1721 10.6241 13.0644 10.5383 12.9783L8.51756 10.9533C8.45145 10.8879 8.37259 10.8368 8.28563 10.803C8.19867 10.7692 8.10539 10.7534 8.01131 10.7564V10.755ZM7.79756 12.2442L9.25021 13.6997L8.69053 15.7162L6.66834 16.2787L5.21287 14.8233L5.77537 12.8067L7.79756 12.2442ZM18.2783 20.4398C19.5089 21.3114 20.9762 21.7864 22.4841 21.8012C23.992 21.816 25.4684 21.37 26.7158 20.5228V21.7997C26.7158 22.2441 26.3854 22.7461 25.6288 23.1778C24.8708 23.6109 23.7472 23.9091 22.4971 23.9091C21.2455 23.9091 20.1233 23.6109 19.3654 23.1778C18.6088 22.7461 18.2783 22.2441 18.2783 21.7997V20.4398ZM17.9619 23.9062C18.1771 24.0891 18.4147 24.2536 18.6679 24.3984C19.693 24.9834 21.0304 25.3153 22.4971 25.3153C23.9652 25.3153 25.3012 24.9834 26.3263 24.3984C26.5794 24.2536 26.8185 24.0891 27.0322 23.9062L28.1826 24.563L25.8833 33.7528H19.0068L16.7216 24.615L17.9619 23.9062ZM29.451 25.2872L31.874 26.6695L29.4426 36.3952C29.442 36.4017 29.4415 36.4083 29.4412 36.4148C29.2415 37.3191 28.6579 37.9716 27.8774 37.9716C27.0688 37.9716 26.5133 37.4752 26.609 36.6581L29.451 25.2872ZM15.4518 25.3406L18.2812 36.6581C18.3768 37.4738 17.8213 37.9716 17.0127 37.9716C16.2322 37.9716 15.6487 37.3191 15.449 36.4148C15.4481 36.4073 15.4472 36.3998 15.4462 36.3923L13.0302 26.7216L15.4518 25.3406ZM33.1452 27.3937L35.3868 28.6734C36.1692 29.1162 36.8201 29.7586 37.2732 30.5351C37.7263 31.3115 37.9653 32.1943 37.9658 33.0933V43.5966H33.7471V34.4559C33.7471 34.2695 33.673 34.0906 33.5411 33.9588C33.4093 33.8269 33.2304 33.7528 33.044 33.7528H31.5547L33.1452 27.3937ZM11.7576 27.4472L13.334 33.7528H11.9502C11.7637 33.7528 11.5849 33.8269 11.453 33.9588C11.3212 34.0906 11.2471 34.2695 11.2471 34.4559V43.5966H7.02834V33.0933C7.02834 31.2666 8.0099 29.5819 9.6074 28.6748H9.61021L11.7576 27.4472ZM16.7315 35.1562C16.545 35.1562 16.3661 35.2303 16.2343 35.3622C16.1024 35.4941 16.0283 35.6729 16.0283 35.8594C16.0283 36.0459 16.1024 36.2247 16.2343 36.3566C16.3661 36.4884 16.545 36.5625 16.7315 36.5625C16.9179 36.5625 17.0968 36.4884 17.2286 36.3566C17.3605 36.2247 17.4346 36.0459 17.4346 35.8594C17.4346 35.6729 17.3605 35.4941 17.2286 35.3622C17.0968 35.2303 16.9179 35.1562 16.7315 35.1562ZM28.1572 35.1562C27.9708 35.1562 27.7919 35.2303 27.6601 35.3622C27.5282 35.4941 27.4541 35.6729 27.4541 35.8594C27.4541 36.0459 27.5282 36.2247 27.6601 36.3566C27.7919 36.4884 27.9708 36.5625 28.1572 36.5625C28.3437 36.5625 28.5226 36.4884 28.6544 36.3566C28.7863 36.2247 28.8604 36.0459 28.8604 35.8594C28.8604 35.6729 28.7863 35.4941 28.6544 35.3622C28.5226 35.2303 28.3437 35.1562 28.1572 35.1562ZM12.6533 35.1591H13.6855L14.0765 36.7158C14.3802 38.0939 15.456 39.375 17.0127 39.375C18.5371 39.375 19.8787 38.0925 19.679 36.4739C19.676 36.4455 19.6713 36.4173 19.6649 36.3895L19.3583 35.1591H25.5318L25.2252 36.3952C25.2189 36.422 25.2142 36.4493 25.2112 36.4767C25.0115 38.0953 26.353 39.3778 27.8774 39.3778C29.4341 39.3778 30.5099 38.0953 30.8137 36.72L31.2032 35.1591H32.3408V43.5966H12.6533V35.1591Z" fill="#248FEC"/>
</g>
<defs>
<clipPath id="clip0_1195_35243">
<rect width="45" height="45" fill="white"/>
</clipPath>
</defs>
</svg>
