<svg width="45" height="46" viewBox="0 0 45 46" fill="none" xmlns="http://www.w3.org/2000/svg">
<g clip-path="url(#clip0_1195_45357)">
<path d="M26.5781 23C26.5781 20.75 24.75 18.9219 22.5 18.9219C20.25 18.9219 18.4219 20.75 18.4219 23C18.4219 25.25 20.25 27.0781 22.5 27.0781C24.75 27.0781 26.5781 25.25 26.5781 23ZM19.8281 23C19.8281 21.5234 21.0234 20.3281 22.5 20.3281C23.9766 20.3281 25.1719 21.5234 25.1719 23C25.1719 24.4766 23.9766 25.6719 22.5 25.6719C21.0234 25.6719 19.8281 24.4766 19.8281 23Z" fill="#248FEC"/>
<path d="M22.5 0.5C10.125 0.5 0 10.625 0 23C0 35.375 10.125 45.5 22.5 45.5C34.875 45.5 45 35.375 45 23C45 10.625 34.875 0.5 22.5 0.5ZM22.5 44.0938C10.8984 44.0938 1.40625 34.6016 1.40625 23C1.40625 11.3984 10.8984 1.90625 22.5 1.90625C34.1016 1.90625 43.5938 11.3984 43.5938 23C43.5938 34.6016 34.1016 44.0938 22.5 44.0938Z" fill="#248FEC"/>
<path d="M22.5 5.42188C12.7969 5.42188 4.92188 13.2969 4.92188 23C4.92188 32.7031 12.7969 40.5781 22.5 40.5781C32.2031 40.5781 40.0781 32.7031 40.0781 23C40.0781 13.2969 32.2031 5.42188 22.5 5.42188ZM22.5 6.82812C29.6719 6.82812 35.7188 11.4687 37.8281 17.9375C27.6328 14.4219 17.2969 14.4219 7.10156 17.9375C9.28125 11.4687 15.3281 6.82812 22.5 6.82812ZM6.75 26.5156H8.92969C14.4844 26.5156 18.9844 31.0156 18.9844 36.5703V38.75C12.8672 37.4141 8.08594 32.6328 6.75 26.5156ZM20.3906 39.0312V36.5703C20.3906 30.2422 15.2578 25.1094 8.92969 25.1094H6.46875C6.39844 24.4062 6.32812 23.7031 6.32812 23C6.32812 21.8047 6.46875 20.6797 6.67969 19.5547C17.1562 15.6875 27.7734 15.6875 38.3203 19.5547C38.5312 20.6797 38.6719 21.8047 38.6719 23C38.6719 23.7031 38.6016 24.4062 38.5312 25.1094H36.0703C29.7422 25.1094 24.6094 30.2422 24.6094 36.5703V39.0312C23.9062 39.1016 23.2031 39.1719 22.5 39.1719C21.7969 39.1719 21.0938 39.1016 20.3906 39.0312ZM26.0156 38.75V36.5703C26.0156 31.0156 30.5156 26.5156 36.0703 26.5156H38.25C36.9141 32.6328 32.1328 37.4141 26.0156 38.75Z" fill="#248FEC"/>
<path d="M34.9453 22.6484H35.4375C35.8594 22.6484 36.1406 22.3672 36.1406 21.9453C36.1406 21.5234 35.8594 21.2422 35.4375 21.2422H34.9453C34.5234 21.2422 34.2422 21.5234 34.2422 21.9453C34.2422 22.3672 34.5234 22.6484 34.9453 22.6484ZM32.1328 20.8906H32.625C33.0469 20.8906 33.3281 20.6094 33.3281 20.1875C33.3281 19.7656 33.0469 19.4844 32.625 19.4844H32.1328C31.7109 19.4844 31.4297 19.7656 31.4297 20.1875C31.4297 20.6094 31.7109 20.8906 32.1328 20.8906ZM32.1328 24.3359H32.625C33.0469 24.3359 33.3281 24.0547 33.3281 23.6328C33.3281 23.2109 33.0469 22.9297 32.625 22.9297H32.1328C31.7109 22.9297 31.4297 23.2109 31.4297 23.6328C31.4297 24.0547 31.7109 24.3359 32.1328 24.3359ZM10.0547 21.2422H9.5625C9.14062 21.2422 8.85938 21.5234 8.85938 21.9453C8.85938 22.3672 9.14062 22.6484 9.5625 22.6484H10.0547C10.4766 22.6484 10.7578 22.3672 10.7578 21.9453C10.7578 21.5234 10.4766 21.2422 10.0547 21.2422ZM12.8672 19.4844H12.375C11.9531 19.4844 11.6719 19.7656 11.6719 20.1875C11.6719 20.6094 11.9531 20.8906 12.375 20.8906H12.8672C13.2891 20.8906 13.5703 20.6094 13.5703 20.1875C13.5703 19.7656 13.2891 19.4844 12.8672 19.4844ZM12.8672 22.9297H12.375C11.9531 22.9297 11.6719 23.2109 11.6719 23.6328C11.6719 24.0547 11.9531 24.3359 12.375 24.3359H12.8672C13.2891 24.3359 13.5703 24.0547 13.5703 23.6328C13.5703 23.2109 13.2891 22.9297 12.8672 22.9297ZM22.5 33.3359C22.0781 33.3359 21.7969 33.6172 21.7969 34.0391V35.9375C21.7969 36.3594 22.0781 36.6406 22.5 36.6406C22.9219 36.6406 23.2031 36.3594 23.2031 35.9375V34.0391C23.2031 33.6172 22.9219 33.3359 22.5 33.3359Z" fill="#248FEC"/>
</g>
<defs>
<clipPath id="clip0_1195_45357">
<rect width="45" height="45" fill="white" transform="translate(0 0.5)"/>
</clipPath>
</defs>
</svg>
