<svg width="45" height="45" viewBox="0 0 45 45" fill="none" xmlns="http://www.w3.org/2000/svg">
<g clip-path="url(#clip0_1195_35234)">
<path d="M26.5781 22.5C26.5781 20.25 24.75 18.4219 22.5 18.4219C20.25 18.4219 18.4219 20.25 18.4219 22.5C18.4219 24.75 20.25 26.5781 22.5 26.5781C24.75 26.5781 26.5781 24.75 26.5781 22.5ZM19.8281 22.5C19.8281 21.0234 21.0234 19.8281 22.5 19.8281C23.9766 19.8281 25.1719 21.0234 25.1719 22.5C25.1719 23.9766 23.9766 25.1719 22.5 25.1719C21.0234 25.1719 19.8281 23.9766 19.8281 22.5Z" fill="#248FEC"/>
<path d="M22.5 0C10.125 0 0 10.125 0 22.5C0 34.875 10.125 45 22.5 45C34.875 45 45 34.875 45 22.5C45 10.125 34.875 0 22.5 0ZM22.5 43.5938C10.8984 43.5938 1.40625 34.1016 1.40625 22.5C1.40625 10.8984 10.8984 1.40625 22.5 1.40625C34.1016 1.40625 43.5938 10.8984 43.5938 22.5C43.5938 34.1016 34.1016 43.5938 22.5 43.5938Z" fill="#248FEC"/>
<path d="M22.5 4.92188C12.7969 4.92188 4.92188 12.7969 4.92188 22.5C4.92188 32.2031 12.7969 40.0781 22.5 40.0781C32.2031 40.0781 40.0781 32.2031 40.0781 22.5C40.0781 12.7969 32.2031 4.92188 22.5 4.92188ZM22.5 6.32812C29.6719 6.32812 35.7188 10.9687 37.8281 17.4375C27.6328 13.9219 17.2969 13.9219 7.10156 17.4375C9.28125 10.9687 15.3281 6.32812 22.5 6.32812ZM6.75 26.0156H8.92969C14.4844 26.0156 18.9844 30.5156 18.9844 36.0703V38.25C12.8672 36.9141 8.08594 32.1328 6.75 26.0156ZM20.3906 38.5312V36.0703C20.3906 29.7422 15.2578 24.6094 8.92969 24.6094H6.46875C6.39844 23.9062 6.32812 23.2031 6.32812 22.5C6.32812 21.3047 6.46875 20.1797 6.67969 19.0547C17.1562 15.1875 27.7734 15.1875 38.3203 19.0547C38.5312 20.1797 38.6719 21.3047 38.6719 22.5C38.6719 23.2031 38.6016 23.9062 38.5312 24.6094H36.0703C29.7422 24.6094 24.6094 29.7422 24.6094 36.0703V38.5312C23.9062 38.6016 23.2031 38.6719 22.5 38.6719C21.7969 38.6719 21.0938 38.6016 20.3906 38.5312ZM26.0156 38.25V36.0703C26.0156 30.5156 30.5156 26.0156 36.0703 26.0156H38.25C36.9141 32.1328 32.1328 36.9141 26.0156 38.25Z" fill="#248FEC"/>
<path d="M34.9453 22.1484H35.4375C35.8594 22.1484 36.1406 21.8672 36.1406 21.4453C36.1406 21.0234 35.8594 20.7422 35.4375 20.7422H34.9453C34.5234 20.7422 34.2422 21.0234 34.2422 21.4453C34.2422 21.8672 34.5234 22.1484 34.9453 22.1484ZM32.1328 20.3906H32.625C33.0469 20.3906 33.3281 20.1094 33.3281 19.6875C33.3281 19.2656 33.0469 18.9844 32.625 18.9844H32.1328C31.7109 18.9844 31.4297 19.2656 31.4297 19.6875C31.4297 20.1094 31.7109 20.3906 32.1328 20.3906ZM32.1328 23.8359H32.625C33.0469 23.8359 33.3281 23.5547 33.3281 23.1328C33.3281 22.7109 33.0469 22.4297 32.625 22.4297H32.1328C31.7109 22.4297 31.4297 22.7109 31.4297 23.1328C31.4297 23.5547 31.7109 23.8359 32.1328 23.8359ZM10.0547 20.7422H9.5625C9.14062 20.7422 8.85938 21.0234 8.85938 21.4453C8.85938 21.8672 9.14062 22.1484 9.5625 22.1484H10.0547C10.4766 22.1484 10.7578 21.8672 10.7578 21.4453C10.7578 21.0234 10.4766 20.7422 10.0547 20.7422ZM12.8672 18.9844H12.375C11.9531 18.9844 11.6719 19.2656 11.6719 19.6875C11.6719 20.1094 11.9531 20.3906 12.375 20.3906H12.8672C13.2891 20.3906 13.5703 20.1094 13.5703 19.6875C13.5703 19.2656 13.2891 18.9844 12.8672 18.9844ZM12.8672 22.4297H12.375C11.9531 22.4297 11.6719 22.7109 11.6719 23.1328C11.6719 23.5547 11.9531 23.8359 12.375 23.8359H12.8672C13.2891 23.8359 13.5703 23.5547 13.5703 23.1328C13.5703 22.7109 13.2891 22.4297 12.8672 22.4297ZM22.5 32.8359C22.0781 32.8359 21.7969 33.1172 21.7969 33.5391V35.4375C21.7969 35.8594 22.0781 36.1406 22.5 36.1406C22.9219 36.1406 23.2031 35.8594 23.2031 35.4375V33.5391C23.2031 33.1172 22.9219 32.8359 22.5 32.8359Z" fill="#248FEC"/>
</g>
<defs>
<clipPath id="clip0_1195_35234">
<rect width="45" height="45" fill="white"/>
</clipPath>
</defs>
</svg>
