<svg width="275" height="107" viewBox="0 0 275 107" fill="none" xmlns="http://www.w3.org/2000/svg">
<path d="M0.710938 86.1023V69.1492L43.218 2.18184H57.8345V25.6478H49.184L22.3871 68.0554V68.8509H82.7919V86.1023H0.710938ZM49.5817 104V80.9318L49.9794 73.4247V2.18184H70.1641V104H49.5817Z" fill="url(#paint0_linear_1195_99906)"/>
<path d="M137.057 106.237C128.506 106.204 121.148 104.099 114.983 99.9233C108.851 95.7472 104.128 89.6984 100.814 81.777C97.5327 73.8556 95.9086 64.3267 95.9418 53.1904C95.9418 42.0871 97.5824 32.6245 100.864 24.8026C104.178 16.9806 108.901 11.0313 115.033 6.95457C121.197 2.84472 128.539 0.789795 137.057 0.789795C145.575 0.789795 152.9 2.84472 159.031 6.95457C165.196 11.0644 169.936 17.0303 173.25 24.8523C176.564 32.6411 178.205 42.0871 178.172 53.1904C178.172 64.3599 176.515 73.9053 173.2 81.8267C169.919 89.7481 165.213 95.7969 159.081 99.973C152.949 104.149 145.608 106.237 137.057 106.237ZM137.057 88.3892C142.89 88.3892 147.547 85.456 151.027 79.5895C154.507 73.723 156.231 64.9233 156.197 53.1904C156.197 45.4678 155.402 39.0379 153.811 33.9006C152.253 28.7633 150.033 24.902 147.149 22.3168C144.299 19.7316 140.935 18.4389 137.057 18.4389C131.257 18.4389 126.616 21.339 123.136 27.1392C119.656 32.9394 117.9 41.6231 117.866 53.1904C117.866 61.0123 118.645 67.5417 120.203 72.7784C121.794 77.982 124.031 81.893 126.915 84.5114C129.798 87.0966 133.179 88.3892 137.057 88.3892Z" fill="url(#paint1_linear_1195_99906)"/>
<path d="M191.98 86.1023V69.1492L234.488 2.18184H249.104V25.6478H240.453L213.657 68.0554V68.8509H274.061V86.1023H191.98ZM240.851 104V80.9318L241.249 73.4247V2.18184H261.434V104H240.851Z" fill="url(#paint2_linear_1195_99906)"/>
<defs>
<linearGradient id="paint0_linear_1195_99906" x1="0.710937" y1="106.237" x2="280.815" y2="78.3898" gradientUnits="userSpaceOnUse">
<stop stop-color="#2775B8"/>
<stop offset="1" stop-color="#44A8FF"/>
</linearGradient>
<linearGradient id="paint1_linear_1195_99906" x1="0.710937" y1="106.237" x2="280.815" y2="78.3898" gradientUnits="userSpaceOnUse">
<stop stop-color="#2775B8"/>
<stop offset="1" stop-color="#44A8FF"/>
</linearGradient>
<linearGradient id="paint2_linear_1195_99906" x1="0.710937" y1="106.237" x2="280.815" y2="78.3898" gradientUnits="userSpaceOnUse">
<stop stop-color="#2775B8"/>
<stop offset="1" stop-color="#44A8FF"/>
</linearGradient>
</defs>
</svg>
