<svg width="24" height="24" viewBox="0 0 24 24" fill="none" xmlns="http://www.w3.org/2000/svg">
<path d="M21.1428 6.85798H8.5714M6.28569 6.85798H2.85712M21.1428 18.2866H8.5714M6.28569 18.2866H2.85712M15.4285 12.5723H2.85712M21.1428 12.5723H17.7143M7.42855 4.57227C7.73165 4.57227 8.02234 4.69267 8.23667 4.907C8.45099 5.12133 8.5714 5.41202 8.5714 5.71512V8.00084C8.5714 8.30394 8.45099 8.59463 8.23667 8.80896C8.02234 9.02329 7.73165 9.14369 7.42855 9.14369C7.12544 9.14369 6.83475 9.02329 6.62042 8.80896C6.4061 8.59463 6.28569 8.30394 6.28569 8.00084V5.71512C6.28569 5.41202 6.4061 5.12133 6.62042 4.907C6.83475 4.69267 7.12544 4.57227 7.42855 4.57227ZM7.42855 16.0008C7.73165 16.0008 8.02234 16.1212 8.23667 16.3356C8.45099 16.5499 8.5714 16.8406 8.5714 17.1437V19.4294C8.5714 19.7325 8.45099 20.0232 8.23667 20.2375C8.02234 20.4519 7.73165 20.5723 7.42855 20.5723C7.12544 20.5723 6.83475 20.4519 6.62042 20.2375C6.4061 20.0232 6.28569 19.7325 6.28569 19.4294V17.1437C6.28569 16.8406 6.4061 16.5499 6.62042 16.3356C6.83475 16.1212 7.12544 16.0008 7.42855 16.0008ZM16.5714 10.2866C16.8745 10.2866 17.1652 10.407 17.3795 10.6213C17.5939 10.8356 17.7143 11.1263 17.7143 11.4294V13.7151C17.7143 14.0182 17.5939 14.3089 17.3795 14.5232C17.1652 14.7376 16.8745 14.858 16.5714 14.858C16.2683 14.858 15.9776 14.7376 15.7633 14.5232C15.549 14.3089 15.4285 14.0182 15.4285 13.7151V11.4294C15.4285 11.1263 15.549 10.8356 15.7633 10.6213C15.9776 10.407 16.2683 10.2866 16.5714 10.2866Z" stroke="#248FEC" stroke-linecap="round" stroke-linejoin="round"/>
</svg>
