<svg width="20" height="20" viewBox="0 0 20 20" fill="none" xmlns="http://www.w3.org/2000/svg">
<path d="M17.0584 7.49948C17.2232 7.49948 17.3844 7.45061 17.5214 7.35904C17.6584 7.26747 17.7653 7.13732 17.8283 6.98505C17.8914 6.83278 17.9079 6.66523 17.8757 6.50357C17.8436 6.34192 17.7642 6.19344 17.6477 6.07689C17.5311 5.96035 17.3827 5.88098 17.221 5.84883C17.0593 5.81667 16.8918 5.83318 16.7395 5.89625C16.5872 5.95932 16.4571 6.06613 16.3655 6.20317C16.274 6.34022 16.2251 6.50133 16.2251 6.66615C16.2251 6.88716 16.3129 7.09912 16.4692 7.2554C16.6255 7.41169 16.8374 7.49948 17.0584 7.49948ZM14.5584 7.49948C14.7232 7.49948 14.8844 7.45061 15.0214 7.35904C15.1584 7.26747 15.2653 7.13732 15.3283 6.98505C15.3914 6.83278 15.4079 6.66523 15.3757 6.50357C15.3436 6.34192 15.2642 6.19344 15.1477 6.07689C15.0311 5.96035 14.8827 5.88098 14.721 5.84883C14.5593 5.81667 14.3918 5.83318 14.2395 5.89625C14.0872 5.95932 13.9571 6.06613 13.8655 6.20317C13.774 6.34022 13.7251 6.50133 13.7251 6.66615C13.7251 6.88716 13.8129 7.09912 13.9692 7.2554C14.1255 7.41169 14.3374 7.49948 14.5584 7.49948ZM12.0584 7.49948C12.2232 7.49948 12.3844 7.45061 12.5214 7.35904C12.6584 7.26747 12.7653 7.13732 12.8283 6.98505C12.8914 6.83278 12.9079 6.66523 12.8757 6.50357C12.8436 6.34192 12.7642 6.19344 12.6477 6.07689C12.5311 5.96035 12.3827 5.88098 12.221 5.84883C12.0594 5.81667 11.8918 5.83318 11.7395 5.89625C11.5873 5.95932 11.4571 6.06613 11.3655 6.20317C11.274 6.34022 11.2251 6.50133 11.2251 6.66615C11.2251 6.77558 11.2466 6.88395 11.2885 6.98505C11.3304 7.08616 11.3918 7.17802 11.4692 7.2554C11.5466 7.33279 11.6384 7.39417 11.7395 7.43605C11.8406 7.47793 11.949 7.49948 12.0584 7.49948ZM15.7584 10.8328C15.5751 10.8328 15.3834 10.7745 15.2001 10.7328C14.8288 10.651 14.464 10.5424 14.1084 10.4078C13.7218 10.2672 13.2969 10.2745 12.9153 10.4283C12.5338 10.5822 12.2227 10.8717 12.0418 11.2411L11.8584 11.6161C11.0455 11.1627 10.2972 10.6021 9.63343 9.94948C8.98399 9.28609 8.42372 8.54093 7.96676 7.73282L8.33343 7.49948C8.7029 7.31858 8.99241 7.00742 9.14625 6.62589C9.3001 6.24436 9.3074 5.81941 9.16676 5.43282C9.03444 5.0765 8.92587 4.71181 8.84176 4.34115C8.80009 4.14948 8.76676 3.96615 8.74176 3.77448C8.64056 3.1875 8.33311 2.65593 7.87478 2.27552C7.41644 1.8951 6.83734 1.69082 6.24176 1.69948H3.74176C3.38946 1.69902 3.04105 1.77302 2.71936 1.91664C2.39766 2.06025 2.10995 2.27023 1.87509 2.53282C1.6365 2.80156 1.45865 3.11859 1.35367 3.46229C1.24869 3.80599 1.21905 4.16829 1.26676 4.52448C1.70568 8.01369 3.29374 11.2575 5.78042 13.7442C8.26711 16.2308 11.5109 17.8189 15.0001 18.2578C15.1083 18.2661 15.2169 18.2661 15.3251 18.2578C15.9881 18.2578 16.624 17.9944 17.0929 17.5256C17.5617 17.0567 17.8251 16.4209 17.8251 15.7578V13.2578C17.8164 12.6763 17.6053 12.1161 17.2281 11.6734C16.8509 11.2308 16.3312 10.9336 15.7584 10.8328ZM16.1668 15.8328C16.1681 15.9536 16.1432 16.0733 16.0938 16.1835C16.0443 16.2937 15.9715 16.3918 15.8803 16.4711C15.7891 16.5504 15.6818 16.6089 15.5658 16.6425C15.4498 16.6762 15.3279 16.6843 15.2084 16.6662C12.0969 16.2601 9.20601 14.8396 6.98343 12.6245C4.76259 10.3869 3.34446 7.47735 2.95009 4.34948C2.93199 4.22726 2.94129 4.10254 2.97732 3.98436C3.01335 3.86618 3.07521 3.75748 3.15842 3.66615C3.23558 3.57831 3.33037 3.50768 3.43661 3.45887C3.54285 3.41005 3.65818 3.38414 3.77509 3.38282H6.27509C6.46888 3.3785 6.65811 3.44188 6.81021 3.56204C6.96231 3.6822 7.06777 3.85162 7.10842 4.04115C7.14176 4.26893 7.18343 4.49393 7.23343 4.71615C7.32969 5.15544 7.45781 5.58713 7.61676 6.00782L6.45009 6.54948C6.35034 6.59525 6.26061 6.66027 6.18606 6.74081C6.1115 6.82135 6.05359 6.91583 6.01565 7.01881C5.97771 7.1218 5.96048 7.23126 5.96496 7.34092C5.96945 7.45058 5.99554 7.55827 6.04176 7.65782C7.24109 10.2268 9.30613 12.2918 11.8751 13.4911C12.078 13.5745 12.3055 13.5745 12.5084 13.4911C12.7152 13.4142 12.883 13.2583 12.9751 13.0578L13.5001 11.8912C13.9309 12.0452 14.3706 12.1732 14.8168 12.2745C15.0334 12.3245 15.2668 12.3661 15.4918 12.3995C15.6797 12.4418 15.8472 12.548 15.9658 12.6999C16.0843 12.8519 16.1465 13.0402 16.1418 13.2328L16.1668 15.8328Z" fill="#248FEC"/>
</svg>
