<svg width="20" height="20" viewBox="0 0 20 20" fill="none" xmlns="http://www.w3.org/2000/svg">
<path d="M10.5945 2.86777L12.5251 6.74724C12.6197 6.94223 12.806 7.07853 13.0228 7.11141L17.3439 7.73569C17.5193 7.75959 17.6776 7.85155 17.7839 7.99112C17.8901 8.13069 17.9353 8.30629 17.9095 8.47888C17.8878 8.62075 17.8188 8.75148 17.7134 8.85048L14.5838 11.8827C14.4256 12.0321 14.3547 12.2502 14.3953 12.4624L15.1494 16.7357C15.204 17.0879 14.9626 17.4183 14.6064 17.4789C14.4596 17.5016 14.3092 17.4782 14.1766 17.4121L10.323 15.398C10.1305 15.2935 9.89717 15.2935 9.70467 15.398L5.8285 17.4269C5.50329 17.5914 5.10434 17.4691 4.93109 17.1519C4.86355 17.024 4.83974 16.8781 4.86322 16.7357L5.61734 12.4624C5.65382 12.2504 5.58351 12.0343 5.42881 11.8827L2.27659 8.85048C2.01881 8.59292 2.01881 8.17904 2.27659 7.92148C2.3818 7.82549 2.5126 7.76103 2.65365 7.73569L6.97476 7.11141C7.19051 7.07613 7.37579 6.94057 7.47248 6.74724L9.40302 2.86777C9.4793 2.71047 9.61681 2.5902 9.78435 2.53423C9.95189 2.47826 10.1353 2.49134 10.2929 2.5705C10.4229 2.63549 10.5286 2.73962 10.5945 2.86777Z" stroke="#575757" stroke-width="1.5" stroke-linecap="round" stroke-linejoin="round"/>
</svg>
