<svg width="18" height="18" viewBox="0 0 18 18" fill="none" xmlns="http://www.w3.org/2000/svg">
<path d="M9.02952 3.98374C8.72772 3.98294 8.42875 4.04198 8.14991 4.15745C7.87107 4.27293 7.61789 4.44255 7.40502 4.65649C6.50952 5.55199 6.50952 7.00899 7.40502 7.90449C7.618 8.11843 7.87127 8.28804 8.15019 8.40351C8.42911 8.51899 8.72815 8.57803 9.03002 8.57724C9.33175 8.57805 9.63065 8.51901 9.90941 8.40353C10.1882 8.28805 10.4413 8.11844 10.654 7.90449C11.5495 7.00899 11.5495 5.55199 10.654 4.65649C10.4412 4.4425 10.188 4.27285 9.90917 4.15738C9.63032 4.0419 9.33134 3.98288 9.02952 3.98374ZM9.94702 7.19749C9.8269 7.31833 9.684 7.41413 9.52659 7.47936C9.36919 7.54459 9.20041 7.57794 9.03002 7.57749C8.85954 7.57786 8.69067 7.54447 8.53315 7.47925C8.37564 7.41403 8.2326 7.31827 8.11227 7.19749C7.86948 6.95407 7.73313 6.6243 7.73313 6.28049C7.73313 5.93669 7.86948 5.60691 8.11227 5.36349C8.23244 5.24264 8.37538 5.14683 8.53283 5.0816C8.69028 5.01637 8.8591 4.98302 9.02952 4.98349C9.37627 4.98349 9.70202 5.11824 9.94702 5.36349C10.1897 5.60698 10.326 5.93673 10.326 6.28049C10.326 6.62426 10.1897 6.95401 9.94702 7.19749ZM12.58 5.45599C12.5625 5.38074 12.5508 5.32599 12.5415 5.28399C12.5225 5.19524 12.5108 5.14149 12.4795 5.06874C12.453 5.00806 12.4037 4.96029 12.3422 4.93581C12.2807 4.91132 12.212 4.91211 12.151 4.93799C12.025 4.99249 11.966 5.13949 12.0205 5.26649C12.0323 5.29324 12.0368 5.31224 12.0533 5.38899C12.0625 5.43374 12.0753 5.49174 12.0938 5.57124C12.1092 5.63565 12.1495 5.69132 12.2059 5.72613C12.2622 5.76093 12.33 5.77202 12.3945 5.75699C12.5288 5.72499 12.6118 5.59024 12.58 5.45599ZM12.0955 4.30449C11.8022 3.84085 11.4109 3.44698 10.9493 3.1505C10.4876 2.85403 9.96669 2.66212 9.42302 2.58824C9.39049 2.58379 9.3574 2.5858 9.32564 2.59414C9.29387 2.60248 9.26407 2.61699 9.23792 2.63685C9.21176 2.65671 9.18978 2.68153 9.17322 2.70989C9.15666 2.73824 9.14585 2.76958 9.1414 2.80212C9.13695 2.83465 9.13895 2.86775 9.14729 2.89951C9.15563 2.93127 9.17015 2.96107 9.19001 2.98723C9.20987 3.01338 9.23469 3.03536 9.26304 3.05192C9.2914 3.06848 9.32274 3.07929 9.35527 3.08374C9.82684 3.14771 10.2787 3.31414 10.6791 3.57132C11.0795 3.82851 11.4187 4.17023 11.673 4.57249C11.7086 4.62852 11.7649 4.66813 11.8296 4.68262C11.8944 4.69711 11.9622 4.68528 12.0183 4.64974C12.0743 4.6142 12.1139 4.55786 12.1284 4.49312C12.1429 4.42837 12.1311 4.36052 12.0955 4.30449Z" fill="#248FEC"/>
<path d="M9.00021 0.816406C6.03996 0.816406 3.63171 3.22466 3.63171 6.18466C3.63171 8.11616 6.41621 14.2489 7.16421 15.7232C7.80971 16.9957 8.60671 17.1857 9.02471 17.1857C9.74871 17.1857 10.408 16.6657 10.8817 15.7212C11.5912 14.3064 14.3685 8.09491 14.3685 6.18491C14.3687 3.22466 11.9602 0.816406 9.00021 0.816406ZM9.98771 15.2729C9.70146 15.8442 9.34121 16.1854 9.02471 16.1854C8.70371 16.1854 8.35096 15.8519 8.05596 15.2704C7.06221 13.3119 4.63171 7.70241 4.63171 6.18491C4.63171 3.77616 6.59146 1.81666 9.00021 1.81666C11.4092 1.81666 13.3687 3.77616 13.3687 6.18491C13.3687 7.72541 10.857 13.5404 9.98771 15.2729Z" fill="#248FEC"/>
</svg>
