<svg width="165" height="34" viewBox="0 0 165 34" fill="none" xmlns="http://www.w3.org/2000/svg">
<path d="M20.0818 16.129L20.6288 16.7125L24.7273 12.4819V11.3148L20.0818 16.129Z" fill="white"/>
<path d="M21.1713 25.7573H24.7273V13.649L21.1713 17.1502V25.7573Z" fill="white"/>
<path d="M18.9831 14.9619L19.5301 15.5455L24.7273 10.4395V9.27246L18.9831 14.9619Z" fill="white"/>
<path d="M9.27271 25.7573H12.8286V17.8796L16.7036 21.5542L19.3021 18.9283L9.27271 9.27246V25.7573Z" fill="white"/>
<path fill-rule="evenodd" clip-rule="evenodd" d="M17 31.2131C24.8497 31.2131 31.2131 24.8497 31.2131 17C31.2131 9.15031 24.8497 2.78689 17 2.78689C9.15031 2.78689 2.78689 9.15031 2.78689 17C2.78689 24.8497 9.15031 31.2131 17 31.2131ZM17 34C26.3888 34 34 26.3888 34 17C34 7.61116 26.3888 0 17 0C7.61116 0 0 7.61116 0 17C0 26.3888 7.61116 34 17 34Z" fill="white"/>
<path d="M43.232 25V9.16H46.422L52.164 16.002L57.884 9.16H61.096V25H58.17V13.384L52.164 20.534L46.136 13.406V25H43.232ZM65.8862 25V12.218C65.8862 11.6607 66.0255 11.1547 66.3042 10.7C66.5828 10.2307 66.9495 9.85667 67.4042 9.578C67.8735 9.29933 68.3868 9.16 68.9442 9.16H78.6462C79.2035 9.16 79.7168 9.29933 80.1862 9.578C80.6555 9.85667 81.0295 10.2307 81.3082 10.7C81.5868 11.1547 81.7262 11.6607 81.7262 12.218V25H78.8002V19.676H68.7902V25H65.8862ZM68.7902 16.772H78.8002V12.35C78.8002 12.2767 78.7708 12.218 78.7122 12.174C78.6535 12.1153 78.5875 12.086 78.5142 12.086H69.0542C68.9808 12.086 68.9148 12.1153 68.8562 12.174C68.8122 12.218 68.7902 12.2767 68.7902 12.35V16.772ZM99.0608 25L94.2868 19.302H98.0928L102.229 24.186V25H99.0608ZM86.4328 25V9.182H99.1928C99.7501 9.182 100.263 9.32133 100.733 9.6C101.202 9.87867 101.576 10.2527 101.855 10.722C102.133 11.1767 102.273 11.6827 102.273 12.24V16.508C102.273 17.0653 102.133 17.5787 101.855 18.048C101.576 18.5173 101.202 18.8913 100.733 19.17C100.263 19.434 99.7501 19.566 99.1928 19.566L89.3368 19.588V25H86.4328ZM89.6008 16.64H99.0608C99.1341 16.64 99.2001 16.618 99.2588 16.574C99.3174 16.53 99.3468 16.4713 99.3468 16.398V12.35C99.3468 12.2767 99.3174 12.218 99.2588 12.174C99.2001 12.1153 99.1341 12.086 99.0608 12.086H89.6008C89.5274 12.086 89.4614 12.1153 89.4028 12.174C89.3588 12.218 89.3368 12.2767 89.3368 12.35V16.398C89.3368 16.4713 89.3588 16.53 89.4028 16.574C89.4614 16.618 89.5274 16.64 89.6008 16.64ZM109.845 25C109.288 25 108.774 24.8607 108.305 24.582C107.85 24.3033 107.484 23.9367 107.205 23.482C106.926 23.0127 106.787 22.4993 106.787 21.942V12.218C106.787 11.6607 106.926 11.1547 107.205 10.7C107.484 10.2307 107.85 9.85667 108.305 9.578C108.774 9.29933 109.288 9.16 109.845 9.16H122.583V12.086H110.461C110.226 12.086 110.036 12.152 109.889 12.284C109.757 12.416 109.691 12.6067 109.691 12.856V21.304C109.691 21.5387 109.757 21.7293 109.889 21.876C110.036 22.008 110.226 22.074 110.461 22.074H122.583V25H109.845ZM127.121 25V12.218C127.121 11.6607 127.26 11.1547 127.539 10.7C127.818 10.2307 128.184 9.85667 128.639 9.578C129.108 9.29933 129.622 9.16 130.179 9.16H139.881C140.438 9.16 140.952 9.29933 141.421 9.578C141.89 9.85667 142.264 10.2307 142.543 10.7C142.822 11.1547 142.961 11.6607 142.961 12.218V25H140.035V19.676H130.025V25H127.121ZM130.025 16.772H140.035V12.35C140.035 12.2767 140.006 12.218 139.947 12.174C139.888 12.1153 139.822 12.086 139.749 12.086H130.289C130.216 12.086 130.15 12.1153 130.091 12.174C130.047 12.218 130.025 12.2767 130.025 12.35V16.772ZM160.296 25L155.522 19.302H159.328L163.464 24.186V25H160.296ZM147.668 25V9.182H160.428C160.985 9.182 161.498 9.32133 161.968 9.6C162.437 9.87867 162.811 10.2527 163.09 10.722C163.368 11.1767 163.508 11.6827 163.508 12.24V16.508C163.508 17.0653 163.368 17.5787 163.09 18.048C162.811 18.5173 162.437 18.8913 161.968 19.17C161.498 19.434 160.985 19.566 160.428 19.566L150.572 19.588V25H147.668ZM150.836 16.64H160.296C160.369 16.64 160.435 16.618 160.494 16.574C160.552 16.53 160.582 16.4713 160.582 16.398V12.35C160.582 12.2767 160.552 12.218 160.494 12.174C160.435 12.1153 160.369 12.086 160.296 12.086H150.836C150.762 12.086 150.696 12.1153 150.638 12.174C150.594 12.218 150.572 12.2767 150.572 12.35V16.398C150.572 16.4713 150.594 16.53 150.638 16.574C150.696 16.618 150.762 16.64 150.836 16.64Z" fill="white"/>
</svg>
