<svg width="87" height="87" viewBox="0 0 87 87" fill="none" xmlns="http://www.w3.org/2000/svg">
<circle cx="43.5" cy="43.5" r="43.5" fill="white"/>
<path d="M49.1803 42.5148L50.1727 43.5187L57.2048 35.8638L57.1502 33.805L49.1803 42.5148Z" fill="#248FEC"/>
<path d="M51.5527 59.4491L57.8256 59.2828L57.2594 37.9226L51.1502 44.2654L51.5527 59.4491Z" fill="#248FEC"/>
<path d="M47.1876 40.5074L48.1799 41.5112L57.1093 32.2609L57.0547 30.2021L47.1876 40.5074Z" fill="#248FEC"/>
<path d="M30.5625 60.0055L36.8354 59.8392L36.467 45.9422L43.4746 52.2433L47.9358 47.4895L29.7916 30.9248L30.5625 60.0055Z" fill="#248FEC"/>
<path fill-rule="evenodd" clip-rule="evenodd" d="M44.4491 69.2676C58.2966 68.9006 69.2247 57.3774 68.8576 43.5298C68.4905 29.6823 56.9673 18.7543 43.1198 19.1213C29.2723 19.4884 18.3442 31.0116 18.7113 44.8591C19.0784 58.7067 30.6016 69.6347 44.4491 69.2676ZM44.5794 74.184C61.1421 73.7449 74.213 59.9622 73.7739 43.3995C73.3349 26.8368 59.5522 13.766 42.9895 14.205C26.4267 14.6441 13.3559 28.4267 13.795 44.9895C14.234 61.5522 28.0167 74.623 44.5794 74.184Z" fill="#248FEC"/>
</svg>
