<svg width="30" height="30" viewBox="0 0 30 30" fill="none" xmlns="http://www.w3.org/2000/svg">
<g clip-path="url(#clip0_1195_15561)">
<path d="M15 21.5625C15.9271 21.5625 16.8334 21.2876 17.6042 20.7725C18.3751 20.2574 18.9759 19.5254 19.3307 18.6688C19.6855 17.8123 19.7783 16.8698 19.5974 15.9605C19.4166 15.0512 18.9701 14.216 18.3146 13.5604C17.659 12.9049 16.8238 12.4584 15.9145 12.2776C15.0052 12.0967 14.0627 12.1895 13.2062 12.5443C12.3496 12.8991 11.6176 13.4999 11.1025 14.2708C10.5874 15.0416 10.3125 15.9479 10.3125 16.875C10.3139 18.1178 10.8082 19.3093 11.6869 20.1881C12.5657 21.0668 13.7572 21.5611 15 21.5625ZM15 13.125C15.7417 13.125 16.4667 13.3449 17.0834 13.757C17.7001 14.169 18.1807 14.7547 18.4645 15.4399C18.7484 16.1252 18.8226 16.8792 18.6779 17.6066C18.5332 18.334 18.1761 19.0022 17.6516 19.5267C17.1272 20.0511 16.459 20.4083 15.7316 20.5529C15.0042 20.6976 14.2502 20.6234 13.5649 20.3396C12.8797 20.0557 12.294 19.5751 11.882 18.9584C11.4699 18.3417 11.25 17.6167 11.25 16.875C11.2511 15.8808 11.6466 14.9276 12.3496 14.2246C13.0526 13.5216 14.0058 13.1261 15 13.125Z" fill="#232323"/>
<path d="M27.7584 16.875H24.7209C24.008 14.5491 22.6607 12.4681 20.8303 10.8656L18.2259 8.58656C18.4279 8.42553 18.5812 8.21154 18.6686 7.96849C18.756 7.72543 18.7742 7.46286 18.7211 7.21007C18.6681 6.95728 18.5458 6.72421 18.368 6.53686C18.1901 6.34951 17.9637 6.21525 17.7141 6.14906L20.078 2.60344C20.1344 2.51894 20.1619 2.4184 20.1562 2.31694C20.1505 2.21549 20.1121 2.11862 20.0466 2.04094C20.0348 2.02781 20.0198 2.01984 20.0072 2.00766L20.0109 2.00391C19.2889 1.32366 18.3357 0.942565 17.3438 0.9375C16.5611 0.938951 15.7974 1.17864 15.1542 1.62469C13.6987 0.988125 12.1875 0.350156 10.0312 1.96875C9.93536 2.04065 9.87065 2.14655 9.85043 2.26468C9.8302 2.38281 9.85599 2.5042 9.9225 2.60391L12.2864 6.14953C12.061 6.2089 11.8542 6.32394 11.6849 6.48409C11.5156 6.64425 11.3893 6.84437 11.3175 7.06609C11.2457 7.28781 11.2308 7.524 11.2742 7.75299C11.3175 7.98197 11.4177 8.19639 11.5655 8.37656L9.34688 10.4475L9.98719 11.1323L12.3722 8.90625H17.1675L20.2144 11.5711C21.8395 12.9944 23.0557 14.8253 23.738 16.875H21.9291C21.5833 16.8754 21.2518 17.0129 21.0074 17.2574C20.7629 17.5018 20.6254 17.8333 20.625 18.1791V19.3209C20.6264 19.6275 20.7367 19.9236 20.9363 20.1562C20.7367 20.3889 20.6264 20.685 20.625 20.9916V22.1334C20.6269 22.2708 20.6506 22.4071 20.6953 22.537C20.4094 22.6038 20.1544 22.7651 19.9715 22.9947C19.7886 23.2244 19.6886 23.5091 19.6875 23.8027V24.9445C19.6886 25.2381 19.7886 25.5228 19.9715 25.7524C20.1544 25.9821 20.4094 26.1434 20.6953 26.2102C20.6506 26.3401 20.6269 26.4763 20.625 26.6138V27.7556C20.6271 27.8106 20.6326 27.8654 20.6414 27.9197C20.1791 28.0543 19.7002 28.1234 19.2188 28.125H19.1597C19.197 28.0063 19.2169 27.8828 19.2188 27.7584V26.6166C19.2174 26.31 19.1071 26.0139 18.9075 25.7812C19.1071 25.5486 19.2174 25.2525 19.2188 24.9459V23.8041C19.2184 23.4583 19.0809 23.1268 18.8364 22.8824C18.5919 22.6379 18.2604 22.5004 17.9147 22.5H12.0853C11.7396 22.5004 11.4081 22.6379 11.1636 22.8824C10.9191 23.1268 10.7816 23.4583 10.7812 23.8041V24.9459C10.7826 25.2525 10.8929 25.5486 11.0925 25.7812C10.8929 26.0139 10.7826 26.31 10.7812 26.6166V27.7584C10.7831 27.8828 10.803 28.0063 10.8403 28.125H10.7812C10.2999 28.1243 9.82101 28.0562 9.35859 27.9225C9.36738 27.8682 9.37286 27.8134 9.375 27.7584V26.6166C9.37311 26.4792 9.34937 26.3429 9.30469 26.213C9.59059 26.1462 9.8456 25.9849 10.0285 25.7553C10.2114 25.5256 10.3114 25.2409 10.3125 24.9473V23.8041C10.3114 23.5105 10.2114 23.2258 10.0285 22.9961C9.8456 22.7665 9.59059 22.6052 9.30469 22.5384C9.34937 22.4085 9.37311 22.2723 9.375 22.1348V20.9916C9.37364 20.685 9.26332 20.3889 9.06375 20.1562C9.26332 19.9236 9.37364 19.6275 9.375 19.3209V18.1791C9.37463 17.8333 9.23712 17.5018 8.99264 17.2574C8.74816 17.0129 8.41668 16.8754 8.07094 16.875H6.18187C6.77266 14.9726 7.82074 13.2441 9.23438 11.8406L8.57812 11.1745C6.98432 12.7549 5.82233 14.7176 5.20312 16.875H2.24156C1.89582 16.8754 1.56434 17.0129 1.31986 17.2574C1.07538 17.5018 0.937872 17.8333 0.9375 18.1791V19.3209C0.938858 19.6275 1.04918 19.9236 1.24875 20.1562C1.04918 20.3889 0.938858 20.685 0.9375 20.9916V22.1334C0.938561 22.427 1.03863 22.7117 1.22151 22.9414C1.4044 23.171 1.65941 23.3323 1.94531 23.3991C1.90063 23.529 1.87689 23.6652 1.875 23.8027V24.9445C1.87689 25.0819 1.90063 25.2182 1.94531 25.3481C1.65895 25.415 1.40358 25.5767 1.22064 25.8069C1.03771 26.0372 0.937929 26.3225 0.9375 26.6166V27.7584C0.937872 28.1042 1.07538 28.4357 1.31986 28.6801C1.56434 28.9246 1.89582 29.0621 2.24156 29.0625H8.07094C8.37268 29.0613 8.66444 28.9543 8.89547 28.7602C9.5042 28.9597 10.1406 29.0617 10.7812 29.0625H19.2188C19.8594 29.0617 20.4958 28.9597 21.1045 28.7602C21.3356 28.9543 21.6273 29.0613 21.9291 29.0625H27.7584C28.1042 29.0621 28.4357 28.9246 28.6801 28.6801C28.9246 28.4357 29.0621 28.1042 29.0625 27.7584V26.6166C29.0614 26.323 28.9614 26.0383 28.7785 25.8086C28.5956 25.579 28.3406 25.4177 28.0547 25.3509C28.0994 25.221 28.1231 25.0848 28.125 24.9473V23.8041C28.1231 23.6667 28.0994 23.5304 28.0547 23.4005C28.3406 23.3337 28.5956 23.1724 28.7785 22.9428C28.9614 22.7131 29.0614 22.4284 29.0625 22.1348V20.9916C29.0611 20.685 28.9508 20.3889 28.7512 20.1562C28.9508 19.9236 29.0611 19.6275 29.0625 19.3209V18.1791C29.0621 17.8333 28.9246 17.5018 28.6801 17.2574C28.4357 17.0129 28.1042 16.8754 27.7584 16.875ZM18.6769 2.20312C17.8838 2.40689 17.0474 2.36405 16.2792 2.08031C16.6178 1.94505 16.9791 1.87537 17.3438 1.875C17.8073 1.8814 18.2633 1.99363 18.6769 2.20312ZM14.8177 2.50219C15.8719 2.96391 17.0358 3.47484 18.5597 3.19219L16.6242 6.09375H13.3758L10.957 2.46563C12.4917 1.48219 13.5291 1.93594 14.8177 2.50078V2.50219ZM12.6562 7.96875C12.5319 7.96875 12.4127 7.91936 12.3248 7.83146C12.2369 7.74355 12.1875 7.62432 12.1875 7.5C12.1875 7.37568 12.2369 7.25645 12.3248 7.16854C12.4127 7.08064 12.5319 7.03125 12.6562 7.03125H17.3438C17.4681 7.03125 17.5873 7.08064 17.6752 7.16854C17.7631 7.25645 17.8125 7.37568 17.8125 7.5C17.8125 7.62432 17.7631 7.74355 17.6752 7.83146C17.5873 7.91936 17.4681 7.96875 17.3438 7.96875H12.6562ZM9.375 24.9459C9.37488 25.0431 9.33622 25.1363 9.2675 25.205C9.19878 25.2737 9.10562 25.3124 9.00844 25.3125H3.17906C3.08188 25.3124 2.98872 25.2737 2.92 25.205C2.85128 25.1363 2.81262 25.0431 2.8125 24.9459V23.8041C2.81262 23.7069 2.85128 23.6137 2.92 23.545C2.98872 23.4763 3.08188 23.4376 3.17906 23.4375H3.75V24.375H4.6875V23.4375H5.625V24.375H6.5625V23.4375H7.5V24.375H8.4375V23.4375H9.00844C9.10562 23.4376 9.19878 23.4763 9.2675 23.545C9.33622 23.6137 9.37488 23.7069 9.375 23.8041V24.9459ZM1.875 18.1791C1.87512 18.0819 1.91378 17.9887 1.9825 17.92C2.05122 17.8513 2.14438 17.8126 2.24156 17.8125H2.8125V18.75H3.75V17.8125H4.6875V18.75H5.625V17.8125H6.5625V18.75H7.5V17.8125H8.07094C8.16812 17.8126 8.26128 17.8513 8.33 17.92C8.39872 17.9887 8.43738 18.0819 8.4375 18.1791V19.3209C8.43738 19.4181 8.39872 19.5113 8.33 19.58C8.26128 19.6487 8.16812 19.6874 8.07094 19.6875H2.24156C2.14438 19.6874 2.05122 19.6487 1.9825 19.58C1.91378 19.5113 1.87512 19.4181 1.875 19.3209V18.1791ZM1.875 20.9916C1.87512 20.8944 1.91378 20.8012 1.9825 20.7325C2.05122 20.6638 2.14438 20.6251 2.24156 20.625H2.8125V21.5625H3.75V20.625H4.6875V21.5625H5.625V20.625H6.5625V21.5625H7.5V20.625H8.07094C8.16812 20.6251 8.26128 20.6638 8.33 20.7325C8.39872 20.8012 8.43738 20.8944 8.4375 20.9916V22.1334C8.43738 22.2306 8.39872 22.3238 8.33 22.3925C8.26128 22.4612 8.16812 22.4999 8.07094 22.5H2.24156C2.14438 22.4999 2.05122 22.4612 1.9825 22.3925C1.91378 22.3238 1.87512 22.2306 1.875 22.1334V20.9916ZM8.4375 27.7584C8.43738 27.8556 8.39872 27.9488 8.33 28.0175C8.26128 28.0862 8.16812 28.1249 8.07094 28.125H2.24156C2.14438 28.1249 2.05122 28.0862 1.9825 28.0175C1.91378 27.9488 1.87512 27.8556 1.875 27.7584V26.6166C1.87512 26.5194 1.91378 26.4262 1.9825 26.3575C2.05122 26.2888 2.14438 26.2501 2.24156 26.25H2.8125V27.1875H3.75V26.25H4.6875V27.1875H5.625V26.25H6.5625V27.1875H7.5V26.25H8.07094C8.16812 26.2501 8.26128 26.2888 8.33 26.3575C8.39872 26.4262 8.43738 26.5194 8.4375 26.6166V27.7584ZM11.7188 23.8041C11.7189 23.7069 11.7575 23.6137 11.8263 23.545C11.895 23.4763 11.9881 23.4376 12.0853 23.4375H12.6562V24.375H13.5938V23.4375H14.5312V24.375H15.4688V23.4375H16.4062V24.375H17.3438V23.4375H17.9147C18.0119 23.4376 18.105 23.4763 18.1737 23.545C18.2425 23.6137 18.2811 23.7069 18.2812 23.8041V24.9459C18.2811 25.0431 18.2425 25.1363 18.1737 25.205C18.105 25.2737 18.0119 25.3124 17.9147 25.3125H12.0853C11.9881 25.3124 11.895 25.2737 11.8263 25.205C11.7575 25.1363 11.7189 25.0431 11.7188 24.9459V23.8041ZM12.0853 28.125C11.9881 28.1249 11.895 28.0862 11.8263 28.0175C11.7575 27.9488 11.7189 27.8556 11.7188 27.7584V26.6166C11.7189 26.5194 11.7575 26.4262 11.8263 26.3575C11.895 26.2888 11.9881 26.2501 12.0853 26.25H12.6562V27.1875H13.5938V26.25H14.5312V27.1875H15.4688V26.25H16.4062V27.1875H17.3438V26.25H17.9147C18.0119 26.2501 18.105 26.2888 18.1737 26.3575C18.2425 26.4262 18.2811 26.5194 18.2812 26.6166V27.7584C18.2811 27.8556 18.2425 27.9488 18.1737 28.0175C18.105 28.0862 18.0119 28.1249 17.9147 28.125H12.0853ZM21.5625 18.1791C21.5626 18.0819 21.6013 17.9887 21.67 17.92C21.7387 17.8513 21.8319 17.8126 21.9291 17.8125H22.5V18.75H23.4375V17.8125H24.375V18.75H25.3125V17.8125H26.25V18.75H27.1875V17.8125H27.7584C27.8556 17.8126 27.9488 17.8513 28.0175 17.92C28.0862 17.9887 28.1249 18.0819 28.125 18.1791V19.3209C28.1249 19.4181 28.0862 19.5113 28.0175 19.58C27.9488 19.6487 27.8556 19.6874 27.7584 19.6875H21.9291C21.8319 19.6874 21.7387 19.6487 21.67 19.58C21.6013 19.5113 21.5626 19.4181 21.5625 19.3209V18.1791ZM20.625 23.8041C20.6251 23.7069 20.6638 23.6137 20.7325 23.545C20.8012 23.4763 20.8944 23.4376 20.9916 23.4375H21.5625V24.375H22.5V23.4375H23.4375V24.375H24.375V23.4375H25.3125V24.375H26.25V23.4375H26.8209C26.9181 23.4376 27.0113 23.4763 27.08 23.545C27.1487 23.6137 27.1874 23.7069 27.1875 23.8041V24.9459C27.1874 25.0431 27.1487 25.1363 27.08 25.205C27.0113 25.2737 26.9181 25.3124 26.8209 25.3125H20.9916C20.8944 25.3124 20.8012 25.2737 20.7325 25.205C20.6638 25.1363 20.6251 25.0431 20.625 24.9459V23.8041ZM28.125 27.7584C28.1249 27.8556 28.0862 27.9488 28.0175 28.0175C27.9488 28.0862 27.8556 28.1249 27.7584 28.125H21.9291C21.8319 28.1249 21.7387 28.0862 21.67 28.0175C21.6013 27.9488 21.5626 27.8556 21.5625 27.7584V26.6166C21.5626 26.5194 21.6013 26.4262 21.67 26.3575C21.7387 26.2888 21.8319 26.2501 21.9291 26.25H22.5V27.1875H23.4375V26.25H24.375V27.1875H25.3125V26.25H26.25V27.1875H27.1875V26.25H27.7584C27.8556 26.2501 27.9488 26.2888 28.0175 26.3575C28.0862 26.4262 28.1249 26.5194 28.125 26.6166V27.7584ZM28.125 22.1334C28.1249 22.2306 28.0862 22.3238 28.0175 22.3925C27.9488 22.4612 27.8556 22.4999 27.7584 22.5H21.9291C21.8319 22.4999 21.7387 22.4612 21.67 22.3925C21.6013 22.3238 21.5626 22.2306 21.5625 22.1334V20.9916C21.5626 20.8944 21.6013 20.8012 21.67 20.7325C21.7387 20.6638 21.8319 20.6251 21.9291 20.625H22.5V21.5625H23.4375V20.625H24.375V21.5625H25.3125V20.625H26.25V21.5625H27.1875V20.625H27.7584C27.8556 20.6251 27.9488 20.6638 28.0175 20.7325C28.0862 20.8012 28.1249 20.8944 28.125 20.9916V22.1334Z" fill="#232323"/>
</g>
<defs>
<clipPath id="clip0_1195_15561">
<rect width="30" height="30" fill="white"/>
</clipPath>
</defs>
</svg>
