<svg width="30" height="30" viewBox="0 0 30 30" fill="none" xmlns="http://www.w3.org/2000/svg">
<circle cx="15" cy="15" r="14.5" stroke="#248FEC"/>
<path d="M14.9901 15.2419C12.9722 15.2419 11.2951 13.5662 11.2951 11.5833C11.2951 9.5319 12.9722 7.85547 14.9908 7.85547C17.078 7.85547 18.6858 9.53118 18.6858 11.5833C18.6822 12.5569 18.2922 13.4893 17.6015 14.1754C16.9108 14.8616 15.9759 15.2455 15.0022 15.2426L14.9901 15.2419ZM14.9901 10.0105C14.1358 10.0105 13.4858 10.7283 13.4858 11.584C13.4858 12.4383 14.1358 13.0883 14.9908 13.0883C15.8801 13.0883 16.4958 12.4383 16.4958 11.584C16.4965 10.7276 15.8801 10.0105 14.9901 10.0105ZM16.4615 18.2862L18.5494 20.304C18.9601 20.7476 18.9601 21.3976 18.5494 21.8083C18.1051 22.2519 17.4201 22.2519 17.078 21.8083L14.9908 19.7562L12.9722 21.8083C12.7672 22.0133 12.493 22.1155 12.1844 22.1155C11.9451 22.1155 11.6715 22.0126 11.4315 21.8083C11.0208 21.3976 11.0208 20.7476 11.4315 20.3033L13.553 18.2855C12.7868 18.0586 12.0519 17.7373 11.3651 17.329C10.8515 17.0555 10.7494 16.3719 11.023 15.8583C11.3651 15.3455 11.9808 15.209 12.5287 15.5512C13.2705 16.0039 14.1228 16.2434 14.9919 16.2434C15.861 16.2434 16.7133 16.0039 17.4551 15.5512C18.003 15.209 18.6522 15.3455 18.9601 15.8583C19.2687 16.3719 19.1308 17.0548 18.6515 17.329C18.0022 17.7398 17.2494 18.0476 16.4622 18.2869L16.4615 18.2862Z" fill="#248FEC"/>
</svg>
