<svg width="30" height="30" viewBox="0 0 30 30" fill="none" xmlns="http://www.w3.org/2000/svg">
<circle cx="15" cy="15" r="14.5" stroke="white"/>
<path d="M14.99 15.2439C12.9722 15.2439 11.295 13.5681 11.295 11.5853C11.295 9.53385 12.9722 7.85742 14.9908 7.85742C17.0779 7.85742 18.6858 9.53314 18.6858 11.5853C18.6822 12.5589 18.2921 13.4912 17.6014 14.1774C16.9107 14.8636 15.9758 15.2474 15.0022 15.2446L14.99 15.2439ZM14.99 10.0124C14.1358 10.0124 13.4858 10.7303 13.4858 11.586C13.4858 12.4403 14.1358 13.0903 14.9908 13.0903C15.88 13.0903 16.4958 12.4403 16.4958 11.586C16.4965 10.7296 15.88 10.0124 14.99 10.0124ZM16.4615 18.2881L18.5493 20.306C18.96 20.7496 18.96 21.3996 18.5493 21.8103C18.105 22.2539 17.42 22.2539 17.0779 21.8103L14.9908 19.7581L12.9722 21.8103C12.7672 22.0153 12.4929 22.1174 12.1843 22.1174C11.945 22.1174 11.6715 22.0146 11.4315 21.8103C11.0208 21.3996 11.0208 20.7496 11.4315 20.3053L13.5529 18.2874C12.7868 18.0606 12.0519 17.7393 11.365 17.331C10.8515 17.0574 10.7493 16.3739 11.0229 15.8603C11.365 15.3474 11.9808 15.211 12.5286 15.5531C13.2705 16.0059 14.1227 16.2454 14.9918 16.2454C15.8609 16.2454 16.7132 16.0059 17.455 15.5531C18.0029 15.211 18.6522 15.3474 18.96 15.8603C19.2686 16.3739 19.1308 17.0567 18.6515 17.331C18.0022 17.7417 17.2493 18.0496 16.4622 18.2889L16.4615 18.2881Z" fill="white"/>
</svg>
