<svg width="18" height="18" viewBox="0 0 18 18" fill="none" xmlns="http://www.w3.org/2000/svg">
<path d="M9.5625 1.125C4.90275 1.125 1.125 4.90275 1.125 9.5625C1.125 14.2222 4.90275 18 9.5625 18C14.2222 18 18 14.2222 18 9.5625C18 4.90275 14.2222 1.125 9.5625 1.125ZM9.5625 16.875C5.5305 16.875 2.25 13.5945 2.25 9.5625C2.25 5.5305 5.5305 2.25 9.5625 2.25C13.5945 2.25 16.875 5.5305 16.875 9.5625C16.875 13.5945 13.5945 16.875 9.5625 16.875ZM14.0625 9H10.125V5.0625C10.125 4.91332 10.0657 4.77024 9.96025 4.66475C9.85476 4.55926 9.71168 4.5 9.5625 4.5C9.41332 4.5 9.27024 4.55926 9.16475 4.66475C9.05926 4.77024 9 4.91332 9 5.0625V9H5.0625C4.91332 9 4.77024 9.05926 4.66475 9.16475C4.55926 9.27024 4.5 9.41332 4.5 9.5625C4.5 9.71168 4.55926 9.85476 4.66475 9.96025C4.77024 10.0657 4.91332 10.125 5.0625 10.125H9V14.0625C9 14.2117 9.05926 14.3548 9.16475 14.4602C9.27024 14.5657 9.41332 14.625 9.5625 14.625C9.71168 14.625 9.85476 14.5657 9.96025 14.4602C10.0657 14.3548 10.125 14.2117 10.125 14.0625V10.125H14.0625C14.2117 10.125 14.3548 10.0657 14.4602 9.96025C14.5657 9.85476 14.625 9.71168 14.625 9.5625C14.625 9.41332 14.5657 9.27024 14.4602 9.16475C14.3548 9.05926 14.2117 9 14.0625 9Z" fill="#248FEC"/>
</svg>
