<svg width="20" height="20" viewBox="0 0 20 20" fill="none" xmlns="http://www.w3.org/2000/svg">
<g clip-path="url(#clip0_2278_10394)">
<path d="M18.9227 17.7448L14.1934 13.0154C15.2575 11.6874 15.8361 10.0357 15.8334 8.33398C15.8334 4.1919 12.4757 0.833984 8.33337 0.833984C4.19129 0.833984 0.833374 4.1919 0.833374 8.33398C0.833374 12.4761 4.19129 15.834 8.33337 15.834C10.1042 15.834 11.7317 15.2202 13.0148 14.1938L17.7442 18.9232C17.8215 19.0007 17.9133 19.0621 18.0144 19.104C18.1155 19.1459 18.2239 19.1674 18.3334 19.1673C18.4982 19.1673 18.6593 19.1185 18.7963 19.0269C18.9334 18.9354 19.0402 18.8052 19.1033 18.653C19.1664 18.5007 19.1829 18.3332 19.1507 18.1715C19.1186 18.0099 19.0393 17.8614 18.9227 17.7448ZM8.33337 14.1673C5.11171 14.1673 2.50004 11.5557 2.50004 8.33398C2.50004 5.11232 5.11171 2.50065 8.33337 2.50065C11.5552 2.50065 14.1667 5.11232 14.1667 8.33398C14.1667 11.5557 11.5552 14.1673 8.33337 14.1673Z" fill="#959595"/>
</g>
<defs>
<clipPath id="clip0_2278_10394">
<rect width="20" height="20" fill="white"/>
</clipPath>
</defs>
</svg>
