<svg width="30" height="30" viewBox="0 0 30 30" fill="none" xmlns="http://www.w3.org/2000/svg">
<g clip-path="url(#clip0_2278_10348)">
<path d="M21.8786 17.6319C21.432 17.0962 20.9065 16.6391 20.4092 16.1536C19.9606 15.716 19.9323 15.4622 20.2929 14.9571C20.6865 14.4059 21.1098 13.8758 21.507 13.3271C21.8777 12.8143 22.2567 12.3029 22.4518 11.6889C22.5755 11.2982 22.4661 11.1257 22.0655 11.0573C21.9965 11.0453 21.9251 11.0447 21.8549 11.0447L19.4782 11.0419C19.1855 11.0375 19.0237 11.1652 18.9202 11.4246C18.7804 11.7753 18.6363 12.1257 18.4698 12.4641C18.0921 13.2314 17.6702 13.973 17.0787 14.601C16.9483 14.7395 16.8041 14.9145 16.5861 14.8424C16.3135 14.7429 16.2331 14.2937 16.2376 14.1418L16.2353 11.3986C16.1824 11.0068 16.0955 10.832 15.7064 10.7559L13.2376 10.7563C12.9081 10.7563 12.7428 10.8836 12.5669 11.0898C12.4654 11.2088 12.4347 11.2861 12.6434 11.3256C13.0531 11.4033 13.284 11.6685 13.3452 12.0793C13.4434 12.7358 13.4366 13.3949 13.38 14.054C13.3634 14.2464 13.3303 14.4384 13.254 14.6181C13.1346 14.9006 12.9418 14.9581 12.6886 14.7843C12.4593 14.627 12.2983 14.405 12.1406 14.1821C11.5485 13.3455 11.0761 12.4432 10.6909 11.4952C10.5796 11.2213 10.3877 11.0553 10.0974 11.0507C9.38441 11.0394 8.67121 11.0375 7.95818 11.0514C7.52914 11.0594 7.40121 11.2677 7.57593 11.6567C8.35255 13.3842 9.21699 15.0636 10.3454 16.5935C10.9247 17.3787 11.5899 18.0718 12.4492 18.563C13.4231 19.1199 14.4714 19.2874 15.5756 19.2358C16.0926 19.2116 16.2479 19.0771 16.2718 18.5618C16.288 18.2092 16.3279 17.8587 16.5019 17.5419C16.6726 17.231 16.9311 17.1718 17.2291 17.3652C17.3781 17.462 17.5037 17.5853 17.6223 17.7152C17.9133 18.0336 18.1939 18.3616 18.496 18.6692C18.8748 19.0547 19.3236 19.2825 19.8878 19.236L22.0722 19.2364C22.4241 19.2134 22.6066 18.7819 22.4045 18.3891C22.2626 18.114 22.0764 17.869 21.8786 17.6319Z" fill="#248FEC"/>
</g>
<circle cx="15" cy="15" r="14.5" stroke="#248FEC"/>
<defs>
<clipPath id="clip0_2278_10348">
<rect width="15" height="15" fill="white" transform="translate(7.5 7.5)"/>
</clipPath>
</defs>
</svg>
