<svg width="30" height="30" viewBox="0 0 30 30" fill="none" xmlns="http://www.w3.org/2000/svg">
<g clip-path="url(#clip0_2278_11686)">
<path d="M21.8788 17.6319C21.4322 17.0962 20.9066 16.6391 20.4093 16.1536C19.9607 15.716 19.9324 15.4622 20.293 14.9571C20.6866 14.4059 21.1099 13.8758 21.5071 13.3271C21.8778 12.8143 22.2568 12.3029 22.4519 11.6889C22.5756 11.2982 22.4662 11.1257 22.0656 11.0573C21.9966 11.0453 21.9252 11.0447 21.855 11.0447L19.4783 11.0419C19.1856 11.0375 19.0238 11.1652 18.9203 11.4246C18.7805 11.7753 18.6364 12.1257 18.47 12.4641C18.0922 13.2314 17.6703 13.973 17.0789 14.601C16.9484 14.7395 16.8042 14.9145 16.5862 14.8424C16.3136 14.7429 16.2332 14.2937 16.2377 14.1418L16.2354 11.3986C16.1826 11.0068 16.0957 10.832 15.7066 10.7559L13.2378 10.7563C12.9082 10.7563 12.743 10.8836 12.567 11.0898C12.4655 11.2088 12.4349 11.2861 12.6435 11.3256C13.0532 11.4033 13.2841 11.6685 13.3453 12.0793C13.4436 12.7358 13.4367 13.3949 13.3801 14.054C13.3635 14.2464 13.3304 14.4384 13.2541 14.6181C13.1347 14.9006 12.9419 14.9581 12.6887 14.7843C12.4594 14.627 12.2984 14.405 12.1408 14.1821C11.5487 13.3455 11.0763 12.4432 10.6911 11.4952C10.5798 11.2213 10.3878 11.0553 10.0976 11.0507C9.38453 11.0394 8.67134 11.0375 7.9583 11.0514C7.52926 11.0594 7.40133 11.2677 7.57605 11.6567C8.35267 13.3842 9.21711 15.0636 10.3455 16.5935C10.9249 17.3787 11.59 18.0718 12.4493 18.563C13.4232 19.1199 14.4715 19.2874 15.5757 19.2358C16.0927 19.2116 16.248 19.0771 16.2719 18.5618C16.2881 18.2092 16.328 17.8587 16.502 17.5419C16.6727 17.231 16.9312 17.1718 17.2292 17.3652C17.3783 17.462 17.5039 17.5853 17.6225 17.7152C17.9135 18.0336 18.194 18.3616 18.4961 18.6692C18.8749 19.0547 19.3237 19.2825 19.8879 19.236L22.0723 19.2364C22.4242 19.2134 22.6067 18.7819 22.4046 18.3891C22.2627 18.114 22.0765 17.869 21.8788 17.6319Z" fill="white"/>
</g>
<circle cx="15" cy="15" r="14.5" stroke="white"/>
<defs>
<clipPath id="clip0_2278_11686">
<rect width="15" height="15" fill="white" transform="translate(7.5 7.5)"/>
</clipPath>
</defs>
</svg>
