<svg width="30" height="30" viewBox="0 0 30 30" fill="none" xmlns="http://www.w3.org/2000/svg">
<g clip-path="url(#clip0_2278_10359)">
<path d="M21.6361 15.1018C21.4678 14.3707 20.8697 13.8313 20.1499 13.751C18.4456 13.5606 16.7199 13.5598 15.0025 13.5606C13.2844 13.5598 11.559 13.5606 9.85423 13.751C9.13475 13.8315 8.53703 14.3708 8.36893 15.1018C8.12934 16.143 8.12646 17.2795 8.12646 18.3515C8.12646 19.4236 8.12646 20.5599 8.36605 21.601C8.53416 22.332 9.13187 22.8714 9.85172 22.9518C11.5561 23.1424 13.2816 23.1431 14.9994 23.1424C16.7175 23.1433 18.4426 23.1424 20.1475 22.9518C20.867 22.8714 21.4651 22.332 21.6332 21.601C21.8726 20.5599 21.8739 19.4236 21.8739 18.3515C21.8737 17.2793 21.8755 16.143 21.6361 15.1018ZM12.0477 15.9088H11.0527V21.1959H10.1285V15.9088H9.15163V15.0427H12.0477V15.9088ZM14.558 21.196H13.7266V20.6959C13.3963 21.0745 13.0827 21.2591 12.7772 21.2591C12.5095 21.2591 12.3252 21.1506 12.242 20.9184C12.1968 20.7797 12.1688 20.5603 12.1688 20.2366V16.6112H12.9994V19.9868C12.9994 20.1815 12.9994 20.2826 13.007 20.3099C13.0269 20.4388 13.0899 20.5042 13.2013 20.5042C13.368 20.5042 13.5422 20.3758 13.7264 20.1152V16.6112H14.5578L14.558 21.196ZM17.7141 19.8199C17.7141 20.244 17.6856 20.5495 17.6301 20.7438C17.5191 21.0849 17.2969 21.2591 16.9664 21.2591C16.6708 21.2591 16.3856 21.0949 16.1078 20.7519V21.1962H15.2771V15.0427H16.1078V17.0523C16.3761 16.722 16.6609 16.555 16.9664 16.555C17.2969 16.555 17.5193 16.729 17.6301 17.0722C17.6859 17.2567 17.7141 17.5598 17.7141 17.9939V19.8199ZM20.8494 19.055H19.1879V19.8677C19.1879 20.2921 19.3268 20.504 19.6123 20.504C19.8169 20.504 19.936 20.3929 19.9834 20.1709C19.9911 20.1258 20.0021 19.9412 20.0021 19.608H20.8496V19.7292C20.8496 19.997 20.8394 20.1815 20.8318 20.2644C20.804 20.4484 20.7386 20.6152 20.6379 20.7621C20.4078 21.0951 20.0669 21.2593 19.633 21.2593C19.1984 21.2593 18.8675 21.1028 18.6274 20.7898C18.4512 20.5603 18.3607 20.1989 18.3607 19.7116V18.1058C18.3607 17.6157 18.441 17.2572 18.6175 17.0255C18.8575 16.7118 19.1881 16.5555 19.6125 16.5555C20.0294 16.5555 20.3598 16.7118 20.5926 17.0255C20.7666 17.2572 20.8498 17.6157 20.8498 18.1058V19.055H20.8494Z" fill="#248FEC"/>
<path d="M19.6048 17.3027C19.3272 17.3027 19.188 17.5148 19.188 17.9387V18.3629H20.0186V17.9387C20.0185 17.5148 19.8796 17.3027 19.6048 17.3027Z" fill="#248FEC"/>
<path d="M16.522 17.3027C16.3851 17.3027 16.2465 17.3674 16.1077 17.5048V20.2992C16.2463 20.4382 16.3851 20.5039 16.522 20.5039C16.7616 20.5039 16.8834 20.2992 16.8834 19.8852V17.9283C16.8834 17.5148 16.7616 17.3027 16.522 17.3027Z" fill="#248FEC"/>
<path d="M16.9859 13.1385C17.2921 13.1385 17.6108 12.9525 17.945 12.5695V13.0749H18.7846V8.44141H17.945V11.9828C17.7589 12.2457 17.5826 12.3758 17.4146 12.3758C17.3022 12.3758 17.2361 12.3093 17.2178 12.1791C17.2075 12.1516 17.2075 12.0494 17.2075 11.8528V8.44141H16.3706V12.1053C16.3706 12.4325 16.3986 12.654 16.445 12.7942C16.5294 13.029 16.7156 13.1385 16.9859 13.1385Z" fill="#248FEC"/>
<path d="M11.1409 10.5569V13.075H12.072V10.5569L13.192 6.85742H12.2505L11.6153 9.2991L10.9543 6.85742H9.97461C10.1709 7.43376 10.3751 8.01298 10.5714 8.58986C10.8701 9.45697 11.0565 10.1107 11.1409 10.5569Z" fill="#248FEC"/>
<path d="M14.4398 13.1379C14.8604 13.1379 15.1873 12.9797 15.4192 12.6636C15.5953 12.4317 15.6798 12.0664 15.6798 11.5739V9.95143C15.6798 9.45609 15.5955 9.09401 15.4192 8.85999C15.1873 8.54299 14.8606 8.38477 14.4398 8.38477C14.0213 8.38477 13.6946 8.54299 13.4622 8.85999C13.2839 9.09401 13.1995 9.45609 13.1995 9.95143V11.5739C13.1995 12.0664 13.2839 12.4317 13.4622 12.6636C13.6944 12.9797 14.0213 13.1379 14.4398 13.1379ZM14.0391 9.78314C14.0391 9.35443 14.1691 9.14071 14.4398 9.14071C14.7104 9.14071 14.8401 9.35425 14.8401 9.78314V11.7322C14.8401 12.1609 14.7104 12.3753 14.4398 12.3753C14.1691 12.3753 14.0391 12.1609 14.0391 11.7322V9.78314Z" fill="#248FEC"/>
</g>
<circle cx="15" cy="15" r="14.5" stroke="#248FEC"/>
<defs>
<clipPath id="clip0_2278_10359">
<rect width="16.2857" height="16.2857" fill="white" transform="translate(6.85718 6.85742)"/>
</clipPath>
</defs>
</svg>
