<svg width="30" height="30" viewBox="0 0 30 30" fill="none" xmlns="http://www.w3.org/2000/svg">
<g clip-path="url(#clip0_2278_11697)">
<path d="M21.6361 15.1028C21.4678 14.3716 20.8697 13.8323 20.1499 13.752C18.4456 13.5616 16.7199 13.5607 15.0025 13.5616C13.2844 13.5607 11.559 13.5616 9.85423 13.752C9.13475 13.8325 8.53703 14.3718 8.36893 15.1028C8.12934 16.1439 8.12646 17.2805 8.12646 18.3525C8.12646 19.4245 8.12646 20.5609 8.36605 21.602C8.53416 22.333 9.13187 22.8723 9.85172 22.9528C11.5561 23.1434 13.2816 23.1441 14.9994 23.1434C16.7175 23.1443 18.4426 23.1434 20.1475 22.9528C20.867 22.8723 21.4651 22.333 21.6332 21.602C21.8726 20.5609 21.8739 19.4245 21.8739 18.3525C21.8737 17.2803 21.8755 16.1439 21.6361 15.1028ZM12.0477 15.9097H11.0527V21.1968H10.1285V15.9097H9.15163V15.0437H12.0477V15.9097ZM14.558 21.197H13.7266V20.6968C13.3963 21.0754 13.0827 21.2601 12.7772 21.2601C12.5095 21.2601 12.3252 21.1516 12.242 20.9194C12.1968 20.7807 12.1688 20.5612 12.1688 20.2376V16.6122H12.9994V19.9878C12.9994 20.1825 12.9994 20.2836 13.007 20.3109C13.0269 20.4398 13.0899 20.5052 13.2013 20.5052C13.368 20.5052 13.5422 20.3768 13.7264 20.1162V16.6122H14.5578L14.558 21.197ZM17.7141 19.8209C17.7141 20.245 17.6856 20.5505 17.6301 20.7448C17.5191 21.0858 17.2969 21.2601 16.9664 21.2601C16.6708 21.2601 16.3856 21.0959 16.1078 20.7529V21.1972H15.2771V15.0437H16.1078V17.0533C16.3761 16.723 16.6609 16.5559 16.9664 16.5559C17.2969 16.5559 17.5193 16.73 17.6301 17.0732C17.6859 17.2576 17.7141 17.5608 17.7141 17.9949V19.8209ZM20.8494 19.056H19.1879V19.8687C19.1879 20.2931 19.3268 20.505 19.6123 20.505C19.8169 20.505 19.936 20.3938 19.9834 20.1719C19.9911 20.1268 20.0021 19.9421 20.0021 19.609H20.8496V19.7302C20.8496 19.998 20.8394 20.1825 20.8318 20.2654C20.804 20.4493 20.7386 20.6162 20.6379 20.7631C20.4078 21.0961 20.0669 21.2602 19.633 21.2602C19.1984 21.2602 18.8675 21.1038 18.6274 20.7908C18.4512 20.5612 18.3607 20.1999 18.3607 19.7126V18.1068C18.3607 17.6167 18.441 17.2582 18.6175 17.0265C18.8575 16.7127 19.1881 16.5565 19.6125 16.5565C20.0294 16.5565 20.3598 16.7127 20.5926 17.0265C20.7666 17.2582 20.8498 17.6167 20.8498 18.1068V19.056H20.8494Z" fill="white"/>
<path d="M19.6049 17.3037C19.3272 17.3037 19.188 17.5158 19.188 17.9397V18.3639H20.0187V17.9397C20.0185 17.5158 19.8797 17.3037 19.6049 17.3037Z" fill="white"/>
<path d="M16.5219 17.3037C16.3851 17.3037 16.2464 17.3684 16.1076 17.5058V20.3002C16.2463 20.4392 16.3851 20.5049 16.5219 20.5049C16.7615 20.5049 16.8833 20.3002 16.8833 19.8862V17.9293C16.8833 17.5158 16.7615 17.3037 16.5219 17.3037Z" fill="white"/>
<path d="M16.986 13.1385C17.2922 13.1385 17.6108 12.9525 17.9451 12.5695V13.0749H18.7847V8.44141H17.9451V11.9828C17.759 12.2457 17.5826 12.3758 17.4147 12.3758C17.3023 12.3758 17.2362 12.3093 17.2178 12.1791C17.2076 12.1516 17.2076 12.0494 17.2076 11.8528V8.44141H16.3707V12.1053C16.3707 12.4325 16.3987 12.654 16.445 12.7942C16.5294 13.029 16.7157 13.1385 16.986 13.1385Z" fill="white"/>
<path d="M11.1409 10.5569V13.075H12.0719V10.5569L13.1919 6.85742H12.2505L11.6152 9.2991L10.9543 6.85742H9.97455C10.1709 7.43376 10.3751 8.01298 10.5714 8.58986C10.87 9.45697 11.0565 10.1107 11.1409 10.5569Z" fill="white"/>
<path d="M14.4398 13.1389C14.8604 13.1389 15.1873 12.9807 15.4192 12.6646C15.5953 12.4327 15.6798 12.0674 15.6798 11.5749V9.95241C15.6798 9.45706 15.5955 9.09499 15.4192 8.86097C15.1873 8.54397 14.8606 8.38574 14.4398 8.38574C14.0213 8.38574 13.6946 8.54397 13.4622 8.86097C13.2839 9.09499 13.1995 9.45706 13.1995 9.95241V11.5749C13.1995 12.0674 13.2839 12.4327 13.4622 12.6646C13.6944 12.9807 14.0213 13.1389 14.4398 13.1389ZM14.0391 9.78412C14.0391 9.35541 14.1691 9.14168 14.4398 9.14168C14.7104 9.14168 14.8401 9.35523 14.8401 9.78412V11.7332C14.8401 12.1619 14.7104 12.3763 14.4398 12.3763C14.1691 12.3763 14.0391 12.1619 14.0391 11.7332V9.78412Z" fill="white"/>
</g>
<circle cx="15" cy="15" r="14.5" stroke="white"/>
<defs>
<clipPath id="clip0_2278_11697">
<rect width="16.2857" height="16.2857" fill="white" transform="translate(6.85718 6.85742)"/>
</clipPath>
</defs>
</svg>
