<svg width="45" height="45" viewBox="0 0 45 45" fill="none" xmlns="http://www.w3.org/2000/svg">
<g clip-path="url(#clip0_1223_26885)">
<path d="M34.8936 0H10.1084C9.23457 0.000977045 8.39681 0.348536 7.77893 0.966425C7.16104 1.58431 6.81348 2.42207 6.8125 3.2959V41.7041C6.81348 42.5779 7.16104 43.4157 7.77893 44.0336C8.39681 44.6515 9.23457 44.999 10.1084 45H34.8936C35.7674 44.999 36.6051 44.6515 37.223 44.0336C37.8409 43.4157 38.1885 42.5779 38.1895 41.7041V3.2959C38.1885 2.42207 37.8409 1.58431 37.223 0.966425C36.6051 0.348536 35.7674 0.000977045 34.8936 0ZM36.8711 41.7041C36.8705 42.2284 36.6619 42.731 36.2912 43.1018C35.9205 43.4725 35.4178 43.681 34.8936 43.6816H10.1084C9.58411 43.681 9.08146 43.4725 8.71073 43.1018C8.34001 42.731 8.13146 42.2284 8.13086 41.7041V3.2959C8.13146 2.77161 8.34001 2.26896 8.71073 1.89824C9.08146 1.52751 9.58411 1.31896 10.1084 1.31836H34.8936C35.4178 1.31896 35.9205 1.52751 36.2912 1.89824C36.6619 2.26896 36.8705 2.77161 36.8711 3.2959V41.7041ZM18.367 23.8242H16.9639V22.4211C16.9639 22.2463 16.8944 22.0786 16.7708 21.955C16.6472 21.8313 16.4795 21.7619 16.3047 21.7619C16.1299 21.7619 15.9622 21.8313 15.8386 21.955C15.715 22.0786 15.6455 22.2463 15.6455 22.4211V23.8242H14.2424C14.0676 23.8242 13.8999 23.8936 13.7763 24.0172C13.6527 24.1409 13.5832 24.3085 13.5832 24.4833C13.5832 24.6582 13.6527 24.8258 13.7763 24.9494C13.8999 25.0731 14.0676 25.1425 14.2424 25.1425H15.6455V26.5456C15.6455 26.7204 15.715 26.8881 15.8386 27.0117C15.9622 27.1353 16.1299 27.2048 16.3047 27.2048C16.4795 27.2048 16.6472 27.1353 16.7708 27.0117C16.8944 26.8881 16.9639 26.7204 16.9639 26.5456V25.1425H18.367C18.5418 25.1425 18.7094 25.0731 18.8331 24.9494C18.9567 24.8258 19.0261 24.6582 19.0261 24.4833C19.0261 24.3085 18.9567 24.1409 18.8331 24.0172C18.7094 23.8936 18.5418 23.8242 18.367 23.8242ZM19.8643 19.4023H12.7451C12.2208 19.4029 11.7182 19.6114 11.3475 19.9822C10.9767 20.3529 10.7682 20.8555 10.7676 21.3798V27.5868C10.7682 28.1111 10.9767 28.6138 11.3475 28.9845C11.7182 29.3552 12.2208 29.5638 12.7451 29.5644H19.8643C20.3885 29.5638 20.8912 29.3552 21.2619 28.9845C21.6327 28.6138 21.8412 28.1111 21.8418 27.5868V21.3798C21.8412 20.8555 21.6327 20.3529 21.2619 19.9822C20.8912 19.6114 20.3885 19.4029 19.8643 19.4023ZM20.5234 27.5868C20.5233 27.7616 20.4537 27.9292 20.3302 28.0527C20.2066 28.1763 20.039 28.2458 19.8643 28.246H12.7451C12.5703 28.2458 12.4028 28.1763 12.2792 28.0527C12.1556 27.9292 12.0861 27.7616 12.0859 27.5868V21.3798C12.0861 21.2051 12.1556 21.0375 12.2792 20.9139C12.4028 20.7903 12.5703 20.7208 12.7451 20.7207H19.8643C20.039 20.7208 20.2066 20.7903 20.3302 20.9139C20.4537 21.0375 20.5233 21.2051 20.5234 21.3798V27.5868ZM16.7002 16.7656C16.875 16.7656 17.0427 16.6961 17.1663 16.5725C17.2899 16.4489 17.3594 16.2812 17.3594 16.1064C17.3594 15.9316 17.2899 15.7639 17.1663 15.6403C17.0427 15.5167 16.875 15.4472 16.7002 15.4472H11.4268C11.2519 15.4472 11.0843 15.5167 10.9606 15.6403C10.837 15.7639 10.7676 15.9316 10.7676 16.1064C10.7676 16.2812 10.837 16.4489 10.9606 16.5725C11.0843 16.6961 11.2519 16.7656 11.4268 16.7656H16.7002ZM19.8643 30.8827H12.7451C12.2208 30.8834 11.7182 31.0919 11.3475 31.4626C10.9767 31.8333 10.7682 32.336 10.7676 32.8603V39.0674C10.7682 39.5917 10.9767 40.0943 11.3475 40.465C11.7182 40.8358 12.2208 41.0443 12.7451 41.0449H19.8643C20.3885 41.0443 20.8912 40.8358 21.2619 40.465C21.6327 40.0943 21.8412 39.5917 21.8418 39.0674V32.8603C21.8412 32.336 21.6327 31.8333 21.2619 31.4626C20.8912 31.0919 20.3885 30.8834 19.8643 30.8827ZM20.5234 39.0674C20.5233 39.2421 20.4537 39.4097 20.3302 39.5333C20.2066 39.6569 20.039 39.7264 19.8643 39.7266H12.7451C12.5703 39.7264 12.4028 39.6569 12.2792 39.5333C12.1556 39.4097 12.0861 39.2421 12.0859 39.0674V32.8603C12.0861 32.6855 12.1556 32.518 12.2792 32.3944C12.4028 32.2708 12.5703 32.2013 12.7451 32.2011H19.8643C20.039 32.2013 20.2066 32.2708 20.3302 32.3944C20.4537 32.518 20.5233 32.6855 20.5234 32.8603V39.0674ZM16.3047 34.6455C16.4351 34.6455 16.5625 34.6069 16.6709 34.5344C16.7793 34.462 16.8638 34.359 16.9137 34.2386C16.9636 34.1181 16.9766 33.9856 16.9512 33.8577C16.9258 33.7299 16.863 33.6124 16.7708 33.5202C16.6786 33.428 16.5612 33.3653 16.4333 33.3398C16.3054 33.3144 16.1729 33.3274 16.0524 33.3773C15.932 33.4272 15.829 33.5117 15.7566 33.6201C15.6842 33.7285 15.6455 33.856 15.6455 33.9863C15.6455 34.1612 15.715 34.3288 15.8386 34.4524C15.9622 34.5761 16.1299 34.6455 16.3047 34.6455ZM25.1377 16.7656C25.3125 16.7656 25.4802 16.6961 25.6038 16.5725C25.7274 16.4489 25.7969 16.2812 25.7969 16.1064C25.7969 15.9316 25.7274 15.7639 25.6038 15.6403C25.4802 15.5167 25.3125 15.4472 25.1377 15.4472H19.8643C19.6894 15.4472 19.5218 15.5167 19.3981 15.6403C19.2745 15.7639 19.2051 15.9316 19.2051 16.1064C19.2051 16.2812 19.2745 16.4489 19.3981 16.5725C19.5218 16.6961 19.6894 16.7656 19.8643 16.7656H25.1377ZM16.3047 37.2822C16.1743 37.2822 16.0469 37.3209 15.9385 37.3933C15.8301 37.4658 15.7456 37.5687 15.6957 37.6892C15.6458 37.8096 15.6327 37.9422 15.6582 38.07C15.6836 38.1979 15.7464 38.3153 15.8386 38.4075C15.9308 38.4997 16.0482 38.5625 16.1761 38.5879C16.304 38.6134 16.4365 38.6003 16.5569 38.5504C16.6774 38.5005 16.7803 38.416 16.8528 38.3076C16.9252 38.1992 16.9639 38.0718 16.9639 37.9414C16.9639 37.7666 16.8944 37.5989 16.7708 37.4753C16.6472 37.3517 16.4795 37.2822 16.3047 37.2822ZM18.5459 35.3047H14.0635C13.8887 35.3047 13.721 35.3741 13.5974 35.4978C13.4737 35.6214 13.4043 35.7891 13.4043 35.9639C13.4043 36.1387 13.4737 36.3064 13.5974 36.43C13.721 36.5536 13.8887 36.6231 14.0635 36.6231H18.5459C18.7207 36.6231 18.8884 36.5536 19.012 36.43C19.1356 36.3064 19.2051 36.1387 19.2051 35.9639C19.2051 35.7891 19.1356 35.6214 19.012 35.4978C18.8884 35.3741 18.7207 35.3047 18.5459 35.3047ZM32.2568 3.95508H12.7451C12.2208 3.95568 11.7182 4.16422 11.3475 4.53495C10.9767 4.90568 10.7682 5.40833 10.7676 5.93262V10.833C10.7682 11.3572 10.9767 11.8599 11.3475 12.2306C11.7182 12.6014 12.2208 12.8099 12.7451 12.8105H32.2568C32.7811 12.8099 33.2838 12.6014 33.6545 12.2306C34.0252 11.8599 34.2338 11.3572 34.2344 10.833V5.93262C34.2338 5.40833 34.0252 4.90568 33.6545 4.53495C33.2838 4.16422 32.7811 3.95568 32.2568 3.95508ZM32.916 10.833C32.9158 11.0077 32.8463 11.1753 32.7227 11.2989C32.5992 11.4224 32.4316 11.492 32.2568 11.4921H12.7451C12.5703 11.492 12.4028 11.4224 12.2792 11.2989C12.1556 11.1753 12.0861 11.0077 12.0859 10.833V5.93262C12.0861 5.75785 12.1556 5.59029 12.2792 5.46671C12.4028 5.34313 12.5703 5.27362 12.7451 5.27344H32.2568C32.4316 5.27362 32.5992 5.34313 32.7227 5.46671C32.8463 5.59029 32.9158 5.75785 32.916 5.93262V10.833ZM25.665 7.72356C25.5347 7.72356 25.4072 7.76222 25.2988 7.83466C25.1904 7.90709 25.1059 8.01004 25.056 8.13049C25.0061 8.25094 24.9931 8.38348 25.0185 8.51134C25.044 8.63921 25.1067 8.75667 25.1989 8.84885C25.2911 8.94104 25.4086 9.00382 25.5364 9.02926C25.6643 9.05469 25.7968 9.04164 25.9173 8.99175C26.0377 8.94186 26.1407 8.85737 26.2131 8.74897C26.2856 8.64056 26.3242 8.51312 26.3242 8.38274C26.3242 8.20792 26.2548 8.04025 26.1312 7.91663C26.0075 7.79301 25.8399 7.72356 25.665 7.72356ZM33.5752 15.4472H28.3018C28.1269 15.4472 27.9593 15.5167 27.8356 15.6403C27.712 15.7639 27.6426 15.9316 27.6426 16.1064C27.6426 16.2812 27.712 16.4489 27.8356 16.5725C27.9593 16.6961 28.1269 16.7656 28.3018 16.7656H33.5752C33.75 16.7656 33.9177 16.6961 34.0413 16.5725C34.1649 16.4489 34.2344 16.2812 34.2344 16.1064C34.2344 15.9316 34.1649 15.7639 34.0413 15.6403C33.9177 15.5167 33.75 15.4472 33.5752 15.4472ZM23.0283 7.72356C22.8979 7.72356 22.7705 7.76222 22.6621 7.83466C22.5537 7.90709 22.4692 8.01004 22.4193 8.13049C22.3694 8.25094 22.3564 8.38348 22.3818 8.51134C22.4072 8.63921 22.47 8.75667 22.5622 8.84885C22.6544 8.94104 22.7719 9.00382 22.8997 9.02926C23.0276 9.05469 23.1601 9.04164 23.2806 8.99175C23.401 8.94186 23.504 8.85737 23.5764 8.74897C23.6488 8.64056 23.6875 8.51312 23.6875 8.38274C23.6875 8.20792 23.6181 8.04025 23.4944 7.91663C23.3708 7.79301 23.2031 7.72356 23.0283 7.72356ZM28.3018 7.72356C28.1714 7.72356 28.0439 7.76222 27.9355 7.83466C27.8271 7.90709 27.7426 8.01004 27.6928 8.13049C27.6429 8.25094 27.6298 8.38348 27.6552 8.51134C27.6807 8.63921 27.7435 8.75667 27.8356 8.84885C27.9278 8.94104 28.0453 9.00382 28.1732 9.02926C28.301 9.05469 28.4336 9.04164 28.554 8.99175C28.6745 8.94186 28.7774 8.85737 28.8498 8.74897C28.9223 8.64056 28.9609 8.51312 28.9609 8.38274C28.9609 8.20792 28.8915 8.04025 28.7679 7.91663C28.6442 7.79301 28.4766 7.72356 28.3018 7.72356ZM32.2568 30.8827H25.1377C24.6134 30.8834 24.1108 31.0919 23.74 31.4626C23.3693 31.8333 23.1608 32.336 23.1602 32.8603V39.0674C23.1608 39.5917 23.3693 40.0943 23.74 40.465C24.1108 40.8358 24.6134 41.0443 25.1377 41.0449H32.2568C32.7811 41.0443 33.2838 40.8358 33.6545 40.465C34.0252 40.0943 34.2338 39.5917 34.2344 39.0674V32.8603C34.2338 32.336 34.0252 31.8333 33.6545 31.4626C33.2838 31.0919 32.7811 30.8834 32.2568 30.8827ZM32.916 39.0674C32.9158 39.2421 32.8463 39.4097 32.7227 39.5333C32.5992 39.6569 32.4316 39.7264 32.2568 39.7266H25.1377C24.9629 39.7264 24.7954 39.6569 24.6718 39.5333C24.5482 39.4097 24.4787 39.2421 24.4785 39.0674V32.8603C24.4787 32.6855 24.5482 32.518 24.6718 32.3944C24.7954 32.2708 24.9629 32.2013 25.1377 32.2011H32.2568C32.4316 32.2013 32.5992 32.2708 32.7227 32.3944C32.8463 32.518 32.9158 32.6855 32.916 32.8603V39.0674ZM30.9385 23.8242H26.4561C26.2812 23.8242 26.1136 23.8936 25.9899 24.0172C25.8663 24.1409 25.7969 24.3085 25.7969 24.4833C25.7969 24.6582 25.8663 24.8258 25.9899 24.9494C26.1136 25.0731 26.2812 25.1425 26.4561 25.1425H30.9385C31.1133 25.1425 31.281 25.0731 31.4046 24.9494C31.5282 24.8258 31.5977 24.6582 31.5977 24.4833C31.5977 24.3085 31.5282 24.1409 31.4046 24.0172C31.281 23.8936 31.1133 23.8242 30.9385 23.8242ZM31.2502 33.4109C31.1266 33.2873 30.9589 33.2178 30.7841 33.2178C30.6092 33.2178 30.4415 33.2873 30.3179 33.4109L28.6973 35.0316L27.0766 33.4109C26.9529 33.2873 26.7853 33.2178 26.6104 33.2178C26.4356 33.2178 26.2679 33.2873 26.1443 33.4109C26.0207 33.5345 25.9512 33.7022 25.9512 33.877C25.9512 34.0519 26.0207 34.2195 26.1443 34.3432L27.765 35.9639L26.1443 37.5846C26.0831 37.6458 26.0345 37.7185 26.0014 37.7985C25.9683 37.8784 25.9513 37.9642 25.9513 38.0507C25.9513 38.1373 25.9683 38.223 26.0015 38.303C26.0346 38.383 26.0832 38.4556 26.1444 38.5168C26.2056 38.578 26.2783 38.6266 26.3583 38.6597C26.4383 38.6928 26.524 38.7099 26.6105 38.7099C26.6971 38.7099 26.7828 38.6928 26.8628 38.6597C26.9428 38.6265 27.0154 38.578 27.0767 38.5167L28.6973 36.896L30.318 38.5167C30.4418 38.6395 30.6091 38.7082 30.7835 38.7078C30.9578 38.7074 31.1249 38.638 31.2481 38.5148C31.3714 38.3915 31.4408 38.2244 31.4412 38.0501C31.4416 37.8758 31.3729 37.7084 31.2502 37.5846L29.6295 35.9639L31.2502 34.3432C31.3114 34.282 31.36 34.2093 31.3931 34.1293C31.4263 34.0493 31.4433 33.9636 31.4433 33.877C31.4433 33.7905 31.4263 33.7048 31.3931 33.6248C31.36 33.5448 31.3114 33.4721 31.2502 33.4109ZM30.9385 7.72356C30.8081 7.72356 30.6807 7.76222 30.5723 7.83466C30.4639 7.90709 30.3794 8.01004 30.3295 8.13049C30.2796 8.25094 30.2665 8.38348 30.292 8.51134C30.3174 8.63921 30.3802 8.75667 30.4724 8.84885C30.5646 8.94104 30.682 9.00382 30.8099 9.02926C30.9377 9.05469 31.0703 9.04164 31.1907 8.99175C31.3112 8.94186 31.4141 8.85737 31.4866 8.74897C31.559 8.64056 31.5977 8.51312 31.5977 8.38274C31.5977 8.20792 31.5282 8.04025 31.4046 7.91663C31.281 7.79301 31.1133 7.72356 30.9385 7.72356ZM32.2568 19.4023H25.1377C24.6134 19.4029 24.1108 19.6114 23.74 19.9822C23.3693 20.3529 23.1608 20.8555 23.1602 21.3798V27.5868C23.1608 28.1111 23.3693 28.6138 23.74 28.9845C24.1108 29.3552 24.6134 29.5638 25.1377 29.5644H32.2568C32.7811 29.5638 33.2838 29.3552 33.6545 28.9845C34.0252 28.6138 34.2338 28.1111 34.2344 27.5868V21.3798C34.2338 20.8555 34.0252 20.3529 33.6545 19.9822C33.2838 19.6114 32.7811 19.4029 32.2568 19.4023ZM32.916 27.5868C32.9158 27.7616 32.8463 27.9292 32.7227 28.0527C32.5992 28.1763 32.4316 28.2458 32.2568 28.246H25.1377C24.9629 28.2458 24.7954 28.1763 24.6718 28.0527C24.5482 27.9292 24.4787 27.7616 24.4785 27.5868V21.3798C24.4787 21.2051 24.5482 21.0375 24.6718 20.9139C24.7954 20.7903 24.9629 20.7208 25.1377 20.7207H32.2568C32.4316 20.7208 32.5992 20.7903 32.7227 20.9139C32.8463 21.0375 32.9158 21.2051 32.916 21.3798V27.5868Z" fill="#248FEC"/>
</g>
<defs>
<clipPath id="clip0_1223_26885">
<rect width="45" height="45" fill="white"/>
</clipPath>
</defs>
</svg>
