<svg width="24" height="24" viewBox="0 0 24 24" fill="none" xmlns="http://www.w3.org/2000/svg">
<g clip-path="url(#clip0_1195_15539)">
<path d="M19.5 1.875H4.5C4.40054 1.875 4.30516 1.91451 4.23484 1.98484C4.16451 2.05516 4.125 2.15054 4.125 2.25V8.25C4.125 8.34946 4.16451 8.44484 4.23484 8.51517C4.30516 8.58549 4.40054 8.625 4.5 8.625H19.5C19.5995 8.625 19.6948 8.58549 19.7652 8.51517C19.8355 8.44484 19.875 8.34946 19.875 8.25V2.25C19.875 2.15054 19.8355 2.05516 19.7652 1.98484C19.6948 1.91451 19.5995 1.875 19.5 1.875ZM4.875 2.625H11.625V7.875H4.875V2.625ZM19.125 7.875H12.375V2.625H19.125V7.875Z" fill="#248FEC"/>
<path d="M22.5 8.25C22.7984 8.25 23.0845 8.13147 23.2955 7.9205C23.5065 7.70952 23.625 7.42337 23.625 7.125V5.625C23.625 5.32663 23.5065 5.04048 23.2955 4.8295C23.0845 4.61853 22.7984 4.5 22.5 4.5H21.375V2.25C21.375 2.00377 21.3265 1.75995 21.2323 1.53247C21.138 1.30498 20.9999 1.09828 20.8258 0.924175C20.6517 0.750065 20.445 0.611953 20.2175 0.517726C19.99 0.423498 19.7462 0.375 19.5 0.375H4.5C4.00272 0.375 3.52581 0.572544 3.17417 0.924175C2.82254 1.27581 2.625 1.75272 2.625 2.25V4.5H1.5C1.20163 4.5 0.915483 4.61853 0.704505 4.8295C0.493526 5.04048 0.375 5.32663 0.375 5.625V7.125C0.375 7.42337 0.493526 7.70952 0.704505 7.9205C0.915483 8.13147 1.20163 8.25 1.5 8.25H2.625V9.50625C2.18674 9.6612 1.80722 9.94809 1.53862 10.3275C1.27003 10.7069 1.12553 11.1602 1.125 11.625V15.375H0.75C0.650544 15.375 0.555161 15.4145 0.484835 15.4848C0.414509 15.5552 0.375 15.6505 0.375 15.75V18.75C0.375 18.8495 0.414509 18.9448 0.484835 19.0152C0.555161 19.0855 0.650544 19.125 0.75 19.125H1.875V21C1.87601 21.1279 1.89884 21.2547 1.9425 21.375H0.75C0.650544 21.375 0.555161 21.4145 0.484835 21.4848C0.414509 21.5552 0.375 21.6505 0.375 21.75V23.25C0.375 23.3495 0.414509 23.4448 0.484835 23.5152C0.555161 23.5855 0.650544 23.625 0.75 23.625H23.25C23.3495 23.625 23.4448 23.5855 23.5152 23.5152C23.5855 23.4448 23.625 23.3495 23.625 23.25V21.75C23.625 21.6505 23.5855 21.5552 23.5152 21.4848C23.4448 21.4145 23.3495 21.375 23.25 21.375H22.0575C22.1012 21.2547 22.124 21.1279 22.125 21V19.125H23.25C23.3495 19.125 23.4448 19.0855 23.5152 19.0152C23.5855 18.9448 23.625 18.8495 23.625 18.75V15.75C23.625 15.6505 23.5855 15.5552 23.5152 15.4848C23.4448 15.4145 23.3495 15.375 23.25 15.375H22.875V11.625C22.8745 11.1602 22.73 10.7069 22.4614 10.3275C22.1928 9.94809 21.8133 9.6612 21.375 9.50625V8.25H22.5ZM22.5 5.25C22.5995 5.25 22.6948 5.28951 22.7652 5.35984C22.8355 5.43016 22.875 5.52554 22.875 5.625V7.125C22.875 7.22446 22.8355 7.31984 22.7652 7.39017C22.6948 7.46049 22.5995 7.5 22.5 7.5H21.375V5.25H22.5ZM1.5 7.5C1.40054 7.5 1.30516 7.46049 1.23483 7.39017C1.16451 7.31984 1.125 7.22446 1.125 7.125V5.625C1.125 5.52554 1.16451 5.43016 1.23483 5.35984C1.30516 5.28951 1.40054 5.25 1.5 5.25H2.625V7.5H1.5ZM1.125 16.125H9V18.375H1.125V16.125ZM16.875 12.375H7.125V11.625H16.875V12.375ZM7.125 13.125H16.875V13.875H7.125V13.125ZM7.125 14.625H16.875V15.375H7.125V14.625ZM6.375 19.125H17.625V21C17.626 21.1279 17.6488 21.2547 17.6925 21.375H6.3075C6.35116 21.2547 6.37399 21.1279 6.375 21V19.125ZM9.75 18.375V16.125H14.25V18.375H9.75ZM2.625 21V19.125H5.625V21C5.625 21.0995 5.58549 21.1948 5.51516 21.2652C5.44484 21.3355 5.34946 21.375 5.25 21.375H3C2.90054 21.375 2.80516 21.3355 2.73484 21.2652C2.66451 21.1948 2.625 21.0995 2.625 21ZM22.875 22.875H1.125V22.125H22.875V22.875ZM21.375 21C21.375 21.0995 21.3355 21.1948 21.2652 21.2652C21.1948 21.3355 21.0995 21.375 21 21.375H18.75C18.6505 21.375 18.5552 21.3355 18.4848 21.2652C18.4145 21.1948 18.375 21.0995 18.375 21V19.125H21.375V21ZM22.875 18.375H15V16.125H22.875V18.375ZM22.125 11.625V15.375H17.625V11.25C17.625 11.1505 17.5855 11.0552 17.5152 10.9848C17.4448 10.9145 17.3495 10.875 17.25 10.875H6.75C6.65054 10.875 6.55516 10.9145 6.48483 10.9848C6.41451 11.0552 6.375 11.1505 6.375 11.25V15.375H1.875V11.625C1.875 11.2272 2.03304 10.8456 2.31434 10.5643C2.59564 10.283 2.97718 10.125 3.375 10.125H20.625C21.0228 10.125 21.4044 10.283 21.6857 10.5643C21.967 10.8456 22.125 11.2272 22.125 11.625ZM3.375 9.375V2.25C3.375 1.95163 3.49353 1.66548 3.7045 1.4545C3.91548 1.24353 4.20163 1.125 4.5 1.125H19.5C19.7984 1.125 20.0845 1.24353 20.2955 1.4545C20.5065 1.66548 20.625 1.95163 20.625 2.25V9.375H3.375Z" fill="#248FEC"/>
<path d="M4.125 11.6254C3.82833 11.6254 3.53832 11.7134 3.29165 11.8782C3.04497 12.043 2.85271 12.2773 2.73918 12.5514C2.62565 12.8255 2.59594 13.1271 2.65382 13.418C2.7117 13.709 2.85456 13.9763 3.06434 14.1861C3.27412 14.3958 3.54139 14.5387 3.83237 14.5966C4.12334 14.6545 4.42494 14.6247 4.69903 14.5112C4.97312 14.3977 5.20738 14.2054 5.37221 13.9588C5.53703 13.7121 5.625 13.4221 5.625 13.1254C5.625 12.7276 5.46697 12.346 5.18566 12.0647C4.90436 11.7834 4.52283 11.6254 4.125 11.6254ZM4.125 13.8754C3.97666 13.8754 3.83166 13.8314 3.70832 13.749C3.58499 13.6666 3.48886 13.5495 3.43209 13.4124C3.37533 13.2754 3.36047 13.1246 3.38941 12.9791C3.41835 12.8336 3.48978 12.7 3.59467 12.5951C3.69956 12.4902 3.8332 12.4187 3.97868 12.3898C4.12417 12.3609 4.27497 12.3757 4.41201 12.4325C4.54906 12.4893 4.66619 12.5854 4.7486 12.7087C4.83101 12.8321 4.875 12.9771 4.875 13.1254C4.875 13.3243 4.79598 13.5151 4.65533 13.6557C4.51468 13.7964 4.32391 13.8754 4.125 13.8754ZM18.375 13.1254C18.375 13.4221 18.463 13.7121 18.6278 13.9588C18.7926 14.2054 19.0269 14.3977 19.301 14.5112C19.5751 14.6247 19.8767 14.6545 20.1676 14.5966C20.4586 14.5387 20.7259 14.3958 20.9357 14.1861C21.1454 13.9763 21.2883 13.709 21.3462 13.418C21.4041 13.1271 21.3744 12.8255 21.2608 12.5514C21.1473 12.2773 20.955 12.043 20.7084 11.8782C20.4617 11.7134 20.1717 11.6254 19.875 11.6254C19.4772 11.6254 19.0956 11.7834 18.8143 12.0647C18.533 12.346 18.375 12.7276 18.375 13.1254ZM20.625 13.1254C20.625 13.2737 20.581 13.4187 20.4986 13.5421C20.4162 13.6654 20.2991 13.7615 20.162 13.8183C20.025 13.8751 19.8742 13.8899 19.7287 13.861C19.5832 13.832 19.4496 13.7606 19.3447 13.6557C19.2398 13.5508 19.1684 13.4172 19.1394 13.2717C19.1105 13.1262 19.1253 12.9754 19.1821 12.8384C19.2389 12.7013 19.335 12.5842 19.4583 12.5018C19.5817 12.4194 19.7267 12.3754 19.875 12.3754C20.0739 12.3754 20.2647 12.4544 20.4053 12.5951C20.546 12.7357 20.625 12.9265 20.625 13.1254ZM13.2345 6.11027L15.4856 3.85915L16.0159 4.3894L13.7648 6.64052L13.2345 6.11027ZM15.4856 6.10952L17.7367 3.8584L18.267 4.38865L16.0159 6.63977L15.4856 6.10952ZM5.7375 6.1114L7.98863 3.8599L8.51888 4.39052L6.26738 6.64165L5.7375 6.1114ZM7.9845 6.1099L10.2356 3.85877L10.7659 4.38902L8.51475 6.64015L7.9845 6.1099Z" fill="#248FEC"/>
</g>
<defs>
<clipPath id="clip0_1195_15539">
<rect width="24" height="24" fill="white"/>
</clipPath>
</defs>
</svg>
