<svg width="45" height="45" viewBox="0 0 45 45" fill="none" xmlns="http://www.w3.org/2000/svg">
<path d="M8.08594 19.7578C8.27242 19.7578 8.45126 19.6837 8.58312 19.5519C8.71498 19.42 8.78906 19.2412 8.78906 19.0547V17.5078C8.78906 17.3213 8.71498 17.1425 8.58312 17.0106C8.45126 16.8788 8.27242 16.8047 8.08594 16.8047C7.89946 16.8047 7.72061 16.8788 7.58875 17.0106C7.45689 17.1425 7.38281 17.3213 7.38281 17.5078V19.0547C7.38281 19.147 7.401 19.2385 7.43633 19.3238C7.47167 19.4091 7.52346 19.4866 7.58875 19.5519C7.65404 19.6172 7.73156 19.669 7.81686 19.7043C7.90217 19.7396 7.9936 19.7578 8.08594 19.7578Z" fill="#248FEC"/>
<path d="M37.7578 10.1953C37.7578 10.0088 37.6837 9.82999 37.5519 9.69813C37.42 9.56627 37.2412 9.49219 37.0547 9.49219L31.0078 2.39063C30.9423 2.3033 30.8574 2.23242 30.7598 2.18361C30.6621 2.13479 30.5545 2.10938 30.4453 2.10938H12.0234C10.7927 2.10938 9.61231 2.5983 8.74202 3.46858C7.87173 4.33887 7.38281 5.51923 7.38281 6.75V15.5391C7.38281 15.7255 7.45689 15.9044 7.58875 16.0362C7.72061 16.1681 7.89946 16.2422 8.08594 16.2422C8.27242 16.2422 8.45126 16.1681 8.58312 16.0362C8.71498 15.9044 8.78906 15.7255 8.78906 15.5391V6.75C8.78906 5.89219 9.12983 5.06951 9.73639 4.46295C10.343 3.85639 11.1656 3.51562 12.0234 3.51562H29.7422V10.125C29.7422 10.3115 29.8163 10.4903 29.9481 10.6222C30.08 10.754 30.2588 10.8281 30.4453 10.8281H36.2109V38.25C36.2109 39.1078 35.8702 39.9305 35.2636 40.537C34.657 41.1436 33.8344 41.4844 32.9766 41.4844H12.0234C11.1656 41.4844 10.343 41.1436 9.73639 40.537C9.12983 39.9305 8.78906 39.1078 8.78906 38.25V21.3047C8.78906 21.1182 8.71498 20.9394 8.58312 20.8075C8.45126 20.6756 8.27242 20.6016 8.08594 20.6016C7.89946 20.6016 7.72061 20.6756 7.58875 20.8075C7.45689 20.9394 7.38281 21.1182 7.38281 21.3047V38.25C7.38281 39.4808 7.87173 40.6611 8.74202 41.5314C9.61231 42.4017 10.7927 42.8906 12.0234 42.8906H32.9766C34.2073 42.8906 35.3877 42.4017 36.258 41.5314C37.1283 40.6611 37.6172 39.4808 37.6172 38.25V10.5469C37.6953 10.4448 37.744 10.3232 37.7578 10.1953ZM31.1484 4.78125L35.1562 9.49219H31.1484V4.78125Z" fill="#248FEC"/>
<path d="M18.4219 10.4062H12.5156C12.3291 10.4062 12.1503 10.4803 12.0184 10.6122C11.8866 10.7441 11.8125 10.9229 11.8125 11.1094V17.9297C11.8125 18.1162 11.8866 18.295 12.0184 18.4269C12.1503 18.5587 12.3291 18.6328 12.5156 18.6328H18.3516C18.538 18.6328 18.7169 18.5587 18.8487 18.4269C18.9806 18.295 19.0547 18.1162 19.0547 17.9297V11.1094C19.0556 10.9345 18.9912 10.7655 18.8742 10.6355C18.7572 10.5055 18.5959 10.4237 18.4219 10.4062ZM17.7188 17.2266H13.2188V11.8125H17.6484L17.7188 17.2266ZM32.4141 22.7109H18.8438C18.6573 22.7109 18.4784 22.785 18.3466 22.9169C18.2147 23.0487 18.1406 23.2276 18.1406 23.4141C18.1406 23.6005 18.2147 23.7794 18.3466 23.9112C18.4784 24.0431 18.6573 24.1172 18.8438 24.1172H32.4141C32.6005 24.1172 32.7794 24.0431 32.9112 23.9112C33.0431 23.7794 33.1172 23.6005 33.1172 23.4141C33.1172 23.2276 33.0431 23.0487 32.9112 22.9169C32.7794 22.785 32.6005 22.7109 32.4141 22.7109ZM12.5859 24.1172H16.6641C16.8505 24.1172 17.0294 24.0431 17.1612 23.9112C17.2931 23.7794 17.3672 23.6005 17.3672 23.4141C17.3672 23.2276 17.2931 23.0487 17.1612 22.9169C17.0294 22.785 16.8505 22.7109 16.6641 22.7109H12.5859C12.3995 22.7109 12.2206 22.785 12.0888 22.9169C11.9569 23.0487 11.8828 23.2276 11.8828 23.4141C11.8828 23.6005 11.9569 23.7794 12.0888 23.9112C12.2206 24.0431 12.3995 24.1172 12.5859 24.1172ZM32.4141 26.9297H26.2266C26.0401 26.9297 25.8612 27.0038 25.7294 27.1356C25.5975 27.2675 25.5234 27.4463 25.5234 27.6328C25.5234 27.8193 25.5975 27.9981 25.7294 28.13C25.8612 28.2619 26.0401 28.3359 26.2266 28.3359H32.4141C32.6005 28.3359 32.7794 28.2619 32.9112 28.13C33.0431 27.9981 33.1172 27.8193 33.1172 27.6328C33.1172 27.4463 33.0431 27.2675 32.9112 27.1356C32.7794 27.0038 32.6005 26.9297 32.4141 26.9297ZM12.5859 28.3359H23.9766C24.163 28.3359 24.3419 28.2619 24.4737 28.13C24.6056 27.9981 24.6797 27.8193 24.6797 27.6328C24.6797 27.4463 24.6056 27.2675 24.4737 27.1356C24.3419 27.0038 24.163 26.9297 23.9766 26.9297H12.5859C12.3995 26.9297 12.2206 27.0038 12.0888 27.1356C11.9569 27.2675 11.8828 27.4463 11.8828 27.6328C11.8828 27.8193 11.9569 27.9981 12.0888 28.13C12.2206 28.2619 12.3995 28.3359 12.5859 28.3359ZM32.4141 31.1484H22.0078C21.8213 31.1484 21.6425 31.2225 21.5106 31.3544C21.3788 31.4862 21.3047 31.6651 21.3047 31.8516C21.3047 32.038 21.3788 32.2169 21.5106 32.3487C21.6425 32.4806 21.8213 32.5547 22.0078 32.5547H32.4141C32.6005 32.5547 32.7794 32.4806 32.9112 32.3487C33.0431 32.2169 33.1172 32.038 33.1172 31.8516C33.1172 31.6651 33.0431 31.4862 32.9112 31.3544C32.7794 31.2225 32.6005 31.1484 32.4141 31.1484ZM12.5859 32.5547H19.6172C19.8037 32.5547 19.9825 32.4806 20.1144 32.3487C20.2462 32.2169 20.3203 32.038 20.3203 31.8516C20.3203 31.6651 20.2462 31.4862 20.1144 31.3544C19.9825 31.2225 19.8037 31.1484 19.6172 31.1484H12.5859C12.3995 31.1484 12.2206 31.2225 12.0888 31.3544C11.9569 31.4862 11.8828 31.6651 11.8828 31.8516C11.8828 32.038 11.9569 32.2169 12.0888 32.3487C12.2206 32.4806 12.3995 32.5547 12.5859 32.5547ZM12.5859 36.7734H32.4141C32.6005 36.7734 32.7794 36.6994 32.9112 36.5675C33.0431 36.4356 33.1172 36.2568 33.1172 36.0703C33.1172 35.8838 33.0431 35.705 32.9112 35.5731C32.7794 35.4413 32.6005 35.3672 32.4141 35.3672H12.5859C12.3995 35.3672 12.2206 35.4413 12.0888 35.5731C11.9569 35.705 11.8828 35.8838 11.8828 36.0703C11.8828 36.2568 11.9569 36.4356 12.0888 36.5675C12.2206 36.6994 12.3995 36.7734 12.5859 36.7734Z" fill="#248FEC"/>
</svg>
