<svg width="24" height="24" viewBox="0 0 24 24" fill="none" xmlns="http://www.w3.org/2000/svg">
<path fill-rule="evenodd" clip-rule="evenodd" d="M3 3C2.90054 3 2.80516 3.03951 2.73484 3.10984C2.66451 3.18016 2.625 3.27554 2.625 3.375V4.5H1.578C0.70425 4.5 0 5.23125 0 6.1125V20.139C0 21.0195 0.705 21.75 1.578 21.75H22.422C23.2957 21.75 24 21.0195 24 20.139V6.1125C24 5.23125 23.295 4.5 22.422 4.5H21.375V3.375C21.375 3.27554 21.3355 3.18016 21.2652 3.10984C21.1948 3.03951 21.0995 3 21 3H18.75C18.6505 3 18.5552 3.03951 18.4848 3.10984C18.4145 3.18016 18.375 3.27554 18.375 3.375V4.5H16.5V3.375C16.5 3.27554 16.4605 3.18016 16.3902 3.10984C16.3198 3.03951 16.2245 3 16.125 3H7.875C7.77554 3 7.68016 3.03951 7.60983 3.10984C7.53951 3.18016 7.5 3.27554 7.5 3.375V4.5H5.625V3.375C5.625 3.27554 5.58549 3.18016 5.51516 3.10984C5.44484 3.03951 5.34946 3 5.25 3H3ZM3.375 3.75H4.875V4.5H3.375V3.75ZM8.25 3.75H15.75V4.5H8.25V3.75ZM19.125 3.75H20.625V4.5H19.125V3.75ZM1.578 5.25H22.422C22.8825 5.25 23.25 5.62275 23.25 6.1125V20.139C23.25 20.6287 22.8818 21 22.422 21H1.578C1.1175 21 0.75 20.6287 0.75 20.139V6.1125C0.75 5.62275 1.11825 5.25 1.578 5.25ZM4.125 6C3.42929 6.00158 2.76254 6.27866 2.2706 6.7706C1.77866 7.26254 1.50158 7.92929 1.5 8.625C1.5 10.0703 2.67975 11.25 4.125 11.25C5.57025 11.25 6.75 10.0703 6.75 8.625C6.75 7.17975 5.57025 6 4.125 6ZM19.875 6C19.1793 6.00158 18.5125 6.27866 18.0206 6.7706C17.5287 7.26254 17.2516 7.92929 17.25 8.625C17.25 10.0703 18.4298 11.25 19.875 11.25C21.3202 11.25 22.5 10.0703 22.5 8.625C22.5 7.17975 21.3202 6 19.875 6ZM4.125 6.75C5.16525 6.75 6 7.58475 6 8.625C6 9.66525 5.16525 10.5 4.125 10.5C3.87855 10.5008 3.63438 10.4528 3.40653 10.3589C3.17869 10.2649 2.97168 10.1269 2.79741 9.95259C2.62314 9.77832 2.48506 9.57131 2.39111 9.34347C2.29716 9.11562 2.24921 8.87145 2.25 8.625C2.25 7.58475 3.08475 6.75 4.125 6.75ZM19.875 6.75C20.9153 6.75 21.75 7.58475 21.75 8.625C21.75 9.66525 20.9153 10.5 19.875 10.5C19.6285 10.5008 19.3844 10.4528 19.1565 10.3589C18.9287 10.2649 18.7217 10.1269 18.5474 9.95259C18.3731 9.77832 18.2351 9.57131 18.1411 9.34347C18.0472 9.11562 17.9992 8.87145 18 8.625C18 7.58475 18.8347 6.75 19.875 6.75ZM3.75 7.5V8.25H3V9H3.75V9.75H4.5V9H5.25V8.25H4.5V7.5H3.75ZM18.75 8.25V9H21V8.25H18.75ZM10.116 9.3765C10.0321 9.3764 9.95063 9.40442 9.88456 9.45608C9.81848 9.50775 9.77163 9.58007 9.7515 9.6615L8.4945 14.8373C8.48123 14.8924 8.48064 14.9498 8.49276 15.0052C8.50489 15.0606 8.52942 15.1125 8.5645 15.157C8.59959 15.2016 8.64432 15.2376 8.69533 15.2624C8.74634 15.2871 8.8023 15.3 8.859 15.3H10.8368L9.7635 18.2475C9.73413 18.3281 9.73329 18.4163 9.76111 18.4975C9.78894 18.5787 9.84375 18.6478 9.9164 18.6934C9.98906 18.7391 10.0752 18.7584 10.1603 18.7482C10.2455 18.738 10.3246 18.699 10.3845 18.6375L15.4095 13.4625C15.4607 13.4096 15.4953 13.3429 15.5088 13.2705C15.5224 13.1982 15.5143 13.1235 15.4857 13.0557C15.4571 12.9878 15.4091 12.93 15.3478 12.8892C15.2865 12.8485 15.2146 12.8266 15.141 12.8265H13.1625L14.2358 9.879C14.2562 9.82238 14.2628 9.76167 14.2548 9.70199C14.2469 9.64232 14.2247 9.58543 14.1901 9.53614C14.1555 9.48686 14.1096 9.44662 14.0562 9.41883C14.0028 9.39105 13.9435 9.37653 13.8832 9.3765H10.116ZM10.4085 10.1265H13.3485L12.276 13.0725C12.2552 13.1292 12.2485 13.1901 12.2563 13.25C12.2641 13.3098 12.2862 13.3669 12.3208 13.4164C12.3554 13.4659 12.4015 13.5063 12.455 13.5342C12.5086 13.562 12.5681 13.5766 12.6285 13.5765H14.2545L11.0685 16.8577L11.7248 15.054C11.7455 14.9973 11.7523 14.9364 11.7445 14.8765C11.7367 14.8167 11.7145 14.7596 11.6799 14.7101C11.6453 14.6606 11.5993 14.6202 11.5457 14.5923C11.4921 14.5645 11.4326 14.5499 11.3722 14.55H9.33675L10.4085 10.1265Z" fill="#248FEC"/>
</svg>
