<svg width="24" height="24" viewBox="0 0 24 24" fill="none" xmlns="http://www.w3.org/2000/svg">
<g clip-path="url(#clip0_1195_15510)">
<path d="M6.375 7.875C5.55915 7.875 4.76163 8.11693 4.08327 8.57019C3.40492 9.02345 2.87621 9.66769 2.564 10.4214C2.25179 11.1752 2.1701 12.0046 2.32926 12.8047C2.48843 13.6049 2.88129 14.3399 3.45819 14.9168C4.03508 15.4937 4.77008 15.8866 5.57025 16.0457C6.37043 16.2049 7.19983 16.1232 7.95357 15.811C8.70732 15.4988 9.35155 14.9701 9.80481 14.2917C10.2581 13.6134 10.5 12.8158 10.5 12C10.4987 10.9064 10.0637 9.85792 9.29039 9.08461C8.51708 8.3113 7.46862 7.87629 6.375 7.875ZM4.59225 14.8605C3.88879 14.4244 3.37041 13.7446 3.1359 12.9508C2.9014 12.1571 2.96717 11.3048 3.32067 10.5564C3.67418 9.80795 4.29071 9.21579 5.05276 8.89273C5.8148 8.56968 6.66907 8.53831 7.45275 8.80463L3.888 11.7094C3.82801 11.7583 3.78463 11.8246 3.76381 11.8991C3.74299 11.9737 3.74575 12.0529 3.77171 12.1258C3.79768 12.1987 3.84557 12.2618 3.90883 12.3064C3.97208 12.3511 4.04759 12.375 4.125 12.375H5.27025L4.59225 14.8605ZM6.05925 11.7724C6.02405 11.7263 5.97863 11.689 5.92658 11.6634C5.87452 11.6378 5.81725 11.6247 5.75925 11.625H5.17913L7.13738 10.029L6.627 11.9014C6.61184 11.957 6.6097 12.0154 6.62077 12.072C6.63184 12.1286 6.65581 12.1819 6.69082 12.2277C6.72583 12.2735 6.77094 12.3106 6.82263 12.3362C6.87432 12.3617 6.93121 12.375 6.98888 12.375H7.57088L5.61263 13.971L6.123 12.0986C6.13817 12.043 6.14031 11.9846 6.12925 11.9281C6.1182 11.8715 6.09424 11.8182 6.05925 11.7724ZM6.375 15.375C6.00835 15.3745 5.64426 15.3138 5.29725 15.1954L8.862 12.2906C8.92199 12.2417 8.96538 12.1754 8.9862 12.1009C9.00702 12.0263 9.00426 11.9471 8.97829 11.8742C8.95233 11.8013 8.90443 11.7382 8.84118 11.6936C8.77792 11.6489 8.70241 11.625 8.625 11.625H7.47975L8.15775 9.1395C8.78051 9.52642 9.26018 10.1058 9.52407 10.7898C9.78795 11.4739 9.82169 12.2253 9.62014 12.9302C9.4186 13.6351 8.99278 14.2551 8.40719 14.6963C7.8216 15.1375 7.10817 15.3757 6.375 15.375Z" fill="#248FEC"/>
<path d="M23.2499 4.50017C23.2508 3.71978 23.008 2.9586 22.5553 2.32294C22.1026 1.68727 21.4627 1.20886 20.7249 0.954525C19.9871 0.700188 19.1883 0.682623 18.4401 0.904285C17.6918 1.12595 17.0315 1.57576 16.5513 2.19092L8.54393 6.81129C7.69246 6.45322 6.76592 6.31028 5.84612 6.39509C4.92632 6.47989 4.04154 6.78983 3.26988 7.29755C2.49823 7.80527 1.86343 8.49514 1.42153 9.30628C0.979627 10.1174 0.74421 11.0249 0.736059 11.9485C0.727908 12.8722 0.947274 13.7837 1.37479 14.6025C1.80231 15.4213 2.42484 16.1223 3.18741 16.6435C3.94999 17.1648 4.82916 17.4903 5.74732 17.5913C6.66548 17.6923 7.59439 17.5658 8.45206 17.2228L14.7749 20.8708C14.9219 21.3533 15.1753 21.7968 15.5162 22.1685C15.8572 22.5402 16.2772 22.8308 16.7452 23.0189C17.2133 23.2069 17.7176 23.2877 18.221 23.2551C18.7243 23.2226 19.214 23.0777 19.654 22.831C20.094 22.5843 20.4731 22.2421 20.7634 21.8296C21.0537 21.4171 21.2479 20.9447 21.3316 20.4473C21.4153 19.9499 21.3865 19.44 21.2472 18.9552C21.1079 18.4704 20.8617 18.0229 20.5267 17.6458L22.4767 6.77342C22.9783 6.12178 23.2502 5.32249 23.2499 4.50017ZM15.9082 3.42804C15.8161 3.73856 15.7649 4.05977 15.7559 4.38354L9.99968 7.70567C9.78878 7.52877 9.56518 7.36759 9.33068 7.22342L15.9082 3.42804ZM6.37493 16.8752C5.41075 16.8752 4.46822 16.5893 3.66653 16.0536C2.86484 15.5179 2.24 14.7565 1.87102 13.8657C1.50204 12.975 1.4055 11.9948 1.5936 11.0491C1.78171 10.1034 2.24601 9.2348 2.92779 8.55302C3.60957 7.87124 4.47821 7.40694 5.42387 7.21884C6.36953 7.03074 7.34973 7.12728 8.24052 7.49625C9.1313 7.86523 9.89268 8.49007 10.4283 9.29176C10.964 10.0935 11.2499 11.036 11.2499 12.0002C11.2484 13.2926 10.7344 14.5318 9.82044 15.4457C8.90652 16.3596 7.66741 16.8737 6.37493 16.8752ZM14.6272 19.9194L9.25718 16.8215C9.49519 16.6813 9.72255 16.5238 9.93743 16.3502L14.7168 19.1079C14.6569 19.3593 14.626 19.6167 14.6249 19.8752C14.6249 19.8902 14.6268 19.9044 14.6272 19.9194ZM10.5022 15.8094C11.4556 14.7848 11.9901 13.4399 12.0001 12.0403C12.0101 10.6407 11.4949 9.28831 10.5562 8.25017L15.8197 5.21267C15.986 6.06706 16.4439 6.83714 17.1153 7.39121C17.7866 7.94527 18.6295 8.2489 19.4999 8.25017C19.6439 8.24947 19.7878 8.24058 19.9308 8.22354L18.4394 16.532C17.7395 16.4345 17.0266 16.5618 16.4038 16.8957C15.7809 17.2296 15.2802 17.7528 14.9741 18.3898L10.5022 15.8094ZM20.6249 19.8752C20.6249 20.3943 20.471 20.9019 20.1825 21.3335C19.8941 21.7652 19.4841 22.1017 19.0045 22.3004C18.5248 22.499 17.997 22.551 17.4878 22.4497C16.9786 22.3484 16.5109 22.0984 16.1438 21.7313C15.7767 21.3642 15.5267 20.8965 15.4254 20.3873C15.3241 19.8781 15.3761 19.3503 15.5748 18.8706C15.7734 18.391 16.1099 17.981 16.5416 17.6926C16.9732 17.4041 17.4808 17.2502 17.9999 17.2502C18.6959 17.251 19.3631 17.5278 19.8552 18.0199C20.3473 18.512 20.6241 19.1792 20.6249 19.8752ZM19.8686 17.0672C19.65 16.9222 19.4151 16.8034 19.1688 16.7132L20.7258 8.04017C21.0198 7.93875 21.2999 7.80106 21.5598 7.63029L19.8686 17.0672ZM19.4999 7.50017C18.9066 7.50017 18.3266 7.32422 17.8332 6.99458C17.3399 6.66493 16.9554 6.1964 16.7283 5.64822C16.5012 5.10004 16.4418 4.49684 16.5576 3.9149C16.6733 3.33295 16.9591 2.7984 17.3786 2.37885C17.7982 1.95929 18.3327 1.67357 18.9147 1.55781C19.4966 1.44206 20.0998 1.50147 20.648 1.72853C21.1962 1.95559 21.6647 2.34011 21.9943 2.83346C22.324 3.3268 22.4999 3.90682 22.4999 4.50017C22.499 5.29554 22.1827 6.05808 21.6203 6.6205C21.0579 7.18292 20.2953 7.49927 19.4999 7.50017Z" fill="#248FEC"/>
<path d="M19.5 2.25C19.055 2.25 18.62 2.38196 18.25 2.62919C17.88 2.87643 17.5916 3.22783 17.4213 3.63896C17.251 4.0501 17.2064 4.5025 17.2932 4.93895C17.3801 5.37541 17.5943 5.77632 17.909 6.09099C18.2237 6.40566 18.6246 6.61995 19.061 6.70677C19.4975 6.79358 19.9499 6.74903 20.361 6.57873C20.7722 6.40843 21.1236 6.12004 21.3708 5.75003C21.618 5.38002 21.75 4.94501 21.75 4.5C21.7494 3.90345 21.5122 3.3315 21.0903 2.90967C20.6685 2.48784 20.0966 2.2506 19.5 2.25ZM19.5 6C19.2033 6 18.9133 5.91203 18.6666 5.7472C18.42 5.58238 18.2277 5.34811 18.1142 5.07403C18.0007 4.79994 17.9709 4.49834 18.0288 4.20736C18.0867 3.91639 18.2296 3.64912 18.4393 3.43934C18.6491 3.22956 18.9164 3.0867 19.2074 3.02882C19.4983 2.97094 19.7999 3.00065 20.074 3.11418C20.3481 3.22771 20.5824 3.41997 20.7472 3.66664C20.912 3.91332 21 4.20333 21 4.5C21 4.89782 20.842 5.27936 20.5607 5.56066C20.2794 5.84196 19.8978 6 19.5 6Z" fill="#248FEC"/>
<path d="M19.5 4.12523C19.4006 4.12523 19.3052 4.16474 19.2349 4.23507C19.1646 4.30539 19.125 4.40078 19.125 4.50023C19.125 4.59969 19.1646 4.69507 19.2349 4.7654C19.3052 4.83572 19.4006 4.87523 19.5 4.87523C19.5995 4.87523 19.6949 4.83572 19.7652 4.7654C19.8355 4.69507 19.875 4.59969 19.875 4.50023C19.875 4.40078 19.8355 4.30539 19.7652 4.23507C19.6949 4.16474 19.5995 4.12523 19.5 4.12523ZM18 18.0002C17.6292 18.0002 17.2667 18.1102 16.9584 18.3162C16.65 18.5223 16.4097 18.8151 16.2678 19.1577C16.1259 19.5003 16.0887 19.8773 16.1611 20.241C16.2334 20.6047 16.412 20.9388 16.6742 21.2011C16.9364 21.4633 17.2705 21.6419 17.6343 21.7142C17.998 21.7866 18.375 21.7494 18.7176 21.6075C19.0602 21.4656 19.353 21.2253 19.5591 20.9169C19.7651 20.6086 19.875 20.2461 19.875 19.8752C19.8744 19.3781 19.6767 18.9016 19.3252 18.5501C18.9737 18.1986 18.4971 18.0008 18 18.0002ZM18 21.0002C17.7775 21.0002 17.56 20.9343 17.375 20.8106C17.19 20.687 17.0458 20.5113 16.9607 20.3058C16.8755 20.1002 16.8533 19.874 16.8967 19.6558C16.9401 19.4375 17.0472 19.2371 17.2046 19.0797C17.3619 18.9224 17.5623 18.8153 17.7806 18.7719C17.9988 18.7284 18.225 18.7507 18.4306 18.8359C18.6361 18.921 18.8118 19.0652 18.9354 19.2502C19.0591 19.4352 19.125 19.6527 19.125 19.8752C19.125 20.1736 19.0065 20.4597 18.7955 20.6707C18.5846 20.8817 18.2984 21.0002 18 21.0002ZM9.39454 5.57123C9.46039 5.57137 9.52509 5.55403 9.58204 5.52098L12.9109 3.60023C12.9539 3.57579 12.9916 3.54308 13.0219 3.504C13.0522 3.46491 13.0745 3.42022 13.0875 3.37249C13.1004 3.32476 13.1038 3.27495 13.0974 3.2259C13.0911 3.17686 13.0751 3.12956 13.0503 3.08673C13.0256 3.04391 12.9926 3.00639 12.9534 2.97635C12.9141 2.94631 12.8692 2.92434 12.8214 2.9117C12.7736 2.89905 12.7238 2.896 12.6748 2.9027C12.6258 2.9094 12.5786 2.92572 12.5359 2.95073L9.20667 4.87148C9.13518 4.91276 9.07931 4.97647 9.04773 5.05274C9.01614 5.129 9.0106 5.21356 9.03196 5.29329C9.05333 5.37303 9.10041 5.44348 9.16589 5.49374C9.23138 5.54399 9.312 5.57123 9.39454 5.57123ZM13.8503 3.00023C13.9161 3.00023 13.9808 2.9829 14.0378 2.94998L14.8058 2.50673C14.8485 2.48211 14.8859 2.44932 14.9159 2.41024C14.9459 2.37117 14.9679 2.32656 14.9806 2.27898C14.9934 2.23139 14.9967 2.18176 14.9903 2.13292C14.9838 2.08407 14.9679 2.03697 14.9432 1.99429C14.9186 1.95162 14.8858 1.91422 14.8467 1.88422C14.8077 1.85422 14.7631 1.83221 14.7155 1.81945C14.6679 1.80668 14.6183 1.80342 14.5694 1.80984C14.5206 1.81626 14.4735 1.83223 14.4308 1.85686L13.6624 2.30048C13.5909 2.34178 13.535 2.40552 13.5034 2.48182C13.4719 2.55812 13.4663 2.64272 13.4878 2.72247C13.5092 2.80223 13.5563 2.87268 13.6219 2.92291C13.6874 2.97313 13.7677 3.00031 13.8503 3.00023ZM11.0427 19.4095L8.81254 18.1229C8.72646 18.0739 8.62451 18.061 8.52895 18.087C8.43338 18.1129 8.35195 18.1756 8.30244 18.2613C8.25293 18.3471 8.23934 18.449 8.26465 18.5447C8.28997 18.6404 8.35212 18.7223 8.43754 18.7724L10.6677 20.059C10.7103 20.084 10.7575 20.1003 10.8065 20.107C10.8555 20.1137 10.9054 20.1107 10.9532 20.098C11.001 20.0854 11.0458 20.0634 11.0851 20.0334C11.1244 20.0033 11.1574 19.9658 11.1821 19.923C11.2068 19.8802 11.2228 19.8329 11.2292 19.7838C11.2356 19.7348 11.2322 19.685 11.2192 19.6372C11.2063 19.5895 11.184 19.5448 11.1537 19.5057C11.1234 19.4666 11.0857 19.4339 11.0427 19.4095ZM13.3174 20.7212L12.3252 20.149C12.2825 20.1244 12.2354 20.1084 12.1865 20.102C12.1377 20.0955 12.0881 20.0988 12.0405 20.1116C11.9444 20.1373 11.8625 20.2002 11.8127 20.2864C11.763 20.3726 11.7495 20.475 11.7753 20.5711C11.8011 20.6672 11.864 20.7491 11.9502 20.7989L12.9424 21.3711C12.9851 21.3957 13.0322 21.4117 13.081 21.4181C13.1299 21.4245 13.1795 21.4213 13.2271 21.4085C13.2747 21.3958 13.3193 21.3737 13.3584 21.3437C13.3974 21.3137 13.4302 21.2763 13.4549 21.2337C13.4795 21.191 13.4955 21.1439 13.5019 21.0951C13.5083 21.0462 13.505 20.9966 13.4923 20.949C13.4795 20.9014 13.4575 20.8568 13.4275 20.8177C13.3975 20.7786 13.3601 20.7459 13.3174 20.7212Z" fill="#248FEC"/>
</g>
<defs>
<clipPath id="clip0_1195_15510">
<rect width="24" height="24" fill="white"/>
</clipPath>
</defs>
</svg>
