<svg width="45" height="45" viewBox="0 0 45 45" fill="none" xmlns="http://www.w3.org/2000/svg">
<path d="M42.7492 33.588H41.5657V3.60005C41.5657 3.42103 41.4946 3.24934 41.368 3.12275C41.2414 2.99616 41.0697 2.92505 40.8907 2.92505H4.10772C4.01908 2.92505 3.9313 2.94251 3.84941 2.97643C3.76751 3.01035 3.6931 3.06007 3.63042 3.12275C3.56774 3.18543 3.51802 3.25984 3.4841 3.34174C3.45018 3.42363 3.43272 3.51141 3.43272 3.60005V33.588H2.24922C2.0702 33.588 1.89851 33.6592 1.77192 33.7858C1.64533 33.9123 1.57422 34.084 1.57422 34.2631C1.57422 34.4421 1.64533 34.6138 1.77192 34.7403C1.89851 34.8669 2.0702 34.938 2.24922 34.938H9.75522L7.64922 41.2066C7.61967 41.2905 7.60694 41.3794 7.61176 41.4682C7.61657 41.557 7.63883 41.6441 7.67728 41.7243C7.71572 41.8045 7.76959 41.8764 7.83581 41.9358C7.90203 41.9952 7.9793 42.041 8.06322 42.0705C8.14713 42.1001 8.23605 42.1128 8.32488 42.108C8.41371 42.1032 8.50073 42.0809 8.58096 42.0425C8.66119 42.004 8.73306 41.9502 8.79247 41.884C8.85188 41.8177 8.89767 41.7405 8.92722 41.6566L11.1772 34.9561H12.9772V35.7256C12.9772 35.9046 13.0483 36.0763 13.1749 36.2028C13.3015 36.3294 13.4732 36.4006 13.6522 36.4006H14.8492V37.3005C14.8492 37.7521 15.0283 38.1852 15.3472 38.5049C15.666 38.8246 16.0987 39.0049 16.5502 39.0061H17.0812C17.5328 39.0049 17.9654 38.8246 18.2843 38.5049C18.6032 38.1852 18.7822 37.7521 18.7822 37.3005V36.4006H26.2342V37.3005C26.2342 37.7521 26.4133 38.1852 26.7322 38.5049C27.051 38.8246 27.4837 39.0049 27.9352 39.0061H28.4662C28.6913 39.0031 28.9137 38.9557 29.1204 38.8664C29.3271 38.7771 29.514 38.6478 29.6705 38.4859C29.827 38.324 29.9498 38.1327 30.032 37.9231C30.1141 37.7135 30.154 37.4896 30.1492 37.2645V36.3645H31.3327C31.5117 36.3645 31.6834 36.2934 31.81 36.1668C31.9366 36.0403 32.0077 35.8686 32.0077 35.6895V34.938H33.8077L36.0577 41.6385C36.1038 41.7709 36.1903 41.8856 36.3049 41.9663C36.4195 42.047 36.5565 42.0898 36.6967 42.0886C36.7687 42.0875 36.84 42.0754 36.9082 42.0525C36.9925 42.0246 37.0704 41.9803 37.1376 41.9221C37.2047 41.864 37.2597 41.7932 37.2994 41.7138C37.3391 41.6343 37.3628 41.5479 37.369 41.4593C37.3752 41.3707 37.3639 41.2818 37.3357 41.1976L35.2432 34.938H42.7492C42.9282 34.938 43.0999 34.8669 43.2265 34.7403C43.3531 34.6138 43.4242 34.4421 43.4242 34.2631C43.4242 34.084 43.3531 33.9123 43.2265 33.7858C43.0999 33.6592 42.9282 33.588 42.7492 33.588ZM33.6277 17.8965H11.3707V11.331H33.6277V17.8965ZM30.6757 35.0326H14.3227V29.8755H30.6757V35.0326ZM16.5817 23.5845H28.4167L29.6047 28.5345H28.1917C28.1226 27.9914 27.8578 27.4921 27.4469 27.1302C27.036 26.7682 26.5073 26.5686 25.9597 26.5686C25.4122 26.5686 24.8834 26.7682 24.4725 27.1302C24.0617 27.4921 23.7968 27.9914 23.7277 28.5345H15.3937L16.5817 23.5845ZM26.8417 28.5345H25.0777C25.119 28.3311 25.2294 28.1482 25.3902 28.0168C25.5509 27.8854 25.7521 27.8136 25.9597 27.8136C26.1673 27.8136 26.3685 27.8854 26.5293 28.0168C26.69 28.1482 26.8004 28.3311 26.8417 28.5345ZM17.4142 37.2645C17.4142 37.3581 17.3774 37.4478 17.3117 37.5143C17.246 37.5809 17.1567 37.6189 17.0632 37.62H16.5322C16.4391 37.6177 16.3505 37.5794 16.285 37.5131C16.2196 37.4468 16.1824 37.3577 16.1812 37.2645V36.3645H17.4142V37.2645ZM28.8172 37.2645C28.8161 37.3577 28.7789 37.4468 28.7134 37.5131C28.648 37.5794 28.5594 37.6177 28.4662 37.62H27.9352C27.8417 37.6189 27.7524 37.5809 27.6867 37.5143C27.621 37.4478 27.5842 37.3581 27.5842 37.2645V36.3645H28.7992L28.8172 37.2645ZM32.0257 33.588V29.2006C32.0257 29.0215 31.9546 28.8498 31.828 28.7233C31.7014 28.5967 31.5297 28.5255 31.3507 28.5255H30.9952L30.7792 27.6255H31.6252C31.8042 27.6255 31.9759 27.5544 32.1025 27.4278C32.2291 27.3013 32.3002 27.1296 32.3002 26.9506C32.3002 26.7715 32.2291 26.5998 32.1025 26.4733C31.9759 26.3467 31.8042 26.2755 31.6252 26.2755H30.4552L29.6047 22.7385C29.5679 22.5918 29.4834 22.4613 29.3645 22.3677C29.2456 22.274 29.0991 22.2225 28.9477 22.2211H16.0507C15.8994 22.2225 15.7528 22.274 15.6339 22.3677C15.515 22.4613 15.4306 22.5918 15.3937 22.7385L14.5432 26.2755H13.3732C13.1942 26.2755 13.0225 26.3467 12.8959 26.4733C12.7693 26.5998 12.6982 26.7715 12.6982 26.9506C12.6982 27.1296 12.7693 27.3013 12.8959 27.4278C13.0225 27.5544 13.1942 27.6255 13.3732 27.6255H14.2192L14.0032 28.5255H13.6477C13.4687 28.5255 13.297 28.5967 13.1704 28.7233C13.0438 28.8498 12.9727 29.0215 12.9727 29.2006V33.588H11.3707V19.2465H33.6277V33.588H32.0257ZM34.9777 33.588V10.638C34.9777 10.459 34.9066 10.2873 34.78 10.1608C34.6534 10.0342 34.4817 9.96305 34.3027 9.96305H10.6957C10.5167 9.96305 10.345 10.0342 10.2184 10.1608C10.0918 10.2873 10.0207 10.459 10.0207 10.638V33.588H4.78272V4.25255H40.2157V33.588H34.9777Z" fill="#248FEC"/>
<path d="M21.3337 16.3036H23.6647C23.8437 16.3036 24.0154 16.2325 24.142 16.1059C24.2686 15.9793 24.3397 15.8076 24.3397 15.6286C24.3397 15.4496 24.2686 15.2779 24.142 15.1513C24.0154 15.0247 23.8437 14.9536 23.6647 14.9536H21.3337C21.1547 14.9536 20.983 15.0247 20.8564 15.1513C20.7298 15.2779 20.6587 15.4496 20.6587 15.6286C20.6587 15.8076 20.7298 15.9793 20.8564 16.1059C20.983 16.2325 21.1547 16.3036 21.3337 16.3036ZM18.0397 32.1976C18.0046 32.1165 17.9559 32.0419 17.8957 31.9771C17.7664 31.8559 17.5959 31.7885 17.4187 31.7885C17.2415 31.7885 17.071 31.8559 16.9417 31.9771C16.9095 32.0084 16.8809 32.0431 16.8562 32.0806C16.8326 32.1181 16.8115 32.1572 16.7932 32.1976C16.7765 32.2381 16.7644 32.2804 16.7572 32.3236C16.7528 32.367 16.7528 32.4107 16.7572 32.4541C16.7574 32.6331 16.8286 32.8046 16.9552 32.9311C16.9851 32.963 17.0183 32.9917 17.0542 33.0166L17.1712 33.0796C17.2119 33.0958 17.2541 33.1078 17.2972 33.1156C17.4065 33.1378 17.5196 33.1326 17.6264 33.1004C17.7332 33.0682 17.8304 33.01 17.9092 32.9311C18.0358 32.8046 18.1071 32.6331 18.1072 32.4541C18.1116 32.4107 18.1116 32.367 18.1072 32.3236C18.0899 32.279 18.0672 32.2367 18.0397 32.1976ZM27.1027 31.9771C26.9769 32.1041 26.9059 32.2754 26.9047 32.4541C26.9049 32.6331 26.9761 32.8046 27.1027 32.9311C27.2297 33.0569 27.401 33.128 27.5797 33.1291C27.7587 33.1291 27.9304 33.058 28.057 32.9314C28.1836 32.8048 28.2547 32.6331 28.2547 32.4541C28.2536 32.2754 28.1825 32.1041 28.0567 31.9771C27.9274 31.8559 27.7569 31.7885 27.5797 31.7885C27.4025 31.7885 27.232 31.8559 27.1027 31.9771Z" fill="#248FEC"/>
</svg>
