<svg width="45" height="45" viewBox="0 0 45 45" fill="none" xmlns="http://www.w3.org/2000/svg">
<path d="M26.6232 5.62501C25.9018 5.62501 25.1804 5.89922 24.6347 6.44626L22.6463 8.43469L21.6507 9.42891L18.6694 12.4116C17.6158 13.4674 17.024 14.8982 17.024 16.3898C17.024 17.8815 17.6158 19.3123 18.6694 20.3681L4.74613 34.2886C4.22093 34.8171 3.92615 35.5319 3.92615 36.277C3.92615 37.0221 4.22093 37.737 4.74613 38.2655L6.73457 40.2539C7.82723 41.3466 9.61738 41.3466 10.7114 40.2539L24.6333 26.3348C25.6886 27.3891 27.1192 27.9813 28.6109 27.9813C30.1026 27.9813 31.5332 27.3891 32.5885 26.3348L35.5697 23.3508L36.5654 22.3566L38.5538 20.3681C39.0788 19.839 39.3734 19.1237 39.3734 18.3783C39.3734 17.6328 39.0788 16.9176 38.5538 16.3884L28.6116 6.44626C28.3505 6.18521 28.0405 5.97828 27.6993 5.83735C27.358 5.69642 26.9923 5.62426 26.6232 5.62501ZM26.6232 7.02001C26.9804 7.02001 27.3375 7.16063 27.6174 7.44047L37.5596 17.3827C37.6923 17.512 37.7978 17.6666 37.8699 17.8373C37.9419 18.0081 37.979 18.1915 37.979 18.3769C37.979 18.5622 37.9419 18.7457 37.8699 18.9164C37.7978 19.0872 37.6923 19.2418 37.5596 19.3711L35.5711 21.3623L34.5769 22.3566L31.5943 25.3406C31.2042 25.7353 30.7398 26.0486 30.2278 26.2625C29.7158 26.4763 29.1665 26.5864 28.6116 26.5864C28.0567 26.5864 27.5074 26.4763 26.9954 26.2625C26.4834 26.0486 26.019 25.7353 25.6289 25.3406L25.2239 24.9328C25.1734 24.8596 25.1095 24.7966 25.0355 24.7472L20.2543 19.9617C20.205 19.8905 20.143 19.829 20.0714 19.7803L19.6636 19.3725C19.2688 18.9825 18.9553 18.5179 18.7413 18.0058C18.5273 17.4937 18.4171 16.9442 18.4171 16.3891C18.4171 15.8341 18.5273 15.2846 18.7413 14.7725C18.9553 14.2604 19.2688 13.7958 19.6636 13.4058L22.6449 10.4245L23.6405 9.42891L25.6289 7.44047C25.7587 7.30817 25.9133 7.20289 26.084 7.13072C26.2546 7.05855 26.4379 7.02092 26.6232 7.02001ZM27.6174 12.2963C27.076 12.2963 26.5346 12.5002 26.1268 12.9094C25.7345 13.3063 25.5145 13.8419 25.5145 14.4C25.5145 14.9581 25.7345 15.4937 26.1268 15.8906L29.108 18.8747C29.9264 19.6917 31.2736 19.6917 32.0907 18.8747C32.4834 18.4777 32.7036 17.9418 32.7036 17.3834C32.7036 16.8249 32.4834 16.289 32.0907 15.892L29.1094 12.9094C28.9133 12.714 28.6806 12.5592 28.4245 12.454C28.1685 12.3488 27.8942 12.2952 27.6174 12.2963ZM22.635 12.7041C22.4488 12.707 22.2713 12.7838 22.1416 12.9174C22.0119 13.0511 21.9405 13.2308 21.9432 13.417V14.8233C21.9432 15.0098 22.0172 15.1886 22.1491 15.3205C22.281 15.4523 22.4598 15.5264 22.6463 15.5264C22.8328 15.5264 23.0116 15.4523 23.1435 15.3205C23.2753 15.1886 23.3494 15.0098 23.3494 14.8233V13.417C23.3509 13.3228 23.3335 13.2292 23.2981 13.1419C23.2628 13.0545 23.2102 12.9752 23.1436 12.9085C23.0769 12.8419 22.9976 12.7893 22.9102 12.7539C22.8228 12.7186 22.7293 12.7011 22.635 12.7027V12.7041ZM27.6174 13.6913C27.7946 13.6913 27.9718 13.7616 28.1138 13.9022L31.0964 16.8863C31.1638 16.9504 31.2174 17.0275 31.2541 17.1129C31.2907 17.1984 31.3096 17.2904 31.3096 17.3834C31.3096 17.4763 31.2907 17.5683 31.2541 17.6538C31.2174 17.7393 31.1638 17.8164 31.0964 17.8805C31.0323 17.9478 30.9552 18.0014 30.8698 18.0381C30.7843 18.0747 30.6923 18.0936 30.5993 18.0936C30.5064 18.0936 30.4143 18.0747 30.3289 18.0381C30.2434 18.0014 30.1663 17.9478 30.1022 17.8805L27.121 14.8978C27.0536 14.8337 27 14.7566 26.9634 14.6711C26.9267 14.5857 26.9078 14.4937 26.9078 14.4007C26.9078 14.3077 26.9267 14.2157 26.9634 14.1303C27 14.0448 27.0536 13.9677 27.121 13.9036C27.1856 13.8373 27.2628 13.7845 27.348 13.7483C27.4332 13.7121 27.5248 13.6932 27.6174 13.6927V13.6913ZM20.6466 14.6911C20.5541 14.6924 20.4628 14.7119 20.3779 14.7485C20.293 14.7851 20.2162 14.8381 20.1518 14.9045C20.0874 14.9708 20.0367 15.0492 20.0026 15.1352C19.9686 15.2212 19.9518 15.313 19.9533 15.4055V16.8117C19.9533 16.9982 20.0274 17.177 20.1593 17.3089C20.2911 17.4408 20.47 17.5148 20.6564 17.5148C20.8429 17.5148 21.0218 17.4408 21.1536 17.3089C21.2855 17.177 21.3596 16.9982 21.3596 16.8117V15.4055C21.3611 15.3114 21.3437 15.2179 21.3084 15.1306C21.2731 15.0434 21.2207 14.9641 21.1542 14.8975C21.0877 14.8308 21.0085 14.7782 20.9213 14.7428C20.8341 14.7073 20.7407 14.6898 20.6466 14.6911ZM19.6622 21.3623L20.6564 22.3566L17.1774 25.837L18.1716 26.8313L17.1774 27.8255L16.1832 26.8313L13.2005 29.8139L14.1947 30.8081L13.2005 31.8023L12.2021 30.8081L9.22082 33.7908L10.215 34.785L9.22082 35.7792L8.2266 34.785L5.74035 37.2713C5.6076 37.1419 5.50209 36.9873 5.43004 36.8166C5.358 36.6458 5.32088 36.4624 5.32088 36.277C5.32088 36.0917 5.358 35.9082 5.43004 35.7375C5.50209 35.5667 5.6076 35.4121 5.74035 35.2828L19.6622 21.3623ZM21.6507 23.3508L23.6405 25.3406L9.71863 39.2597C9.58929 39.3927 9.43461 39.4984 9.26372 39.5705C9.09283 39.6427 8.90921 39.6799 8.72371 39.6799C8.53821 39.6799 8.35459 39.6427 8.1837 39.5705C8.01282 39.4984 7.85813 39.3927 7.72879 39.2597L6.73457 38.2655L8.2252 36.7748L9.22082 37.7677L12.2021 34.7864L11.2093 33.7908L12.2035 32.7966L13.2005 33.7908L16.1818 30.8095L15.1889 29.8139L16.1832 28.8197L17.1774 29.8139L20.1586 26.8327L19.1658 25.837L21.6507 23.3508Z" fill="#248FEC"/>
</svg>
