<svg width="45" height="45" viewBox="0 0 45 45" fill="none" xmlns="http://www.w3.org/2000/svg">
<g clip-path="url(#clip0_1223_26880)">
<path d="M6.32812 44.9944C6.51461 44.9944 6.69345 44.9203 6.82531 44.7885C6.95717 44.6566 7.03125 44.4778 7.03125 44.2913V36.5246C7.03125 34.9875 7.85109 33.5391 9.17016 32.7488L14.6742 29.4455L17.6948 33.2213C17.7568 33.2984 17.8342 33.3617 17.9221 33.407C18.0101 33.4523 18.1066 33.4786 18.2053 33.4842L18.2447 33.4856C18.4303 33.4856 18.6103 33.4125 18.7425 33.2803L20.0953 31.9275V32.7839C20.0953 32.9704 20.1694 33.1493 20.3013 33.2811C20.4331 33.413 20.612 33.4871 20.7984 33.4871H20.8645L19.6917 44.2167C19.68 44.3094 19.6869 44.4034 19.7119 44.4933C19.737 44.5833 19.7797 44.6673 19.8375 44.7406C19.8954 44.8139 19.9673 44.8749 20.049 44.9201C20.1307 44.9652 20.2205 44.9937 20.3134 45.0038C20.4062 45.0139 20.5001 45.0054 20.5896 44.9788C20.6791 44.9522 20.7624 44.9081 20.8346 44.8489C20.9069 44.7898 20.9666 44.7169 21.0104 44.6344C21.0541 44.5519 21.0811 44.4616 21.0895 44.3686L22.2792 33.4871H22.7208L23.9105 44.3686C23.9306 44.5542 24.0236 44.7241 24.1691 44.8411C24.3145 44.958 24.5005 45.0124 24.686 44.9923C24.8716 44.9721 25.0415 44.8791 25.1585 44.7337C25.2754 44.5882 25.3298 44.4023 25.3097 44.2167L24.1369 33.4871H24.203C24.3895 33.4871 24.5683 33.413 24.7002 33.2811C24.832 33.1493 24.9061 32.9704 24.9061 32.7839V31.9275L26.2589 33.2803C26.3243 33.3456 26.402 33.3973 26.4874 33.4325C26.5728 33.4678 26.6643 33.4858 26.7567 33.4856L26.7961 33.4842C26.8949 33.4786 26.9913 33.4523 27.0793 33.407C27.1672 33.3617 27.2446 33.2984 27.3066 33.2213L30.3272 29.4455L35.8327 32.7488C36.4826 33.1421 37.0205 33.696 37.3946 34.3573C37.7686 35.0185 37.9664 35.7648 37.9688 36.5246V44.2913C37.9688 44.4778 38.0428 44.6566 38.1747 44.7885C38.3066 44.9203 38.4854 44.9944 38.6719 44.9944C38.8584 44.9944 39.0372 44.9203 39.1691 44.7885C39.3009 44.6566 39.375 44.4778 39.375 44.2913V36.5246C39.375 34.4953 38.2936 32.5871 36.5541 31.5436L30.6112 27.9788L28.3838 25.5038C28.291 25.4047 28.171 25.3352 28.0389 25.3042C27.9068 25.2732 27.7684 25.2819 27.6413 25.3294V22.5675C28.6644 21.7821 29.4934 20.772 30.0642 19.6153C30.635 18.4586 30.9324 17.1862 30.9333 15.8963V12.7013L32.2903 6.42096C32.3927 5.8657 32.3829 5.29556 32.2614 4.74417C32.1399 4.19278 31.9092 3.67129 31.583 3.21049C31.2594 2.74768 30.8465 2.35433 30.3685 2.05364C29.8906 1.75295 29.3573 1.551 28.8 1.45971L20.4216 0.0633008C19.8218 -0.0369123 19.2073 -0.00516021 18.621 0.156345C18.0348 0.317851 17.4907 0.605227 17.0269 0.998457C16.2353 1.67041 15.7233 2.61376 15.5911 3.64361C14.7614 3.7983 14.0105 4.24127 13.4691 4.91064C13.1298 5.33089 12.8899 5.82234 12.7671 6.3483C12.6444 6.87426 12.6421 7.42115 12.7603 7.94814L14.0583 12.6872V15.8949C14.0583 18.6103 15.352 21.0235 17.3503 22.5675V25.328C17.2239 25.2828 17.087 25.2753 16.9564 25.3065C16.8258 25.3377 16.7072 25.4063 16.6148 25.5038L14.3888 27.9774L8.44594 31.5436C7.58756 32.0617 6.87709 32.7921 6.383 33.6646C5.88892 34.537 5.62786 35.5219 5.625 36.5246V44.2913C5.625 44.4778 5.69908 44.6566 5.83094 44.7885C5.9628 44.9203 6.14164 44.9944 6.32812 44.9944ZM23.4984 30.6549V32.0794H21.5016V30.6549C21.5016 30.6155 21.4847 30.5803 21.4791 30.5424L22.5 29.5214L23.5223 30.5438C23.5153 30.5803 23.4984 30.6155 23.4984 30.6549ZM29.2388 28.5539L26.6977 31.7306L23.7009 28.7339L27.6905 26.8341L29.2388 28.5539ZM14.5617 5.79518C14.7649 5.5429 15.0221 5.33951 15.3144 5.20004C15.6068 5.06056 15.9267 4.98858 16.2506 4.98939C16.6388 4.98939 16.9537 4.58018 16.9537 4.19205C16.953 3.82687 17.0244 3.46513 17.1637 3.12758C17.3031 2.79003 17.5077 2.48332 17.7659 2.22503C18.024 1.96674 18.3307 1.76195 18.6681 1.62242C19.0056 1.48288 19.3673 1.41134 19.7325 1.41189C19.8861 1.41201 20.0394 1.42471 20.1909 1.44986L28.5694 2.84627C29.3288 2.97283 29.9897 3.38908 30.4327 4.01768C30.8756 4.64768 31.0444 5.41127 30.9108 6.14533L29.8575 11.018L28.53 9.36846V7.83986C28.53 7.65338 28.4559 7.47454 28.3241 7.34268C28.1922 7.21082 28.0134 7.13674 27.8269 7.13674H17.1647C16.9782 7.13674 16.7994 7.21082 16.6675 7.34268C16.5356 7.47454 16.4616 7.65338 16.4616 7.83986V9.36986L15.0792 11.0925L14.1258 7.61486C13.9894 6.9708 14.1483 6.30705 14.5617 5.79518ZM15.4645 15.8949V12.8602L17.7145 10.0575C17.8145 9.93257 17.869 9.77737 17.8692 9.61736V8.54299H27.1252V9.61736C27.1251 9.77741 27.1797 9.93268 27.2798 10.0575L29.5284 12.8489V15.8935C29.5284 19.7705 26.3742 22.9247 22.4972 22.9247C18.6202 22.9247 15.4645 19.7719 15.4645 15.8949ZM22.4958 24.3324C23.8402 24.3324 25.1072 24.0089 26.235 23.4478V25.9692L22.5 27.7481L18.7566 25.965V23.4464C19.8858 24.0075 21.1528 24.3324 22.4958 24.3324ZM17.3095 26.8341L21.2991 28.7339L18.3023 31.7306L15.7613 28.5539L17.3095 26.8341Z" fill="#248FEC"/>
<path d="M13.3588 44.9943C13.5453 44.9943 13.7241 44.9203 13.856 44.7884C13.9879 44.6565 14.0619 44.4777 14.0619 44.2912V40.9978C14.0634 39.5476 13.521 38.1496 12.5418 37.08L11.4773 35.9142C11.4149 35.846 11.3398 35.7907 11.2561 35.7515C11.1724 35.7123 11.0818 35.69 10.9895 35.6858C10.8971 35.6816 10.8049 35.6956 10.718 35.7271C10.6311 35.7586 10.5513 35.8069 10.483 35.8692C10.4148 35.9315 10.3595 36.0067 10.3203 36.0904C10.2811 36.1741 10.2588 36.2647 10.2546 36.357C10.2504 36.4493 10.2645 36.5415 10.296 36.6284C10.3274 36.7153 10.3757 36.7952 10.438 36.8634L11.5026 38.0292C12.2452 38.8394 12.6567 39.8988 12.6557 40.9978V44.2912C12.6557 44.4777 12.7298 44.6565 12.8616 44.7884C12.9935 44.9203 13.1723 44.9943 13.3588 44.9943ZM33.5216 35.9142L32.4571 37.0814C31.478 38.1505 30.9356 39.5481 30.9369 40.9978V44.2912C30.9369 44.4777 31.011 44.6565 31.1429 44.7884C31.2747 44.9203 31.4536 44.9943 31.6401 44.9943C31.8265 44.9943 32.0054 44.9203 32.1373 44.7884C32.2691 44.6565 32.3432 44.4777 32.3432 44.2912V40.9978C32.3432 39.8967 32.7524 38.842 33.4949 38.0292L34.5594 36.8634C34.6218 36.7953 34.6701 36.7155 34.7016 36.6287C34.7331 36.5419 34.7472 36.4497 34.7431 36.3575C34.7389 36.2652 34.7167 36.1747 34.6776 36.091C34.6385 36.0074 34.5833 35.9322 34.5151 35.8699C34.447 35.8076 34.3673 35.7593 34.2804 35.7278C34.1936 35.6963 34.1015 35.6822 34.0092 35.6863C33.917 35.6904 33.8264 35.7126 33.7428 35.7517C33.6591 35.7908 33.584 35.846 33.5216 35.9142Z" fill="#248FEC"/>
</g>
<defs>
<clipPath id="clip0_1223_26880">
<rect width="45" height="45" fill="white"/>
</clipPath>
</defs>
</svg>
