<svg width="45" height="45" viewBox="0 0 45 45" fill="none" xmlns="http://www.w3.org/2000/svg">
<g clip-path="url(#clip0_1195_35249)">
<path d="M39.9245 5.08067C34.0315 -0.812971 24.4927 -0.813619 18.5988 5.08035C13.3632 10.3162 12.8028 18.4695 16.8918 24.3454L14.2855 26.9517C13.4344 26.522 12.3287 26.6431 11.6357 27.3361C8.43868 30.5331 4.53152 34.4402 1.32792 37.6438C0.445137 38.5263 0.445137 39.9626 1.32792 40.8451L4.15981 43.6773C5.04332 44.5608 6.47638 44.5619 7.36103 43.6773C7.48576 43.5525 16.3492 34.6891 17.6688 33.3695C18.3428 32.6954 18.5558 31.647 18.0596 30.713L20.6561 28.1167C26.4962 32.1966 34.6384 31.6928 39.9245 26.4061C45.8041 20.5268 45.8041 10.96 39.9245 5.08067ZM12.5715 28.2718C12.8863 27.9576 13.3976 27.9384 13.7595 28.18C13.8945 28.4119 13.5771 28.0158 16.6845 31.1522C17.1501 31.6178 17.0139 32.1522 16.733 32.4334L15.6966 33.4698L11.5352 29.3081L12.5715 28.2718ZM8.39742 40.7692L4.23574 36.6076L10.5994 30.2439L14.7608 34.4056L8.39742 40.7692ZM2.26369 39.9093C1.89727 39.5425 1.89727 38.9464 2.26369 38.5796L3.29996 37.5433L7.46152 41.7049L6.42525 42.7415C6.06805 43.098 5.44933 43.0946 5.09558 42.7415L2.26369 39.9093ZM17.2009 29.7001L15.3048 27.804L17.6987 25.41C17.9839 25.7507 18.2787 26.0861 18.5988 26.4061C18.9175 26.7249 19.2518 27.0219 19.5931 27.3082L17.2009 29.7001ZM38.9887 25.4703C36.3905 28.0686 32.9362 29.4994 29.262 29.4994C26.0508 29.4994 23.008 28.4062 20.5575 26.3967L18.6267 24.4656C14.193 19.0675 14.494 11.0569 19.5345 6.01613C24.9113 0.640032 33.612 0.639701 38.9887 6.01645C44.352 11.38 44.352 20.1067 38.9887 25.4703Z" fill="#248FEC"/>
<path d="M37.6846 7.31993C33.029 2.66438 25.4946 2.664 20.8386 7.31993C16.1943 11.9642 16.1943 19.5209 20.8386 24.1655C25.4942 28.8211 33.0286 28.8215 37.6846 24.1655C42.3289 19.5209 42.3289 11.9642 37.6846 7.31993ZM36.7488 23.2297C32.6105 27.368 25.9128 27.3681 21.7744 23.2297C17.6461 19.1011 17.6461 12.384 21.7744 8.2557C25.9127 4.11745 32.6104 4.11733 36.7488 8.2557C40.8771 12.384 40.8771 19.1011 36.7488 23.2297Z" fill="#248FEC"/>
<path d="M31.4741 7.59416C31.1471 7.43356 30.7496 7.56799 30.5877 7.89499C30.4262 8.22265 30.5606 8.61945 30.8886 8.78133C31.7251 9.19397 32.5116 9.71743 33.2261 10.3372C33.5024 10.5765 33.92 10.5472 34.1596 10.2709C34.399 9.99467 34.3693 9.57687 34.0933 9.33743C33.2933 8.64368 32.4121 8.0572 31.4741 7.59416ZM37.6057 14.3356C37.2119 13.3303 36.6906 12.3735 36.0573 11.4917C35.8441 11.1948 35.4311 11.1269 35.1338 11.3405C34.8372 11.5534 34.7693 11.967 34.9826 12.264C35.5516 13.0563 36.0195 13.9158 36.3733 14.8183C36.5066 15.1581 36.8896 15.3269 37.2309 15.1931C37.5712 15.0597 37.7392 14.6758 37.6057 14.3356Z" fill="#248FEC"/>
</g>
<defs>
<clipPath id="clip0_1195_35249">
<rect width="45" height="45" fill="white"/>
</clipPath>
</defs>
</svg>
