<svg width="45" height="45" viewBox="0 0 45 45" fill="none" xmlns="http://www.w3.org/2000/svg">
<path d="M21.7969 4.21875C21.6104 4.21875 21.4316 4.29283 21.2997 4.42469C21.1678 4.55655 21.0938 4.73539 21.0938 4.92188V7.05938C17.7408 7.19188 14.4958 8.28156 11.7424 10.1996C8.98903 12.1177 6.84235 14.784 5.5561 17.8833C4.22628 21.0956 3.87855 24.6299 4.55686 28.0398C5.23517 31.4496 6.90908 34.5819 9.36704 37.0406C11.8258 39.4981 14.9579 41.1715 18.3675 41.8496C21.777 42.5276 25.311 42.1799 28.523 40.8502C31.6223 39.5639 34.2885 37.4172 36.2066 34.6638C38.1247 31.9105 39.2144 28.6655 39.3469 25.3125H41.4844C41.6709 25.3125 41.8497 25.2384 41.9816 25.1066C42.1134 24.9747 42.1875 24.7959 42.1875 24.6094C42.1875 13.3566 33.0497 4.21875 21.7969 4.21875ZM22.5 5.69531C27.2753 5.86646 31.8086 7.84004 35.1874 11.2189C38.5662 14.5977 40.5398 19.1309 40.7109 23.9062H38.8013C38.7203 23.8919 38.6375 23.8919 38.5566 23.9062H33.6066C33.4375 21.0158 32.2131 18.2879 30.1657 16.2406C28.1183 14.1932 25.3905 12.9688 22.5 12.7997V7.84406C22.5121 7.76955 22.5121 7.69358 22.5 7.61906V5.69531ZM21.0938 8.46281V13.3594C21.0938 13.5459 21.1678 13.7247 21.2997 13.8566C21.4316 13.9884 21.6104 14.0625 21.7969 14.0625C27.63 14.0625 32.3438 18.7762 32.3438 24.6094C32.3438 24.7959 32.4178 24.9747 32.5497 25.1066C32.6816 25.2384 32.8604 25.3125 33.0469 25.3125H37.9406C37.8068 28.4481 36.7629 31.4769 34.9364 34.0292C33.1099 36.5814 30.5798 38.5466 27.655 39.6849C24.7302 40.8232 21.5373 41.0852 18.466 40.4391C15.3948 39.793 12.5781 38.2666 10.3599 36.0464C8.09795 33.7847 6.55767 30.903 5.93388 27.7658C5.31008 24.6286 5.63081 21.3768 6.85548 18.4219C8.03403 15.5783 10.0001 13.1304 12.5224 11.3662C15.0448 9.60192 18.0185 8.59464 21.0938 8.46281ZM21.7969 16.875C19.7465 16.878 17.781 17.6938 16.3311 19.1436C14.8813 20.5935 14.0655 22.559 14.0625 24.6094C14.0625 28.8731 17.5331 32.3438 21.7969 32.3438C26.0606 32.3438 29.5313 28.8731 29.5313 24.6094C29.5313 20.3456 26.0606 16.875 21.7969 16.875ZM21.7969 18.2812C25.2999 18.2812 28.125 21.1064 28.125 24.6094C28.125 28.1123 25.2999 30.9375 21.7969 30.9375C20.9654 30.939 20.1419 30.7763 19.3735 30.4588C18.605 30.1413 17.9068 29.6753 17.3189 29.0873C16.731 28.4994 16.2649 27.8012 15.9474 27.0328C15.6299 26.2644 15.4673 25.4408 15.4688 24.6094C15.4688 21.1064 18.2939 18.2812 21.7969 18.2812ZM21.7969 19.6875C20.4924 19.6905 19.2423 20.21 18.3199 21.1324C17.3975 22.0548 16.878 23.3049 16.875 24.6094C16.875 27.3192 19.087 29.5312 21.7969 29.5312C24.5067 29.5312 26.7188 27.3192 26.7188 24.6094C26.7188 21.8995 24.5067 19.6875 21.7969 19.6875ZM21.7969 21.0938C23.7474 21.0938 25.3125 22.6589 25.3125 24.6094C25.3125 26.5598 23.7474 28.125 21.7969 28.125C21.3348 28.1265 20.877 28.0366 20.4498 27.8604C20.0226 27.6843 19.6344 27.4254 19.3076 27.0986C18.9809 26.7719 18.722 26.3837 18.5458 25.9565C18.3697 25.5293 18.2798 25.0715 18.2813 24.6094C18.2813 22.6589 19.8464 21.0938 21.7969 21.0938Z" fill="#248FEC"/>
</svg>
