<svg width="24" height="24" viewBox="0 0 24 24" fill="none" xmlns="http://www.w3.org/2000/svg">
<path d="M15.7501 3.75C15.7008 3.74997 15.652 3.75965 15.6065 3.77849C15.561 3.79732 15.5197 3.82494 15.4848 3.85977C15.45 3.8946 15.4224 3.93595 15.4036 3.98146C15.3847 4.02697 15.375 4.07575 15.3751 4.125V5.625C15.3751 5.72446 15.4146 5.81984 15.4849 5.89016C15.5552 5.96049 15.6506 6 15.7501 6C15.8495 6 15.9449 5.96049 16.0152 5.89016C16.0856 5.81984 16.1251 5.72446 16.1251 5.625V4.125C16.1251 4.07575 16.1154 4.02697 16.0966 3.98146C16.0777 3.93595 16.0501 3.8946 16.0153 3.85977C15.9805 3.82494 15.9391 3.79732 15.8936 3.77849C15.8481 3.75965 15.7993 3.74997 15.7501 3.75ZM14.8902 3.85988C14.8554 3.82504 14.8141 3.79741 14.7686 3.77856C14.7231 3.75971 14.6743 3.75001 14.6251 3.75001C14.5758 3.75001 14.5271 3.75971 14.4816 3.77856C14.4361 3.79741 14.3947 3.82504 14.3599 3.85988L13.8751 4.34473L13.3902 3.85985C13.3197 3.79027 13.2246 3.75139 13.1256 3.7517C13.0265 3.75201 12.9316 3.7915 12.8616 3.86153C12.7916 3.93156 12.7521 4.02645 12.7518 4.12549C12.7515 4.22452 12.7904 4.31966 12.8599 4.39012L13.3448 4.875L12.8599 5.35988C12.7903 5.43035 12.7515 5.52548 12.7518 5.62452C12.7521 5.72356 12.7916 5.81845 12.8616 5.88847C12.9316 5.9585 13.0265 5.99798 13.1256 5.99829C13.2246 5.9986 13.3197 5.95971 13.3902 5.89012L13.8751 5.40527L14.3599 5.89015C14.3947 5.92532 14.436 5.95328 14.4816 5.97242C14.5272 5.99155 14.5761 6.00148 14.6256 6.00164C14.675 6.00179 14.724 5.99217 14.7697 5.97332C14.8154 5.95447 14.8569 5.92677 14.8919 5.89181C14.9268 5.85685 14.9545 5.81532 14.9734 5.76962C14.9922 5.72391 15.0019 5.67493 15.0017 5.62549C15.0015 5.57605 14.9916 5.52713 14.9725 5.48155C14.9533 5.43596 14.9254 5.39461 14.8902 5.35988L14.4053 4.875L14.8902 4.39012C14.925 4.35531 14.9527 4.31398 14.9715 4.26849C14.9904 4.223 15.0001 4.17424 15.0001 4.125C15.0001 4.07575 14.9904 4.027 14.9715 3.98151C14.9527 3.93601 14.925 3.89468 14.8902 3.85988ZM11.5855 3.95727C11.5509 3.89917 11.5018 3.85106 11.443 3.81764C11.3842 3.78423 11.3177 3.76666 11.2501 3.76666C11.1824 3.76666 11.116 3.78423 11.0572 3.81764C10.9984 3.85106 10.9492 3.89917 10.9146 3.95727L10.1646 5.45727C10.1224 5.54596 10.1167 5.64766 10.1487 5.74052C10.1807 5.83338 10.2478 5.91 10.3356 5.95392C10.4235 5.99784 10.525 6.00556 10.6185 5.97541C10.712 5.94527 10.7899 5.87967 10.8355 5.7927L11.2501 4.96362L11.6646 5.79273C11.7103 5.87971 11.7882 5.94533 11.8817 5.97548C11.9751 6.00563 12.0767 5.99791 12.1646 5.95398C12.2524 5.91005 12.3195 5.83341 12.3515 5.74053C12.3835 5.64765 12.3777 5.54594 12.3355 5.45726L11.5855 3.95727ZM9.75007 3.75H8.25007C8.15188 3.75192 8.05836 3.79227 7.9896 3.86239C7.92084 3.93251 7.88232 4.0268 7.88232 4.12501C7.88233 4.22322 7.92085 4.31751 7.98962 4.38763C8.05838 4.45774 8.15191 4.49809 8.2501 4.5H8.62507V5.625C8.62507 5.72446 8.66458 5.81984 8.73491 5.89016C8.80523 5.96049 8.90062 6 9.00007 6C9.09953 6 9.19491 5.96049 9.26524 5.89016C9.33557 5.81984 9.37507 5.72446 9.37507 5.625V4.5H9.75007C9.84826 4.49809 9.94179 4.45774 10.0106 4.38762C10.0793 4.3175 10.1178 4.22321 10.1178 4.125C10.1178 4.02679 10.0793 3.9325 10.0106 3.86238C9.94179 3.79226 9.84826 3.75191 9.75007 3.75Z" fill="#248FEC"/>
<path d="M22.5 9.75H19.3953L18.0084 7.60657C17.8555 7.37158 17.6518 7.17396 17.4122 7.02832C17.5501 6.83836 17.6246 6.60974 17.625 6.375V3.375C17.6247 3.07673 17.506 2.79077 17.2951 2.57986C17.0842 2.36896 16.7983 2.25033 16.5 2.25H7.5C7.20174 2.25033 6.91578 2.36896 6.70487 2.57986C6.49396 2.79077 6.37533 3.07673 6.375 3.375V6.375C6.37543 6.60974 6.4499 6.83836 6.58779 7.02832C6.34824 7.17397 6.14448 7.37159 5.99158 7.60657L4.60469 9.75H1.5C1.30117 9.75026 1.11055 9.82936 0.969958 9.96995C0.829362 10.1106 0.750261 10.3012 0.750003 10.5V11.3324C0.7495 11.4999 0.805299 11.6627 0.90844 11.7947C1.01158 11.9266 1.15608 12.0201 1.31873 12.0601L2.86035 12.4459L2.31006 13.2964C2.29758 13.3194 2.28805 13.3434 2.2768 13.3671C2.26074 13.4079 2.252 13.4512 2.25101 13.495C2.25 13.5 2.25 16.1941 2.25 16.1941C2.03128 16.2711 1.84177 16.414 1.70748 16.6031C1.57319 16.7921 1.50072 17.0181 1.5 17.25V18.375C1.50033 18.6733 1.61896 18.9592 1.82987 19.1701C2.04078 19.381 2.32673 19.4997 2.625 19.5H3.75V20.625C3.75033 20.9233 3.86896 21.2092 4.07987 21.4201C4.29078 21.631 4.57673 21.7497 4.875 21.75H7.875C8.17327 21.7497 8.45923 21.631 8.67014 21.4201C8.88105 21.2092 8.99968 20.9233 9 20.625V19.5H15V20.625C15.0003 20.9233 15.119 21.2092 15.3299 21.4201C15.5408 21.631 15.8267 21.7497 16.125 21.75H19.125C19.4233 21.7497 19.7092 21.631 19.9201 21.4201C20.131 21.2092 20.2497 20.9233 20.25 20.625V19.5H21.375C21.6733 19.4997 21.9592 19.381 22.1701 19.1701C22.381 18.9592 22.4997 18.6733 22.5 18.375V17.25C22.4993 17.0181 22.4268 16.7921 22.2925 16.6031C22.1582 16.414 21.9687 16.2711 21.75 16.1941V13.5C21.7487 13.4545 21.7396 13.4096 21.7232 13.3672C21.712 13.3434 21.7024 13.3195 21.6899 13.2964L21.1397 12.4459L22.6794 12.0608C22.8425 12.021 22.9874 11.9275 23.0908 11.7954C23.1943 11.6633 23.2504 11.5002 23.25 11.3324V10.5C23.2497 10.3012 23.1706 10.1106 23.03 9.96995C22.8895 9.82936 22.6988 9.75026 22.5 9.75ZM7.5 6.75C7.40057 6.74993 7.30522 6.7104 7.23491 6.64009C7.1646 6.56978 7.12507 6.47444 7.125 6.375V3.375C7.12507 3.27556 7.1646 3.18022 7.23491 3.10991C7.30522 3.0396 7.40057 3.00007 7.5 3H16.5C16.5994 3.00007 16.6948 3.0396 16.7651 3.10991C16.8354 3.18022 16.8749 3.27556 16.875 3.375V6.375C16.8749 6.47444 16.8354 6.56978 16.7651 6.64009C16.6948 6.7104 16.5994 6.74993 16.5 6.75H7.5ZM6.62146 8.01379C6.72321 7.85585 6.86302 7.72602 7.02806 7.63624C7.19309 7.54646 7.37805 7.49961 7.56592 7.5H16.4341C16.622 7.49961 16.8069 7.54646 16.972 7.63624C17.137 7.72602 17.2768 7.85585 17.3785 8.01379C17.6848 8.48309 20.4631 12.7838 20.6858 13.125H3.31421C3.52883 12.7933 6.33048 8.4635 6.62146 8.01379ZM21 16.125H3V13.875H21V16.125ZM9.375 16.875H14.625V17.25C14.6249 17.3494 14.5854 17.4448 14.5151 17.5151C14.4448 17.5854 14.3494 17.6249 14.25 17.625H9.75C9.65057 17.6249 9.55522 17.5854 9.48491 17.5151C9.4146 17.4448 9.37507 17.3494 9.375 17.25V16.875ZM1.5 11.3324V10.5H4.11942L3.2908 11.7807L1.5 11.3324ZM8.25 20.625C8.24994 20.7244 8.21041 20.8198 8.1401 20.8901C8.06978 20.9604 7.97444 20.9999 7.875 21H4.875C4.77557 20.9999 4.68022 20.9604 4.60991 20.8901C4.5396 20.8198 4.50007 20.7244 4.5 20.625V19.5H8.25V20.625ZM19.5 20.625C19.4999 20.7244 19.4604 20.8198 19.3901 20.8901C19.3198 20.9604 19.2244 20.9999 19.125 21H16.125C16.0256 20.9999 15.9302 20.9604 15.8599 20.8901C15.7896 20.8198 15.7501 20.7244 15.75 20.625V19.5H19.5V20.625ZM21.75 18.375C21.7499 18.4744 21.7104 18.5698 21.6401 18.6401C21.5698 18.7104 21.4744 18.7499 21.375 18.75H2.625C2.52557 18.7499 2.43022 18.7104 2.35991 18.6401C2.2896 18.5698 2.25007 18.4744 2.25 18.375V17.25C2.25007 17.1506 2.2896 17.0552 2.35991 16.9849C2.43022 16.9146 2.52557 16.8751 2.625 16.875H8.625V17.25C8.62533 17.5483 8.74396 17.8342 8.95487 18.0451C9.16578 18.256 9.45173 18.3747 9.75 18.375H14.25C14.5483 18.3747 14.8342 18.256 15.0451 18.0451C15.256 17.8342 15.3747 17.5483 15.375 17.25V16.875H21.375C21.4744 16.8751 21.5698 16.9146 21.6401 16.9849C21.7104 17.0552 21.7499 17.1506 21.75 17.25V18.375ZM22.4989 11.3328L20.7092 11.7807L19.8806 10.5H22.5L22.4989 11.3328Z" fill="#248FEC"/>
<path d="M4.50009 15.375H6.00009C6.09828 15.3731 6.1918 15.3327 6.26056 15.2626C6.32932 15.1925 6.36784 15.0982 6.36783 15C6.36783 14.9018 6.32931 14.8075 6.26054 14.7374C6.19178 14.6673 6.09825 14.6269 6.00006 14.625H4.50009C4.40189 14.6269 4.30837 14.6673 4.23961 14.7374C4.17084 14.8075 4.13232 14.9018 4.13232 15C4.13232 15.0982 4.17084 15.1925 4.23961 15.2626C4.30837 15.3327 4.40189 15.3731 4.50009 15.375ZM18.0001 15.375H19.5001C19.5983 15.3731 19.6918 15.3327 19.7606 15.2626C19.8293 15.1925 19.8678 15.0982 19.8678 15C19.8678 14.9018 19.8293 14.8075 19.7605 14.7374C19.6918 14.6673 19.5983 14.6269 19.5001 14.625H18.0001C17.9019 14.6269 17.8084 14.6673 17.7396 14.7374C17.6708 14.8075 17.6323 14.9018 17.6323 15C17.6323 15.0982 17.6708 15.1925 17.7396 15.2626C17.8084 15.3327 17.9019 15.3731 18.0001 15.375Z" fill="#248FEC"/>
</svg>
